<svg width="NaN" height="NaN" xmlns="http://www.w3.org/2000/svg" xmlns:xlink="http://www.w3.org/1999/xlink" version="1.1" baseProfile="full" viewBox="0 0 NaN NaN">
<rect width="NaN" height="NaN" x="0" y="0" id="0" fill="#ffffff"></rect>
<path d="" fill="none" stroke="#E0E6F1"></path>
<path d="" fill="none" stroke="#E0E6F1"></path>
<path d="" fill="none" stroke="#E0E6F1"></path>
<path d="" fill="none" stroke="#E0E6F1"></path>
<path d="" fill="none" stroke="#E0E6F1"></path>
<path d="" fill="none" stroke="#E0E6F1"></path>
<path d="" fill="none" stroke="#6E7079" stroke-linecap="round"></path>
<path d="" fill="none" stroke="#6E7079"></path>
<text dominant-baseline="central" text-anchor="end" style="font-size:12px;font-family:sans-serif;" fill="#6E7079">30</text>
<text dominant-baseline="central" text-anchor="end" style="font-size:12px;font-family:sans-serif;" fill="#6E7079">60</text>
<text dominant-baseline="central" text-anchor="end" style="font-size:12px;font-family:sans-serif;" fill="#6E7079">90</text>
<text dominant-baseline="central" text-anchor="end" style="font-size:12px;font-family:sans-serif;" fill="#6E7079">120</text>
<text dominant-baseline="central" text-anchor="start" style="font-size:12px;font-family:sans-serif;" fill="#6E7079">30</text>
<text dominant-baseline="central" text-anchor="start" style="font-size:12px;font-family:sans-serif;" fill="#6E7079">60</text>
<text dominant-baseline="central" text-anchor="start" style="font-size:12px;font-family:sans-serif;" fill="#6E7079">90</text>
<text dominant-baseline="central" text-anchor="start" style="font-size:12px;font-family:sans-serif;" fill="#6E7079">120</text>
<text dominant-baseline="central" text-anchor="middle" style="font-size:12px;font-family:sans-serif;" y="6" transform="translate(28.16 NaN)" fill="#6E7079">1km</text>
<path d="M-5 -5l226.9 0l0 24l-226.9 0Z" transform="translate(5 5)" fill="rgb(0,0,0)" fill-opacity="0" stroke="#ccc" stroke-width="0"></path>
<path d="M3.5 0L21.5 0A3.5 3.5 0 0 1 25 3.5L25 10.5A3.5 3.5 0 0 1 21.5 14L3.5 14A3.5 3.5 0 0 1 0 10.5L0 3.5A3.5 3.5 0 0 1 3.5 0" transform="translate(5 5)" fill="rgb(227,73,2)" fill-opacity="0.3"></path>
<text dominant-baseline="central" text-anchor="start" style="font-size:12px;font-family:sans-serif;" xml:space="preserve" x="30" y="7" transform="translate(5 5)" fill="#333">Times completed</text>
<path d="M0 7L25 7" transform="translate(137.56 5)" fill="#000" stroke="#E34902" stroke-width="2" stroke-linecap="butt" stroke-miterlimit="10"></path>
<path d="M18.1 7A5.6 5.6 0 1 1 18.1 6.4A5.6 5.6 0 0 1 18.1 7" transform="translate(137.56 5)" fill="#fff" stroke="#E34902" stroke-width="2" stroke-linecap="butt" stroke-miterlimit="10"></path>
<text dominant-baseline="central" text-anchor="start" style="font-size:12px;font-family:sans-serif;" x="30" y="7" transform="translate(137.56 5)" fill="#333">Eddington</text>
<g clip-path="url(#zr1-c0)">
<path d="" fill="none" stroke="#E34902" stroke-width="2" stroke-linejoin="bevel"></path>
</g>
<defs >
<clipPath id="zr1-c0">
<path d="" fill="#000"></path>
</clipPath>
</defs>
</svg>