<svg width="1000" height="400" xmlns="http://www.w3.org/2000/svg" xmlns:xlink="http://www.w3.org/1999/xlink" version="1.1" baseProfile="full" viewBox="0 0 1000 400">
<rect width="1000" height="400" x="0" y="0" id="0" fill="#ffffff"></rect>
<path d="M68.2 368.5L960 368.5" fill="none" stroke="#E0E6F1"></path>
<path d="M68.2 316.5L960 316.5" fill="none" stroke="#E0E6F1"></path>
<path d="M68.2 265.5L960 265.5" fill="none" stroke="#E0E6F1"></path>
<path d="M68.2 214.5L960 214.5" fill="none" stroke="#E0E6F1"></path>
<path d="M68.2 162.5L960 162.5" fill="none" stroke="#E0E6F1"></path>
<path d="M68.2 111.5L960 111.5" fill="none" stroke="#E0E6F1"></path>
<path d="M68.2 60.5L960 60.5" fill="none" stroke="#E0E6F1"></path>
<text dominant-baseline="central" text-anchor="middle" style="font-size:12px;font-family:sans-serif;" xml:space="preserve" y="-6" transform="matrix(0,-1,1,0,18.16,214)" fill="#6E7079">Hours of riding</text>
<path d="M68.2 368.5L960 368.5" fill="none" stroke="#6E7079" stroke-linecap="round"></path>
<text dominant-baseline="central" text-anchor="end" style="font-size:12px;font-family:sans-serif;" transform="translate(60.16 368)" fill="#6E7079">0</text>
<text dominant-baseline="central" text-anchor="end" style="font-size:12px;font-family:sans-serif;" transform="translate(60.16 316.6667)" fill="#6E7079">50</text>
<text dominant-baseline="central" text-anchor="end" style="font-size:12px;font-family:sans-serif;" transform="translate(60.16 265.3333)" fill="#6E7079">100</text>
<text dominant-baseline="central" text-anchor="end" style="font-size:12px;font-family:sans-serif;" transform="translate(60.16 214)" fill="#6E7079">150</text>
<text dominant-baseline="central" text-anchor="end" style="font-size:12px;font-family:sans-serif;" transform="translate(60.16 162.6667)" fill="#6E7079">200</text>
<text dominant-baseline="central" text-anchor="end" style="font-size:12px;font-family:sans-serif;" transform="translate(60.16 111.3333)" fill="#6E7079">250</text>
<text dominant-baseline="central" text-anchor="end" style="font-size:12px;font-family:sans-serif;" transform="translate(60.16 60)" fill="#6E7079">300</text>
<text dominant-baseline="central" text-anchor="middle" style="font-size:12px;font-family:sans-serif;" y="6" transform="translate(69.3587 376)" fill="#6E7079">Jan</text>
<text dominant-baseline="central" text-anchor="middle" style="font-size:12px;font-family:sans-serif;" y="6" transform="translate(146.0761 376)" fill="#6E7079">Feb</text>
<text dominant-baseline="central" text-anchor="middle" style="font-size:12px;font-family:sans-serif;" y="6" transform="translate(222.7935 376)" fill="#6E7079">Mar</text>
<text dominant-baseline="central" text-anchor="middle" style="font-size:12px;font-family:sans-serif;" y="6" transform="translate(299.511 376)" fill="#6E7079">Apr</text>
<text dominant-baseline="central" text-anchor="middle" style="font-size:12px;font-family:sans-serif;" y="6" transform="translate(376.2284 376)" fill="#6E7079">May</text>
<text dominant-baseline="central" text-anchor="middle" style="font-size:12px;font-family:sans-serif;" y="6" transform="translate(452.9458 376)" fill="#6E7079">Jun</text>
<text dominant-baseline="central" text-anchor="middle" style="font-size:12px;font-family:sans-serif;" y="6" transform="translate(529.6632 376)" fill="#6E7079">Jul</text>
<text dominant-baseline="central" text-anchor="middle" style="font-size:12px;font-family:sans-serif;" y="6" transform="translate(606.3806 376)" fill="#6E7079">Aug</text>
<text dominant-baseline="central" text-anchor="middle" style="font-size:12px;font-family:sans-serif;" y="6" transform="translate(683.0981 376)" fill="#6E7079">Sep</text>
<text dominant-baseline="central" text-anchor="middle" style="font-size:12px;font-family:sans-serif;" y="6" transform="translate(759.8155 376)" fill="#6E7079">Oct</text>
<text dominant-baseline="central" text-anchor="middle" style="font-size:12px;font-family:sans-serif;" y="6" transform="translate(836.5329 376)" fill="#6E7079">Nov</text>
<text dominant-baseline="central" text-anchor="middle" style="font-size:12px;font-family:sans-serif;" y="6" transform="translate(913.2503 376)" fill="#6E7079">Dec</text>
<g clip-path="url(#zr4-c0)">
<path d="M69.4 368C69.4 368 70.5 367 71.8 367C72.9 367 73 367 74.2 367C75.4 367 75.4 366.5 76.6 365.9C77.7 365.4 77.7 365.4 78.9 364.9C80.1 364.4 80.1 364.4 81.3 363.9C82.5 363.4 82.5 363.4 83.7 362.9C84.9 362.4 85.1 362.5 86.1 361.8C87.5 361 87.2 360.6 88.5 359.8C89.6 359.1 90.9 358.8 90.9 358.8" fill="none" stroke="#5470c6" stroke-width="2" stroke-linejoin="bevel"></path>
</g>
<g clip-path="url(#zr4-c1)">
<path d="M69.4 368C69.4 368 70.6 368 71.8 368C73 368 73 368 74.2 368C75.4 368 75.4 368 76.6 368C77.7 368 77.7 368 78.9 368C80.1 368 80.1 368 81.3 368C82.5 368 82.5 368 83.7 368C84.9 368 84.9 368 86.1 368C87.3 368 87.3 368 88.5 368C89.7 368 89.7 368 90.9 368C92.1 368 92.1 368 93.3 368C94.5 368 94.5 368 95.7 368C96.9 368 96.9 368 98.1 368C99.3 368 99.3 368 100.5 368C101.7 368 101.7 368 102.9 368C104.1 368 104.1 368 105.3 368C106.5 368 106.5 368 107.7 368C108.9 368 108.9 368 110.1 368C111.3 368 111.3 368 112.5 368C113.7 368 113.7 368 114.9 368C116.1 368 116.1 368 117.3 368C118.5 368 118.5 368 119.7 368C120.9 368 120.9 368 122.1 368C123.3 368 123.3 368 124.5 368C125.7 368 125.7 368 126.9 368C128.1 368 128.1 368 129.3 368C130.5 368 130.5 368 131.7 368C132.9 368 132.9 368 134.1 368C135.3 368 135.3 368 136.5 368C137.7 368 137.7 368 138.9 368C140.1 368 140.1 368 141.3 368C142.5 368 142.5 368 143.7 368C144.9 368 144.9 368 146.1 368C147.3 368 147.3 368 148.5 368C149.7 368 149.7 368 150.9 368C152.1 368 152.1 368 153.3 368C154.5 368 154.5 368 155.7 368C156.9 368 156.9 368 158.1 368C159.3 368 159.3 368 160.5 368C161.7 368 161.7 368 162.9 368C164.1 368 164.1 368 165.3 368C166.5 368 166.5 368 167.7 368C168.9 368 168.9 368 170.1 368C171.2 368 171.2 368 172.4 368C173.6 368 173.6 368 174.8 368C176 368 176 368 177.2 368C178.4 368 178.4 368 179.6 368C180.8 368 180.8 368 182 368C183.2 368 183.2 368 184.4 368C185.6 368 185.6 368 186.8 368C188 368 188 368 189.2 368C190.4 368 190.4 368 191.6 368C192.8 368 192.8 368 194 368C195.2 368 195.2 368 196.4 368C197.6 368 197.6 368 198.8 368C200 368 200 368 201.2 368C202.4 368 202.4 368 203.6 368C204.8 368 204.8 368 206 368C207.2 368 207.2 368 208.4 368C209.6 368 209.6 368 210.8 368C212 368 212 368 213.2 368C214.4 368 214.4 368 215.6 368C216.8 368 216.8 368 218 368C219.2 368 219.2 368 220.4 368C221.6 368 221.6 368 222.8 368C224 368 224 368 225.2 368C226.4 368 226.4 368 227.6 368C228.8 368 228.8 368 230 368C231.2 368 231.2 368 232.4 368C233.6 368 233.6 368 234.8 368C236 368 236 368 237.2 368C238.4 368 238.4 368 239.6 368C240.8 368 240.8 368 242 368C243.2 368 243.2 368 244.4 368C245.6 368 245.6 368 246.8 368C248 368 248 368 249.2 368C250.4 368 250.4 368 251.6 368C252.8 368 252.8 368 254 368C255.2 368 255.2 368 256.4 368C257.6 368 257.6 368 258.8 368C260 368 260 368 261.2 368C262.4 368 262.4 368 263.5 368C264.7 368 264.7 368 265.9 368C267.1 368 267.1 368 268.3 368C269.5 368 269.5 368 270.7 368C271.9 368 271.9 368 273.1 368C274.3 368 274.3 368 275.5 368C276.7 368 276.8 368 277.9 368C279.2 368 279.1 367 280.3 367C281.5 367 281.5 367 282.7 367C283.9 367 283.9 367 285.1 367C286.3 367 286.3 367 287.5 367C288.7 367 288.7 367 289.9 367C291.1 367 291.1 367 292.3 367C293.5 367 293.5 367 294.7 367C295.9 367 296 367 297.1 367C298.4 367 298.3 366.5 299.5 365.9C300.7 365.4 300.7 365.4 301.9 364.9C303.1 364.4 303.1 364.4 304.3 363.9C305.5 363.4 305.5 362.9 306.7 362.9C307.9 362.9 308 362.9 309.1 362.9C310.3 362.9 310.2 361.8 311.5 361.8C312.6 361.8 312.7 361.8 313.9 361.8C315.1 361.8 315.1 361.3 316.3 360.8C317.5 360.3 317.5 360.3 318.7 359.8C319.9 359.3 320 359.5 321.1 358.8C322.4 357.9 322.1 356.7 323.5 356.7C324.5 356.7 324.7 356.7 325.9 356.7C327.1 356.7 327 355.7 328.3 355.7C329.4 355.7 329.5 355.7 330.7 355.7C331.9 355.7 332 355.7 333.1 355.7C334.4 355.7 334.1 353.6 335.5 353.6C336.5 353.6 336.7 353.6 337.9 353.6C339.1 353.6 339 352.6 340.3 352.6C341.4 352.6 341.5 352.6 342.7 352.6C343.9 352.6 343.9 352.6 345.1 352.6C346.3 352.6 346.4 352.6 347.5 352.6C348.8 352.6 348.5 351.4 349.9 350.5C350.9 349.8 351.1 350 352.3 349.5C353.5 349 353.4 348.5 354.7 348.5C355.8 348.5 355.9 348.5 357 348.5C358.3 348.5 358.2 348 359.4 347.5C360.6 347 360.6 347 361.8 346.4C363 345.9 363.2 346.1 364.2 345.4C365.6 344.6 365.3 343.4 366.6 343.4C367.7 343.4 368 343.4 369 343.4C370.4 343.4 370.1 341.3 371.4 341.3C372.5 341.3 372.7 341.3 373.8 341.3C375.1 341.3 375.1 341 376.2 340.3C377.5 339.4 377.3 338.2 378.6 338.2C379.7 338.2 379.9 338.2 381 338.2C382.3 338.2 382.2 337.7 383.4 337.2C384.6 336.7 384.6 336.2 385.8 336.2C387 336.2 387.2 336.2 388.2 336.2C389.6 336.2 389.3 335 390.6 334.1C391.7 333.4 391.9 333.8 393 333.1C394.3 332.3 394 331 395.4 331C396.4 331 396.8 331 397.8 331C399.2 331 398.8 329 400.2 329C401.2 329 401.5 329 402.6 329C403.8 329 403.7 328 405 328C406.1 328 406.2 328 407.4 328C408.6 328 408.8 328 409.8 328C411.2 328 410.9 326.7 412.2 325.9C413.3 325.2 413.4 325.4 414.6 324.9C415.8 324.4 415.7 323.9 417 323.9C418.1 323.9 418.2 323.9 419.4 323.9C420.6 323.9 420.6 323.9 421.8 323.9C423 323.9 422.9 322.8 424.2 322.8C425.3 322.8 425.4 322.8 426.6 322.8C427.8 322.8 427.9 322.5 429 321.8C430.3 321 430.1 320.6 431.4 319.7C432.5 319 432.5 318.7 433.8 318.7C434.9 318.7 435.1 318.7 436.2 318.7C437.5 318.7 437.2 317.5 438.6 316.7C439.6 316 439.7 315.6 441 315.6C442.1 315.6 442.4 315.6 443.4 315.6C444.8 315.6 444.3 312.6 445.8 312.6C446.7 312.6 447 312.6 448.2 312.6C449.4 312.6 449.3 312 450.5 311.5C451.7 311 451.9 311.2 452.9 310.5C454.3 309.7 454 309.3 455.3 308.5C456.4 307.8 456.5 307.9 457.7 307.4C458.9 306.9 458.9 306.9 460.1 306.4C461.3 305.9 461.5 306.1 462.5 305.4C463.8 304.5 463.6 303.3 464.9 303.3C466 303.3 466.3 303.3 467.3 303.3C468.7 303.3 468.5 302.3 469.7 301.3C470.9 300.2 470.8 300.1 472.1 299.2C473.2 298.5 473.3 298.2 474.5 298.2C475.7 298.2 475.9 298.2 476.9 298.2C478.3 298.2 478 297 479.3 296.1C480.4 295.4 480.5 295.1 481.7 295.1C482.9 295.1 483 295.1 484.1 295.1C485.4 295.1 485.5 294.9 486.5 294.1C487.9 292.8 487.5 292.2 488.9 291C489.9 290.2 490.1 290 491.3 290C492.5 290 492.5 290 493.7 290C494.9 290 495.1 290 496.1 290C497.5 290 497.2 288.8 498.5 287.9C499.6 287.2 499.9 287.7 500.9 286.9C502.3 285.7 501.8 283.8 503.3 283.8C504.2 283.8 504.7 283.8 505.7 283.8C507.1 283.8 506.8 282.6 508.1 281.8C509.2 281.1 509.3 281.2 510.5 280.7C511.7 280.2 511.8 280.4 512.9 279.7C514.2 278.9 514 278.5 515.3 277.7C516.4 277 516.4 276.6 517.7 276.6C518.8 276.6 518.9 276.6 520.1 276.6C521.3 276.6 521.3 276.1 522.5 275.6C523.7 275.1 523.6 274.6 524.9 274.6C526 274.6 526.2 274.6 527.3 274.6C528.6 274.6 528.4 273.4 529.7 272.5C530.7 271.8 530.9 272 532.1 271.5C533.3 271 533.3 271 534.5 270.5C535.7 270 535.8 270.1 536.9 269.4C538.2 268.6 538.1 268.4 539.3 267.4C540.5 266.4 540.3 265.3 541.7 265.3C542.7 265.3 543 265.3 544 265.3C545.4 265.3 545.1 263.3 546.4 263.3C547.5 263.3 547.6 263.3 548.8 263.3C550 263.3 550.1 263.3 551.2 263.3C552.5 263.3 552.4 262.8 553.6 262.3C554.8 261.7 555.1 262 556 261.2C557.5 260 556.9 258.1 558.4 258.1C559.3 258.1 560 258.1 560.8 258.1C562.4 258.1 561.7 255.7 563.2 254C564.1 253.1 564.4 253 565.6 253C566.8 253 567 253 568 253C569.4 253 569.1 251.8 570.4 251C571.5 250.3 571.9 250.8 572.8 249.9C574.3 248.7 573.8 248.1 575.2 246.9C576.2 246 576.4 245.8 577.6 245.8C578.8 245.8 579 245.8 580 245.8C581.4 245.8 581 243.8 582.4 243.8C583.4 243.8 583.8 243.8 584.8 243.8C586.2 243.8 585.9 242.6 587.2 241.7C588.3 241 588.4 241.2 589.6 240.7C590.8 240.2 590.7 239.7 592 239.7C593.1 239.7 593.2 239.7 594.4 239.7C595.6 239.7 595.6 239.2 596.8 238.6C598 238.1 597.9 237.6 599.2 237.6C600.3 237.6 600.4 237.6 601.6 237.6C602.8 237.6 602.9 237.6 604 237.6C605.3 237.6 605.2 236.6 606.4 235.6C607.6 234.5 607.5 234.3 608.8 233.5C609.9 232.8 610.2 233.3 611.2 232.5C612.6 231.2 612.1 229.4 613.6 229.4C614.5 229.4 615.1 229.4 616 229.4C617.5 229.4 616.9 226.3 618.4 226.3C619.3 226.3 619.6 226.3 620.8 226.3C622 226.3 622.1 226 623.2 225.3C624.5 224.5 624.4 224.3 625.6 223.2C626.8 222.2 626.6 221.2 628 221.2C629 221.2 629.2 221.2 630.4 221.2C631.6 221.2 631.7 220.9 632.8 220.2C634.1 219.3 633.8 218.9 635.1 218.1C636.2 217.4 636.3 217.6 637.5 217.1C638.7 216.6 638.7 216.6 639.9 216.1C641.1 215.5 641.1 215 642.3 215C643.5 215 643.7 215 644.7 215C646.1 215 645.8 213.8 647.1 213C648.2 212.3 648.3 211.9 649.5 211.9C650.7 211.9 650.9 211.9 651.9 211.9C653.3 211.9 653 210.7 654.3 209.9C655.4 209.2 655.5 209.4 656.7 208.9C657.9 208.4 657.9 208.4 659.1 207.8C660.3 207.3 660.3 207.3 661.5 206.8C662.7 206.3 662.7 206.3 663.9 205.8C665.1 205.3 665.2 205.5 666.3 204.8C667.6 203.9 667.4 203.5 668.7 202.7C669.8 202 670 202.4 671.1 201.7C672.4 200.8 672.2 200.5 673.5 199.6C674.6 198.9 674.7 199.1 675.9 198.6C677.1 198.1 677.1 197.6 678.3 197.6C679.5 197.6 679.5 197.6 680.7 197.6C681.9 197.6 682.2 197.6 683.1 197.6C684.6 197.6 684.2 195.9 685.5 194.5C686.6 193.3 686.5 192.4 687.9 192.4C688.9 192.4 689.5 192.4 690.3 192.4C691.9 192.4 691.1 188.3 692.7 188.3C693.5 188.3 693.9 188.3 695.1 188.3C696.3 188.3 696.2 187.3 697.5 187.3C698.6 187.3 698.8 187.3 699.9 187.3C701.2 187.3 701.1 186.3 702.3 185.3C703.5 184.2 703.4 184 704.7 183.2C705.8 182.5 705.8 182.2 707.1 182.2C708.2 182.2 708.3 182.2 709.5 182.2C710.7 182.2 710.8 181.8 711.9 181.1C713.2 180.3 713 179.9 714.3 179.1C715.3 178.4 715.6 178.8 716.7 178.1C718 177.2 717.7 176.9 719.1 176C720.1 175.3 720.3 175.5 721.5 175C722.7 174.5 722.7 174.5 723.9 174C725.1 173.4 725.2 173.6 726.3 172.9C727.6 172.1 727.3 170.9 728.6 170.9C729.7 170.9 729.8 170.9 731 170.9C732.2 170.9 732.3 170.9 733.4 170.9C734.7 170.9 734.6 170.4 735.8 169.9C737 169.3 737 168.8 738.2 168.8C739.4 168.8 739.5 168.8 740.6 168.8C741.9 168.8 741.8 168.3 743 167.8C744.2 167.3 744.3 167.5 745.4 166.8C746.7 165.9 746.5 165.6 747.8 164.7C748.9 164 749 164.2 750.2 163.7C751.4 163.2 751.4 162.7 752.6 162.7C753.8 162.7 753.9 162.7 755 162.7C756.3 162.7 756.3 162.3 757.4 161.6C758.7 160.8 758.5 160.4 759.8 159.6C760.9 158.9 761 158.6 762.2 158.6C763.4 158.6 763.6 158.6 764.6 158.6C766 158.6 765.7 157.3 767 156.5C768.1 155.8 768.2 156 769.4 155.5C770.6 155 770.6 154.5 771.8 154.5C773 154.5 773.2 154.5 774.2 154.5C775.6 154.5 775.3 153.2 776.6 152.4C777.7 151.7 777.8 151.9 779 151.4C780.2 150.9 780.2 150.9 781.4 150.3C782.6 149.8 782.6 149.8 783.8 149.3C785 148.8 785 148.8 786.2 148.3C787.4 147.8 787.4 147.8 788.6 147.3C789.8 146.8 789.8 146.8 791 146.2C792.2 145.7 792.2 145.7 793.4 145.2C794.6 144.7 794.6 144.7 795.8 144.2C797 143.7 797.1 143.9 798.2 143.2C799.5 142.3 799.4 142.1 800.6 141.1C801.8 140.1 801.6 139.1 803 139.1C804 139.1 804.2 139.1 805.4 139.1C806.6 139.1 806.5 138 807.8 138C808.9 138 809 138 810.2 138C811.4 138 811.4 137.5 812.6 137C813.8 136.5 813.9 136.7 815 136C816.3 135.1 816 134.8 817.4 133.9C818.4 133.2 818.6 133.4 819.8 132.9C820.9 132.4 820.9 132.4 822.1 131.9C823.3 131.4 823.3 130.8 824.5 130.8C825.7 130.8 825.9 130.8 826.9 130.8C828.3 130.8 828 129.6 829.3 128.8C830.4 128.1 830.5 127.8 831.7 127.8C832.9 127.8 833.1 127.8 834.1 127.8C835.5 127.8 835.2 125.7 836.5 125.7C837.6 125.7 837.7 125.7 838.9 125.7C840.1 125.7 840.2 125.7 841.3 125.7C842.6 125.7 842.5 125.2 843.7 124.7C844.9 124.2 844.9 123.7 846.1 123.7C847.3 123.7 847.4 123.7 848.5 123.7C849.8 123.7 849.7 123.1 850.9 122.6C852.1 122.1 852.1 122.1 853.3 121.6C854.5 121.1 854.5 120.6 855.7 120.6C856.9 120.6 856.9 120.6 858.1 120.6C859.3 120.6 859.4 120.6 860.5 120.6C861.8 120.6 861.7 120.1 862.9 119.5C864.1 119 864.1 119 865.3 118.5C866.5 118 866.5 118 867.7 117.5C868.9 117 868.9 117 870.1 116.5C871.3 116 871.4 116.1 872.5 115.4C873.8 114.6 873.5 113.4 874.9 113.4C875.9 113.4 876.1 113.4 877.3 113.4C878.5 113.4 878.6 113.1 879.7 112.4C881 111.5 880.8 111.1 882.1 110.3C883.2 109.6 883.4 110 884.5 109.3C885.8 108.4 885.7 108.3 886.9 107.2C888.1 106.2 887.9 105.2 889.3 105.2C890.3 105.2 890.5 105.2 891.7 105.2C892.9 105.2 893 105.2 894.1 105.2C895.4 105.2 895.2 104 896.5 103.1C897.6 102.4 897.7 102.6 898.9 102.1C900.1 101.6 900.2 101.8 901.3 101.1C902.6 100.2 902.3 99.9 903.7 99C904.7 98.3 905 98.7 906.1 98C907.4 97.1 907.1 96.8 908.5 95.9C909.5 95.2 909.7 95.4 910.9 94.9C912.1 94.4 912.2 94.6 913.3 93.9C914.6 93 914.4 92.9 915.6 91.8C916.8 90.8 916.8 90.8 918 89.8C919.2 88.7 919.1 87.7 920.4 87.7C921.5 87.7 921.6 87.7 922.8 87.7C924 87.7 924.2 87.7 925.2 87.7C926.6 87.7 926.3 86.5 927.6 85.7C928.7 85 928.8 85.2 930 84.6C931.2 84.1 931.8 84.6 932.4 83.6C934.1 81 933.1 80 934.8 77.5C935.5 76.4 936 76.4 937.2 76.4C938.4 76.4 938.6 76.4 939.6 76.4C941 76.4 940.8 75.4 942 74.4C943.2 73.3 943.3 73.5 944.4 72.3C945.7 70.9 945.5 70.7 946.8 69.2C947.9 68.1 947.9 68 949.2 67.2C950.3 66.5 950.6 67 951.6 66.2C953 64.9 952.7 64.5 954 63.1C955.1 61.9 955.1 61.9 956.4 61C957.5 60.3 958.8 60 958.8 60" fill="none" stroke="#91cc75" stroke-width="2" stroke-linejoin="bevel"></path>
</g>
<path d="M-5 -5l135.8 0l0 23.2l-135.8 0Z" transform="translate(437.12 5)" fill="rgb(0,0,0)" fill-opacity="0" stroke="#ccc" stroke-width="0"></path>
<path d="M0 7L25 7" transform="translate(438.12 4.6)" fill="#000" stroke="#5470c6" stroke-width="2" stroke-linecap="butt" stroke-miterlimit="10"></path>
<path d="M18.1 7A5.6 5.6 0 1 1 18.1 6.4A5.6 5.6 0 0 1 18.1 7" transform="translate(438.12 4.6)" fill="#fff" stroke="#5470c6" stroke-width="2" stroke-linecap="butt" stroke-miterlimit="10"></path>
<text dominant-baseline="central" text-anchor="start" style="font-size:12px;font-family:sans-serif;" x="30" y="7" transform="translate(438.12 4.6)" fill="#333">2024</text>
<path d="M0 7L25 7" transform="translate(506 4.6)" fill="#000" stroke="#91cc75" stroke-width="2" stroke-linecap="butt" stroke-miterlimit="10"></path>
<path d="M18.1 7A5.6 5.6 0 1 1 18.1 6.4A5.6 5.6 0 0 1 18.1 7" transform="translate(506 4.6)" fill="#fff" stroke="#91cc75" stroke-width="2" stroke-linecap="butt" stroke-miterlimit="10"></path>
<text dominant-baseline="central" text-anchor="start" style="font-size:12px;font-family:sans-serif;" x="30" y="7" transform="translate(506 4.6)" fill="#333">2023</text>
<defs >
<clipPath id="zr4-c0">
<path d="M67 59l894 0l0 310l-894 0Z" fill="#000"></path>
</clipPath>
<clipPath id="zr4-c1">
<path d="M67 59l894 0l0 310l-894 0Z" fill="#000"></path>
</clipPath>
</defs>
</svg>