<svg width="1000" height="300" xmlns="http://www.w3.org/2000/svg" xmlns:xlink="http://www.w3.org/1999/xlink" version="1.1" baseProfile="full" viewBox="0 0 1000 300">
<rect width="1000" height="300" x="0" y="0" id="0" fill="#ffffff"></rect>
<path d="M58.2 271.5L931.8 271.5" fill="none" stroke="#E0E6F1"></path>
<path d="M58.2 210.5L931.8 210.5" fill="none" stroke="#E0E6F1"></path>
<path d="M58.2 150.5L931.8 150.5" fill="none" stroke="#E0E6F1"></path>
<path d="M58.2 90.5L931.8 90.5" fill="none" stroke="#E0E6F1"></path>
<path d="M58.2 60.5L931.8 60.5" fill="none" stroke="#E0E6F1"></path>
<path d="M58.2 271.5L931.8 271.5" fill="none" stroke="#6E7079" stroke-linecap="round"></path>
<path d="M62.5 271L62.5 276" fill="none" stroke="#6E7079"></path>
<path d="M114.5 271L114.5 276" fill="none" stroke="#6E7079"></path>
<path d="M165.5 271L165.5 276" fill="none" stroke="#6E7079"></path>
<path d="M216.5 271L216.5 276" fill="none" stroke="#6E7079"></path>
<path d="M268.5 271L268.5 276" fill="none" stroke="#6E7079"></path>
<path d="M319.5 271L319.5 276" fill="none" stroke="#6E7079"></path>
<path d="M371.5 271L371.5 276" fill="none" stroke="#6E7079"></path>
<path d="M422.5 271L422.5 276" fill="none" stroke="#6E7079"></path>
<path d="M473.5 271L473.5 276" fill="none" stroke="#6E7079"></path>
<path d="M525.5 271L525.5 276" fill="none" stroke="#6E7079"></path>
<path d="M576.5 271L576.5 276" fill="none" stroke="#6E7079"></path>
<path d="M628.5 271L628.5 276" fill="none" stroke="#6E7079"></path>
<path d="M679.5 271L679.5 276" fill="none" stroke="#6E7079"></path>
<path d="M730.5 271L730.5 276" fill="none" stroke="#6E7079"></path>
<path d="M782.5 271L782.5 276" fill="none" stroke="#6E7079"></path>
<path d="M833.5 271L833.5 276" fill="none" stroke="#6E7079"></path>
<path d="M884.5 271L884.5 276" fill="none" stroke="#6E7079"></path>
<text dominant-baseline="central" text-anchor="end" style="font-size:12px;font-family:sans-serif;" transform="translate(50.16 271)" fill="#6E7079">0</text>
<text dominant-baseline="central" text-anchor="end" style="font-size:12px;font-family:sans-serif;" transform="translate(50.16 210.7143)" fill="#6E7079">60</text>
<text dominant-baseline="central" text-anchor="end" style="font-size:12px;font-family:sans-serif;" transform="translate(50.16 150.4286)" fill="#6E7079">120</text>
<text dominant-baseline="central" text-anchor="end" style="font-size:12px;font-family:sans-serif;" transform="translate(50.16 90.1429)" fill="#6E7079">180</text>
<text dominant-baseline="central" text-anchor="end" style="font-size:12px;font-family:sans-serif;" transform="translate(50.16 60)" fill="#6E7079">210</text>
<text dominant-baseline="central" text-anchor="start" style="font-size:12px;font-family:sans-serif;" transform="translate(939.84 271)" fill="#6E7079">0</text>
<text dominant-baseline="central" text-anchor="start" style="font-size:12px;font-family:sans-serif;" transform="translate(939.84 210.7143)" fill="#6E7079">60</text>
<text dominant-baseline="central" text-anchor="start" style="font-size:12px;font-family:sans-serif;" transform="translate(939.84 150.4286)" fill="#6E7079">120</text>
<text dominant-baseline="central" text-anchor="start" style="font-size:12px;font-family:sans-serif;" transform="translate(939.84 90.1429)" fill="#6E7079">180</text>
<text dominant-baseline="central" text-anchor="start" style="font-size:12px;font-family:sans-serif;" transform="translate(939.84 60)" fill="#6E7079">210</text>
<text dominant-baseline="central" text-anchor="middle" style="font-size:12px;font-family:sans-serif;" y="6" transform="translate(62.4427 279)" fill="#6E7079">1km</text>
<text dominant-baseline="central" text-anchor="middle" style="font-size:12px;font-family:sans-serif;" y="6" transform="translate(113.8357 279)" fill="#6E7079">7km</text>
<text dominant-baseline="central" text-anchor="middle" style="font-size:12px;font-family:sans-serif;" y="6" transform="translate(165.2286 279)" fill="#6E7079">13km</text>
<text dominant-baseline="central" text-anchor="middle" style="font-size:12px;font-family:sans-serif;" y="6" transform="translate(216.6216 279)" fill="#6E7079">19km</text>
<text dominant-baseline="central" text-anchor="middle" style="font-size:12px;font-family:sans-serif;" y="6" transform="translate(268.0145 279)" fill="#6E7079">25km</text>
<text dominant-baseline="central" text-anchor="middle" style="font-size:12px;font-family:sans-serif;" y="6" transform="translate(319.4075 279)" fill="#6E7079">31km</text>
<text dominant-baseline="central" text-anchor="middle" style="font-size:12px;font-family:sans-serif;" y="6" transform="translate(370.8004 279)" fill="#6E7079">37km</text>
<text dominant-baseline="central" text-anchor="middle" style="font-size:12px;font-family:sans-serif;" y="6" transform="translate(422.1933 279)" fill="#6E7079">43km</text>
<text dominant-baseline="central" text-anchor="middle" style="font-size:12px;font-family:sans-serif;" y="6" transform="translate(473.5863 279)" fill="#6E7079">49km</text>
<text dominant-baseline="central" text-anchor="middle" style="font-size:12px;font-family:sans-serif;" y="6" transform="translate(524.9792 279)" fill="#6E7079">55km</text>
<text dominant-baseline="central" text-anchor="middle" style="font-size:12px;font-family:sans-serif;" y="6" transform="translate(576.3722 279)" fill="#6E7079">61km</text>
<text dominant-baseline="central" text-anchor="middle" style="font-size:12px;font-family:sans-serif;" y="6" transform="translate(627.7651 279)" fill="#6E7079">67km</text>
<text dominant-baseline="central" text-anchor="middle" style="font-size:12px;font-family:sans-serif;" y="6" transform="translate(679.158 279)" fill="#6E7079">73km</text>
<text dominant-baseline="central" text-anchor="middle" style="font-size:12px;font-family:sans-serif;" y="6" transform="translate(730.551 279)" fill="#6E7079">79km</text>
<text dominant-baseline="central" text-anchor="middle" style="font-size:12px;font-family:sans-serif;" y="6" transform="translate(781.9439 279)" fill="#6E7079">85km</text>
<text dominant-baseline="central" text-anchor="middle" style="font-size:12px;font-family:sans-serif;" y="6" transform="translate(833.3369 279)" fill="#6E7079">91km</text>
<text dominant-baseline="central" text-anchor="middle" style="font-size:12px;font-family:sans-serif;" y="6" transform="translate(884.7298 279)" fill="#6E7079">97km</text>
<path d="M59.5 271l5.9 0l0 -182.9l-5.9 0Z" fill="rgb(227,73,2)" fill-opacity="0.3"></path>
<path d="M68.1 271l5.9 0l0 -182.9l-5.9 0Z" fill="rgb(227,73,2)" fill-opacity="0.3"></path>
<path d="M76.6 271l5.9 0l0 -182.9l-5.9 0Z" fill="rgb(227,73,2)" fill-opacity="0.3"></path>
<path d="M85.2 271l5.9 0l0 -182.9l-5.9 0Z" fill="rgb(227,73,2)" fill-opacity="0.3"></path>
<path d="M93.7 271l5.9 0l0 -181.9l-5.9 0Z" fill="rgb(227,73,2)" fill-opacity="0.3"></path>
<path d="M102.3 271l5.9 0l0 -180.9l-5.9 0Z" fill="rgb(227,73,2)" fill-opacity="0.3"></path>
<path d="M110.9 271l5.9 0l0 -180.9l-5.9 0Z" fill="rgb(227,73,2)" fill-opacity="0.3"></path>
<path d="M119.4 271l5.9 0l0 -180.9l-5.9 0Z" fill="rgb(227,73,2)" fill-opacity="0.3"></path>
<path d="M128 271l5.9 0l0 -178.8l-5.9 0Z" fill="rgb(227,73,2)" fill-opacity="0.3"></path>
<path d="M136.6 271l5.9 0l0 -176.8l-5.9 0Z" fill="rgb(227,73,2)" fill-opacity="0.3"></path>
<path d="M145.1 271l5.9 0l0 -173.8l-5.9 0Z" fill="rgb(227,73,2)" fill-opacity="0.3"></path>
<path d="M153.7 271l5.9 0l0 -172.8l-5.9 0Z" fill="rgb(227,73,2)" fill-opacity="0.3"></path>
<path d="M162.3 271l5.9 0l0 -166.8l-5.9 0Z" fill="rgb(227,73,2)" fill-opacity="0.3"></path>
<path d="M170.8 271l5.9 0l0 -163.8l-5.9 0Z" fill="rgb(227,73,2)" fill-opacity="0.3"></path>
<path d="M179.4 271l5.9 0l0 -163.8l-5.9 0Z" fill="rgb(227,73,2)" fill-opacity="0.3"></path>
<path d="M188 271l5.9 0l0 -163.8l-5.9 0Z" fill="rgb(227,73,2)" fill-opacity="0.3"></path>
<path d="M196.5 271l5.9 0l0 -163.8l-5.9 0Z" fill="rgb(227,73,2)" fill-opacity="0.3"></path>
<path d="M205.1 271l5.9 0l0 -160.8l-5.9 0Z" fill="rgb(227,73,2)" fill-opacity="0.3"></path>
<path d="M213.7 271l5.9 0l0 -159.8l-5.9 0Z" fill="rgb(227,73,2)" fill-opacity="0.3"></path>
<path d="M222.2 271l5.9 0l0 -159.8l-5.9 0Z" fill="rgb(227,73,2)" fill-opacity="0.3"></path>
<path d="M230.8 271l5.9 0l0 -158.8l-5.9 0Z" fill="rgb(227,73,2)" fill-opacity="0.3"></path>
<path d="M239.4 271l5.9 0l0 -157.7l-5.9 0Z" fill="rgb(227,73,2)" fill-opacity="0.3"></path>
<path d="M247.9 271l5.9 0l0 -151.7l-5.9 0Z" fill="rgb(227,73,2)" fill-opacity="0.3"></path>
<path d="M256.5 271l5.9 0l0 -147.7l-5.9 0Z" fill="rgb(227,73,2)" fill-opacity="0.3"></path>
<path d="M265.1 271l5.9 0l0 -146.7l-5.9 0Z" fill="rgb(227,73,2)" fill-opacity="0.3"></path>
<path d="M273.6 271l5.9 0l0 -141.7l-5.9 0Z" fill="rgb(227,73,2)" fill-opacity="0.3"></path>
<path d="M282.2 271l5.9 0l0 -137.7l-5.9 0Z" fill="rgb(227,73,2)" fill-opacity="0.3"></path>
<path d="M290.8 271l5.9 0l0 -134.6l-5.9 0Z" fill="rgb(227,73,2)" fill-opacity="0.3"></path>
<path d="M299.3 271l5.9 0l0 -128.6l-5.9 0Z" fill="rgb(227,73,2)" fill-opacity="0.3"></path>
<path d="M307.9 271l5.9 0l0 -121.6l-5.9 0Z" fill="rgb(227,73,2)" fill-opacity="0.3"></path>
<path d="M316.5 271l5.9 0l0 -112.5l-5.9 0Z" fill="rgb(227,73,2)" fill-opacity="0.3"></path>
<path d="M325 271l5.9 0l0 -107.5l-5.9 0Z" fill="rgb(227,73,2)" fill-opacity="0.3"></path>
<path d="M333.6 271l5.9 0l0 -98.5l-5.9 0Z" fill="rgb(227,73,2)" fill-opacity="0.3"></path>
<path d="M342.1 271l5.9 0l0 -93.4l-5.9 0Z" fill="rgb(227,73,2)" fill-opacity="0.3"></path>
<path d="M350.7 271l5.9 0l0 -89.4l-5.9 0Z" fill="rgb(227,73,2)" fill-opacity="0.3"></path>
<path d="M359.3 271l5.9 0l0 -83.4l-5.9 0Z" fill="rgb(227,73,2)" fill-opacity="0.3"></path>
<path d="M367.8 271l5.9 0l0 -81.4l-5.9 0Z" fill="rgb(227,73,2)" fill-opacity="0.3"></path>
<path d="M376.4 271l5.9 0l0 -76.4l-5.9 0Z" fill="rgb(227,73,2)" fill-opacity="0.3"></path>
<path d="M385 271l5.9 0l0 -73.3l-5.9 0Z" fill="rgb(227,73,2)" fill-opacity="0.3"></path>
<path d="M393.5 271l5.9 0l0 -70.3l-5.9 0Z" fill="rgb(227,73,2)" fill-opacity="0.3"></path>
<path d="M402.1 271l5.9 0l0 -67.3l-5.9 0Z" fill="rgb(227,73,2)" fill-opacity="0.3"></path>
<path d="M410.7 271l5.9 0l0 -65.3l-5.9 0Z" fill="rgb(227,73,2)" fill-opacity="0.3"></path>
<path d="M419.2 271l5.9 0l0 -64.3l-5.9 0Z" fill="rgb(227,73,2)" fill-opacity="0.3"></path>
<path d="M427.8 271l5.9 0l0 -55.3l-5.9 0Z" fill="rgb(227,73,2)" fill-opacity="0.3"></path>
<path d="M436.4 271l5.9 0l0 -54.3l-5.9 0Z" fill="rgb(227,73,2)" fill-opacity="0.3"></path>
<path d="M444.9 271l5.9 0l0 -50.2l-5.9 0Z" fill="rgb(227,73,2)" fill-opacity="0.8"></path>
<path d="M453.5 271l5.9 0l0 -46.2l-5.9 0Z" fill="rgb(227,73,2)" fill-opacity="0.3"></path>
<path d="M462.1 271l5.9 0l0 -40.2l-5.9 0Z" fill="rgb(227,73,2)" fill-opacity="0.3"></path>
<path d="M470.6 271l5.9 0l0 -37.2l-5.9 0Z" fill="rgb(227,73,2)" fill-opacity="0.3"></path>
<path d="M479.2 271l5.9 0l0 -34.2l-5.9 0Z" fill="rgb(227,73,2)" fill-opacity="0.3"></path>
<path d="M487.8 271l5.9 0l0 -31.1l-5.9 0Z" fill="rgb(227,73,2)" fill-opacity="0.3"></path>
<path d="M496.3 271l5.9 0l0 -30.1l-5.9 0Z" fill="rgb(227,73,2)" fill-opacity="0.3"></path>
<path d="M504.9 271l5.9 0l0 -22.1l-5.9 0Z" fill="rgb(227,73,2)" fill-opacity="0.3"></path>
<path d="M513.5 271l5.9 0l0 -20.1l-5.9 0Z" fill="rgb(227,73,2)" fill-opacity="0.3"></path>
<path d="M522 271l5.9 0l0 -18.1l-5.9 0Z" fill="rgb(227,73,2)" fill-opacity="0.3"></path>
<path d="M530.6 271l5.9 0l0 -17.1l-5.9 0Z" fill="rgb(227,73,2)" fill-opacity="0.3"></path>
<path d="M539.2 271l5.9 0l0 -14.1l-5.9 0Z" fill="rgb(227,73,2)" fill-opacity="0.3"></path>
<path d="M547.7 271l5.9 0l0 -14.1l-5.9 0Z" fill="rgb(227,73,2)" fill-opacity="0.3"></path>
<path d="M556.3 271l5.9 0l0 -14.1l-5.9 0Z" fill="rgb(227,73,2)" fill-opacity="0.3"></path>
<path d="M564.9 271l5.9 0l0 -14.1l-5.9 0Z" fill="rgb(227,73,2)" fill-opacity="0.3"></path>
<path d="M573.4 271l5.9 0l0 -12.1l-5.9 0Z" fill="rgb(227,73,2)" fill-opacity="0.3"></path>
<path d="M582 271l5.9 0l0 -11.1l-5.9 0Z" fill="rgb(227,73,2)" fill-opacity="0.3"></path>
<path d="M590.5 271l5.9 0l0 -9l-5.9 0Z" fill="rgb(227,73,2)" fill-opacity="0.3"></path>
<path d="M599.1 271l5.9 0l0 -9l-5.9 0Z" fill="rgb(227,73,2)" fill-opacity="0.3"></path>
<path d="M607.7 271l5.9 0l0 -8l-5.9 0Z" fill="rgb(227,73,2)" fill-opacity="0.3"></path>
<path d="M616.2 271l5.9 0l0 -7l-5.9 0Z" fill="rgb(227,73,2)" fill-opacity="0.3"></path>
<path d="M624.8 271l5.9 0l0 -7l-5.9 0Z" fill="rgb(227,73,2)" fill-opacity="0.3"></path>
<path d="M633.4 271l5.9 0l0 -6l-5.9 0Z" fill="rgb(227,73,2)" fill-opacity="0.3"></path>
<path d="M641.9 271l5.9 0l0 -6l-5.9 0Z" fill="rgb(227,73,2)" fill-opacity="0.3"></path>
<path d="M650.5 271l5.9 0l0 -6l-5.9 0Z" fill="rgb(227,73,2)" fill-opacity="0.3"></path>
<path d="M659.1 271l5.9 0l0 -6l-5.9 0Z" fill="rgb(227,73,2)" fill-opacity="0.3"></path>
<path d="M667.6 271l5.9 0l0 -6l-5.9 0Z" fill="rgb(227,73,2)" fill-opacity="0.3"></path>
<path d="M676.2 271l5.9 0l0 -6l-5.9 0Z" fill="rgb(227,73,2)" fill-opacity="0.3"></path>
<path d="M684.8 271l5.9 0l0 -6l-5.9 0Z" fill="rgb(227,73,2)" fill-opacity="0.3"></path>
<path d="M693.3 271l5.9 0l0 -6l-5.9 0Z" fill="rgb(227,73,2)" fill-opacity="0.3"></path>
<path d="M701.9 271l5.9 0l0 -6l-5.9 0Z" fill="rgb(227,73,2)" fill-opacity="0.3"></path>
<path d="M710.5 271l5.9 0l0 -6l-5.9 0Z" fill="rgb(227,73,2)" fill-opacity="0.3"></path>
<path d="M719 271l5.9 0l0 -6l-5.9 0Z" fill="rgb(227,73,2)" fill-opacity="0.3"></path>
<path d="M727.6 271l5.9 0l0 -6l-5.9 0Z" fill="rgb(227,73,2)" fill-opacity="0.3"></path>
<path d="M736.2 271l5.9 0l0 -6l-5.9 0Z" fill="rgb(227,73,2)" fill-opacity="0.3"></path>
<path d="M744.7 271l5.9 0l0 -6l-5.9 0Z" fill="rgb(227,73,2)" fill-opacity="0.3"></path>
<path d="M753.3 271l5.9 0l0 -5l-5.9 0Z" fill="rgb(227,73,2)" fill-opacity="0.3"></path>
<path d="M761.9 271l5.9 0l0 -3l-5.9 0Z" fill="rgb(227,73,2)" fill-opacity="0.3"></path>
<path d="M770.4 271l5.9 0l0 -3l-5.9 0Z" fill="rgb(227,73,2)" fill-opacity="0.3"></path>
<path d="M779 271l5.9 0l0 -3l-5.9 0Z" fill="rgb(227,73,2)" fill-opacity="0.3"></path>
<path d="M787.6 271l5.9 0l0 -3l-5.9 0Z" fill="rgb(227,73,2)" fill-opacity="0.3"></path>
<path d="M796.1 271l5.9 0l0 -3l-5.9 0Z" fill="rgb(227,73,2)" fill-opacity="0.3"></path>
<path d="M804.7 271l5.9 0l0 -3l-5.9 0Z" fill="rgb(227,73,2)" fill-opacity="0.3"></path>
<path d="M813.3 271l5.9 0l0 -2l-5.9 0Z" fill="rgb(227,73,2)" fill-opacity="0.3"></path>
<path d="M821.8 271l5.9 0l0 -2l-5.9 0Z" fill="rgb(227,73,2)" fill-opacity="0.3"></path>
<path d="M830.4 271l5.9 0l0 -2l-5.9 0Z" fill="rgb(227,73,2)" fill-opacity="0.3"></path>
<path d="M838.9 271l5.9 0l0 -2l-5.9 0Z" fill="rgb(227,73,2)" fill-opacity="0.3"></path>
<path d="M847.5 271l5.9 0l0 -2l-5.9 0Z" fill="rgb(227,73,2)" fill-opacity="0.3"></path>
<path d="M856.1 271l5.9 0l0 -2l-5.9 0Z" fill="rgb(227,73,2)" fill-opacity="0.3"></path>
<path d="M864.6 271l5.9 0l0 -2l-5.9 0Z" fill="rgb(227,73,2)" fill-opacity="0.3"></path>
<path d="M873.2 271l5.9 0l0 -2l-5.9 0Z" fill="rgb(227,73,2)" fill-opacity="0.3"></path>
<path d="M881.8 271l5.9 0l0 -2l-5.9 0Z" fill="rgb(227,73,2)" fill-opacity="0.3"></path>
<path d="M890.3 271l5.9 0l0 -2l-5.9 0Z" fill="rgb(227,73,2)" fill-opacity="0.3"></path>
<path d="M898.9 271l5.9 0l0 -2l-5.9 0Z" fill="rgb(227,73,2)" fill-opacity="0.3"></path>
<path d="M907.5 271l5.9 0l0 -2l-5.9 0Z" fill="rgb(227,73,2)" fill-opacity="0.3"></path>
<path d="M916 271l5.9 0l0 -2l-5.9 0Z" fill="rgb(227,73,2)" fill-opacity="0.3"></path>
<path d="M924.6 271l5.9 0l0 -1l-5.9 0Z" fill="rgb(227,73,2)" fill-opacity="0.3"></path>
<path d="M-5 -5l226.9 0l0 24l-226.9 0Z" transform="translate(391.54 5)" fill="rgb(0,0,0)" fill-opacity="0" stroke="#ccc" stroke-width="0"></path>
<path d="M3.5 0L21.5 0A3.5 3.5 0 0 1 25 3.5L25 10.5A3.5 3.5 0 0 1 21.5 14L3.5 14A3.5 3.5 0 0 1 0 10.5L0 3.5A3.5 3.5 0 0 1 3.5 0" transform="translate(391.54 5)" fill="rgb(227,73,2)" fill-opacity="0.3"></path>
<text dominant-baseline="central" text-anchor="start" style="font-size:12px;font-family:sans-serif;" xml:space="preserve" x="30" y="7" transform="translate(391.54 5)" fill="#333">Times completed</text>
<path d="M0 7L25 7" transform="translate(524.1 5)" fill="#000" stroke="#E34902" stroke-width="2" stroke-linecap="butt" stroke-miterlimit="10"></path>
<path d="M18.1 7A5.6 5.6 0 1 1 18.1 6.4A5.6 5.6 0 0 1 18.1 7" transform="translate(524.1 5)" fill="#fff" stroke="#E34902" stroke-width="2" stroke-linecap="butt" stroke-miterlimit="10"></path>
<text dominant-baseline="central" text-anchor="start" style="font-size:12px;font-family:sans-serif;" x="30" y="7" transform="translate(524.1 5)" fill="#333">Eddington</text>
<path d="M-0.54 -0.89A0.6 0.6 0 1 1 0.54 -0.89C0.39 -0.56 0 -0.42 0 0C0 -0.42 -0.39 -0.56 -0.54 -0.89Z" transform="matrix(25,0,0,25,447.8898,216.7667)" fill="rgb(227,73,2)" fill-opacity="0.8"></path>
<text dominant-baseline="central" text-anchor="middle" style="font-size:12px;font-family:sans-serif;" transform="translate(447.8898 190.6238)" fill="#eee" stroke="rgb(227,73,2)" stroke-width="2" paint-order="stroke" stroke-opacity="0.8" stroke-miterlimit="2">46</text>
<g clip-path="url(#zr0-c0)">
<path d="M62.4 270L71 269L79.6 268L88.1 267L96.7 266L105.3 265L113.8 264L122.4 263L131 262L139.5 261L148.1 259.9L156.7 258.9L165.2 257.9L173.8 256.9L182.4 255.9L190.9 254.9L199.5 253.9L208.1 252.9L216.6 251.9L225.2 250.9L233.8 249.9L242.3 248.9L250.9 247.9L259.4 246.9L268 245.9L276.6 244.9L285.1 243.9L293.7 242.9L302.3 241.9L310.8 240.9L319.4 239.9L328 238.8L336.5 237.8L345.1 236.8L353.7 235.8L362.2 234.8L370.8 233.8L379.4 232.8L387.9 231.8L396.5 230.8L405.1 229.8L413.6 228.8L422.2 227.8L430.8 226.8L439.3 225.8L447.9 224.8L456.5 223.8L465 222.8L473.6 221.8L482.2 220.8L490.7 219.8L499.3 218.8L507.8 217.7L516.4 216.7L525 215.7L533.5 214.7L542.1 213.7L550.7 212.7L559.2 211.7L567.8 210.7L576.4 209.7L584.9 208.7L593.5 207.7L602.1 206.7L610.6 205.7L619.2 204.7L627.8 203.7L636.3 202.7L644.9 201.7L653.5 200.7L662 199.7L670.6 198.7L679.2 197.7L687.7 196.6L696.3 195.6L704.9 194.6L713.4 193.6L722 192.6L730.6 191.6L739.1 190.6L747.7 189.6L756.2 188.6L764.8 187.6L773.4 186.6L781.9 185.6L790.5 184.6L799.1 183.6L807.6 182.6L816.2 181.6L824.8 180.6L833.3 179.6L841.9 178.6L850.5 177.6L859 176.6L867.6 175.5L876.2 174.5L884.7 173.5L893.3 172.5L901.9 171.5L910.4 170.5L919 169.5L927.6 168.5" fill="none" stroke="#E34902" stroke-width="2" stroke-linejoin="bevel"></path>
</g>
<defs >
<clipPath id="zr0-c0">
<path d="M57 59l876 0l0 213l-876 0Z" fill="#000"></path>
</clipPath>
</defs>
</svg>