<svg width="1000" height="300" xmlns="http://www.w3.org/2000/svg" xmlns:xlink="http://www.w3.org/1999/xlink" version="1.1" baseProfile="full" viewBox="0 0 1000 300">
<rect width="1000" height="300" x="0" y="0" id="0" fill="#ffffff"></rect>
<path d="M58.2 271.5L931.8 271.5" fill="none" stroke="#E0E6F1"></path>
<path d="M58.2 224.5L931.8 224.5" fill="none" stroke="#E0E6F1"></path>
<path d="M58.2 177.5L931.8 177.5" fill="none" stroke="#E0E6F1"></path>
<path d="M58.2 130.5L931.8 130.5" fill="none" stroke="#E0E6F1"></path>
<path d="M58.2 83.5L931.8 83.5" fill="none" stroke="#E0E6F1"></path>
<path d="M58.2 60.5L931.8 60.5" fill="none" stroke="#E0E6F1"></path>
<path d="M58.2 271.5L931.8 271.5" fill="none" stroke="#6E7079" stroke-linecap="round"></path>
<path d="M60.5 271L60.5 276" fill="none" stroke="#6E7079"></path>
<path d="M111.5 271L111.5 276" fill="none" stroke="#6E7079"></path>
<path d="M161.5 271L161.5 276" fill="none" stroke="#6E7079"></path>
<path d="M211.5 271L211.5 276" fill="none" stroke="#6E7079"></path>
<path d="M261.5 271L261.5 276" fill="none" stroke="#6E7079"></path>
<path d="M311.5 271L311.5 276" fill="none" stroke="#6E7079"></path>
<path d="M362.5 271L362.5 276" fill="none" stroke="#6E7079"></path>
<path d="M412.5 271L412.5 276" fill="none" stroke="#6E7079"></path>
<path d="M462.5 271L462.5 276" fill="none" stroke="#6E7079"></path>
<path d="M512.5 271L512.5 276" fill="none" stroke="#6E7079"></path>
<path d="M563.5 271L563.5 276" fill="none" stroke="#6E7079"></path>
<path d="M613.5 271L613.5 276" fill="none" stroke="#6E7079"></path>
<path d="M663.5 271L663.5 276" fill="none" stroke="#6E7079"></path>
<path d="M713.5 271L713.5 276" fill="none" stroke="#6E7079"></path>
<path d="M763.5 271L763.5 276" fill="none" stroke="#6E7079"></path>
<path d="M814.5 271L814.5 276" fill="none" stroke="#6E7079"></path>
<path d="M864.5 271L864.5 276" fill="none" stroke="#6E7079"></path>
<path d="M914.5 271L914.5 276" fill="none" stroke="#6E7079"></path>
<text dominant-baseline="central" text-anchor="end" style="font-size:12px;font-family:sans-serif;" transform="translate(50.16 271)" fill="#6E7079">0</text>
<text dominant-baseline="central" text-anchor="end" style="font-size:12px;font-family:sans-serif;" transform="translate(50.16 224.1111)" fill="#6E7079">60</text>
<text dominant-baseline="central" text-anchor="end" style="font-size:12px;font-family:sans-serif;" transform="translate(50.16 177.2222)" fill="#6E7079">120</text>
<text dominant-baseline="central" text-anchor="end" style="font-size:12px;font-family:sans-serif;" transform="translate(50.16 130.3333)" fill="#6E7079">180</text>
<text dominant-baseline="central" text-anchor="end" style="font-size:12px;font-family:sans-serif;" transform="translate(50.16 83.4444)" fill="#6E7079">240</text>
<text dominant-baseline="central" text-anchor="end" style="font-size:12px;font-family:sans-serif;" transform="translate(50.16 60)" fill="#6E7079">270</text>
<text dominant-baseline="central" text-anchor="start" style="font-size:12px;font-family:sans-serif;" transform="translate(939.84 271)" fill="#6E7079">0</text>
<text dominant-baseline="central" text-anchor="start" style="font-size:12px;font-family:sans-serif;" transform="translate(939.84 224.1111)" fill="#6E7079">60</text>
<text dominant-baseline="central" text-anchor="start" style="font-size:12px;font-family:sans-serif;" transform="translate(939.84 177.2222)" fill="#6E7079">120</text>
<text dominant-baseline="central" text-anchor="start" style="font-size:12px;font-family:sans-serif;" transform="translate(939.84 130.3333)" fill="#6E7079">180</text>
<text dominant-baseline="central" text-anchor="start" style="font-size:12px;font-family:sans-serif;" transform="translate(939.84 83.4444)" fill="#6E7079">240</text>
<text dominant-baseline="central" text-anchor="start" style="font-size:12px;font-family:sans-serif;" transform="translate(939.84 60)" fill="#6E7079">270</text>
<text dominant-baseline="central" text-anchor="middle" style="font-size:12px;font-family:sans-serif;" y="6" transform="translate(60.6706 279)" fill="#6E7079">1km</text>
<text dominant-baseline="central" text-anchor="middle" style="font-size:12px;font-family:sans-serif;" y="6" transform="translate(110.8821 279)" fill="#6E7079">11km</text>
<text dominant-baseline="central" text-anchor="middle" style="font-size:12px;font-family:sans-serif;" y="6" transform="translate(161.0936 279)" fill="#6E7079">21km</text>
<text dominant-baseline="central" text-anchor="middle" style="font-size:12px;font-family:sans-serif;" y="6" transform="translate(211.3051 279)" fill="#6E7079">31km</text>
<text dominant-baseline="central" text-anchor="middle" style="font-size:12px;font-family:sans-serif;" y="6" transform="translate(261.5166 279)" fill="#6E7079">41km</text>
<text dominant-baseline="central" text-anchor="middle" style="font-size:12px;font-family:sans-serif;" y="6" transform="translate(311.728 279)" fill="#6E7079">51km</text>
<text dominant-baseline="central" text-anchor="middle" style="font-size:12px;font-family:sans-serif;" y="6" transform="translate(361.9395 279)" fill="#6E7079">61km</text>
<text dominant-baseline="central" text-anchor="middle" style="font-size:12px;font-family:sans-serif;" y="6" transform="translate(412.151 279)" fill="#6E7079">71km</text>
<text dominant-baseline="central" text-anchor="middle" style="font-size:12px;font-family:sans-serif;" y="6" transform="translate(462.3625 279)" fill="#6E7079">81km</text>
<text dominant-baseline="central" text-anchor="middle" style="font-size:12px;font-family:sans-serif;" y="6" transform="translate(512.574 279)" fill="#6E7079">91km</text>
<text dominant-baseline="central" text-anchor="middle" style="font-size:12px;font-family:sans-serif;" y="6" transform="translate(562.7855 279)" fill="#6E7079">101km</text>
<text dominant-baseline="central" text-anchor="middle" style="font-size:12px;font-family:sans-serif;" y="6" transform="translate(612.997 279)" fill="#6E7079">111km</text>
<text dominant-baseline="central" text-anchor="middle" style="font-size:12px;font-family:sans-serif;" y="6" transform="translate(663.2085 279)" fill="#6E7079">121km</text>
<text dominant-baseline="central" text-anchor="middle" style="font-size:12px;font-family:sans-serif;" y="6" transform="translate(713.42 279)" fill="#6E7079">131km</text>
<text dominant-baseline="central" text-anchor="middle" style="font-size:12px;font-family:sans-serif;" y="6" transform="translate(763.6315 279)" fill="#6E7079">141km</text>
<text dominant-baseline="central" text-anchor="middle" style="font-size:12px;font-family:sans-serif;" y="6" transform="translate(813.843 279)" fill="#6E7079">151km</text>
<text dominant-baseline="central" text-anchor="middle" style="font-size:12px;font-family:sans-serif;" y="6" transform="translate(864.0545 279)" fill="#6E7079">161km</text>
<text dominant-baseline="central" text-anchor="middle" style="font-size:12px;font-family:sans-serif;" y="6" transform="translate(914.266 279)" fill="#6E7079">171km</text>
<path d="M58.9 271l3.5 0l0 -189.1l-3.5 0Z" fill="rgb(227,73,2)" fill-opacity="0.3"></path>
<path d="M64 271l3.5 0l0 -189.1l-3.5 0Z" fill="rgb(227,73,2)" fill-opacity="0.3"></path>
<path d="M69 271l3.5 0l0 -189.1l-3.5 0Z" fill="rgb(227,73,2)" fill-opacity="0.3"></path>
<path d="M74 271l3.5 0l0 -189.1l-3.5 0Z" fill="rgb(227,73,2)" fill-opacity="0.3"></path>
<path d="M79 271l3.5 0l0 -187.6l-3.5 0Z" fill="rgb(227,73,2)" fill-opacity="0.3"></path>
<path d="M84 271l3.5 0l0 -183.6l-3.5 0Z" fill="rgb(227,73,2)" fill-opacity="0.3"></path>
<path d="M89.1 271l3.5 0l0 -182.9l-3.5 0Z" fill="rgb(227,73,2)" fill-opacity="0.3"></path>
<path d="M94.1 271l3.5 0l0 -181.3l-3.5 0Z" fill="rgb(227,73,2)" fill-opacity="0.3"></path>
<path d="M99.1 271l3.5 0l0 -179.7l-3.5 0Z" fill="rgb(227,73,2)" fill-opacity="0.3"></path>
<path d="M104.1 271l3.5 0l0 -178.2l-3.5 0Z" fill="rgb(227,73,2)" fill-opacity="0.3"></path>
<path d="M109.1 271l3.5 0l0 -175.8l-3.5 0Z" fill="rgb(227,73,2)" fill-opacity="0.3"></path>
<path d="M114.2 271l3.5 0l0 -172.7l-3.5 0Z" fill="rgb(227,73,2)" fill-opacity="0.3"></path>
<path d="M119.2 271l3.5 0l0 -166.5l-3.5 0Z" fill="rgb(227,73,2)" fill-opacity="0.3"></path>
<path d="M124.2 271l3.5 0l0 -164.9l-3.5 0Z" fill="rgb(227,73,2)" fill-opacity="0.3"></path>
<path d="M129.2 271l3.5 0l0 -164.9l-3.5 0Z" fill="rgb(227,73,2)" fill-opacity="0.3"></path>
<path d="M134.3 271l3.5 0l0 -164.1l-3.5 0Z" fill="rgb(227,73,2)" fill-opacity="0.3"></path>
<path d="M139.3 271l3.5 0l0 -163.3l-3.5 0Z" fill="rgb(227,73,2)" fill-opacity="0.3"></path>
<path d="M144.3 271l3.5 0l0 -160.2l-3.5 0Z" fill="rgb(227,73,2)" fill-opacity="0.3"></path>
<path d="M149.3 271l3.5 0l0 -159.4l-3.5 0Z" fill="rgb(227,73,2)" fill-opacity="0.3"></path>
<path d="M154.3 271l3.5 0l0 -158.6l-3.5 0Z" fill="rgb(227,73,2)" fill-opacity="0.3"></path>
<path d="M159.4 271l3.5 0l0 -157.9l-3.5 0Z" fill="rgb(227,73,2)" fill-opacity="0.3"></path>
<path d="M164.4 271l3.5 0l0 -156.3l-3.5 0Z" fill="rgb(227,73,2)" fill-opacity="0.3"></path>
<path d="M169.4 271l3.5 0l0 -151.6l-3.5 0Z" fill="rgb(227,73,2)" fill-opacity="0.3"></path>
<path d="M174.4 271l3.5 0l0 -150l-3.5 0Z" fill="rgb(227,73,2)" fill-opacity="0.3"></path>
<path d="M179.4 271l3.5 0l0 -149.3l-3.5 0Z" fill="rgb(227,73,2)" fill-opacity="0.3"></path>
<path d="M184.5 271l3.5 0l0 -143.8l-3.5 0Z" fill="rgb(227,73,2)" fill-opacity="0.3"></path>
<path d="M189.5 271l3.5 0l0 -141.4l-3.5 0Z" fill="rgb(227,73,2)" fill-opacity="0.3"></path>
<path d="M194.5 271l3.5 0l0 -138.3l-3.5 0Z" fill="rgb(227,73,2)" fill-opacity="0.3"></path>
<path d="M199.5 271l3.5 0l0 -130.5l-3.5 0Z" fill="rgb(227,73,2)" fill-opacity="0.3"></path>
<path d="M204.6 271l3.5 0l0 -126.6l-3.5 0Z" fill="rgb(227,73,2)" fill-opacity="0.3"></path>
<path d="M209.6 271l3.5 0l0 -118.8l-3.5 0Z" fill="rgb(227,73,2)" fill-opacity="0.3"></path>
<path d="M214.6 271l3.5 0l0 -112.5l-3.5 0Z" fill="rgb(227,73,2)" fill-opacity="0.3"></path>
<path d="M219.6 271l3.5 0l0 -108.6l-3.5 0Z" fill="rgb(227,73,2)" fill-opacity="0.3"></path>
<path d="M224.6 271l3.5 0l0 -104.7l-3.5 0Z" fill="rgb(227,73,2)" fill-opacity="0.3"></path>
<path d="M229.7 271l3.5 0l0 -101.6l-3.5 0Z" fill="rgb(227,73,2)" fill-opacity="0.3"></path>
<path d="M234.7 271l3.5 0l0 -96.9l-3.5 0Z" fill="rgb(227,73,2)" fill-opacity="0.3"></path>
<path d="M239.7 271l3.5 0l0 -93l-3.5 0Z" fill="rgb(227,73,2)" fill-opacity="0.3"></path>
<path d="M244.7 271l3.5 0l0 -89.9l-3.5 0Z" fill="rgb(227,73,2)" fill-opacity="0.3"></path>
<path d="M249.7 271l3.5 0l0 -87.5l-3.5 0Z" fill="rgb(227,73,2)" fill-opacity="0.3"></path>
<path d="M254.8 271l3.5 0l0 -84.4l-3.5 0Z" fill="rgb(227,73,2)" fill-opacity="0.3"></path>
<path d="M259.8 271l3.5 0l0 -81.3l-3.5 0Z" fill="rgb(227,73,2)" fill-opacity="0.3"></path>
<path d="M264.8 271l3.5 0l0 -79.7l-3.5 0Z" fill="rgb(227,73,2)" fill-opacity="0.3"></path>
<path d="M269.8 271l3.5 0l0 -74.2l-3.5 0Z" fill="rgb(227,73,2)" fill-opacity="0.3"></path>
<path d="M274.8 271l3.5 0l0 -68.8l-3.5 0Z" fill="rgb(227,73,2)" fill-opacity="0.3"></path>
<path d="M279.9 271l3.5 0l0 -65.6l-3.5 0Z" fill="rgb(227,73,2)" fill-opacity="0.3"></path>
<path d="M284.9 271l3.5 0l0 -64.1l-3.5 0Z" fill="rgb(227,73,2)" fill-opacity="0.3"></path>
<path d="M289.9 271l3.5 0l0 -58.6l-3.5 0Z" fill="rgb(227,73,2)" fill-opacity="0.3"></path>
<path d="M294.9 271l3.5 0l0 -53.9l-3.5 0Z" fill="rgb(227,73,2)" fill-opacity="0.3"></path>
<path d="M300 271l3.5 0l0 -52.4l-3.5 0Z" fill="rgb(227,73,2)" fill-opacity="0.3"></path>
<path d="M305 271l3.5 0l0 -48.5l-3.5 0Z" fill="rgb(227,73,2)" fill-opacity="0.3"></path>
<path d="M310 271l3.5 0l0 -44.5l-3.5 0Z" fill="rgb(227,73,2)" fill-opacity="0.3"></path>
<path d="M315 271l3.5 0l0 -40.6l-3.5 0Z" fill="rgb(227,73,2)" fill-opacity="0.8"></path>
<path d="M320 271l3.5 0l0 -32l-3.5 0Z" fill="rgb(227,73,2)" fill-opacity="0.3"></path>
<path d="M325.1 271l3.5 0l0 -29.7l-3.5 0Z" fill="rgb(227,73,2)" fill-opacity="0.3"></path>
<path d="M330.1 271l3.5 0l0 -26.6l-3.5 0Z" fill="rgb(227,73,2)" fill-opacity="0.3"></path>
<path d="M335.1 271l3.5 0l0 -23.4l-3.5 0Z" fill="rgb(227,73,2)" fill-opacity="0.3"></path>
<path d="M340.1 271l3.5 0l0 -22.7l-3.5 0Z" fill="rgb(227,73,2)" fill-opacity="0.3"></path>
<path d="M345.1 271l3.5 0l0 -21.9l-3.5 0Z" fill="rgb(227,73,2)" fill-opacity="0.3"></path>
<path d="M350.2 271l3.5 0l0 -21.9l-3.5 0Z" fill="rgb(227,73,2)" fill-opacity="0.3"></path>
<path d="M355.2 271l3.5 0l0 -21.1l-3.5 0Z" fill="rgb(227,73,2)" fill-opacity="0.3"></path>
<path d="M360.2 271l3.5 0l0 -19.5l-3.5 0Z" fill="rgb(227,73,2)" fill-opacity="0.3"></path>
<path d="M365.2 271l3.5 0l0 -19.5l-3.5 0Z" fill="rgb(227,73,2)" fill-opacity="0.3"></path>
<path d="M370.2 271l3.5 0l0 -17.2l-3.5 0Z" fill="rgb(227,73,2)" fill-opacity="0.3"></path>
<path d="M375.3 271l3.5 0l0 -16.4l-3.5 0Z" fill="rgb(227,73,2)" fill-opacity="0.3"></path>
<path d="M380.3 271l3.5 0l0 -15.6l-3.5 0Z" fill="rgb(227,73,2)" fill-opacity="0.3"></path>
<path d="M385.3 271l3.5 0l0 -15.6l-3.5 0Z" fill="rgb(227,73,2)" fill-opacity="0.3"></path>
<path d="M390.3 271l3.5 0l0 -14.1l-3.5 0Z" fill="rgb(227,73,2)" fill-opacity="0.3"></path>
<path d="M395.4 271l3.5 0l0 -12.5l-3.5 0Z" fill="rgb(227,73,2)" fill-opacity="0.3"></path>
<path d="M400.4 271l3.5 0l0 -12.5l-3.5 0Z" fill="rgb(227,73,2)" fill-opacity="0.3"></path>
<path d="M405.4 271l3.5 0l0 -10.9l-3.5 0Z" fill="rgb(227,73,2)" fill-opacity="0.3"></path>
<path d="M410.4 271l3.5 0l0 -8.6l-3.5 0Z" fill="rgb(227,73,2)" fill-opacity="0.3"></path>
<path d="M415.4 271l3.5 0l0 -8.6l-3.5 0Z" fill="rgb(227,73,2)" fill-opacity="0.3"></path>
<path d="M420.5 271l3.5 0l0 -8.6l-3.5 0Z" fill="rgb(227,73,2)" fill-opacity="0.3"></path>
<path d="M425.5 271l3.5 0l0 -7l-3.5 0Z" fill="rgb(227,73,2)" fill-opacity="0.3"></path>
<path d="M430.5 271l3.5 0l0 -7l-3.5 0Z" fill="rgb(227,73,2)" fill-opacity="0.3"></path>
<path d="M435.5 271l3.5 0l0 -7l-3.5 0Z" fill="rgb(227,73,2)" fill-opacity="0.3"></path>
<path d="M440.5 271l3.5 0l0 -7l-3.5 0Z" fill="rgb(227,73,2)" fill-opacity="0.3"></path>
<path d="M445.6 271l3.5 0l0 -7l-3.5 0Z" fill="rgb(227,73,2)" fill-opacity="0.3"></path>
<path d="M450.6 271l3.5 0l0 -7l-3.5 0Z" fill="rgb(227,73,2)" fill-opacity="0.3"></path>
<path d="M455.6 271l3.5 0l0 -6.3l-3.5 0Z" fill="rgb(227,73,2)" fill-opacity="0.3"></path>
<path d="M460.6 271l3.5 0l0 -5.5l-3.5 0Z" fill="rgb(227,73,2)" fill-opacity="0.3"></path>
<path d="M465.7 271l3.5 0l0 -5.5l-3.5 0Z" fill="rgb(227,73,2)" fill-opacity="0.3"></path>
<path d="M470.7 271l3.5 0l0 -3.9l-3.5 0Z" fill="rgb(227,73,2)" fill-opacity="0.3"></path>
<path d="M475.7 271l3.5 0l0 -3.9l-3.5 0Z" fill="rgb(227,73,2)" fill-opacity="0.3"></path>
<path d="M480.7 271l3.5 0l0 -3.9l-3.5 0Z" fill="rgb(227,73,2)" fill-opacity="0.3"></path>
<path d="M485.7 271l3.5 0l0 -3.9l-3.5 0Z" fill="rgb(227,73,2)" fill-opacity="0.3"></path>
<path d="M490.8 271l3.5 0l0 -3.9l-3.5 0Z" fill="rgb(227,73,2)" fill-opacity="0.3"></path>
<path d="M495.8 271l3.5 0l0 -3.9l-3.5 0Z" fill="rgb(227,73,2)" fill-opacity="0.3"></path>
<path d="M500.8 271l3.5 0l0 -3.1l-3.5 0Z" fill="rgb(227,73,2)" fill-opacity="0.3"></path>
<path d="M505.8 271l3.5 0l0 -3.1l-3.5 0Z" fill="rgb(227,73,2)" fill-opacity="0.3"></path>
<path d="M510.8 271l3.5 0l0 -3.1l-3.5 0Z" fill="rgb(227,73,2)" fill-opacity="0.3"></path>
<path d="M515.9 271l3.5 0l0 -3.1l-3.5 0Z" fill="rgb(227,73,2)" fill-opacity="0.3"></path>
<path d="M520.9 271l3.5 0l0 -3.1l-3.5 0Z" fill="rgb(227,73,2)" fill-opacity="0.3"></path>
<path d="M525.9 271l3.5 0l0 -3.1l-3.5 0Z" fill="rgb(227,73,2)" fill-opacity="0.3"></path>
<path d="M530.9 271l3.5 0l0 -3.1l-3.5 0Z" fill="rgb(227,73,2)" fill-opacity="0.3"></path>
<path d="M535.9 271l3.5 0l0 -3.1l-3.5 0Z" fill="rgb(227,73,2)" fill-opacity="0.3"></path>
<path d="M541 271l3.5 0l0 -3.1l-3.5 0Z" fill="rgb(227,73,2)" fill-opacity="0.3"></path>
<path d="M546 271l3.5 0l0 -3.1l-3.5 0Z" fill="rgb(227,73,2)" fill-opacity="0.3"></path>
<path d="M551 271l3.5 0l0 -3.1l-3.5 0Z" fill="rgb(227,73,2)" fill-opacity="0.3"></path>
<path d="M556 271l3.5 0l0 -3.1l-3.5 0Z" fill="rgb(227,73,2)" fill-opacity="0.3"></path>
<path d="M561.1 271l3.5 0l0 -3.1l-3.5 0Z" fill="rgb(227,73,2)" fill-opacity="0.3"></path>
<path d="M566.1 271l3.5 0l0 -1.6l-3.5 0Z" fill="rgb(227,73,2)" fill-opacity="0.3"></path>
<path d="M571.1 271l3.5 0l0 -1.6l-3.5 0Z" fill="rgb(227,73,2)" fill-opacity="0.3"></path>
<path d="M576.1 271l3.5 0l0 -1.6l-3.5 0Z" fill="rgb(227,73,2)" fill-opacity="0.3"></path>
<path d="M581.1 271l3.5 0l0 -1.6l-3.5 0Z" fill="rgb(227,73,2)" fill-opacity="0.3"></path>
<path d="M586.2 271l3.5 0l0 -0.8l-3.5 0Z" fill="rgb(227,73,2)" fill-opacity="0.3"></path>
<path d="M591.2 271l3.5 0l0 -0.8l-3.5 0Z" fill="rgb(227,73,2)" fill-opacity="0.3"></path>
<path d="M596.2 271l3.5 0l0 -0.8l-3.5 0Z" fill="rgb(227,73,2)" fill-opacity="0.3"></path>
<path d="M601.2 271l3.5 0l0 -0.8l-3.5 0Z" fill="rgb(227,73,2)" fill-opacity="0.3"></path>
<path d="M606.2 271l3.5 0l0 -0.8l-3.5 0Z" fill="rgb(227,73,2)" fill-opacity="0.3"></path>
<path d="M611.3 271l3.5 0l0 -0.8l-3.5 0Z" fill="rgb(227,73,2)" fill-opacity="0.3"></path>
<path d="M616.3 271l3.5 0l0 -0.8l-3.5 0Z" fill="rgb(227,73,2)" fill-opacity="0.3"></path>
<path d="M621.3 271l3.5 0l0 -0.8l-3.5 0Z" fill="rgb(227,73,2)" fill-opacity="0.3"></path>
<path d="M626.3 271l3.5 0l0 -0.8l-3.5 0Z" fill="rgb(227,73,2)" fill-opacity="0.3"></path>
<path d="M631.3 271l3.5 0l0 -0.8l-3.5 0Z" fill="rgb(227,73,2)" fill-opacity="0.3"></path>
<path d="M636.4 271l3.5 0l0 -0.8l-3.5 0Z" fill="rgb(227,73,2)" fill-opacity="0.3"></path>
<path d="M641.4 271l3.5 0l0 -0.8l-3.5 0Z" fill="rgb(227,73,2)" fill-opacity="0.3"></path>
<path d="M646.4 271l3.5 0l0 -0.8l-3.5 0Z" fill="rgb(227,73,2)" fill-opacity="0.3"></path>
<path d="M651.4 271l3.5 0l0 -0.8l-3.5 0Z" fill="rgb(227,73,2)" fill-opacity="0.3"></path>
<path d="M656.5 271l3.5 0l0 -0.8l-3.5 0Z" fill="rgb(227,73,2)" fill-opacity="0.3"></path>
<path d="M661.5 271l3.5 0l0 -0.8l-3.5 0Z" fill="rgb(227,73,2)" fill-opacity="0.3"></path>
<path d="M666.5 271l3.5 0l0 -0.8l-3.5 0Z" fill="rgb(227,73,2)" fill-opacity="0.3"></path>
<path d="M671.5 271l3.5 0l0 -0.8l-3.5 0Z" fill="rgb(227,73,2)" fill-opacity="0.3"></path>
<path d="M676.5 271l3.5 0l0 -0.8l-3.5 0Z" fill="rgb(227,73,2)" fill-opacity="0.3"></path>
<path d="M681.6 271l3.5 0l0 -0.8l-3.5 0Z" fill="rgb(227,73,2)" fill-opacity="0.3"></path>
<path d="M686.6 271l3.5 0l0 -0.8l-3.5 0Z" fill="rgb(227,73,2)" fill-opacity="0.3"></path>
<path d="M691.6 271l3.5 0l0 -0.8l-3.5 0Z" fill="rgb(227,73,2)" fill-opacity="0.3"></path>
<path d="M696.6 271l3.5 0l0 -0.8l-3.5 0Z" fill="rgb(227,73,2)" fill-opacity="0.3"></path>
<path d="M701.6 271l3.5 0l0 -0.8l-3.5 0Z" fill="rgb(227,73,2)" fill-opacity="0.3"></path>
<path d="M706.7 271l3.5 0l0 -0.8l-3.5 0Z" fill="rgb(227,73,2)" fill-opacity="0.3"></path>
<path d="M711.7 271l3.5 0l0 -0.8l-3.5 0Z" fill="rgb(227,73,2)" fill-opacity="0.3"></path>
<path d="M716.7 271l3.5 0l0 -0.8l-3.5 0Z" fill="rgb(227,73,2)" fill-opacity="0.3"></path>
<path d="M721.7 271l3.5 0l0 -0.8l-3.5 0Z" fill="rgb(227,73,2)" fill-opacity="0.3"></path>
<path d="M726.8 271l3.5 0l0 -0.8l-3.5 0Z" fill="rgb(227,73,2)" fill-opacity="0.3"></path>
<path d="M731.8 271l3.5 0l0 -0.8l-3.5 0Z" fill="rgb(227,73,2)" fill-opacity="0.3"></path>
<path d="M736.8 271l3.5 0l0 -0.8l-3.5 0Z" fill="rgb(227,73,2)" fill-opacity="0.3"></path>
<path d="M741.8 271l3.5 0l0 -0.8l-3.5 0Z" fill="rgb(227,73,2)" fill-opacity="0.3"></path>
<path d="M746.8 271l3.5 0l0 -0.8l-3.5 0Z" fill="rgb(227,73,2)" fill-opacity="0.3"></path>
<path d="M751.9 271l3.5 0l0 -0.8l-3.5 0Z" fill="rgb(227,73,2)" fill-opacity="0.3"></path>
<path d="M756.9 271l3.5 0l0 -0.8l-3.5 0Z" fill="rgb(227,73,2)" fill-opacity="0.3"></path>
<path d="M761.9 271l3.5 0l0 -0.8l-3.5 0Z" fill="rgb(227,73,2)" fill-opacity="0.3"></path>
<path d="M766.9 271l3.5 0l0 -0.8l-3.5 0Z" fill="rgb(227,73,2)" fill-opacity="0.3"></path>
<path d="M771.9 271l3.5 0l0 -0.8l-3.5 0Z" fill="rgb(227,73,2)" fill-opacity="0.3"></path>
<path d="M777 271l3.5 0l0 -0.8l-3.5 0Z" fill="rgb(227,73,2)" fill-opacity="0.3"></path>
<path d="M782 271l3.5 0l0 -0.8l-3.5 0Z" fill="rgb(227,73,2)" fill-opacity="0.3"></path>
<path d="M787 271l3.5 0l0 -0.8l-3.5 0Z" fill="rgb(227,73,2)" fill-opacity="0.3"></path>
<path d="M792 271l3.5 0l0 -0.8l-3.5 0Z" fill="rgb(227,73,2)" fill-opacity="0.3"></path>
<path d="M797 271l3.5 0l0 -0.8l-3.5 0Z" fill="rgb(227,73,2)" fill-opacity="0.3"></path>
<path d="M802.1 271l3.5 0l0 -0.8l-3.5 0Z" fill="rgb(227,73,2)" fill-opacity="0.3"></path>
<path d="M807.1 271l3.5 0l0 -0.8l-3.5 0Z" fill="rgb(227,73,2)" fill-opacity="0.3"></path>
<path d="M812.1 271l3.5 0l0 -0.8l-3.5 0Z" fill="rgb(227,73,2)" fill-opacity="0.3"></path>
<path d="M817.1 271l3.5 0l0 -0.8l-3.5 0Z" fill="rgb(227,73,2)" fill-opacity="0.3"></path>
<path d="M822.2 271l3.5 0l0 -0.8l-3.5 0Z" fill="rgb(227,73,2)" fill-opacity="0.3"></path>
<path d="M827.2 271l3.5 0l0 -0.8l-3.5 0Z" fill="rgb(227,73,2)" fill-opacity="0.3"></path>
<path d="M832.2 271l3.5 0l0 -0.8l-3.5 0Z" fill="rgb(227,73,2)" fill-opacity="0.3"></path>
<path d="M837.2 271l3.5 0l0 -0.8l-3.5 0Z" fill="rgb(227,73,2)" fill-opacity="0.3"></path>
<path d="M842.2 271l3.5 0l0 -0.8l-3.5 0Z" fill="rgb(227,73,2)" fill-opacity="0.3"></path>
<path d="M847.3 271l3.5 0l0 -0.8l-3.5 0Z" fill="rgb(227,73,2)" fill-opacity="0.3"></path>
<path d="M852.3 271l3.5 0l0 -0.8l-3.5 0Z" fill="rgb(227,73,2)" fill-opacity="0.3"></path>
<path d="M857.3 271l3.5 0l0 -0.8l-3.5 0Z" fill="rgb(227,73,2)" fill-opacity="0.3"></path>
<path d="M862.3 271l3.5 0l0 -0.8l-3.5 0Z" fill="rgb(227,73,2)" fill-opacity="0.3"></path>
<path d="M867.3 271l3.5 0l0 -0.8l-3.5 0Z" fill="rgb(227,73,2)" fill-opacity="0.3"></path>
<path d="M872.4 271l3.5 0l0 -0.8l-3.5 0Z" fill="rgb(227,73,2)" fill-opacity="0.3"></path>
<path d="M877.4 271l3.5 0l0 -0.8l-3.5 0Z" fill="rgb(227,73,2)" fill-opacity="0.3"></path>
<path d="M882.4 271l3.5 0l0 -0.8l-3.5 0Z" fill="rgb(227,73,2)" fill-opacity="0.3"></path>
<path d="M887.4 271l3.5 0l0 -0.8l-3.5 0Z" fill="rgb(227,73,2)" fill-opacity="0.3"></path>
<path d="M892.4 271l3.5 0l0 -0.8l-3.5 0Z" fill="rgb(227,73,2)" fill-opacity="0.3"></path>
<path d="M897.5 271l3.5 0l0 -0.8l-3.5 0Z" fill="rgb(227,73,2)" fill-opacity="0.3"></path>
<path d="M902.5 271l3.5 0l0 -0.8l-3.5 0Z" fill="rgb(227,73,2)" fill-opacity="0.3"></path>
<path d="M907.5 271l3.5 0l0 -0.8l-3.5 0Z" fill="rgb(227,73,2)" fill-opacity="0.3"></path>
<path d="M912.5 271l3.5 0l0 -0.8l-3.5 0Z" fill="rgb(227,73,2)" fill-opacity="0.3"></path>
<path d="M917.6 271l3.5 0l0 -0.8l-3.5 0Z" fill="rgb(227,73,2)" fill-opacity="0.3"></path>
<path d="M922.6 271l3.5 0l0 -0.8l-3.5 0Z" fill="rgb(227,73,2)" fill-opacity="0.3"></path>
<path d="M927.6 271l3.5 0l0 0l-3.5 0Z" fill="rgb(227,73,2)" fill-opacity="0.3"></path>
<path d="M-5 -5l226.9 0l0 24l-226.9 0Z" transform="translate(391.54 5)" fill="rgb(0,0,0)" fill-opacity="0" stroke="#ccc" stroke-width="0"></path>
<path d="M3.5 0L21.5 0A3.5 3.5 0 0 1 25 3.5L25 10.5A3.5 3.5 0 0 1 21.5 14L3.5 14A3.5 3.5 0 0 1 0 10.5L0 3.5A3.5 3.5 0 0 1 3.5 0" transform="translate(391.54 5)" fill="rgb(227,73,2)" fill-opacity="0.3"></path>
<text dominant-baseline="central" text-anchor="start" style="font-size:12px;font-family:sans-serif;" xml:space="preserve" x="30" y="7" transform="translate(391.54 5)" fill="#333">Times completed</text>
<path d="M0 7L25 7" transform="translate(524.1 5)" fill="#000" stroke="#E34902" stroke-width="2" stroke-linecap="butt" stroke-miterlimit="10"></path>
<path d="M18.1 7A5.6 5.6 0 1 1 18.1 6.4A5.6 5.6 0 0 1 18.1 7" transform="translate(524.1 5)" fill="#fff" stroke="#E34902" stroke-width="2" stroke-linecap="butt" stroke-miterlimit="10"></path>
<text dominant-baseline="central" text-anchor="start" style="font-size:12px;font-family:sans-serif;" x="30" y="7" transform="translate(524.1 5)" fill="#333">Eddington</text>
<path d="M-0.54 -0.89A0.6 0.6 0 1 1 0.54 -0.89C0.39 -0.56 0 -0.42 0 0C0 -0.42 -0.39 -0.56 -0.54 -0.89Z" transform="matrix(25,0,0,25,316.7492,226.1444)" fill="rgb(227,73,2)" fill-opacity="0.8"></path>
<text dominant-baseline="central" text-anchor="middle" style="font-size:12px;font-family:sans-serif;" transform="translate(316.7492 200.0016)" fill="#eee" stroke="rgb(227,73,2)" stroke-width="2" paint-order="stroke" stroke-opacity="0.8" stroke-miterlimit="2">52</text>
<g clip-path="url(#zr0-c0)">
<path d="M60.7 270.2L65.7 269.4L70.7 268.7L75.7 267.9L80.8 267.1L85.8 266.3L90.8 265.5L95.8 264.7L100.8 264L105.9 263.2L110.9 262.4L115.9 261.6L120.9 260.8L125.9 260.1L131 259.3L136 258.5L141 257.7L146 256.9L151.1 256.2L156.1 255.4L161.1 254.6L166.1 253.8L171.1 253L176.2 252.2L181.2 251.5L186.2 250.7L191.2 249.9L196.2 249.1L201.3 248.3L206.3 247.6L211.3 246.8L216.3 246L221.3 245.2L226.4 244.4L231.4 243.6L236.4 242.9L241.4 242.1L246.5 241.3L251.5 240.5L256.5 239.7L261.5 239L266.5 238.2L271.6 237.4L276.6 236.6L281.6 235.8L286.6 235.1L291.6 234.3L296.7 233.5L301.7 232.7L306.7 231.9L311.7 231.1L316.7 230.4L321.8 229.6L326.8 228.8L331.8 228L336.8 227.2L341.9 226.5L346.9 225.7L351.9 224.9L356.9 224.1L361.9 223.3L367 222.5L372 221.8L377 221L382 220.2L387 219.4L392.1 218.6L397.1 217.9L402.1 217.1L407.1 216.3L412.2 215.5L417.2 214.7L422.2 214L427.2 213.2L432.2 212.4L437.3 211.6L442.3 210.8L447.3 210L452.3 209.3L457.3 208.5L462.4 207.7L467.4 206.9L472.4 206.1L477.4 205.4L482.4 204.6L487.5 203.8L492.5 203L497.5 202.2L502.5 201.4L507.6 200.7L512.6 199.9L517.6 199.1L522.6 198.3L527.6 197.5L532.7 196.8L537.7 196L542.7 195.2L547.7 194.4L552.7 193.6L557.8 192.9L562.8 192.1L567.8 191.3L572.8 190.5L577.8 189.7L582.9 188.9L587.9 188.2L592.9 187.4L597.9 186.6L603 185.8L608 185L613 184.3L618 183.5L623 182.7L628.1 181.9L633.1 181.1L638.1 180.3L643.1 179.6L648.1 178.8L653.2 178L658.2 177.2L663.2 176.4L668.2 175.7L673.3 174.9L678.3 174.1L683.3 173.3L688.3 172.5L693.3 171.8L698.4 171L703.4 170.2L708.4 169.4L713.4 168.6L718.4 167.8L723.5 167.1L728.5 166.3L733.5 165.5L738.5 164.7L743.5 163.9L748.6 163.2L753.6 162.4L758.6 161.6L763.6 160.8L768.7 160L773.7 159.2L778.7 158.5L783.7 157.7L788.7 156.9L793.8 156.1L798.8 155.3L803.8 154.6L808.8 153.8L813.8 153L818.9 152.2L823.9 151.4L828.9 150.7L833.9 149.9L838.9 149.1L844 148.3L849 147.5L854 146.7L859 146L864.1 145.2L869.1 144.4L874.1 143.6L879.1 142.8L884.1 142.1L889.2 141.3L894.2 140.5L899.2 139.7L904.2 138.9L909.2 138.1L914.3 137.4L919.3 136.6L924.3 135.8L929.3 135" fill="none" stroke="#E34902" stroke-width="2" stroke-linejoin="bevel"></path>
</g>
<defs >
<clipPath id="zr0-c0">
<path d="M57 59l876 0l0 213l-876 0Z" fill="#000"></path>
</clipPath>
</defs>
</svg>