<svg width="1000" height="300" xmlns="http://www.w3.org/2000/svg" xmlns:xlink="http://www.w3.org/1999/xlink" version="1.1" baseProfile="full" viewBox="0 0 1000 300">
<rect width="1000" height="300" x="0" y="0" id="0" fill="#ffffff"></rect>
<path d="M58.2 271.5L931.8 271.5" fill="none" stroke="#E0E6F1"></path>
<path d="M58.2 229.5L931.8 229.5" fill="none" stroke="#E0E6F1"></path>
<path d="M58.2 186.5L931.8 186.5" fill="none" stroke="#E0E6F1"></path>
<path d="M58.2 144.5L931.8 144.5" fill="none" stroke="#E0E6F1"></path>
<path d="M58.2 102.5L931.8 102.5" fill="none" stroke="#E0E6F1"></path>
<path d="M58.2 60.5L931.8 60.5" fill="none" stroke="#E0E6F1"></path>
<path d="M58.2 271.5L931.8 271.5" fill="none" stroke="#6E7079" stroke-linecap="round"></path>
<path d="M60.5 271L60.5 276" fill="none" stroke="#6E7079"></path>
<path d="M111.5 271L111.5 276" fill="none" stroke="#6E7079"></path>
<path d="M161.5 271L161.5 276" fill="none" stroke="#6E7079"></path>
<path d="M211.5 271L211.5 276" fill="none" stroke="#6E7079"></path>
<path d="M261.5 271L261.5 276" fill="none" stroke="#6E7079"></path>
<path d="M311.5 271L311.5 276" fill="none" stroke="#6E7079"></path>
<path d="M362.5 271L362.5 276" fill="none" stroke="#6E7079"></path>
<path d="M412.5 271L412.5 276" fill="none" stroke="#6E7079"></path>
<path d="M462.5 271L462.5 276" fill="none" stroke="#6E7079"></path>
<path d="M512.5 271L512.5 276" fill="none" stroke="#6E7079"></path>
<path d="M563.5 271L563.5 276" fill="none" stroke="#6E7079"></path>
<path d="M613.5 271L613.5 276" fill="none" stroke="#6E7079"></path>
<path d="M663.5 271L663.5 276" fill="none" stroke="#6E7079"></path>
<path d="M713.5 271L713.5 276" fill="none" stroke="#6E7079"></path>
<path d="M763.5 271L763.5 276" fill="none" stroke="#6E7079"></path>
<path d="M814.5 271L814.5 276" fill="none" stroke="#6E7079"></path>
<path d="M864.5 271L864.5 276" fill="none" stroke="#6E7079"></path>
<path d="M914.5 271L914.5 276" fill="none" stroke="#6E7079"></path>
<text dominant-baseline="central" text-anchor="end" style="font-size:12px;font-family:sans-serif;" transform="translate(50.16 271)" fill="#6E7079">0</text>
<text dominant-baseline="central" text-anchor="end" style="font-size:12px;font-family:sans-serif;" transform="translate(50.16 228.8)" fill="#6E7079">90</text>
<text dominant-baseline="central" text-anchor="end" style="font-size:12px;font-family:sans-serif;" transform="translate(50.16 186.6)" fill="#6E7079">180</text>
<text dominant-baseline="central" text-anchor="end" style="font-size:12px;font-family:sans-serif;" transform="translate(50.16 144.4)" fill="#6E7079">270</text>
<text dominant-baseline="central" text-anchor="end" style="font-size:12px;font-family:sans-serif;" transform="translate(50.16 102.2)" fill="#6E7079">360</text>
<text dominant-baseline="central" text-anchor="end" style="font-size:12px;font-family:sans-serif;" transform="translate(50.16 60)" fill="#6E7079">450</text>
<text dominant-baseline="central" text-anchor="start" style="font-size:12px;font-family:sans-serif;" transform="translate(939.84 271)" fill="#6E7079">0</text>
<text dominant-baseline="central" text-anchor="start" style="font-size:12px;font-family:sans-serif;" transform="translate(939.84 228.8)" fill="#6E7079">90</text>
<text dominant-baseline="central" text-anchor="start" style="font-size:12px;font-family:sans-serif;" transform="translate(939.84 186.6)" fill="#6E7079">180</text>
<text dominant-baseline="central" text-anchor="start" style="font-size:12px;font-family:sans-serif;" transform="translate(939.84 144.4)" fill="#6E7079">270</text>
<text dominant-baseline="central" text-anchor="start" style="font-size:12px;font-family:sans-serif;" transform="translate(939.84 102.2)" fill="#6E7079">360</text>
<text dominant-baseline="central" text-anchor="start" style="font-size:12px;font-family:sans-serif;" transform="translate(939.84 60)" fill="#6E7079">450</text>
<text dominant-baseline="central" text-anchor="middle" style="font-size:12px;font-family:sans-serif;" y="6" transform="translate(60.6706 279)" fill="#6E7079">1km</text>
<text dominant-baseline="central" text-anchor="middle" style="font-size:12px;font-family:sans-serif;" y="6" transform="translate(110.8821 279)" fill="#6E7079">11km</text>
<text dominant-baseline="central" text-anchor="middle" style="font-size:12px;font-family:sans-serif;" y="6" transform="translate(161.0936 279)" fill="#6E7079">21km</text>
<text dominant-baseline="central" text-anchor="middle" style="font-size:12px;font-family:sans-serif;" y="6" transform="translate(211.3051 279)" fill="#6E7079">31km</text>
<text dominant-baseline="central" text-anchor="middle" style="font-size:12px;font-family:sans-serif;" y="6" transform="translate(261.5166 279)" fill="#6E7079">41km</text>
<text dominant-baseline="central" text-anchor="middle" style="font-size:12px;font-family:sans-serif;" y="6" transform="translate(311.728 279)" fill="#6E7079">51km</text>
<text dominant-baseline="central" text-anchor="middle" style="font-size:12px;font-family:sans-serif;" y="6" transform="translate(361.9395 279)" fill="#6E7079">61km</text>
<text dominant-baseline="central" text-anchor="middle" style="font-size:12px;font-family:sans-serif;" y="6" transform="translate(412.151 279)" fill="#6E7079">71km</text>
<text dominant-baseline="central" text-anchor="middle" style="font-size:12px;font-family:sans-serif;" y="6" transform="translate(462.3625 279)" fill="#6E7079">81km</text>
<text dominant-baseline="central" text-anchor="middle" style="font-size:12px;font-family:sans-serif;" y="6" transform="translate(512.574 279)" fill="#6E7079">91km</text>
<text dominant-baseline="central" text-anchor="middle" style="font-size:12px;font-family:sans-serif;" y="6" transform="translate(562.7855 279)" fill="#6E7079">101km</text>
<text dominant-baseline="central" text-anchor="middle" style="font-size:12px;font-family:sans-serif;" y="6" transform="translate(612.997 279)" fill="#6E7079">111km</text>
<text dominant-baseline="central" text-anchor="middle" style="font-size:12px;font-family:sans-serif;" y="6" transform="translate(663.2085 279)" fill="#6E7079">121km</text>
<text dominant-baseline="central" text-anchor="middle" style="font-size:12px;font-family:sans-serif;" y="6" transform="translate(713.42 279)" fill="#6E7079">131km</text>
<text dominant-baseline="central" text-anchor="middle" style="font-size:12px;font-family:sans-serif;" y="6" transform="translate(763.6315 279)" fill="#6E7079">141km</text>
<text dominant-baseline="central" text-anchor="middle" style="font-size:12px;font-family:sans-serif;" y="6" transform="translate(813.843 279)" fill="#6E7079">151km</text>
<text dominant-baseline="central" text-anchor="middle" style="font-size:12px;font-family:sans-serif;" y="6" transform="translate(864.0545 279)" fill="#6E7079">161km</text>
<text dominant-baseline="central" text-anchor="middle" style="font-size:12px;font-family:sans-serif;" y="6" transform="translate(914.266 279)" fill="#6E7079">171km</text>
<path d="M58.9 271l3.5 0l0 -206.3l-3.5 0Z" fill="rgb(227,73,2)" fill-opacity="0.3"></path>
<path d="M64 271l3.5 0l0 -206.3l-3.5 0Z" fill="rgb(227,73,2)" fill-opacity="0.3"></path>
<path d="M69 271l3.5 0l0 -205.8l-3.5 0Z" fill="rgb(227,73,2)" fill-opacity="0.3"></path>
<path d="M74 271l3.5 0l0 -205.8l-3.5 0Z" fill="rgb(227,73,2)" fill-opacity="0.3"></path>
<path d="M79 271l3.5 0l0 -204.4l-3.5 0Z" fill="rgb(227,73,2)" fill-opacity="0.3"></path>
<path d="M84 271l3.5 0l0 -197.4l-3.5 0Z" fill="rgb(227,73,2)" fill-opacity="0.3"></path>
<path d="M89.1 271l3.5 0l0 -196.9l-3.5 0Z" fill="rgb(227,73,2)" fill-opacity="0.3"></path>
<path d="M94.1 271l3.5 0l0 -194.1l-3.5 0Z" fill="rgb(227,73,2)" fill-opacity="0.3"></path>
<path d="M99.1 271l3.5 0l0 -193.2l-3.5 0Z" fill="rgb(227,73,2)" fill-opacity="0.3"></path>
<path d="M104.1 271l3.5 0l0 -192.2l-3.5 0Z" fill="rgb(227,73,2)" fill-opacity="0.3"></path>
<path d="M109.1 271l3.5 0l0 -188.5l-3.5 0Z" fill="rgb(227,73,2)" fill-opacity="0.3"></path>
<path d="M114.2 271l3.5 0l0 -186.1l-3.5 0Z" fill="rgb(227,73,2)" fill-opacity="0.3"></path>
<path d="M119.2 271l3.5 0l0 -181.5l-3.5 0Z" fill="rgb(227,73,2)" fill-opacity="0.3"></path>
<path d="M124.2 271l3.5 0l0 -180.1l-3.5 0Z" fill="rgb(227,73,2)" fill-opacity="0.3"></path>
<path d="M129.2 271l3.5 0l0 -179.6l-3.5 0Z" fill="rgb(227,73,2)" fill-opacity="0.3"></path>
<path d="M134.3 271l3.5 0l0 -178.6l-3.5 0Z" fill="rgb(227,73,2)" fill-opacity="0.3"></path>
<path d="M139.3 271l3.5 0l0 -178.2l-3.5 0Z" fill="rgb(227,73,2)" fill-opacity="0.3"></path>
<path d="M144.3 271l3.5 0l0 -176.3l-3.5 0Z" fill="rgb(227,73,2)" fill-opacity="0.3"></path>
<path d="M149.3 271l3.5 0l0 -175.8l-3.5 0Z" fill="rgb(227,73,2)" fill-opacity="0.3"></path>
<path d="M154.3 271l3.5 0l0 -174.9l-3.5 0Z" fill="rgb(227,73,2)" fill-opacity="0.3"></path>
<path d="M159.4 271l3.5 0l0 -174.4l-3.5 0Z" fill="rgb(227,73,2)" fill-opacity="0.3"></path>
<path d="M164.4 271l3.5 0l0 -173l-3.5 0Z" fill="rgb(227,73,2)" fill-opacity="0.3"></path>
<path d="M169.4 271l3.5 0l0 -169.7l-3.5 0Z" fill="rgb(227,73,2)" fill-opacity="0.3"></path>
<path d="M174.4 271l3.5 0l0 -168.3l-3.5 0Z" fill="rgb(227,73,2)" fill-opacity="0.3"></path>
<path d="M179.4 271l3.5 0l0 -167.9l-3.5 0Z" fill="rgb(227,73,2)" fill-opacity="0.3"></path>
<path d="M184.5 271l3.5 0l0 -165l-3.5 0Z" fill="rgb(227,73,2)" fill-opacity="0.3"></path>
<path d="M189.5 271l3.5 0l0 -161.8l-3.5 0Z" fill="rgb(227,73,2)" fill-opacity="0.3"></path>
<path d="M194.5 271l3.5 0l0 -159.4l-3.5 0Z" fill="rgb(227,73,2)" fill-opacity="0.3"></path>
<path d="M199.5 271l3.5 0l0 -154.3l-3.5 0Z" fill="rgb(227,73,2)" fill-opacity="0.3"></path>
<path d="M204.6 271l3.5 0l0 -150.5l-3.5 0Z" fill="rgb(227,73,2)" fill-opacity="0.3"></path>
<path d="M209.6 271l3.5 0l0 -143.9l-3.5 0Z" fill="rgb(227,73,2)" fill-opacity="0.3"></path>
<path d="M214.6 271l3.5 0l0 -139.7l-3.5 0Z" fill="rgb(227,73,2)" fill-opacity="0.3"></path>
<path d="M219.6 271l3.5 0l0 -136.4l-3.5 0Z" fill="rgb(227,73,2)" fill-opacity="0.3"></path>
<path d="M224.6 271l3.5 0l0 -133.6l-3.5 0Z" fill="rgb(227,73,2)" fill-opacity="0.3"></path>
<path d="M229.7 271l3.5 0l0 -130.4l-3.5 0Z" fill="rgb(227,73,2)" fill-opacity="0.3"></path>
<path d="M234.7 271l3.5 0l0 -124.7l-3.5 0Z" fill="rgb(227,73,2)" fill-opacity="0.3"></path>
<path d="M239.7 271l3.5 0l0 -118.2l-3.5 0Z" fill="rgb(227,73,2)" fill-opacity="0.3"></path>
<path d="M244.7 271l3.5 0l0 -113.9l-3.5 0Z" fill="rgb(227,73,2)" fill-opacity="0.3"></path>
<path d="M249.7 271l3.5 0l0 -110.7l-3.5 0Z" fill="rgb(227,73,2)" fill-opacity="0.3"></path>
<path d="M254.8 271l3.5 0l0 -107.8l-3.5 0Z" fill="rgb(227,73,2)" fill-opacity="0.3"></path>
<path d="M259.8 271l3.5 0l0 -104.6l-3.5 0Z" fill="rgb(227,73,2)" fill-opacity="0.3"></path>
<path d="M264.8 271l3.5 0l0 -99.9l-3.5 0Z" fill="rgb(227,73,2)" fill-opacity="0.3"></path>
<path d="M269.8 271l3.5 0l0 -94.2l-3.5 0Z" fill="rgb(227,73,2)" fill-opacity="0.3"></path>
<path d="M274.8 271l3.5 0l0 -88.2l-3.5 0Z" fill="rgb(227,73,2)" fill-opacity="0.3"></path>
<path d="M279.9 271l3.5 0l0 -84.4l-3.5 0Z" fill="rgb(227,73,2)" fill-opacity="0.3"></path>
<path d="M284.9 271l3.5 0l0 -81.6l-3.5 0Z" fill="rgb(227,73,2)" fill-opacity="0.3"></path>
<path d="M289.9 271l3.5 0l0 -76.9l-3.5 0Z" fill="rgb(227,73,2)" fill-opacity="0.3"></path>
<path d="M294.9 271l3.5 0l0 -72.2l-3.5 0Z" fill="rgb(227,73,2)" fill-opacity="0.3"></path>
<path d="M300 271l3.5 0l0 -68l-3.5 0Z" fill="rgb(227,73,2)" fill-opacity="0.3"></path>
<path d="M305 271l3.5 0l0 -61.4l-3.5 0Z" fill="rgb(227,73,2)" fill-opacity="0.3"></path>
<path d="M310 271l3.5 0l0 -57.2l-3.5 0Z" fill="rgb(227,73,2)" fill-opacity="0.3"></path>
<path d="M315 271l3.5 0l0 -53l-3.5 0Z" fill="rgb(227,73,2)" fill-opacity="0.3"></path>
<path d="M320 271l3.5 0l0 -43.1l-3.5 0Z" fill="rgb(227,73,2)" fill-opacity="0.3"></path>
<path d="M325.1 271l3.5 0l0 -40.3l-3.5 0Z" fill="rgb(227,73,2)" fill-opacity="0.3"></path>
<path d="M330.1 271l3.5 0l0 -36.1l-3.5 0Z" fill="rgb(227,73,2)" fill-opacity="0.3"></path>
<path d="M335.1 271l3.5 0l0 -32.4l-3.5 0Z" fill="rgb(227,73,2)" fill-opacity="0.3"></path>
<path d="M340.1 271l3.5 0l0 -29.5l-3.5 0Z" fill="rgb(227,73,2)" fill-opacity="0.3"></path>
<path d="M345.1 271l3.5 0l0 -27.7l-3.5 0Z" fill="rgb(227,73,2)" fill-opacity="0.8"></path>
<path d="M350.2 271l3.5 0l0 -26.7l-3.5 0Z" fill="rgb(227,73,2)" fill-opacity="0.3"></path>
<path d="M355.2 271l3.5 0l0 -25.3l-3.5 0Z" fill="rgb(227,73,2)" fill-opacity="0.3"></path>
<path d="M360.2 271l3.5 0l0 -22.5l-3.5 0Z" fill="rgb(227,73,2)" fill-opacity="0.3"></path>
<path d="M365.2 271l3.5 0l0 -22l-3.5 0Z" fill="rgb(227,73,2)" fill-opacity="0.3"></path>
<path d="M370.2 271l3.5 0l0 -20.2l-3.5 0Z" fill="rgb(227,73,2)" fill-opacity="0.3"></path>
<path d="M375.3 271l3.5 0l0 -19.7l-3.5 0Z" fill="rgb(227,73,2)" fill-opacity="0.3"></path>
<path d="M380.3 271l3.5 0l0 -18.3l-3.5 0Z" fill="rgb(227,73,2)" fill-opacity="0.3"></path>
<path d="M385.3 271l3.5 0l0 -17.3l-3.5 0Z" fill="rgb(227,73,2)" fill-opacity="0.3"></path>
<path d="M390.3 271l3.5 0l0 -16.4l-3.5 0Z" fill="rgb(227,73,2)" fill-opacity="0.3"></path>
<path d="M395.4 271l3.5 0l0 -15.5l-3.5 0Z" fill="rgb(227,73,2)" fill-opacity="0.3"></path>
<path d="M400.4 271l3.5 0l0 -15.5l-3.5 0Z" fill="rgb(227,73,2)" fill-opacity="0.3"></path>
<path d="M405.4 271l3.5 0l0 -14.5l-3.5 0Z" fill="rgb(227,73,2)" fill-opacity="0.3"></path>
<path d="M410.4 271l3.5 0l0 -12.7l-3.5 0Z" fill="rgb(227,73,2)" fill-opacity="0.3"></path>
<path d="M415.4 271l3.5 0l0 -11.7l-3.5 0Z" fill="rgb(227,73,2)" fill-opacity="0.3"></path>
<path d="M420.5 271l3.5 0l0 -11.3l-3.5 0Z" fill="rgb(227,73,2)" fill-opacity="0.3"></path>
<path d="M425.5 271l3.5 0l0 -9.4l-3.5 0Z" fill="rgb(227,73,2)" fill-opacity="0.3"></path>
<path d="M430.5 271l3.5 0l0 -9.4l-3.5 0Z" fill="rgb(227,73,2)" fill-opacity="0.3"></path>
<path d="M435.5 271l3.5 0l0 -9.4l-3.5 0Z" fill="rgb(227,73,2)" fill-opacity="0.3"></path>
<path d="M440.5 271l3.5 0l0 -9.4l-3.5 0Z" fill="rgb(227,73,2)" fill-opacity="0.3"></path>
<path d="M445.6 271l3.5 0l0 -9.4l-3.5 0Z" fill="rgb(227,73,2)" fill-opacity="0.3"></path>
<path d="M450.6 271l3.5 0l0 -9.4l-3.5 0Z" fill="rgb(227,73,2)" fill-opacity="0.3"></path>
<path d="M455.6 271l3.5 0l0 -8.9l-3.5 0Z" fill="rgb(227,73,2)" fill-opacity="0.3"></path>
<path d="M460.6 271l3.5 0l0 -8l-3.5 0Z" fill="rgb(227,73,2)" fill-opacity="0.3"></path>
<path d="M465.7 271l3.5 0l0 -7.5l-3.5 0Z" fill="rgb(227,73,2)" fill-opacity="0.3"></path>
<path d="M470.7 271l3.5 0l0 -6.6l-3.5 0Z" fill="rgb(227,73,2)" fill-opacity="0.3"></path>
<path d="M475.7 271l3.5 0l0 -6.1l-3.5 0Z" fill="rgb(227,73,2)" fill-opacity="0.3"></path>
<path d="M480.7 271l3.5 0l0 -6.1l-3.5 0Z" fill="rgb(227,73,2)" fill-opacity="0.3"></path>
<path d="M485.7 271l3.5 0l0 -6.1l-3.5 0Z" fill="rgb(227,73,2)" fill-opacity="0.3"></path>
<path d="M490.8 271l3.5 0l0 -6.1l-3.5 0Z" fill="rgb(227,73,2)" fill-opacity="0.3"></path>
<path d="M495.8 271l3.5 0l0 -6.1l-3.5 0Z" fill="rgb(227,73,2)" fill-opacity="0.3"></path>
<path d="M500.8 271l3.5 0l0 -5.2l-3.5 0Z" fill="rgb(227,73,2)" fill-opacity="0.3"></path>
<path d="M505.8 271l3.5 0l0 -4.7l-3.5 0Z" fill="rgb(227,73,2)" fill-opacity="0.3"></path>
<path d="M510.8 271l3.5 0l0 -4.2l-3.5 0Z" fill="rgb(227,73,2)" fill-opacity="0.3"></path>
<path d="M515.9 271l3.5 0l0 -3.8l-3.5 0Z" fill="rgb(227,73,2)" fill-opacity="0.3"></path>
<path d="M520.9 271l3.5 0l0 -3.3l-3.5 0Z" fill="rgb(227,73,2)" fill-opacity="0.3"></path>
<path d="M525.9 271l3.5 0l0 -3.3l-3.5 0Z" fill="rgb(227,73,2)" fill-opacity="0.3"></path>
<path d="M530.9 271l3.5 0l0 -3.3l-3.5 0Z" fill="rgb(227,73,2)" fill-opacity="0.3"></path>
<path d="M535.9 271l3.5 0l0 -3.3l-3.5 0Z" fill="rgb(227,73,2)" fill-opacity="0.3"></path>
<path d="M541 271l3.5 0l0 -3.3l-3.5 0Z" fill="rgb(227,73,2)" fill-opacity="0.3"></path>
<path d="M546 271l3.5 0l0 -3.3l-3.5 0Z" fill="rgb(227,73,2)" fill-opacity="0.3"></path>
<path d="M551 271l3.5 0l0 -3.3l-3.5 0Z" fill="rgb(227,73,2)" fill-opacity="0.3"></path>
<path d="M556 271l3.5 0l0 -3.3l-3.5 0Z" fill="rgb(227,73,2)" fill-opacity="0.3"></path>
<path d="M561.1 271l3.5 0l0 -2.8l-3.5 0Z" fill="rgb(227,73,2)" fill-opacity="0.3"></path>
<path d="M566.1 271l3.5 0l0 -1.9l-3.5 0Z" fill="rgb(227,73,2)" fill-opacity="0.3"></path>
<path d="M571.1 271l3.5 0l0 -1.9l-3.5 0Z" fill="rgb(227,73,2)" fill-opacity="0.3"></path>
<path d="M576.1 271l3.5 0l0 -1.9l-3.5 0Z" fill="rgb(227,73,2)" fill-opacity="0.3"></path>
<path d="M581.1 271l3.5 0l0 -1.9l-3.5 0Z" fill="rgb(227,73,2)" fill-opacity="0.3"></path>
<path d="M586.2 271l3.5 0l0 -1.4l-3.5 0Z" fill="rgb(227,73,2)" fill-opacity="0.3"></path>
<path d="M591.2 271l3.5 0l0 -1.4l-3.5 0Z" fill="rgb(227,73,2)" fill-opacity="0.3"></path>
<path d="M596.2 271l3.5 0l0 -1.4l-3.5 0Z" fill="rgb(227,73,2)" fill-opacity="0.3"></path>
<path d="M601.2 271l3.5 0l0 -1.4l-3.5 0Z" fill="rgb(227,73,2)" fill-opacity="0.3"></path>
<path d="M606.2 271l3.5 0l0 -1.4l-3.5 0Z" fill="rgb(227,73,2)" fill-opacity="0.3"></path>
<path d="M611.3 271l3.5 0l0 -0.9l-3.5 0Z" fill="rgb(227,73,2)" fill-opacity="0.3"></path>
<path d="M616.3 271l3.5 0l0 -0.5l-3.5 0Z" fill="rgb(227,73,2)" fill-opacity="0.3"></path>
<path d="M621.3 271l3.5 0l0 -0.5l-3.5 0Z" fill="rgb(227,73,2)" fill-opacity="0.3"></path>
<path d="M626.3 271l3.5 0l0 -0.5l-3.5 0Z" fill="rgb(227,73,2)" fill-opacity="0.3"></path>
<path d="M631.3 271l3.5 0l0 -0.5l-3.5 0Z" fill="rgb(227,73,2)" fill-opacity="0.3"></path>
<path d="M636.4 271l3.5 0l0 -0.5l-3.5 0Z" fill="rgb(227,73,2)" fill-opacity="0.3"></path>
<path d="M641.4 271l3.5 0l0 -0.5l-3.5 0Z" fill="rgb(227,73,2)" fill-opacity="0.3"></path>
<path d="M646.4 271l3.5 0l0 -0.5l-3.5 0Z" fill="rgb(227,73,2)" fill-opacity="0.3"></path>
<path d="M651.4 271l3.5 0l0 -0.5l-3.5 0Z" fill="rgb(227,73,2)" fill-opacity="0.3"></path>
<path d="M656.5 271l3.5 0l0 -0.5l-3.5 0Z" fill="rgb(227,73,2)" fill-opacity="0.3"></path>
<path d="M661.5 271l3.5 0l0 -0.5l-3.5 0Z" fill="rgb(227,73,2)" fill-opacity="0.3"></path>
<path d="M666.5 271l3.5 0l0 -0.5l-3.5 0Z" fill="rgb(227,73,2)" fill-opacity="0.3"></path>
<path d="M671.5 271l3.5 0l0 -0.5l-3.5 0Z" fill="rgb(227,73,2)" fill-opacity="0.3"></path>
<path d="M676.5 271l3.5 0l0 -0.5l-3.5 0Z" fill="rgb(227,73,2)" fill-opacity="0.3"></path>
<path d="M681.6 271l3.5 0l0 -0.5l-3.5 0Z" fill="rgb(227,73,2)" fill-opacity="0.3"></path>
<path d="M686.6 271l3.5 0l0 -0.5l-3.5 0Z" fill="rgb(227,73,2)" fill-opacity="0.3"></path>
<path d="M691.6 271l3.5 0l0 -0.5l-3.5 0Z" fill="rgb(227,73,2)" fill-opacity="0.3"></path>
<path d="M696.6 271l3.5 0l0 -0.5l-3.5 0Z" fill="rgb(227,73,2)" fill-opacity="0.3"></path>
<path d="M701.6 271l3.5 0l0 -0.5l-3.5 0Z" fill="rgb(227,73,2)" fill-opacity="0.3"></path>
<path d="M706.7 271l3.5 0l0 -0.5l-3.5 0Z" fill="rgb(227,73,2)" fill-opacity="0.3"></path>
<path d="M711.7 271l3.5 0l0 -0.5l-3.5 0Z" fill="rgb(227,73,2)" fill-opacity="0.3"></path>
<path d="M716.7 271l3.5 0l0 -0.5l-3.5 0Z" fill="rgb(227,73,2)" fill-opacity="0.3"></path>
<path d="M721.7 271l3.5 0l0 -0.5l-3.5 0Z" fill="rgb(227,73,2)" fill-opacity="0.3"></path>
<path d="M726.8 271l3.5 0l0 -0.5l-3.5 0Z" fill="rgb(227,73,2)" fill-opacity="0.3"></path>
<path d="M731.8 271l3.5 0l0 -0.5l-3.5 0Z" fill="rgb(227,73,2)" fill-opacity="0.3"></path>
<path d="M736.8 271l3.5 0l0 -0.5l-3.5 0Z" fill="rgb(227,73,2)" fill-opacity="0.3"></path>
<path d="M741.8 271l3.5 0l0 -0.5l-3.5 0Z" fill="rgb(227,73,2)" fill-opacity="0.3"></path>
<path d="M746.8 271l3.5 0l0 -0.5l-3.5 0Z" fill="rgb(227,73,2)" fill-opacity="0.3"></path>
<path d="M751.9 271l3.5 0l0 -0.5l-3.5 0Z" fill="rgb(227,73,2)" fill-opacity="0.3"></path>
<path d="M756.9 271l3.5 0l0 -0.5l-3.5 0Z" fill="rgb(227,73,2)" fill-opacity="0.3"></path>
<path d="M761.9 271l3.5 0l0 -0.5l-3.5 0Z" fill="rgb(227,73,2)" fill-opacity="0.3"></path>
<path d="M766.9 271l3.5 0l0 -0.5l-3.5 0Z" fill="rgb(227,73,2)" fill-opacity="0.3"></path>
<path d="M771.9 271l3.5 0l0 -0.5l-3.5 0Z" fill="rgb(227,73,2)" fill-opacity="0.3"></path>
<path d="M777 271l3.5 0l0 -0.5l-3.5 0Z" fill="rgb(227,73,2)" fill-opacity="0.3"></path>
<path d="M782 271l3.5 0l0 -0.5l-3.5 0Z" fill="rgb(227,73,2)" fill-opacity="0.3"></path>
<path d="M787 271l3.5 0l0 -0.5l-3.5 0Z" fill="rgb(227,73,2)" fill-opacity="0.3"></path>
<path d="M792 271l3.5 0l0 -0.5l-3.5 0Z" fill="rgb(227,73,2)" fill-opacity="0.3"></path>
<path d="M797 271l3.5 0l0 -0.5l-3.5 0Z" fill="rgb(227,73,2)" fill-opacity="0.3"></path>
<path d="M802.1 271l3.5 0l0 -0.5l-3.5 0Z" fill="rgb(227,73,2)" fill-opacity="0.3"></path>
<path d="M807.1 271l3.5 0l0 -0.5l-3.5 0Z" fill="rgb(227,73,2)" fill-opacity="0.3"></path>
<path d="M812.1 271l3.5 0l0 -0.5l-3.5 0Z" fill="rgb(227,73,2)" fill-opacity="0.3"></path>
<path d="M817.1 271l3.5 0l0 -0.5l-3.5 0Z" fill="rgb(227,73,2)" fill-opacity="0.3"></path>
<path d="M822.2 271l3.5 0l0 -0.5l-3.5 0Z" fill="rgb(227,73,2)" fill-opacity="0.3"></path>
<path d="M827.2 271l3.5 0l0 -0.5l-3.5 0Z" fill="rgb(227,73,2)" fill-opacity="0.3"></path>
<path d="M832.2 271l3.5 0l0 -0.5l-3.5 0Z" fill="rgb(227,73,2)" fill-opacity="0.3"></path>
<path d="M837.2 271l3.5 0l0 -0.5l-3.5 0Z" fill="rgb(227,73,2)" fill-opacity="0.3"></path>
<path d="M842.2 271l3.5 0l0 -0.5l-3.5 0Z" fill="rgb(227,73,2)" fill-opacity="0.3"></path>
<path d="M847.3 271l3.5 0l0 -0.5l-3.5 0Z" fill="rgb(227,73,2)" fill-opacity="0.3"></path>
<path d="M852.3 271l3.5 0l0 -0.5l-3.5 0Z" fill="rgb(227,73,2)" fill-opacity="0.3"></path>
<path d="M857.3 271l3.5 0l0 -0.5l-3.5 0Z" fill="rgb(227,73,2)" fill-opacity="0.3"></path>
<path d="M862.3 271l3.5 0l0 -0.5l-3.5 0Z" fill="rgb(227,73,2)" fill-opacity="0.3"></path>
<path d="M867.3 271l3.5 0l0 -0.5l-3.5 0Z" fill="rgb(227,73,2)" fill-opacity="0.3"></path>
<path d="M872.4 271l3.5 0l0 -0.5l-3.5 0Z" fill="rgb(227,73,2)" fill-opacity="0.3"></path>
<path d="M877.4 271l3.5 0l0 -0.5l-3.5 0Z" fill="rgb(227,73,2)" fill-opacity="0.3"></path>
<path d="M882.4 271l3.5 0l0 -0.5l-3.5 0Z" fill="rgb(227,73,2)" fill-opacity="0.3"></path>
<path d="M887.4 271l3.5 0l0 -0.5l-3.5 0Z" fill="rgb(227,73,2)" fill-opacity="0.3"></path>
<path d="M892.4 271l3.5 0l0 -0.5l-3.5 0Z" fill="rgb(227,73,2)" fill-opacity="0.3"></path>
<path d="M897.5 271l3.5 0l0 -0.5l-3.5 0Z" fill="rgb(227,73,2)" fill-opacity="0.3"></path>
<path d="M902.5 271l3.5 0l0 -0.5l-3.5 0Z" fill="rgb(227,73,2)" fill-opacity="0.3"></path>
<path d="M907.5 271l3.5 0l0 -0.5l-3.5 0Z" fill="rgb(227,73,2)" fill-opacity="0.3"></path>
<path d="M912.5 271l3.5 0l0 -0.5l-3.5 0Z" fill="rgb(227,73,2)" fill-opacity="0.3"></path>
<path d="M917.6 271l3.5 0l0 -0.5l-3.5 0Z" fill="rgb(227,73,2)" fill-opacity="0.3"></path>
<path d="M922.6 271l3.5 0l0 -0.5l-3.5 0Z" fill="rgb(227,73,2)" fill-opacity="0.3"></path>
<path d="M927.6 271l3.5 0l0 0l-3.5 0Z" fill="rgb(227,73,2)" fill-opacity="0.3"></path>
<path d="M-5 -5l226.9 0l0 24l-226.9 0Z" transform="translate(391.54 5)" fill="rgb(0,0,0)" fill-opacity="0" stroke="#ccc" stroke-width="0"></path>
<path d="M3.5 0L21.5 0A3.5 3.5 0 0 1 25 3.5L25 10.5A3.5 3.5 0 0 1 21.5 14L3.5 14A3.5 3.5 0 0 1 0 10.5L0 3.5A3.5 3.5 0 0 1 3.5 0" transform="translate(391.54 5)" fill="rgb(227,73,2)" fill-opacity="0.3"></path>
<text dominant-baseline="central" text-anchor="start" style="font-size:12px;font-family:sans-serif;" xml:space="preserve" x="30" y="7" transform="translate(391.54 5)" fill="#333">Times completed</text>
<path d="M0 7L25 7" transform="translate(524.1 5)" fill="#000" stroke="#E34902" stroke-width="2" stroke-linecap="butt" stroke-miterlimit="10"></path>
<path d="M18.1 7A5.6 5.6 0 1 1 18.1 6.4A5.6 5.6 0 0 1 18.1 7" transform="translate(524.1 5)" fill="#fff" stroke="#E34902" stroke-width="2" stroke-linecap="butt" stroke-miterlimit="10"></path>
<text dominant-baseline="central" text-anchor="start" style="font-size:12px;font-family:sans-serif;" x="30" y="7" transform="translate(524.1 5)" fill="#333">Eddington</text>
<path d="M-0.54 -0.89A0.6 0.6 0 1 1 0.54 -0.89C0.39 -0.56 0 -0.42 0 0C0 -0.42 -0.39 -0.56 -0.54 -0.89Z" transform="matrix(25,0,0,25,346.8761,238.8044)" fill="rgb(227,73,2)" fill-opacity="0.8"></path>
<text dominant-baseline="central" text-anchor="middle" style="font-size:12px;font-family:sans-serif;" transform="translate(346.8761 212.6616)" fill="#eee" stroke="rgb(227,73,2)" stroke-width="2" paint-order="stroke" stroke-opacity="0.8" stroke-miterlimit="2">58</text>
<g clip-path="url(#zr0-c0)">
<path d="M60.7 270.5L65.7 270.1L70.7 269.6L75.7 269.1L80.8 268.7L85.8 268.2L90.8 267.7L95.8 267.2L100.8 266.8L105.9 266.3L110.9 265.8L115.9 265.4L120.9 264.9L125.9 264.4L131 264L136 263.5L141 263L146 262.6L151.1 262.1L156.1 261.6L161.1 261.2L166.1 260.7L171.1 260.2L176.2 259.7L181.2 259.3L186.2 258.8L191.2 258.3L196.2 257.9L201.3 257.4L206.3 256.9L211.3 256.5L216.3 256L221.3 255.5L226.4 255.1L231.4 254.6L236.4 254.1L241.4 253.7L246.5 253.2L251.5 252.7L256.5 252.2L261.5 251.8L266.5 251.3L271.6 250.8L276.6 250.4L281.6 249.9L286.6 249.4L291.6 249L296.7 248.5L301.7 248L306.7 247.6L311.7 247.1L316.7 246.6L321.8 246.1L326.8 245.7L331.8 245.2L336.8 244.7L341.9 244.3L346.9 243.8L351.9 243.3L356.9 242.9L361.9 242.4L367 241.9L372 241.5L377 241L382 240.5L387 240.1L392.1 239.6L397.1 239.1L402.1 238.6L407.1 238.2L412.2 237.7L417.2 237.2L422.2 236.8L427.2 236.3L432.2 235.8L437.3 235.4L442.3 234.9L447.3 234.4L452.3 234L457.3 233.5L462.4 233L467.4 232.6L472.4 232.1L477.4 231.6L482.4 231.1L487.5 230.7L492.5 230.2L497.5 229.7L502.5 229.3L507.6 228.8L512.6 228.3L517.6 227.9L522.6 227.4L527.6 226.9L532.7 226.5L537.7 226L542.7 225.5L547.7 225L552.7 224.6L557.8 224.1L562.8 223.6L567.8 223.2L572.8 222.7L577.8 222.2L582.9 221.8L587.9 221.3L592.9 220.8L597.9 220.4L603 219.9L608 219.4L613 219L618 218.5L623 218L628.1 217.5L633.1 217.1L638.1 216.6L643.1 216.1L648.1 215.7L653.2 215.2L658.2 214.7L663.2 214.3L668.2 213.8L673.3 213.3L678.3 212.9L683.3 212.4L688.3 211.9L693.3 211.5L698.4 211L703.4 210.5L708.4 210L713.4 209.6L718.4 209.1L723.5 208.6L728.5 208.2L733.5 207.7L738.5 207.2L743.5 206.8L748.6 206.3L753.6 205.8L758.6 205.4L763.6 204.9L768.7 204.4L773.7 203.9L778.7 203.5L783.7 203L788.7 202.5L793.8 202.1L798.8 201.6L803.8 201.1L808.8 200.7L813.8 200.2L818.9 199.7L823.9 199.3L828.9 198.8L833.9 198.3L838.9 197.9L844 197.4L849 196.9L854 196.4L859 196L864.1 195.5L869.1 195L874.1 194.6L879.1 194.1L884.1 193.6L889.2 193.2L894.2 192.7L899.2 192.2L904.2 191.8L909.2 191.3L914.3 190.8L919.3 190.4L924.3 189.9L929.3 189.4" fill="none" stroke="#E34902" stroke-width="2" stroke-linejoin="bevel"></path>
</g>
<defs >
<clipPath id="zr0-c0">
<path d="M57 59l876 0l0 213l-876 0Z" fill="#000"></path>
</clipPath>
</defs>
</svg>