<svg width="1000" height="400" xmlns="http://www.w3.org/2000/svg" xmlns:xlink="http://www.w3.org/1999/xlink" version="1.1" baseProfile="full" viewBox="0 0 1000 400">
<rect width="1000" height="400" x="0" y="0" id="0" fill="#ffffff"></rect>
<path d="M85 368.5L960 368.5" fill="none" stroke="#E0E6F1"></path>
<path d="M85 306.5L960 306.5" fill="none" stroke="#E0E6F1"></path>
<path d="M85 245.5L960 245.5" fill="none" stroke="#E0E6F1"></path>
<path d="M85 183.5L960 183.5" fill="none" stroke="#E0E6F1"></path>
<path d="M85 121.5L960 121.5" fill="none" stroke="#E0E6F1"></path>
<path d="M85 60.5L960 60.5" fill="none" stroke="#E0E6F1"></path>
<text dominant-baseline="central" text-anchor="middle" style="font-size:12px;font-family:sans-serif;" xml:space="preserve" y="-6" transform="matrix(0,-1,1,0,34.96,214)" fill="#6E7079">Distance in km</text>
<path d="M85 368.5L960 368.5" fill="none" stroke="#6E7079" stroke-linecap="round"></path>
<text dominant-baseline="central" text-anchor="end" style="font-size:12px;font-family:sans-serif;" transform="translate(76.96 368)" fill="#6E7079">0</text>
<text dominant-baseline="central" text-anchor="end" style="font-size:12px;font-family:sans-serif;" transform="translate(76.96 306.4)" fill="#6E7079">2,000</text>
<text dominant-baseline="central" text-anchor="end" style="font-size:12px;font-family:sans-serif;" transform="translate(76.96 244.8)" fill="#6E7079">4,000</text>
<text dominant-baseline="central" text-anchor="end" style="font-size:12px;font-family:sans-serif;" transform="translate(76.96 183.2)" fill="#6E7079">6,000</text>
<text dominant-baseline="central" text-anchor="end" style="font-size:12px;font-family:sans-serif;" transform="translate(76.96 121.6)" fill="#6E7079">8,000</text>
<text dominant-baseline="central" text-anchor="end" style="font-size:12px;font-family:sans-serif;" transform="translate(76.96 60)" fill="#6E7079">10,000</text>
<text dominant-baseline="central" text-anchor="middle" style="font-size:12px;font-family:sans-serif;" y="6" transform="translate(86.1361 376)" fill="#6E7079">Jan</text>
<text dominant-baseline="central" text-anchor="middle" style="font-size:12px;font-family:sans-serif;" y="6" transform="translate(161.4084 376)" fill="#6E7079">Feb</text>
<text dominant-baseline="central" text-anchor="middle" style="font-size:12px;font-family:sans-serif;" y="6" transform="translate(236.6806 376)" fill="#6E7079">Mar</text>
<text dominant-baseline="central" text-anchor="middle" style="font-size:12px;font-family:sans-serif;" y="6" transform="translate(311.9529 376)" fill="#6E7079">Apr</text>
<text dominant-baseline="central" text-anchor="middle" style="font-size:12px;font-family:sans-serif;" y="6" transform="translate(387.2252 376)" fill="#6E7079">May</text>
<text dominant-baseline="central" text-anchor="middle" style="font-size:12px;font-family:sans-serif;" y="6" transform="translate(462.4974 376)" fill="#6E7079">Jun</text>
<text dominant-baseline="central" text-anchor="middle" style="font-size:12px;font-family:sans-serif;" y="6" transform="translate(537.7697 376)" fill="#6E7079">Jul</text>
<text dominant-baseline="central" text-anchor="middle" style="font-size:12px;font-family:sans-serif;" y="6" transform="translate(613.0419 376)" fill="#6E7079">Aug</text>
<text dominant-baseline="central" text-anchor="middle" style="font-size:12px;font-family:sans-serif;" y="6" transform="translate(688.3142 376)" fill="#6E7079">Sep</text>
<text dominant-baseline="central" text-anchor="middle" style="font-size:12px;font-family:sans-serif;" y="6" transform="translate(763.5865 376)" fill="#6E7079">Oct</text>
<text dominant-baseline="central" text-anchor="middle" style="font-size:12px;font-family:sans-serif;" y="6" transform="translate(838.8587 376)" fill="#6E7079">Nov</text>
<text dominant-baseline="central" text-anchor="middle" style="font-size:12px;font-family:sans-serif;" y="6" transform="translate(914.131 376)" fill="#6E7079">Dec</text>
<g clip-path="url(#zr4-c0)">
<path d="M86.1 367.8C86.1 367.8 87.3 367.8 88.5 367.6C89.7 367.5 89.7 367.5 90.8 367.3C92 367.1 92.1 367.1 93.2 366.7C94.4 366.3 94.4 366.2 95.5 365.6C96.8 365 96.7 364.9 97.9 364.2C99 363.5 99 363.4 100.2 363C101.4 362.6 101.5 363 102.6 362.5C103.9 362 103.7 361.6 105 360.8C106.1 360.1 106.1 359.7 107.3 359.5C108.4 359.3 108.5 359.3 109.7 359.3C110.8 359.3 110.9 359.3 112 359.3C113.3 359.3 113.2 358.6 114.4 357.8C115.5 357.1 115.5 356.9 116.7 356.3C117.8 355.8 118 356.3 119.1 355.7C120.4 355 120.2 354.7 121.4 353.8C122.6 353 122.5 352.4 123.8 352.2C124.8 352.1 124.9 352.1 126.1 352.1C127.3 352.1 127.5 352.1 128.5 352.1C129.8 352.1 129.6 350.9 130.8 349.9C131.9 349 132 349 133.2 348.3C134.3 347.6 134.3 347.4 135.5 347.1C136.6 346.7 136.8 347.1 137.9 346.7C139.1 346.3 139.1 346 140.2 345.4C141.4 344.7 141.4 344.7 142.6 344.1C143.7 343.6 143.9 343.9 144.9 343.2C146.3 342.4 145.9 341.1 147.3 341.1C148.3 341.1 148.6 341.1 149.6 341.1C150.9 341.1 150.9 340.4 152 339.5C153.2 338.5 153 337.6 154.4 337.4C155.4 337.2 155.5 337.3 156.7 337.2C157.9 337.2 158 337.2 159.1 337.1C160.3 336.9 160.2 336.4 161.4 335.6C162.6 334.8 162.5 334.7 163.8 334C164.9 333.3 164.9 332.7 166.1 332.7C167.2 332.7 167.4 332.7 168.5 332.7C169.8 332.7 169.5 330.9 170.8 330.9C171.9 330.9 172.1 330.9 173.2 330.9C174.5 330.9 174.2 329.3 175.5 329.3C176.6 329.3 176.8 329.3 177.9 329.3C179.1 329.3 179.1 328.7 180.2 328C181.4 327.3 181.3 326.8 182.6 326.4C183.6 326.1 183.8 326.4 184.9 326.1C186.2 325.8 186 325 187.3 325C188.4 325 188.6 325 189.6 325C190.9 325 190.8 324.1 192 323.4C193.1 322.8 193.2 323 194.3 322.4C195.6 321.6 195.4 321 196.7 320.5C197.7 320.1 197.9 320.1 199 320.1C200.2 320.1 200.3 320.1 201.4 320.1C202.7 320.1 202.5 319.2 203.7 318.5C204.9 317.9 204.9 317.5 206.1 317.5C207.2 317.5 207.3 317.5 208.5 317.5C209.7 317.5 209.7 317.1 210.8 316.4C212.1 315.6 211.9 315.4 213.2 314.5C214.3 313.6 214.2 313.3 215.5 313C216.6 312.7 216.7 313 217.9 312.7C219.1 312.3 219 311.9 220.2 311.7C221.4 311.6 221.5 311.7 222.6 311.6C223.9 311.4 223.7 310.6 224.9 309.9C226 309.3 226.2 309.6 227.3 309C228.5 308.4 228.4 308 229.6 307.3C230.7 306.7 230.9 307.1 232 306.5C233.2 305.8 233.1 305.6 234.3 304.7C235.5 303.9 235.4 303.1 236.7 303.1C237.7 303.1 238 303.1 239 303.1C240.3 303.1 240.2 302.3 241.4 301.6C242.6 300.8 242.5 300.3 243.7 300.1C244.8 299.9 245 300.1 246.1 299.9C247.4 299.7 247.4 299.3 248.4 298.4C249.7 297.3 249.5 297 250.8 295.9C251.8 295 251.9 294.9 253.1 294.5C254.2 294.1 254.4 294.5 255.5 294.1C256.7 293.8 256.6 293.3 257.9 293C259 292.8 259.1 293 260.2 292.8C261.5 292.5 261.4 292.2 262.6 291.4C263.8 290.5 263.7 290.4 264.9 289.5C266 288.8 266.3 289.1 267.3 288.2C268.7 286.7 268.2 286.2 269.6 284.7C270.5 283.8 270.7 283.3 272 283.3C273 283.3 273.2 283.3 274.3 283.3C275.6 283.3 275.4 282.1 276.7 281.9C277.8 281.6 277.9 281.9 279 281.6C280.3 281.3 280.3 281.1 281.4 280.4C282.6 279.6 282.5 279.5 283.7 278.7C284.9 277.9 284.8 277.3 286.1 277.3C287.2 277.3 287.3 277.3 288.4 277.3C289.6 277.3 290.8 276.5 290.8 276.5" fill="none" stroke="#5470c6" stroke-width="2" stroke-linejoin="bevel"></path>
</g>
<g clip-path="url(#zr4-c1)">
<path d="M86.1 368C86.1 368 87.3 368 88.5 368C89.7 368 89.7 368 90.8 368C92 368 92 368 93.2 368C94.4 368 94.4 368 95.5 368C96.7 368 96.7 368 97.9 368C99.1 368 99.1 368 100.2 368C101.4 368 101.4 368 102.6 368C103.8 368 103.8 368 105 368C106.1 368 106.1 368 107.3 368C108.5 368 108.5 368 109.7 368C110.8 368 110.8 368 112 368C113.2 368 113.2 368 114.4 368C115.5 368 115.5 368 116.7 368C117.9 368 117.9 368 119.1 368C120.2 368 120.2 368 121.4 368C122.6 368 122.6 368 123.8 368C124.9 368 124.9 368 126.1 368C127.3 368 127.3 368 128.5 368C129.7 368 129.7 368 130.8 368C132 368 132 368 133.2 368C134.4 368 134.4 368 135.5 368C136.7 368 136.7 368 137.9 368C139.1 368 139.1 368 140.2 368C141.4 368 141.4 368 142.6 368C143.8 368 143.8 368 144.9 368C146.1 368 146.1 368 147.3 368C148.5 368 148.5 368 149.6 368C150.8 368 150.8 368 152 368C153.2 368 153.2 368 154.4 368C155.5 368 155.5 368 156.7 368C157.9 368 157.9 368 159.1 368C160.2 368 160.2 368 161.4 368C162.6 368 162.6 368 163.8 368C164.9 368 164.9 368 166.1 368C167.3 368 167.3 368 168.5 368C169.6 368 169.6 368 170.8 368C172 368 172 368 173.2 368C174.3 368 174.3 368 175.5 368C176.7 368 176.7 368 177.9 368C179.1 368 179.1 368 180.2 368C181.4 368 181.4 368 182.6 368C183.8 368 183.8 368 184.9 368C186.1 368 186.1 368 187.3 368C188.5 368 188.5 368 189.6 368C190.8 368 190.8 368 192 368C193.2 368 193.2 368 194.3 368C195.5 368 195.5 368 196.7 368C197.9 368 197.9 368 199 368C200.2 368 200.2 368 201.4 368C202.6 368 202.6 368 203.7 368C204.9 368 204.9 368 206.1 368C207.3 368 207.3 368 208.5 368C209.6 368 209.6 368 210.8 368C212 368 212 368 213.2 368C214.3 368 214.3 368 215.5 368C216.7 368 216.7 368 217.9 368C219 368 219 368 220.2 368C221.4 368 221.4 368 222.6 368C223.7 368 223.7 368 224.9 368C226.1 368 226.1 368 227.3 368C228.4 368 228.4 368 229.6 368C230.8 368 230.8 368 232 368C233.2 368 233.2 368 234.3 368C235.5 368 235.5 368 236.7 368C237.9 368 237.9 368 239 368C240.2 368 240.2 368 241.4 368C242.6 368 242.6 368 243.7 368C244.9 368 244.9 368 246.1 368C247.3 368 247.3 368 248.4 368C249.6 368 249.6 368 250.8 368C252 368 252 368 253.1 368C254.3 368 254.3 368 255.5 368C256.7 368 256.7 368 257.9 368C259 368 259 368 260.2 368C261.4 368 261.4 368 262.6 368C263.7 368 263.7 368 264.9 368C266.1 368 266.1 368 267.3 368C268.4 368 268.4 368 269.6 368C270.8 368 270.8 368 272 368C273.1 368 273.1 368 274.3 368C275.5 368 275.5 368 276.7 368C277.8 368 277.8 368 279 368C280.2 368 280.2 368 281.4 368C282.5 368 282.5 368 283.7 368C284.9 368 284.9 368 286.1 368C287.3 368 287.3 368 288.4 368C289.6 368 289.6 368 290.8 368C292 368 292 367.6 293.1 367.6C294.3 367.6 294.3 367.6 295.5 367.6C296.7 367.6 296.7 367.6 297.8 367.6C299 367.6 299 367.6 300.2 367.6C301.4 367.6 301.4 367.6 302.5 367.6C303.7 367.6 303.7 367.6 304.9 367.6C306.1 367.6 306.1 367.6 307.2 367.6C308.4 367.6 308.4 367.6 309.6 367.6C310.8 367.6 310.8 367.6 312 367.3C313.2 367 313.1 366.8 314.3 366.3C315.5 365.9 315.5 365.9 316.7 365.5C317.8 365.2 317.8 364.8 319 364.8C320.2 364.8 320.3 364.8 321.4 364.8C322.6 364.8 322.5 363.6 323.7 363.6C324.8 363.6 324.9 363.6 326.1 363.6C327.3 363.6 327.2 363.3 328.4 362.9C329.6 362.6 329.6 362.7 330.8 362.3C332 361.9 332 361.9 333.1 361.3C334.3 360.7 334.2 360 335.5 360C336.6 360 336.7 360 337.8 360C339 360 339 359.5 340.2 359.5C341.3 359.5 341.4 359.5 342.5 359.5C343.8 359.5 343.7 359 344.9 358.5C346.1 358 346 357.5 347.2 357.5C348.4 357.5 348.4 357.5 349.6 357.5C350.8 357.5 350.7 356.7 351.9 356.7C353.1 356.7 353.1 356.7 354.3 356.7C355.5 356.7 355.4 356 356.6 356C357.8 356 357.9 356 359 356C360.2 356 360.2 355.4 361.4 354.9C362.5 354.3 362.5 354.2 363.7 353.9C364.8 353.5 364.9 353.5 366.1 353.5C367.2 353.5 367.3 353.5 368.4 353.5C369.6 353.5 369.6 352.9 370.8 352.5C371.9 352.2 372 352.3 373.1 351.9C374.3 351.5 374.3 351.5 375.5 351C376.6 350.5 376.6 350 377.8 350C378.9 350 379.1 350 380.2 350C381.4 350 381.3 348.7 382.5 348.7C383.6 348.7 383.8 348.7 384.9 348.7C386.1 348.7 386.1 348.1 387.2 347.5C388.4 346.9 388.3 346.2 389.6 346.2C390.7 346.2 390.8 346.2 391.9 346.2C393.2 346.2 393.1 345.7 394.3 345.2C395.5 344.6 395.4 343.9 396.6 343.9C397.7 343.9 397.9 343.9 399 343.9C400.3 343.9 400.1 343.1 401.3 342.5C402.5 341.9 402.5 342.1 403.7 341.6C404.9 341 404.8 340.9 406 340.4C407.2 340 407.3 340.3 408.4 339.9C409.6 339.5 409.5 338.8 410.7 338.8C411.9 338.8 412 338.8 413.1 338.8C414.4 338.8 414.2 337.5 415.5 337.5C416.6 337.5 416.6 337.5 417.8 337.5C419 337.5 419 337.5 420.2 337.5C421.4 337.5 421.3 337 422.5 336.5C423.7 336 423.7 335.9 424.9 335.4C426 335 426 334.6 427.2 334.6C428.4 334.6 428.4 334.6 429.6 334.6C430.8 334.6 430.8 334.3 431.9 333.9C433.1 333.5 433.1 333 434.3 333C435.4 333 435.5 333 436.6 333C437.8 333 437.9 333 439 332.8C440.3 332.4 440.1 331.7 441.3 331C442.4 330.4 442.5 330.2 443.7 330.2C444.8 330.2 445 330.2 446 330.2C447.3 330.2 447.1 329.3 448.4 328.7C449.5 328.2 449.5 328 450.7 328C451.9 328 452 328 453.1 328C454.4 328 454.2 326.4 455.4 326.4C456.5 326.4 456.7 326.4 457.8 326.4C459.1 326.4 458.9 325.6 460.1 325C461.3 324.4 461.4 324.7 462.5 324.1C463.8 323.5 463.6 323.2 464.8 322.5C465.9 321.9 466 321.9 467.2 321.6C468.3 321.3 468.4 321.6 469.6 321.3C470.8 321 470.8 321.1 471.9 320.5C473.2 319.8 473 319.1 474.3 318.8C475.3 318.4 475.5 318.8 476.6 318.4C477.9 318.1 477.7 317.5 479 316.8C480.1 316.2 480.1 316.2 481.3 315.8C482.5 315.4 482.5 315 483.7 315C484.8 315 484.9 315 486 315C487.3 315 487.2 314.2 488.4 313.5C489.5 312.9 489.5 312.3 490.7 312.3C491.8 312.3 491.9 312.3 493.1 312.3C494.3 312.3 494.3 311.9 495.4 311.4C496.7 310.7 496.5 310.4 497.8 309.8C498.9 309.3 498.9 309.1 500.1 309.1C501.3 309.1 501.3 309.1 502.5 309.1C503.7 309.1 503.7 309.1 504.8 309.1C506.1 309.1 506 308.4 507.2 307.8C508.4 307.1 508.5 307.4 509.5 306.6C510.9 305.4 510.5 303.8 511.9 303.8C512.8 303.8 513.1 303.8 514.2 303.8C515.4 303.8 515.4 303.4 516.6 303.1C517.8 302.9 517.8 303.1 519 302.9C520.2 302.6 520.1 302.3 521.3 301.7C522.5 301.1 522.4 301 523.7 300.5C524.8 300 524.8 299.7 526 299.7C527.2 299.7 527.3 299.7 528.4 299.7C529.6 299.7 529.5 299 530.7 298.5C531.9 297.9 531.8 297.6 533.1 297.6C534.2 297.6 534.3 297.6 535.4 297.6C536.7 297.6 536.5 296.7 537.8 296.1C538.9 295.6 539 295.8 540.1 295.4C541.3 295 541.3 294.9 542.5 294.5C543.7 294 543.7 294.1 544.8 293.5C546 292.9 546.1 292.9 547.2 292.1C548.4 291.3 548.2 290.3 549.5 290.3C550.6 290.3 550.8 290.3 551.9 290.3C553.2 290.3 552.9 288.6 554.2 288.6C555.3 288.6 555.4 288.6 556.6 288.6C557.8 288.6 557.8 288.6 558.9 288.6C560.1 288.6 560.1 288.2 561.3 287.8C562.5 287.4 562.7 287.6 563.6 286.9C565 286 564.6 284.4 566 284.4C567 284.4 567.5 284.4 568.3 284.4C569.8 284.4 569.3 282.5 570.7 281.3C571.6 280.5 571.8 280.6 573.1 280.3C574.2 280 574.4 280.3 575.4 279.9C576.7 279.4 576.4 278.7 577.8 277.9C578.8 277.4 579.1 277.9 580.1 277.3C581.5 276.3 581.1 275.7 582.5 274.7C583.5 273.9 583.6 273.7 584.8 273.7C585.9 273.7 586.1 273.7 587.2 273.7C588.5 273.7 588.2 271.8 589.5 271.8C590.5 271.8 590.8 271.8 591.9 271.8C593.1 271.8 593 271 594.2 270.4C595.4 269.8 595.4 269.9 596.6 269.5C597.7 269.1 597.7 268.6 598.9 268.6C600.1 268.6 600.1 268.6 601.3 268.6C602.5 268.6 602.5 268.4 603.6 267.8C604.9 267.1 604.7 266.1 606 266.1C607 266.1 607.2 266.1 608.3 266.1C609.5 266.1 609.6 266.1 610.7 266.1C611.9 266.1 611.9 265.7 613 265.1C614.3 264.5 614.1 263.9 615.4 263.6C616.5 263.3 616.7 263.6 617.7 263.3C619 263 618.8 262 620.1 261.7C621.2 261.5 621.4 261.7 622.5 261.5C623.7 261.2 623.5 259.8 624.8 259.8C625.9 259.8 626 259.8 627.2 259.8C628.4 259.8 628.4 259.4 629.5 258.8C630.7 258.2 630.7 258.2 631.9 257.5C633.1 256.7 632.9 255.9 634.2 255.9C635.3 255.9 635.4 255.9 636.6 255.9C637.8 255.9 637.8 255.6 638.9 255.2C640.1 254.7 640.1 254.6 641.3 254.2C642.4 253.7 642.4 253.8 643.6 253.4C644.8 252.9 644.8 252.9 646 252.5C647.2 252.1 647.1 251.6 648.3 251.6C649.5 251.6 649.7 251.6 650.7 251.6C652 251.6 651.8 250.5 653 249.6C654.1 248.8 654.1 248.2 655.4 248.2C656.5 248.2 656.7 248.2 657.7 248.2C659.1 248.2 658.8 247.1 660.1 246.3C661.2 245.7 661.3 245.9 662.4 245.4C663.6 244.8 663.6 244.8 664.8 244.2C666 243.6 666 243.7 667.1 243.1C668.4 242.5 668.2 242.3 669.5 241.8C670.6 241.3 670.8 241.8 671.8 241.2C673.2 240.6 672.9 240.1 674.2 239.3C675.3 238.7 675.4 239 676.6 238.4C677.8 237.7 677.7 237.5 678.9 236.9C680 236.3 680.1 236.5 681.3 236C682.5 235.3 682.3 234.5 683.6 234.5C684.7 234.5 684.8 234.5 686 234.5C687.1 234.5 687.4 234.5 688.3 234.5C689.7 234.5 689.3 233 690.7 232C691.7 231.2 691.8 231.4 693 230.9C694.2 230.4 694.5 230.8 695.4 230C696.8 228.8 696.3 226.9 697.7 226.9C698.6 226.9 698.9 226.9 700.1 226.9C701.3 226.9 701.2 226.3 702.4 226C703.6 225.7 703.8 226 704.8 225.6C706.1 225.1 705.9 224.4 707.1 223.5C708.2 222.7 708.3 222.8 709.5 222.2C710.6 221.6 710.6 221.2 711.8 221.2C713 221.2 713.1 221.2 714.2 221.2C715.4 221.2 715.4 220.8 716.5 220.2C717.8 219.5 717.7 219.4 718.9 218.6C720 217.9 720.1 218 721.2 217.3C722.4 216.6 722.4 216.6 723.6 216C724.7 215.5 724.8 215.6 726 215C727.2 214.4 727 214 728.3 213.6C729.4 213.2 729.6 213.6 730.7 213.2C731.9 212.8 731.7 211.8 733 211.8C734.1 211.8 734.2 211.8 735.4 211.8C736.5 211.8 736.6 211.8 737.7 211.8C738.9 211.8 738.9 211.5 740.1 211.1C741.2 210.7 741.2 210.3 742.4 210.3C743.6 210.3 743.7 210.3 744.8 210.3C746.1 210.3 745.9 209.3 747.1 208.6C748.2 208.1 748.3 208.3 749.5 207.9C750.7 207.4 750.7 207.5 751.8 206.9C753 206.3 753 206.2 754.2 205.6C755.3 205 755.3 204.5 756.5 204.5C757.6 204.5 757.7 204.5 758.9 204.5C760.1 204.5 760.1 204.2 761.2 203.6C762.5 202.9 762.4 202.7 763.6 202C764.7 201.3 764.7 200.8 765.9 200.8C767 200.8 767.3 200.8 768.3 200.8C769.6 200.8 769.4 199.6 770.6 198.8C771.7 198.1 771.8 198.2 773 197.7C774.2 197.2 774.1 196.8 775.3 196.8C776.5 196.8 776.6 196.8 777.7 196.8C778.9 196.8 778.9 196.2 780.1 195.7C781.2 195.3 781.2 195.3 782.4 194.9C783.6 194.4 783.6 194.4 784.8 193.9C786 193.3 785.9 193.3 787.1 192.7C788.3 192.2 788.2 192 789.5 191.6C790.6 191.2 790.7 191.5 791.8 191.2C793 190.9 793.1 190.9 794.2 190.3C795.4 189.6 795.2 188.7 796.5 188.6C797.6 188.4 797.8 188.6 798.9 188.4C800.1 188.3 800.1 187.7 801.2 187C802.4 186.2 802.4 186.2 803.6 185.4C804.8 184.6 804.6 183.8 805.9 183.8C807 183.8 807.2 183.8 808.3 183.8C809.5 183.8 809.4 182.8 810.6 182.6C811.7 182.4 811.9 182.6 813 182.4C814.2 182.3 814.1 181.7 815.3 181.1C816.5 180.6 816.6 180.8 817.7 180.2C818.9 179.5 818.8 179 820 178.6C821.1 178.2 821.3 178.5 822.4 178.2C823.6 177.9 823.6 177.7 824.7 177.3C825.9 176.8 825.9 176.6 827.1 176.3C828.2 175.9 828.4 176.3 829.4 175.9C830.7 175.4 830.6 175.2 831.8 174.5C833 173.7 832.9 173 834.2 173C835.2 173 835.4 173 836.5 173C837.8 173 837.6 171.6 838.9 171.6C839.9 171.6 840 171.6 841.2 171.6C842.4 171.6 842.5 171.6 843.6 171.6C844.8 171.6 844.7 170.7 845.9 170C847 169.5 847 169.1 848.3 169.1C849.4 169.1 849.5 169.1 850.6 169.1C851.8 169.1 851.8 168.9 853 168.7C854.2 168.5 854.2 168.5 855.3 168.2C856.5 167.8 856.5 167.2 857.7 167.2C858.8 167.2 858.9 167.2 860 167.2C861.2 167.2 861.3 167.2 862.4 167.2C863.6 167.2 863.6 166.6 864.7 166C865.9 165.4 865.9 165.5 867.1 164.8C868.3 164.2 868.2 163.9 869.4 163.5C870.5 163.1 870.7 163.5 871.8 163.1C873.1 162.7 873 162.3 874.1 161.5C875.3 160.8 875.2 160.1 876.5 160.1C877.6 160.1 877.8 160.1 878.8 160.1C880.1 160.1 880 159.3 881.2 158.5C882.4 157.7 882.4 157.7 883.6 156.9C884.7 156.1 884.7 156.1 885.9 155.4C887.1 154.6 887.2 154.7 888.3 153.8C889.5 152.8 889.3 151.6 890.6 151.6C891.6 151.6 891.8 151.6 893 151.6C894.1 151.6 894.2 151.6 895.3 151.6C896.6 151.6 896.4 150.7 897.7 150C898.8 149.4 898.9 149.5 900 148.9C901.2 148.3 901.3 148.4 902.4 147.6C903.6 146.6 903.4 146 904.7 145.4C905.7 145 906 145.4 907.1 145C908.4 144.6 908.3 144.2 909.4 143.4C910.6 142.5 910.5 141.9 911.8 141.6C912.8 141.4 913.1 141.6 914.1 141.4C915.5 141 915.2 140.3 916.5 139.3C917.6 138.5 917.7 138.6 918.8 137.8C920.1 136.8 919.8 135.5 921.2 135.5C922.2 135.5 922.4 135.5 923.5 135.5C924.7 135.5 924.8 135.5 925.9 135.5C927.2 135.5 927.1 134.7 928.2 133.9C929.4 133.1 929.3 132.7 930.6 132.3C931.7 131.9 932.3 132.3 932.9 131.9C934.6 130.9 933.7 128.6 935.3 126.5C936 125.6 936.4 125.6 937.7 125.6C938.8 125.6 939 125.6 940 125.6C941.4 125.6 941.1 124.4 942.4 123.4C943.5 122.5 943.7 122.8 944.7 121.7C946.1 120.3 945.7 120 947.1 118.5C948.1 117.3 948.1 116.9 949.4 116.4C950.4 116 950.8 116.4 951.8 116C953.2 115.4 952.9 114.7 954.1 113.5C955.3 112.4 955.2 112.3 956.5 111.3C957.6 110.4 958.8 109.8 958.8 109.8" fill="none" stroke="#91cc75" stroke-width="2" stroke-linejoin="bevel"></path>
</g>
<path d="M-5 -5l135.8 0l0 23.2l-135.8 0Z" transform="translate(437.12 5)" fill="rgb(0,0,0)" fill-opacity="0" stroke="#ccc" stroke-width="0"></path>
<path d="M0 7L25 7" transform="translate(438.12 4.6)" fill="#000" stroke="#5470c6" stroke-width="2" stroke-linecap="butt" stroke-miterlimit="10"></path>
<path d="M18.1 7A5.6 5.6 0 1 1 18.1 6.4A5.6 5.6 0 0 1 18.1 7" transform="translate(438.12 4.6)" fill="#fff" stroke="#5470c6" stroke-width="2" stroke-linecap="butt" stroke-miterlimit="10"></path>
<text dominant-baseline="central" text-anchor="start" style="font-size:12px;font-family:sans-serif;" x="30" y="7" transform="translate(438.12 4.6)" fill="#333">2024</text>
<path d="M0 7L25 7" transform="translate(506 4.6)" fill="#000" stroke="#91cc75" stroke-width="2" stroke-linecap="butt" stroke-miterlimit="10"></path>
<path d="M18.1 7A5.6 5.6 0 1 1 18.1 6.4A5.6 5.6 0 0 1 18.1 7" transform="translate(506 4.6)" fill="#fff" stroke="#91cc75" stroke-width="2" stroke-linecap="butt" stroke-miterlimit="10"></path>
<text dominant-baseline="central" text-anchor="start" style="font-size:12px;font-family:sans-serif;" x="30" y="7" transform="translate(506 4.6)" fill="#333">2023</text>
<defs >
<clipPath id="zr4-c0">
<path d="M83 59l877 0l0 310l-877 0Z" fill="#000"></path>
</clipPath>
<clipPath id="zr4-c1">
<path d="M83 59l877 0l0 310l-877 0Z" fill="#000"></path>
</clipPath>
</defs>
</svg>