<svg width="1000" height="300" xmlns="http://www.w3.org/2000/svg" xmlns:xlink="http://www.w3.org/1999/xlink" version="1.1" baseProfile="full" viewBox="0 0 1000 300">
<rect width="1000" height="300" x="0" y="0" id="0" fill="#ffffff"></rect>
<path d="M58.2 271.5L931.8 271.5" fill="none" stroke="#E0E6F1"></path>
<path d="M58.2 213.5L931.8 213.5" fill="none" stroke="#E0E6F1"></path>
<path d="M58.2 156.5L931.8 156.5" fill="none" stroke="#E0E6F1"></path>
<path d="M58.2 98.5L931.8 98.5" fill="none" stroke="#E0E6F1"></path>
<path d="M58.2 60.5L931.8 60.5" fill="none" stroke="#E0E6F1"></path>
<path d="M58.2 271.5L931.8 271.5" fill="none" stroke="#6E7079" stroke-linecap="round"></path>
<path d="M60.5 271L60.5 276" fill="none" stroke="#6E7079"></path>
<path d="M111.5 271L111.5 276" fill="none" stroke="#6E7079"></path>
<path d="M161.5 271L161.5 276" fill="none" stroke="#6E7079"></path>
<path d="M211.5 271L211.5 276" fill="none" stroke="#6E7079"></path>
<path d="M261.5 271L261.5 276" fill="none" stroke="#6E7079"></path>
<path d="M311.5 271L311.5 276" fill="none" stroke="#6E7079"></path>
<path d="M362.5 271L362.5 276" fill="none" stroke="#6E7079"></path>
<path d="M412.5 271L412.5 276" fill="none" stroke="#6E7079"></path>
<path d="M462.5 271L462.5 276" fill="none" stroke="#6E7079"></path>
<path d="M512.5 271L512.5 276" fill="none" stroke="#6E7079"></path>
<path d="M563.5 271L563.5 276" fill="none" stroke="#6E7079"></path>
<path d="M613.5 271L613.5 276" fill="none" stroke="#6E7079"></path>
<path d="M663.5 271L663.5 276" fill="none" stroke="#6E7079"></path>
<path d="M713.5 271L713.5 276" fill="none" stroke="#6E7079"></path>
<path d="M763.5 271L763.5 276" fill="none" stroke="#6E7079"></path>
<path d="M814.5 271L814.5 276" fill="none" stroke="#6E7079"></path>
<path d="M864.5 271L864.5 276" fill="none" stroke="#6E7079"></path>
<path d="M914.5 271L914.5 276" fill="none" stroke="#6E7079"></path>
<text dominant-baseline="central" text-anchor="end" style="font-size:12px;font-family:sans-serif;" transform="translate(50.16 271)" fill="#6E7079">0</text>
<text dominant-baseline="central" text-anchor="end" style="font-size:12px;font-family:sans-serif;" transform="translate(50.16 213.4545)" fill="#6E7079">90</text>
<text dominant-baseline="central" text-anchor="end" style="font-size:12px;font-family:sans-serif;" transform="translate(50.16 155.9091)" fill="#6E7079">180</text>
<text dominant-baseline="central" text-anchor="end" style="font-size:12px;font-family:sans-serif;" transform="translate(50.16 98.3636)" fill="#6E7079">270</text>
<text dominant-baseline="central" text-anchor="end" style="font-size:12px;font-family:sans-serif;" transform="translate(50.16 60)" fill="#6E7079">330</text>
<text dominant-baseline="central" text-anchor="start" style="font-size:12px;font-family:sans-serif;" transform="translate(939.84 271)" fill="#6E7079">0</text>
<text dominant-baseline="central" text-anchor="start" style="font-size:12px;font-family:sans-serif;" transform="translate(939.84 213.4545)" fill="#6E7079">90</text>
<text dominant-baseline="central" text-anchor="start" style="font-size:12px;font-family:sans-serif;" transform="translate(939.84 155.9091)" fill="#6E7079">180</text>
<text dominant-baseline="central" text-anchor="start" style="font-size:12px;font-family:sans-serif;" transform="translate(939.84 98.3636)" fill="#6E7079">270</text>
<text dominant-baseline="central" text-anchor="start" style="font-size:12px;font-family:sans-serif;" transform="translate(939.84 60)" fill="#6E7079">330</text>
<text dominant-baseline="central" text-anchor="middle" style="font-size:12px;font-family:sans-serif;" y="6" transform="translate(60.6706 279)" fill="#6E7079">1km</text>
<text dominant-baseline="central" text-anchor="middle" style="font-size:12px;font-family:sans-serif;" y="6" transform="translate(110.8821 279)" fill="#6E7079">11km</text>
<text dominant-baseline="central" text-anchor="middle" style="font-size:12px;font-family:sans-serif;" y="6" transform="translate(161.0936 279)" fill="#6E7079">21km</text>
<text dominant-baseline="central" text-anchor="middle" style="font-size:12px;font-family:sans-serif;" y="6" transform="translate(211.3051 279)" fill="#6E7079">31km</text>
<text dominant-baseline="central" text-anchor="middle" style="font-size:12px;font-family:sans-serif;" y="6" transform="translate(261.5166 279)" fill="#6E7079">41km</text>
<text dominant-baseline="central" text-anchor="middle" style="font-size:12px;font-family:sans-serif;" y="6" transform="translate(311.728 279)" fill="#6E7079">51km</text>
<text dominant-baseline="central" text-anchor="middle" style="font-size:12px;font-family:sans-serif;" y="6" transform="translate(361.9395 279)" fill="#6E7079">61km</text>
<text dominant-baseline="central" text-anchor="middle" style="font-size:12px;font-family:sans-serif;" y="6" transform="translate(412.151 279)" fill="#6E7079">71km</text>
<text dominant-baseline="central" text-anchor="middle" style="font-size:12px;font-family:sans-serif;" y="6" transform="translate(462.3625 279)" fill="#6E7079">81km</text>
<text dominant-baseline="central" text-anchor="middle" style="font-size:12px;font-family:sans-serif;" y="6" transform="translate(512.574 279)" fill="#6E7079">91km</text>
<text dominant-baseline="central" text-anchor="middle" style="font-size:12px;font-family:sans-serif;" y="6" transform="translate(562.7855 279)" fill="#6E7079">101km</text>
<text dominant-baseline="central" text-anchor="middle" style="font-size:12px;font-family:sans-serif;" y="6" transform="translate(612.997 279)" fill="#6E7079">111km</text>
<text dominant-baseline="central" text-anchor="middle" style="font-size:12px;font-family:sans-serif;" y="6" transform="translate(663.2085 279)" fill="#6E7079">121km</text>
<text dominant-baseline="central" text-anchor="middle" style="font-size:12px;font-family:sans-serif;" y="6" transform="translate(713.42 279)" fill="#6E7079">131km</text>
<text dominant-baseline="central" text-anchor="middle" style="font-size:12px;font-family:sans-serif;" y="6" transform="translate(763.6315 279)" fill="#6E7079">141km</text>
<text dominant-baseline="central" text-anchor="middle" style="font-size:12px;font-family:sans-serif;" y="6" transform="translate(813.843 279)" fill="#6E7079">151km</text>
<text dominant-baseline="central" text-anchor="middle" style="font-size:12px;font-family:sans-serif;" y="6" transform="translate(864.0545 279)" fill="#6E7079">161km</text>
<text dominant-baseline="central" text-anchor="middle" style="font-size:12px;font-family:sans-serif;" y="6" transform="translate(914.266 279)" fill="#6E7079">171km</text>
<path d="M58.9 271l3.5 0l0 -207.2l-3.5 0Z" fill="rgb(227,73,2)" fill-opacity="0.3"></path>
<path d="M64 271l3.5 0l0 -207.2l-3.5 0Z" fill="rgb(227,73,2)" fill-opacity="0.3"></path>
<path d="M69 271l3.5 0l0 -206.5l-3.5 0Z" fill="rgb(227,73,2)" fill-opacity="0.3"></path>
<path d="M74 271l3.5 0l0 -206.5l-3.5 0Z" fill="rgb(227,73,2)" fill-opacity="0.3"></path>
<path d="M79 271l3.5 0l0 -205.2l-3.5 0Z" fill="rgb(227,73,2)" fill-opacity="0.3"></path>
<path d="M84 271l3.5 0l0 -198.9l-3.5 0Z" fill="rgb(227,73,2)" fill-opacity="0.3"></path>
<path d="M89.1 271l3.5 0l0 -198.2l-3.5 0Z" fill="rgb(227,73,2)" fill-opacity="0.3"></path>
<path d="M94.1 271l3.5 0l0 -195.7l-3.5 0Z" fill="rgb(227,73,2)" fill-opacity="0.3"></path>
<path d="M99.1 271l3.5 0l0 -194.4l-3.5 0Z" fill="rgb(227,73,2)" fill-opacity="0.3"></path>
<path d="M104.1 271l3.5 0l0 -193.1l-3.5 0Z" fill="rgb(227,73,2)" fill-opacity="0.3"></path>
<path d="M109.1 271l3.5 0l0 -189.3l-3.5 0Z" fill="rgb(227,73,2)" fill-opacity="0.3"></path>
<path d="M114.2 271l3.5 0l0 -186.1l-3.5 0Z" fill="rgb(227,73,2)" fill-opacity="0.3"></path>
<path d="M119.2 271l3.5 0l0 -179.7l-3.5 0Z" fill="rgb(227,73,2)" fill-opacity="0.3"></path>
<path d="M124.2 271l3.5 0l0 -178.4l-3.5 0Z" fill="rgb(227,73,2)" fill-opacity="0.3"></path>
<path d="M129.2 271l3.5 0l0 -178.4l-3.5 0Z" fill="rgb(227,73,2)" fill-opacity="0.3"></path>
<path d="M134.3 271l3.5 0l0 -177.8l-3.5 0Z" fill="rgb(227,73,2)" fill-opacity="0.3"></path>
<path d="M139.3 271l3.5 0l0 -177.1l-3.5 0Z" fill="rgb(227,73,2)" fill-opacity="0.3"></path>
<path d="M144.3 271l3.5 0l0 -174.6l-3.5 0Z" fill="rgb(227,73,2)" fill-opacity="0.3"></path>
<path d="M149.3 271l3.5 0l0 -173.9l-3.5 0Z" fill="rgb(227,73,2)" fill-opacity="0.3"></path>
<path d="M154.3 271l3.5 0l0 -173.3l-3.5 0Z" fill="rgb(227,73,2)" fill-opacity="0.3"></path>
<path d="M159.4 271l3.5 0l0 -172.6l-3.5 0Z" fill="rgb(227,73,2)" fill-opacity="0.3"></path>
<path d="M164.4 271l3.5 0l0 -171.4l-3.5 0Z" fill="rgb(227,73,2)" fill-opacity="0.3"></path>
<path d="M169.4 271l3.5 0l0 -167.5l-3.5 0Z" fill="rgb(227,73,2)" fill-opacity="0.3"></path>
<path d="M174.4 271l3.5 0l0 -166.2l-3.5 0Z" fill="rgb(227,73,2)" fill-opacity="0.3"></path>
<path d="M179.4 271l3.5 0l0 -165.6l-3.5 0Z" fill="rgb(227,73,2)" fill-opacity="0.3"></path>
<path d="M184.5 271l3.5 0l0 -161.8l-3.5 0Z" fill="rgb(227,73,2)" fill-opacity="0.3"></path>
<path d="M189.5 271l3.5 0l0 -158.6l-3.5 0Z" fill="rgb(227,73,2)" fill-opacity="0.3"></path>
<path d="M194.5 271l3.5 0l0 -156l-3.5 0Z" fill="rgb(227,73,2)" fill-opacity="0.3"></path>
<path d="M199.5 271l3.5 0l0 -149.6l-3.5 0Z" fill="rgb(227,73,2)" fill-opacity="0.3"></path>
<path d="M204.6 271l3.5 0l0 -145.8l-3.5 0Z" fill="rgb(227,73,2)" fill-opacity="0.3"></path>
<path d="M209.6 271l3.5 0l0 -138.1l-3.5 0Z" fill="rgb(227,73,2)" fill-opacity="0.3"></path>
<path d="M214.6 271l3.5 0l0 -132.4l-3.5 0Z" fill="rgb(227,73,2)" fill-opacity="0.3"></path>
<path d="M219.6 271l3.5 0l0 -129.2l-3.5 0Z" fill="rgb(227,73,2)" fill-opacity="0.3"></path>
<path d="M224.6 271l3.5 0l0 -126l-3.5 0Z" fill="rgb(227,73,2)" fill-opacity="0.3"></path>
<path d="M229.7 271l3.5 0l0 -122.1l-3.5 0Z" fill="rgb(227,73,2)" fill-opacity="0.3"></path>
<path d="M234.7 271l3.5 0l0 -117l-3.5 0Z" fill="rgb(227,73,2)" fill-opacity="0.3"></path>
<path d="M239.7 271l3.5 0l0 -111.3l-3.5 0Z" fill="rgb(227,73,2)" fill-opacity="0.3"></path>
<path d="M244.7 271l3.5 0l0 -107.4l-3.5 0Z" fill="rgb(227,73,2)" fill-opacity="0.3"></path>
<path d="M249.7 271l3.5 0l0 -104.2l-3.5 0Z" fill="rgb(227,73,2)" fill-opacity="0.3"></path>
<path d="M254.8 271l3.5 0l0 -101.7l-3.5 0Z" fill="rgb(227,73,2)" fill-opacity="0.3"></path>
<path d="M259.8 271l3.5 0l0 -98.5l-3.5 0Z" fill="rgb(227,73,2)" fill-opacity="0.3"></path>
<path d="M264.8 271l3.5 0l0 -94.6l-3.5 0Z" fill="rgb(227,73,2)" fill-opacity="0.3"></path>
<path d="M269.8 271l3.5 0l0 -90.2l-3.5 0Z" fill="rgb(227,73,2)" fill-opacity="0.3"></path>
<path d="M274.8 271l3.5 0l0 -85l-3.5 0Z" fill="rgb(227,73,2)" fill-opacity="0.3"></path>
<path d="M279.9 271l3.5 0l0 -80.6l-3.5 0Z" fill="rgb(227,73,2)" fill-opacity="0.3"></path>
<path d="M284.9 271l3.5 0l0 -78l-3.5 0Z" fill="rgb(227,73,2)" fill-opacity="0.3"></path>
<path d="M289.9 271l3.5 0l0 -73.5l-3.5 0Z" fill="rgb(227,73,2)" fill-opacity="0.3"></path>
<path d="M294.9 271l3.5 0l0 -68.4l-3.5 0Z" fill="rgb(227,73,2)" fill-opacity="0.3"></path>
<path d="M300 271l3.5 0l0 -65.9l-3.5 0Z" fill="rgb(227,73,2)" fill-opacity="0.3"></path>
<path d="M305 271l3.5 0l0 -57.5l-3.5 0Z" fill="rgb(227,73,2)" fill-opacity="0.3"></path>
<path d="M310 271l3.5 0l0 -53.1l-3.5 0Z" fill="rgb(227,73,2)" fill-opacity="0.3"></path>
<path d="M315 271l3.5 0l0 -48.6l-3.5 0Z" fill="rgb(227,73,2)" fill-opacity="0.3"></path>
<path d="M320 271l3.5 0l0 -38.4l-3.5 0Z" fill="rgb(227,73,2)" fill-opacity="0.3"></path>
<path d="M325.1 271l3.5 0l0 -35.8l-3.5 0Z" fill="rgb(227,73,2)" fill-opacity="0.8"></path>
<path d="M330.1 271l3.5 0l0 -32l-3.5 0Z" fill="rgb(227,73,2)" fill-opacity="0.3"></path>
<path d="M335.1 271l3.5 0l0 -28.8l-3.5 0Z" fill="rgb(227,73,2)" fill-opacity="0.3"></path>
<path d="M340.1 271l3.5 0l0 -26.9l-3.5 0Z" fill="rgb(227,73,2)" fill-opacity="0.3"></path>
<path d="M345.1 271l3.5 0l0 -25.6l-3.5 0Z" fill="rgb(227,73,2)" fill-opacity="0.3"></path>
<path d="M350.2 271l3.5 0l0 -24.9l-3.5 0Z" fill="rgb(227,73,2)" fill-opacity="0.3"></path>
<path d="M355.2 271l3.5 0l0 -23l-3.5 0Z" fill="rgb(227,73,2)" fill-opacity="0.3"></path>
<path d="M360.2 271l3.5 0l0 -19.8l-3.5 0Z" fill="rgb(227,73,2)" fill-opacity="0.3"></path>
<path d="M365.2 271l3.5 0l0 -19.8l-3.5 0Z" fill="rgb(227,73,2)" fill-opacity="0.3"></path>
<path d="M370.2 271l3.5 0l0 -17.3l-3.5 0Z" fill="rgb(227,73,2)" fill-opacity="0.3"></path>
<path d="M375.3 271l3.5 0l0 -16.6l-3.5 0Z" fill="rgb(227,73,2)" fill-opacity="0.3"></path>
<path d="M380.3 271l3.5 0l0 -16l-3.5 0Z" fill="rgb(227,73,2)" fill-opacity="0.3"></path>
<path d="M385.3 271l3.5 0l0 -16l-3.5 0Z" fill="rgb(227,73,2)" fill-opacity="0.3"></path>
<path d="M390.3 271l3.5 0l0 -14.7l-3.5 0Z" fill="rgb(227,73,2)" fill-opacity="0.3"></path>
<path d="M395.4 271l3.5 0l0 -13.4l-3.5 0Z" fill="rgb(227,73,2)" fill-opacity="0.3"></path>
<path d="M400.4 271l3.5 0l0 -13.4l-3.5 0Z" fill="rgb(227,73,2)" fill-opacity="0.3"></path>
<path d="M405.4 271l3.5 0l0 -12.1l-3.5 0Z" fill="rgb(227,73,2)" fill-opacity="0.3"></path>
<path d="M410.4 271l3.5 0l0 -10.2l-3.5 0Z" fill="rgb(227,73,2)" fill-opacity="0.3"></path>
<path d="M415.4 271l3.5 0l0 -9.6l-3.5 0Z" fill="rgb(227,73,2)" fill-opacity="0.3"></path>
<path d="M420.5 271l3.5 0l0 -9l-3.5 0Z" fill="rgb(227,73,2)" fill-opacity="0.3"></path>
<path d="M425.5 271l3.5 0l0 -7l-3.5 0Z" fill="rgb(227,73,2)" fill-opacity="0.3"></path>
<path d="M430.5 271l3.5 0l0 -7l-3.5 0Z" fill="rgb(227,73,2)" fill-opacity="0.3"></path>
<path d="M435.5 271l3.5 0l0 -7l-3.5 0Z" fill="rgb(227,73,2)" fill-opacity="0.3"></path>
<path d="M440.5 271l3.5 0l0 -7l-3.5 0Z" fill="rgb(227,73,2)" fill-opacity="0.3"></path>
<path d="M445.6 271l3.5 0l0 -7l-3.5 0Z" fill="rgb(227,73,2)" fill-opacity="0.3"></path>
<path d="M450.6 271l3.5 0l0 -7l-3.5 0Z" fill="rgb(227,73,2)" fill-opacity="0.3"></path>
<path d="M455.6 271l3.5 0l0 -6.4l-3.5 0Z" fill="rgb(227,73,2)" fill-opacity="0.3"></path>
<path d="M460.6 271l3.5 0l0 -5.8l-3.5 0Z" fill="rgb(227,73,2)" fill-opacity="0.3"></path>
<path d="M465.7 271l3.5 0l0 -5.1l-3.5 0Z" fill="rgb(227,73,2)" fill-opacity="0.3"></path>
<path d="M470.7 271l3.5 0l0 -3.8l-3.5 0Z" fill="rgb(227,73,2)" fill-opacity="0.3"></path>
<path d="M475.7 271l3.5 0l0 -3.8l-3.5 0Z" fill="rgb(227,73,2)" fill-opacity="0.3"></path>
<path d="M480.7 271l3.5 0l0 -3.8l-3.5 0Z" fill="rgb(227,73,2)" fill-opacity="0.3"></path>
<path d="M485.7 271l3.5 0l0 -3.8l-3.5 0Z" fill="rgb(227,73,2)" fill-opacity="0.3"></path>
<path d="M490.8 271l3.5 0l0 -3.8l-3.5 0Z" fill="rgb(227,73,2)" fill-opacity="0.3"></path>
<path d="M495.8 271l3.5 0l0 -3.8l-3.5 0Z" fill="rgb(227,73,2)" fill-opacity="0.3"></path>
<path d="M500.8 271l3.5 0l0 -3.2l-3.5 0Z" fill="rgb(227,73,2)" fill-opacity="0.3"></path>
<path d="M505.8 271l3.5 0l0 -3.2l-3.5 0Z" fill="rgb(227,73,2)" fill-opacity="0.3"></path>
<path d="M510.8 271l3.5 0l0 -3.2l-3.5 0Z" fill="rgb(227,73,2)" fill-opacity="0.3"></path>
<path d="M515.9 271l3.5 0l0 -3.2l-3.5 0Z" fill="rgb(227,73,2)" fill-opacity="0.3"></path>
<path d="M520.9 271l3.5 0l0 -3.2l-3.5 0Z" fill="rgb(227,73,2)" fill-opacity="0.3"></path>
<path d="M525.9 271l3.5 0l0 -3.2l-3.5 0Z" fill="rgb(227,73,2)" fill-opacity="0.3"></path>
<path d="M530.9 271l3.5 0l0 -3.2l-3.5 0Z" fill="rgb(227,73,2)" fill-opacity="0.3"></path>
<path d="M535.9 271l3.5 0l0 -3.2l-3.5 0Z" fill="rgb(227,73,2)" fill-opacity="0.3"></path>
<path d="M541 271l3.5 0l0 -3.2l-3.5 0Z" fill="rgb(227,73,2)" fill-opacity="0.3"></path>
<path d="M546 271l3.5 0l0 -3.2l-3.5 0Z" fill="rgb(227,73,2)" fill-opacity="0.3"></path>
<path d="M551 271l3.5 0l0 -3.2l-3.5 0Z" fill="rgb(227,73,2)" fill-opacity="0.3"></path>
<path d="M556 271l3.5 0l0 -3.2l-3.5 0Z" fill="rgb(227,73,2)" fill-opacity="0.3"></path>
<path d="M561.1 271l3.5 0l0 -3.2l-3.5 0Z" fill="rgb(227,73,2)" fill-opacity="0.3"></path>
<path d="M566.1 271l3.5 0l0 -1.9l-3.5 0Z" fill="rgb(227,73,2)" fill-opacity="0.3"></path>
<path d="M571.1 271l3.5 0l0 -1.9l-3.5 0Z" fill="rgb(227,73,2)" fill-opacity="0.3"></path>
<path d="M576.1 271l3.5 0l0 -1.9l-3.5 0Z" fill="rgb(227,73,2)" fill-opacity="0.3"></path>
<path d="M581.1 271l3.5 0l0 -1.9l-3.5 0Z" fill="rgb(227,73,2)" fill-opacity="0.3"></path>
<path d="M586.2 271l3.5 0l0 -1.3l-3.5 0Z" fill="rgb(227,73,2)" fill-opacity="0.3"></path>
<path d="M591.2 271l3.5 0l0 -1.3l-3.5 0Z" fill="rgb(227,73,2)" fill-opacity="0.3"></path>
<path d="M596.2 271l3.5 0l0 -1.3l-3.5 0Z" fill="rgb(227,73,2)" fill-opacity="0.3"></path>
<path d="M601.2 271l3.5 0l0 -1.3l-3.5 0Z" fill="rgb(227,73,2)" fill-opacity="0.3"></path>
<path d="M606.2 271l3.5 0l0 -1.3l-3.5 0Z" fill="rgb(227,73,2)" fill-opacity="0.3"></path>
<path d="M611.3 271l3.5 0l0 -1.3l-3.5 0Z" fill="rgb(227,73,2)" fill-opacity="0.3"></path>
<path d="M616.3 271l3.5 0l0 -0.6l-3.5 0Z" fill="rgb(227,73,2)" fill-opacity="0.3"></path>
<path d="M621.3 271l3.5 0l0 -0.6l-3.5 0Z" fill="rgb(227,73,2)" fill-opacity="0.3"></path>
<path d="M626.3 271l3.5 0l0 -0.6l-3.5 0Z" fill="rgb(227,73,2)" fill-opacity="0.3"></path>
<path d="M631.3 271l3.5 0l0 -0.6l-3.5 0Z" fill="rgb(227,73,2)" fill-opacity="0.3"></path>
<path d="M636.4 271l3.5 0l0 -0.6l-3.5 0Z" fill="rgb(227,73,2)" fill-opacity="0.3"></path>
<path d="M641.4 271l3.5 0l0 -0.6l-3.5 0Z" fill="rgb(227,73,2)" fill-opacity="0.3"></path>
<path d="M646.4 271l3.5 0l0 -0.6l-3.5 0Z" fill="rgb(227,73,2)" fill-opacity="0.3"></path>
<path d="M651.4 271l3.5 0l0 -0.6l-3.5 0Z" fill="rgb(227,73,2)" fill-opacity="0.3"></path>
<path d="M656.5 271l3.5 0l0 -0.6l-3.5 0Z" fill="rgb(227,73,2)" fill-opacity="0.3"></path>
<path d="M661.5 271l3.5 0l0 -0.6l-3.5 0Z" fill="rgb(227,73,2)" fill-opacity="0.3"></path>
<path d="M666.5 271l3.5 0l0 -0.6l-3.5 0Z" fill="rgb(227,73,2)" fill-opacity="0.3"></path>
<path d="M671.5 271l3.5 0l0 -0.6l-3.5 0Z" fill="rgb(227,73,2)" fill-opacity="0.3"></path>
<path d="M676.5 271l3.5 0l0 -0.6l-3.5 0Z" fill="rgb(227,73,2)" fill-opacity="0.3"></path>
<path d="M681.6 271l3.5 0l0 -0.6l-3.5 0Z" fill="rgb(227,73,2)" fill-opacity="0.3"></path>
<path d="M686.6 271l3.5 0l0 -0.6l-3.5 0Z" fill="rgb(227,73,2)" fill-opacity="0.3"></path>
<path d="M691.6 271l3.5 0l0 -0.6l-3.5 0Z" fill="rgb(227,73,2)" fill-opacity="0.3"></path>
<path d="M696.6 271l3.5 0l0 -0.6l-3.5 0Z" fill="rgb(227,73,2)" fill-opacity="0.3"></path>
<path d="M701.6 271l3.5 0l0 -0.6l-3.5 0Z" fill="rgb(227,73,2)" fill-opacity="0.3"></path>
<path d="M706.7 271l3.5 0l0 -0.6l-3.5 0Z" fill="rgb(227,73,2)" fill-opacity="0.3"></path>
<path d="M711.7 271l3.5 0l0 -0.6l-3.5 0Z" fill="rgb(227,73,2)" fill-opacity="0.3"></path>
<path d="M716.7 271l3.5 0l0 -0.6l-3.5 0Z" fill="rgb(227,73,2)" fill-opacity="0.3"></path>
<path d="M721.7 271l3.5 0l0 -0.6l-3.5 0Z" fill="rgb(227,73,2)" fill-opacity="0.3"></path>
<path d="M726.8 271l3.5 0l0 -0.6l-3.5 0Z" fill="rgb(227,73,2)" fill-opacity="0.3"></path>
<path d="M731.8 271l3.5 0l0 -0.6l-3.5 0Z" fill="rgb(227,73,2)" fill-opacity="0.3"></path>
<path d="M736.8 271l3.5 0l0 -0.6l-3.5 0Z" fill="rgb(227,73,2)" fill-opacity="0.3"></path>
<path d="M741.8 271l3.5 0l0 -0.6l-3.5 0Z" fill="rgb(227,73,2)" fill-opacity="0.3"></path>
<path d="M746.8 271l3.5 0l0 -0.6l-3.5 0Z" fill="rgb(227,73,2)" fill-opacity="0.3"></path>
<path d="M751.9 271l3.5 0l0 -0.6l-3.5 0Z" fill="rgb(227,73,2)" fill-opacity="0.3"></path>
<path d="M756.9 271l3.5 0l0 -0.6l-3.5 0Z" fill="rgb(227,73,2)" fill-opacity="0.3"></path>
<path d="M761.9 271l3.5 0l0 -0.6l-3.5 0Z" fill="rgb(227,73,2)" fill-opacity="0.3"></path>
<path d="M766.9 271l3.5 0l0 -0.6l-3.5 0Z" fill="rgb(227,73,2)" fill-opacity="0.3"></path>
<path d="M771.9 271l3.5 0l0 -0.6l-3.5 0Z" fill="rgb(227,73,2)" fill-opacity="0.3"></path>
<path d="M777 271l3.5 0l0 -0.6l-3.5 0Z" fill="rgb(227,73,2)" fill-opacity="0.3"></path>
<path d="M782 271l3.5 0l0 -0.6l-3.5 0Z" fill="rgb(227,73,2)" fill-opacity="0.3"></path>
<path d="M787 271l3.5 0l0 -0.6l-3.5 0Z" fill="rgb(227,73,2)" fill-opacity="0.3"></path>
<path d="M792 271l3.5 0l0 -0.6l-3.5 0Z" fill="rgb(227,73,2)" fill-opacity="0.3"></path>
<path d="M797 271l3.5 0l0 -0.6l-3.5 0Z" fill="rgb(227,73,2)" fill-opacity="0.3"></path>
<path d="M802.1 271l3.5 0l0 -0.6l-3.5 0Z" fill="rgb(227,73,2)" fill-opacity="0.3"></path>
<path d="M807.1 271l3.5 0l0 -0.6l-3.5 0Z" fill="rgb(227,73,2)" fill-opacity="0.3"></path>
<path d="M812.1 271l3.5 0l0 -0.6l-3.5 0Z" fill="rgb(227,73,2)" fill-opacity="0.3"></path>
<path d="M817.1 271l3.5 0l0 -0.6l-3.5 0Z" fill="rgb(227,73,2)" fill-opacity="0.3"></path>
<path d="M822.2 271l3.5 0l0 -0.6l-3.5 0Z" fill="rgb(227,73,2)" fill-opacity="0.3"></path>
<path d="M827.2 271l3.5 0l0 -0.6l-3.5 0Z" fill="rgb(227,73,2)" fill-opacity="0.3"></path>
<path d="M832.2 271l3.5 0l0 -0.6l-3.5 0Z" fill="rgb(227,73,2)" fill-opacity="0.3"></path>
<path d="M837.2 271l3.5 0l0 -0.6l-3.5 0Z" fill="rgb(227,73,2)" fill-opacity="0.3"></path>
<path d="M842.2 271l3.5 0l0 -0.6l-3.5 0Z" fill="rgb(227,73,2)" fill-opacity="0.3"></path>
<path d="M847.3 271l3.5 0l0 -0.6l-3.5 0Z" fill="rgb(227,73,2)" fill-opacity="0.3"></path>
<path d="M852.3 271l3.5 0l0 -0.6l-3.5 0Z" fill="rgb(227,73,2)" fill-opacity="0.3"></path>
<path d="M857.3 271l3.5 0l0 -0.6l-3.5 0Z" fill="rgb(227,73,2)" fill-opacity="0.3"></path>
<path d="M862.3 271l3.5 0l0 -0.6l-3.5 0Z" fill="rgb(227,73,2)" fill-opacity="0.3"></path>
<path d="M867.3 271l3.5 0l0 -0.6l-3.5 0Z" fill="rgb(227,73,2)" fill-opacity="0.3"></path>
<path d="M872.4 271l3.5 0l0 -0.6l-3.5 0Z" fill="rgb(227,73,2)" fill-opacity="0.3"></path>
<path d="M877.4 271l3.5 0l0 -0.6l-3.5 0Z" fill="rgb(227,73,2)" fill-opacity="0.3"></path>
<path d="M882.4 271l3.5 0l0 -0.6l-3.5 0Z" fill="rgb(227,73,2)" fill-opacity="0.3"></path>
<path d="M887.4 271l3.5 0l0 -0.6l-3.5 0Z" fill="rgb(227,73,2)" fill-opacity="0.3"></path>
<path d="M892.4 271l3.5 0l0 -0.6l-3.5 0Z" fill="rgb(227,73,2)" fill-opacity="0.3"></path>
<path d="M897.5 271l3.5 0l0 -0.6l-3.5 0Z" fill="rgb(227,73,2)" fill-opacity="0.3"></path>
<path d="M902.5 271l3.5 0l0 -0.6l-3.5 0Z" fill="rgb(227,73,2)" fill-opacity="0.3"></path>
<path d="M907.5 271l3.5 0l0 -0.6l-3.5 0Z" fill="rgb(227,73,2)" fill-opacity="0.3"></path>
<path d="M912.5 271l3.5 0l0 -0.6l-3.5 0Z" fill="rgb(227,73,2)" fill-opacity="0.3"></path>
<path d="M917.6 271l3.5 0l0 -0.6l-3.5 0Z" fill="rgb(227,73,2)" fill-opacity="0.3"></path>
<path d="M922.6 271l3.5 0l0 -0.6l-3.5 0Z" fill="rgb(227,73,2)" fill-opacity="0.3"></path>
<path d="M927.6 271l3.5 0l0 0l-3.5 0Z" fill="rgb(227,73,2)" fill-opacity="0.3"></path>
<path d="M-5 -5l226.9 0l0 24l-226.9 0Z" transform="translate(391.54 5)" fill="rgb(0,0,0)" fill-opacity="0" stroke="#ccc" stroke-width="0"></path>
<path d="M3.5 0L21.5 0A3.5 3.5 0 0 1 25 3.5L25 10.5A3.5 3.5 0 0 1 21.5 14L3.5 14A3.5 3.5 0 0 1 0 10.5L0 3.5A3.5 3.5 0 0 1 3.5 0" transform="translate(391.54 5)" fill="rgb(227,73,2)" fill-opacity="0.3"></path>
<text dominant-baseline="central" text-anchor="start" style="font-size:12px;font-family:sans-serif;" xml:space="preserve" x="30" y="7" transform="translate(391.54 5)" fill="#333">Times completed</text>
<path d="M0 7L25 7" transform="translate(524.1 5)" fill="#000" stroke="#E34902" stroke-width="2" stroke-linecap="butt" stroke-miterlimit="10"></path>
<path d="M18.1 7A5.6 5.6 0 1 1 18.1 6.4A5.6 5.6 0 0 1 18.1 7" transform="translate(524.1 5)" fill="#fff" stroke="#E34902" stroke-width="2" stroke-linecap="butt" stroke-miterlimit="10"></path>
<text dominant-baseline="central" text-anchor="start" style="font-size:12px;font-family:sans-serif;" x="30" y="7" transform="translate(524.1 5)" fill="#333">Eddington</text>
<path d="M-0.54 -0.89A0.6 0.6 0 1 1 0.54 -0.89C0.39 -0.56 0 -0.42 0 0C0 -0.42 -0.39 -0.56 -0.54 -0.89Z" transform="matrix(25,0,0,25,326.7915,230.8333)" fill="rgb(227,73,2)" fill-opacity="0.8"></path>
<text dominant-baseline="central" text-anchor="middle" style="font-size:12px;font-family:sans-serif;" transform="translate(326.7915 204.6905)" fill="#eee" stroke="rgb(227,73,2)" stroke-width="2" paint-order="stroke" stroke-opacity="0.8" stroke-miterlimit="2">54</text>
<g clip-path="url(#zr0-c0)">
<path d="M60.7 270.4L65.7 269.7L70.7 269.1L75.7 268.4L80.8 267.8L85.8 267.2L90.8 266.5L95.8 265.9L100.8 265.2L105.9 264.6L110.9 264L115.9 263.3L120.9 262.7L125.9 262L131 261.4L136 260.8L141 260.1L146 259.5L151.1 258.9L156.1 258.2L161.1 257.6L166.1 256.9L171.1 256.3L176.2 255.7L181.2 255L186.2 254.4L191.2 253.7L196.2 253.1L201.3 252.5L206.3 251.8L211.3 251.2L216.3 250.5L221.3 249.9L226.4 249.3L231.4 248.6L236.4 248L241.4 247.3L246.5 246.7L251.5 246.1L256.5 245.4L261.5 244.8L266.5 244.1L271.6 243.5L276.6 242.9L281.6 242.2L286.6 241.6L291.6 240.9L296.7 240.3L301.7 239.7L306.7 239L311.7 238.4L316.7 237.8L321.8 237.1L326.8 236.5L331.8 235.8L336.8 235.2L341.9 234.6L346.9 233.9L351.9 233.3L356.9 232.6L361.9 232L367 231.4L372 230.7L377 230.1L382 229.4L387 228.8L392.1 228.2L397.1 227.5L402.1 226.9L407.1 226.2L412.2 225.6L417.2 225L422.2 224.3L427.2 223.7L432.2 223L437.3 222.4L442.3 221.8L447.3 221.1L452.3 220.5L457.3 219.8L462.4 219.2L467.4 218.6L472.4 217.9L477.4 217.3L482.4 216.7L487.5 216L492.5 215.4L497.5 214.7L502.5 214.1L507.6 213.5L512.6 212.8L517.6 212.2L522.6 211.5L527.6 210.9L532.7 210.3L537.7 209.6L542.7 209L547.7 208.3L552.7 207.7L557.8 207.1L562.8 206.4L567.8 205.8L572.8 205.1L577.8 204.5L582.9 203.9L587.9 203.2L592.9 202.6L597.9 201.9L603 201.3L608 200.7L613 200L618 199.4L623 198.7L628.1 198.1L633.1 197.5L638.1 196.8L643.1 196.2L648.1 195.6L653.2 194.9L658.2 194.3L663.2 193.6L668.2 193L673.3 192.4L678.3 191.7L683.3 191.1L688.3 190.4L693.3 189.8L698.4 189.2L703.4 188.5L708.4 187.9L713.4 187.2L718.4 186.6L723.5 186L728.5 185.3L733.5 184.7L738.5 184L743.5 183.4L748.6 182.8L753.6 182.1L758.6 181.5L763.6 180.8L768.7 180.2L773.7 179.6L778.7 178.9L783.7 178.3L788.7 177.6L793.8 177L798.8 176.4L803.8 175.7L808.8 175.1L813.8 174.5L818.9 173.8L823.9 173.2L828.9 172.5L833.9 171.9L838.9 171.3L844 170.6L849 170L854 169.3L859 168.7L864.1 168.1L869.1 167.4L874.1 166.8L879.1 166.1L884.1 165.5L889.2 164.9L894.2 164.2L899.2 163.6L904.2 162.9L909.2 162.3L914.3 161.7L919.3 161L924.3 160.4L929.3 159.7" fill="none" stroke="#E34902" stroke-width="2" stroke-linejoin="bevel"></path>
</g>
<defs >
<clipPath id="zr0-c0">
<path d="M57 59l876 0l0 213l-876 0Z" fill="#000"></path>
</clipPath>
</defs>
</svg>