<svg width="1000" height="300" xmlns="http://www.w3.org/2000/svg" xmlns:xlink="http://www.w3.org/1999/xlink" version="1.1" baseProfile="full" viewBox="0 0 1000 300">
<rect width="1000" height="300" x="0" y="0" id="0" fill="#ffffff"></rect>
<path d="M58.2 271.5L931.8 271.5" fill="none" stroke="#E0E6F1"></path>
<path d="M58.2 218.5L931.8 218.5" fill="none" stroke="#E0E6F1"></path>
<path d="M58.2 165.5L931.8 165.5" fill="none" stroke="#E0E6F1"></path>
<path d="M58.2 113.5L931.8 113.5" fill="none" stroke="#E0E6F1"></path>
<path d="M58.2 60.5L931.8 60.5" fill="none" stroke="#E0E6F1"></path>
<path d="M58.2 271.5L931.8 271.5" fill="none" stroke="#6E7079" stroke-linecap="round"></path>
<path d="M60.5 271L60.5 276" fill="none" stroke="#6E7079"></path>
<path d="M111.5 271L111.5 276" fill="none" stroke="#6E7079"></path>
<path d="M161.5 271L161.5 276" fill="none" stroke="#6E7079"></path>
<path d="M211.5 271L211.5 276" fill="none" stroke="#6E7079"></path>
<path d="M261.5 271L261.5 276" fill="none" stroke="#6E7079"></path>
<path d="M311.5 271L311.5 276" fill="none" stroke="#6E7079"></path>
<path d="M362.5 271L362.5 276" fill="none" stroke="#6E7079"></path>
<path d="M412.5 271L412.5 276" fill="none" stroke="#6E7079"></path>
<path d="M462.5 271L462.5 276" fill="none" stroke="#6E7079"></path>
<path d="M512.5 271L512.5 276" fill="none" stroke="#6E7079"></path>
<path d="M563.5 271L563.5 276" fill="none" stroke="#6E7079"></path>
<path d="M613.5 271L613.5 276" fill="none" stroke="#6E7079"></path>
<path d="M663.5 271L663.5 276" fill="none" stroke="#6E7079"></path>
<path d="M713.5 271L713.5 276" fill="none" stroke="#6E7079"></path>
<path d="M763.5 271L763.5 276" fill="none" stroke="#6E7079"></path>
<path d="M814.5 271L814.5 276" fill="none" stroke="#6E7079"></path>
<path d="M864.5 271L864.5 276" fill="none" stroke="#6E7079"></path>
<path d="M914.5 271L914.5 276" fill="none" stroke="#6E7079"></path>
<text dominant-baseline="central" text-anchor="end" style="font-size:12px;font-family:sans-serif;" transform="translate(50.16 271)" fill="#6E7079">0</text>
<text dominant-baseline="central" text-anchor="end" style="font-size:12px;font-family:sans-serif;" transform="translate(50.16 218.25)" fill="#6E7079">90</text>
<text dominant-baseline="central" text-anchor="end" style="font-size:12px;font-family:sans-serif;" transform="translate(50.16 165.5)" fill="#6E7079">180</text>
<text dominant-baseline="central" text-anchor="end" style="font-size:12px;font-family:sans-serif;" transform="translate(50.16 112.75)" fill="#6E7079">270</text>
<text dominant-baseline="central" text-anchor="end" style="font-size:12px;font-family:sans-serif;" transform="translate(50.16 60)" fill="#6E7079">360</text>
<text dominant-baseline="central" text-anchor="start" style="font-size:12px;font-family:sans-serif;" transform="translate(939.84 271)" fill="#6E7079">0</text>
<text dominant-baseline="central" text-anchor="start" style="font-size:12px;font-family:sans-serif;" transform="translate(939.84 218.25)" fill="#6E7079">90</text>
<text dominant-baseline="central" text-anchor="start" style="font-size:12px;font-family:sans-serif;" transform="translate(939.84 165.5)" fill="#6E7079">180</text>
<text dominant-baseline="central" text-anchor="start" style="font-size:12px;font-family:sans-serif;" transform="translate(939.84 112.75)" fill="#6E7079">270</text>
<text dominant-baseline="central" text-anchor="start" style="font-size:12px;font-family:sans-serif;" transform="translate(939.84 60)" fill="#6E7079">360</text>
<text dominant-baseline="central" text-anchor="middle" style="font-size:12px;font-family:sans-serif;" y="6" transform="translate(60.6706 279)" fill="#6E7079">1km</text>
<text dominant-baseline="central" text-anchor="middle" style="font-size:12px;font-family:sans-serif;" y="6" transform="translate(110.8821 279)" fill="#6E7079">11km</text>
<text dominant-baseline="central" text-anchor="middle" style="font-size:12px;font-family:sans-serif;" y="6" transform="translate(161.0936 279)" fill="#6E7079">21km</text>
<text dominant-baseline="central" text-anchor="middle" style="font-size:12px;font-family:sans-serif;" y="6" transform="translate(211.3051 279)" fill="#6E7079">31km</text>
<text dominant-baseline="central" text-anchor="middle" style="font-size:12px;font-family:sans-serif;" y="6" transform="translate(261.5166 279)" fill="#6E7079">41km</text>
<text dominant-baseline="central" text-anchor="middle" style="font-size:12px;font-family:sans-serif;" y="6" transform="translate(311.728 279)" fill="#6E7079">51km</text>
<text dominant-baseline="central" text-anchor="middle" style="font-size:12px;font-family:sans-serif;" y="6" transform="translate(361.9395 279)" fill="#6E7079">61km</text>
<text dominant-baseline="central" text-anchor="middle" style="font-size:12px;font-family:sans-serif;" y="6" transform="translate(412.151 279)" fill="#6E7079">71km</text>
<text dominant-baseline="central" text-anchor="middle" style="font-size:12px;font-family:sans-serif;" y="6" transform="translate(462.3625 279)" fill="#6E7079">81km</text>
<text dominant-baseline="central" text-anchor="middle" style="font-size:12px;font-family:sans-serif;" y="6" transform="translate(512.574 279)" fill="#6E7079">91km</text>
<text dominant-baseline="central" text-anchor="middle" style="font-size:12px;font-family:sans-serif;" y="6" transform="translate(562.7855 279)" fill="#6E7079">101km</text>
<text dominant-baseline="central" text-anchor="middle" style="font-size:12px;font-family:sans-serif;" y="6" transform="translate(612.997 279)" fill="#6E7079">111km</text>
<text dominant-baseline="central" text-anchor="middle" style="font-size:12px;font-family:sans-serif;" y="6" transform="translate(663.2085 279)" fill="#6E7079">121km</text>
<text dominant-baseline="central" text-anchor="middle" style="font-size:12px;font-family:sans-serif;" y="6" transform="translate(713.42 279)" fill="#6E7079">131km</text>
<text dominant-baseline="central" text-anchor="middle" style="font-size:12px;font-family:sans-serif;" y="6" transform="translate(763.6315 279)" fill="#6E7079">141km</text>
<text dominant-baseline="central" text-anchor="middle" style="font-size:12px;font-family:sans-serif;" y="6" transform="translate(813.843 279)" fill="#6E7079">151km</text>
<text dominant-baseline="central" text-anchor="middle" style="font-size:12px;font-family:sans-serif;" y="6" transform="translate(864.0545 279)" fill="#6E7079">161km</text>
<text dominant-baseline="central" text-anchor="middle" style="font-size:12px;font-family:sans-serif;" y="6" transform="translate(914.266 279)" fill="#6E7079">171km</text>
<path d="M58.9 271l3.5 0l0 -201l-3.5 0Z" fill="rgb(227,73,2)" fill-opacity="0.3"></path>
<path d="M64 271l3.5 0l0 -201l-3.5 0Z" fill="rgb(227,73,2)" fill-opacity="0.3"></path>
<path d="M69 271l3.5 0l0 -200.4l-3.5 0Z" fill="rgb(227,73,2)" fill-opacity="0.3"></path>
<path d="M74 271l3.5 0l0 -200.4l-3.5 0Z" fill="rgb(227,73,2)" fill-opacity="0.3"></path>
<path d="M79 271l3.5 0l0 -198.7l-3.5 0Z" fill="rgb(227,73,2)" fill-opacity="0.3"></path>
<path d="M84 271l3.5 0l0 -192.2l-3.5 0Z" fill="rgb(227,73,2)" fill-opacity="0.3"></path>
<path d="M89.1 271l3.5 0l0 -191.7l-3.5 0Z" fill="rgb(227,73,2)" fill-opacity="0.3"></path>
<path d="M94.1 271l3.5 0l0 -188.7l-3.5 0Z" fill="rgb(227,73,2)" fill-opacity="0.3"></path>
<path d="M99.1 271l3.5 0l0 -187.6l-3.5 0Z" fill="rgb(227,73,2)" fill-opacity="0.3"></path>
<path d="M104.1 271l3.5 0l0 -186.4l-3.5 0Z" fill="rgb(227,73,2)" fill-opacity="0.3"></path>
<path d="M109.1 271l3.5 0l0 -182.3l-3.5 0Z" fill="rgb(227,73,2)" fill-opacity="0.3"></path>
<path d="M114.2 271l3.5 0l0 -179.3l-3.5 0Z" fill="rgb(227,73,2)" fill-opacity="0.3"></path>
<path d="M119.2 271l3.5 0l0 -173.5l-3.5 0Z" fill="rgb(227,73,2)" fill-opacity="0.3"></path>
<path d="M124.2 271l3.5 0l0 -172.3l-3.5 0Z" fill="rgb(227,73,2)" fill-opacity="0.3"></path>
<path d="M129.2 271l3.5 0l0 -172.3l-3.5 0Z" fill="rgb(227,73,2)" fill-opacity="0.3"></path>
<path d="M134.3 271l3.5 0l0 -171.7l-3.5 0Z" fill="rgb(227,73,2)" fill-opacity="0.3"></path>
<path d="M139.3 271l3.5 0l0 -171.1l-3.5 0Z" fill="rgb(227,73,2)" fill-opacity="0.3"></path>
<path d="M144.3 271l3.5 0l0 -168.8l-3.5 0Z" fill="rgb(227,73,2)" fill-opacity="0.3"></path>
<path d="M149.3 271l3.5 0l0 -168.2l-3.5 0Z" fill="rgb(227,73,2)" fill-opacity="0.3"></path>
<path d="M154.3 271l3.5 0l0 -167l-3.5 0Z" fill="rgb(227,73,2)" fill-opacity="0.3"></path>
<path d="M159.4 271l3.5 0l0 -166.5l-3.5 0Z" fill="rgb(227,73,2)" fill-opacity="0.3"></path>
<path d="M164.4 271l3.5 0l0 -165.3l-3.5 0Z" fill="rgb(227,73,2)" fill-opacity="0.3"></path>
<path d="M169.4 271l3.5 0l0 -161.8l-3.5 0Z" fill="rgb(227,73,2)" fill-opacity="0.3"></path>
<path d="M174.4 271l3.5 0l0 -160.6l-3.5 0Z" fill="rgb(227,73,2)" fill-opacity="0.3"></path>
<path d="M179.4 271l3.5 0l0 -160l-3.5 0Z" fill="rgb(227,73,2)" fill-opacity="0.3"></path>
<path d="M184.5 271l3.5 0l0 -156.5l-3.5 0Z" fill="rgb(227,73,2)" fill-opacity="0.3"></path>
<path d="M189.5 271l3.5 0l0 -152.4l-3.5 0Z" fill="rgb(227,73,2)" fill-opacity="0.3"></path>
<path d="M194.5 271l3.5 0l0 -150l-3.5 0Z" fill="rgb(227,73,2)" fill-opacity="0.3"></path>
<path d="M199.5 271l3.5 0l0 -144.2l-3.5 0Z" fill="rgb(227,73,2)" fill-opacity="0.3"></path>
<path d="M204.6 271l3.5 0l0 -140.7l-3.5 0Z" fill="rgb(227,73,2)" fill-opacity="0.3"></path>
<path d="M209.6 271l3.5 0l0 -133.6l-3.5 0Z" fill="rgb(227,73,2)" fill-opacity="0.3"></path>
<path d="M214.6 271l3.5 0l0 -128.4l-3.5 0Z" fill="rgb(227,73,2)" fill-opacity="0.3"></path>
<path d="M219.6 271l3.5 0l0 -125.4l-3.5 0Z" fill="rgb(227,73,2)" fill-opacity="0.3"></path>
<path d="M224.6 271l3.5 0l0 -122.5l-3.5 0Z" fill="rgb(227,73,2)" fill-opacity="0.3"></path>
<path d="M229.7 271l3.5 0l0 -119l-3.5 0Z" fill="rgb(227,73,2)" fill-opacity="0.3"></path>
<path d="M234.7 271l3.5 0l0 -114.3l-3.5 0Z" fill="rgb(227,73,2)" fill-opacity="0.3"></path>
<path d="M239.7 271l3.5 0l0 -108.4l-3.5 0Z" fill="rgb(227,73,2)" fill-opacity="0.3"></path>
<path d="M244.7 271l3.5 0l0 -104.3l-3.5 0Z" fill="rgb(227,73,2)" fill-opacity="0.3"></path>
<path d="M249.7 271l3.5 0l0 -100.8l-3.5 0Z" fill="rgb(227,73,2)" fill-opacity="0.3"></path>
<path d="M254.8 271l3.5 0l0 -98.5l-3.5 0Z" fill="rgb(227,73,2)" fill-opacity="0.3"></path>
<path d="M259.8 271l3.5 0l0 -94.4l-3.5 0Z" fill="rgb(227,73,2)" fill-opacity="0.3"></path>
<path d="M264.8 271l3.5 0l0 -90.3l-3.5 0Z" fill="rgb(227,73,2)" fill-opacity="0.3"></path>
<path d="M269.8 271l3.5 0l0 -86.2l-3.5 0Z" fill="rgb(227,73,2)" fill-opacity="0.3"></path>
<path d="M274.8 271l3.5 0l0 -81.5l-3.5 0Z" fill="rgb(227,73,2)" fill-opacity="0.3"></path>
<path d="M279.9 271l3.5 0l0 -77.4l-3.5 0Z" fill="rgb(227,73,2)" fill-opacity="0.3"></path>
<path d="M284.9 271l3.5 0l0 -75l-3.5 0Z" fill="rgb(227,73,2)" fill-opacity="0.3"></path>
<path d="M289.9 271l3.5 0l0 -70.9l-3.5 0Z" fill="rgb(227,73,2)" fill-opacity="0.3"></path>
<path d="M294.9 271l3.5 0l0 -66.2l-3.5 0Z" fill="rgb(227,73,2)" fill-opacity="0.3"></path>
<path d="M300 271l3.5 0l0 -63.9l-3.5 0Z" fill="rgb(227,73,2)" fill-opacity="0.3"></path>
<path d="M305 271l3.5 0l0 -55.7l-3.5 0Z" fill="rgb(227,73,2)" fill-opacity="0.3"></path>
<path d="M310 271l3.5 0l0 -51.6l-3.5 0Z" fill="rgb(227,73,2)" fill-opacity="0.3"></path>
<path d="M315 271l3.5 0l0 -47.5l-3.5 0Z" fill="rgb(227,73,2)" fill-opacity="0.3"></path>
<path d="M320 271l3.5 0l0 -36.9l-3.5 0Z" fill="rgb(227,73,2)" fill-opacity="0.3"></path>
<path d="M325.1 271l3.5 0l0 -34.6l-3.5 0Z" fill="rgb(227,73,2)" fill-opacity="0.8"></path>
<path d="M330.1 271l3.5 0l0 -30.5l-3.5 0Z" fill="rgb(227,73,2)" fill-opacity="0.3"></path>
<path d="M335.1 271l3.5 0l0 -27l-3.5 0Z" fill="rgb(227,73,2)" fill-opacity="0.3"></path>
<path d="M340.1 271l3.5 0l0 -25.2l-3.5 0Z" fill="rgb(227,73,2)" fill-opacity="0.3"></path>
<path d="M345.1 271l3.5 0l0 -24l-3.5 0Z" fill="rgb(227,73,2)" fill-opacity="0.3"></path>
<path d="M350.2 271l3.5 0l0 -23.4l-3.5 0Z" fill="rgb(227,73,2)" fill-opacity="0.3"></path>
<path d="M355.2 271l3.5 0l0 -21.7l-3.5 0Z" fill="rgb(227,73,2)" fill-opacity="0.3"></path>
<path d="M360.2 271l3.5 0l0 -18.8l-3.5 0Z" fill="rgb(227,73,2)" fill-opacity="0.3"></path>
<path d="M365.2 271l3.5 0l0 -18.8l-3.5 0Z" fill="rgb(227,73,2)" fill-opacity="0.3"></path>
<path d="M370.2 271l3.5 0l0 -16.4l-3.5 0Z" fill="rgb(227,73,2)" fill-opacity="0.3"></path>
<path d="M375.3 271l3.5 0l0 -15.8l-3.5 0Z" fill="rgb(227,73,2)" fill-opacity="0.3"></path>
<path d="M380.3 271l3.5 0l0 -15.2l-3.5 0Z" fill="rgb(227,73,2)" fill-opacity="0.3"></path>
<path d="M385.3 271l3.5 0l0 -15.2l-3.5 0Z" fill="rgb(227,73,2)" fill-opacity="0.3"></path>
<path d="M390.3 271l3.5 0l0 -14.1l-3.5 0Z" fill="rgb(227,73,2)" fill-opacity="0.3"></path>
<path d="M395.4 271l3.5 0l0 -12.9l-3.5 0Z" fill="rgb(227,73,2)" fill-opacity="0.3"></path>
<path d="M400.4 271l3.5 0l0 -12.9l-3.5 0Z" fill="rgb(227,73,2)" fill-opacity="0.3"></path>
<path d="M405.4 271l3.5 0l0 -11.7l-3.5 0Z" fill="rgb(227,73,2)" fill-opacity="0.3"></path>
<path d="M410.4 271l3.5 0l0 -10l-3.5 0Z" fill="rgb(227,73,2)" fill-opacity="0.3"></path>
<path d="M415.4 271l3.5 0l0 -9.4l-3.5 0Z" fill="rgb(227,73,2)" fill-opacity="0.3"></path>
<path d="M420.5 271l3.5 0l0 -8.8l-3.5 0Z" fill="rgb(227,73,2)" fill-opacity="0.3"></path>
<path d="M425.5 271l3.5 0l0 -7l-3.5 0Z" fill="rgb(227,73,2)" fill-opacity="0.3"></path>
<path d="M430.5 271l3.5 0l0 -7l-3.5 0Z" fill="rgb(227,73,2)" fill-opacity="0.3"></path>
<path d="M435.5 271l3.5 0l0 -7l-3.5 0Z" fill="rgb(227,73,2)" fill-opacity="0.3"></path>
<path d="M440.5 271l3.5 0l0 -7l-3.5 0Z" fill="rgb(227,73,2)" fill-opacity="0.3"></path>
<path d="M445.6 271l3.5 0l0 -7l-3.5 0Z" fill="rgb(227,73,2)" fill-opacity="0.3"></path>
<path d="M450.6 271l3.5 0l0 -7l-3.5 0Z" fill="rgb(227,73,2)" fill-opacity="0.3"></path>
<path d="M455.6 271l3.5 0l0 -6.4l-3.5 0Z" fill="rgb(227,73,2)" fill-opacity="0.3"></path>
<path d="M460.6 271l3.5 0l0 -5.3l-3.5 0Z" fill="rgb(227,73,2)" fill-opacity="0.3"></path>
<path d="M465.7 271l3.5 0l0 -4.7l-3.5 0Z" fill="rgb(227,73,2)" fill-opacity="0.3"></path>
<path d="M470.7 271l3.5 0l0 -3.5l-3.5 0Z" fill="rgb(227,73,2)" fill-opacity="0.3"></path>
<path d="M475.7 271l3.5 0l0 -3.5l-3.5 0Z" fill="rgb(227,73,2)" fill-opacity="0.3"></path>
<path d="M480.7 271l3.5 0l0 -3.5l-3.5 0Z" fill="rgb(227,73,2)" fill-opacity="0.3"></path>
<path d="M485.7 271l3.5 0l0 -3.5l-3.5 0Z" fill="rgb(227,73,2)" fill-opacity="0.3"></path>
<path d="M490.8 271l3.5 0l0 -3.5l-3.5 0Z" fill="rgb(227,73,2)" fill-opacity="0.3"></path>
<path d="M495.8 271l3.5 0l0 -3.5l-3.5 0Z" fill="rgb(227,73,2)" fill-opacity="0.3"></path>
<path d="M500.8 271l3.5 0l0 -2.9l-3.5 0Z" fill="rgb(227,73,2)" fill-opacity="0.3"></path>
<path d="M505.8 271l3.5 0l0 -2.9l-3.5 0Z" fill="rgb(227,73,2)" fill-opacity="0.3"></path>
<path d="M510.8 271l3.5 0l0 -2.9l-3.5 0Z" fill="rgb(227,73,2)" fill-opacity="0.3"></path>
<path d="M515.9 271l3.5 0l0 -2.9l-3.5 0Z" fill="rgb(227,73,2)" fill-opacity="0.3"></path>
<path d="M520.9 271l3.5 0l0 -2.9l-3.5 0Z" fill="rgb(227,73,2)" fill-opacity="0.3"></path>
<path d="M525.9 271l3.5 0l0 -2.9l-3.5 0Z" fill="rgb(227,73,2)" fill-opacity="0.3"></path>
<path d="M530.9 271l3.5 0l0 -2.9l-3.5 0Z" fill="rgb(227,73,2)" fill-opacity="0.3"></path>
<path d="M535.9 271l3.5 0l0 -2.9l-3.5 0Z" fill="rgb(227,73,2)" fill-opacity="0.3"></path>
<path d="M541 271l3.5 0l0 -2.9l-3.5 0Z" fill="rgb(227,73,2)" fill-opacity="0.3"></path>
<path d="M546 271l3.5 0l0 -2.9l-3.5 0Z" fill="rgb(227,73,2)" fill-opacity="0.3"></path>
<path d="M551 271l3.5 0l0 -2.9l-3.5 0Z" fill="rgb(227,73,2)" fill-opacity="0.3"></path>
<path d="M556 271l3.5 0l0 -2.9l-3.5 0Z" fill="rgb(227,73,2)" fill-opacity="0.3"></path>
<path d="M561.1 271l3.5 0l0 -2.9l-3.5 0Z" fill="rgb(227,73,2)" fill-opacity="0.3"></path>
<path d="M566.1 271l3.5 0l0 -1.8l-3.5 0Z" fill="rgb(227,73,2)" fill-opacity="0.3"></path>
<path d="M571.1 271l3.5 0l0 -1.8l-3.5 0Z" fill="rgb(227,73,2)" fill-opacity="0.3"></path>
<path d="M576.1 271l3.5 0l0 -1.8l-3.5 0Z" fill="rgb(227,73,2)" fill-opacity="0.3"></path>
<path d="M581.1 271l3.5 0l0 -1.8l-3.5 0Z" fill="rgb(227,73,2)" fill-opacity="0.3"></path>
<path d="M586.2 271l3.5 0l0 -1.2l-3.5 0Z" fill="rgb(227,73,2)" fill-opacity="0.3"></path>
<path d="M591.2 271l3.5 0l0 -1.2l-3.5 0Z" fill="rgb(227,73,2)" fill-opacity="0.3"></path>
<path d="M596.2 271l3.5 0l0 -1.2l-3.5 0Z" fill="rgb(227,73,2)" fill-opacity="0.3"></path>
<path d="M601.2 271l3.5 0l0 -1.2l-3.5 0Z" fill="rgb(227,73,2)" fill-opacity="0.3"></path>
<path d="M606.2 271l3.5 0l0 -1.2l-3.5 0Z" fill="rgb(227,73,2)" fill-opacity="0.3"></path>
<path d="M611.3 271l3.5 0l0 -1.2l-3.5 0Z" fill="rgb(227,73,2)" fill-opacity="0.3"></path>
<path d="M616.3 271l3.5 0l0 -0.6l-3.5 0Z" fill="rgb(227,73,2)" fill-opacity="0.3"></path>
<path d="M621.3 271l3.5 0l0 -0.6l-3.5 0Z" fill="rgb(227,73,2)" fill-opacity="0.3"></path>
<path d="M626.3 271l3.5 0l0 -0.6l-3.5 0Z" fill="rgb(227,73,2)" fill-opacity="0.3"></path>
<path d="M631.3 271l3.5 0l0 -0.6l-3.5 0Z" fill="rgb(227,73,2)" fill-opacity="0.3"></path>
<path d="M636.4 271l3.5 0l0 -0.6l-3.5 0Z" fill="rgb(227,73,2)" fill-opacity="0.3"></path>
<path d="M641.4 271l3.5 0l0 -0.6l-3.5 0Z" fill="rgb(227,73,2)" fill-opacity="0.3"></path>
<path d="M646.4 271l3.5 0l0 -0.6l-3.5 0Z" fill="rgb(227,73,2)" fill-opacity="0.3"></path>
<path d="M651.4 271l3.5 0l0 -0.6l-3.5 0Z" fill="rgb(227,73,2)" fill-opacity="0.3"></path>
<path d="M656.5 271l3.5 0l0 -0.6l-3.5 0Z" fill="rgb(227,73,2)" fill-opacity="0.3"></path>
<path d="M661.5 271l3.5 0l0 -0.6l-3.5 0Z" fill="rgb(227,73,2)" fill-opacity="0.3"></path>
<path d="M666.5 271l3.5 0l0 -0.6l-3.5 0Z" fill="rgb(227,73,2)" fill-opacity="0.3"></path>
<path d="M671.5 271l3.5 0l0 -0.6l-3.5 0Z" fill="rgb(227,73,2)" fill-opacity="0.3"></path>
<path d="M676.5 271l3.5 0l0 -0.6l-3.5 0Z" fill="rgb(227,73,2)" fill-opacity="0.3"></path>
<path d="M681.6 271l3.5 0l0 -0.6l-3.5 0Z" fill="rgb(227,73,2)" fill-opacity="0.3"></path>
<path d="M686.6 271l3.5 0l0 -0.6l-3.5 0Z" fill="rgb(227,73,2)" fill-opacity="0.3"></path>
<path d="M691.6 271l3.5 0l0 -0.6l-3.5 0Z" fill="rgb(227,73,2)" fill-opacity="0.3"></path>
<path d="M696.6 271l3.5 0l0 -0.6l-3.5 0Z" fill="rgb(227,73,2)" fill-opacity="0.3"></path>
<path d="M701.6 271l3.5 0l0 -0.6l-3.5 0Z" fill="rgb(227,73,2)" fill-opacity="0.3"></path>
<path d="M706.7 271l3.5 0l0 -0.6l-3.5 0Z" fill="rgb(227,73,2)" fill-opacity="0.3"></path>
<path d="M711.7 271l3.5 0l0 -0.6l-3.5 0Z" fill="rgb(227,73,2)" fill-opacity="0.3"></path>
<path d="M716.7 271l3.5 0l0 -0.6l-3.5 0Z" fill="rgb(227,73,2)" fill-opacity="0.3"></path>
<path d="M721.7 271l3.5 0l0 -0.6l-3.5 0Z" fill="rgb(227,73,2)" fill-opacity="0.3"></path>
<path d="M726.8 271l3.5 0l0 -0.6l-3.5 0Z" fill="rgb(227,73,2)" fill-opacity="0.3"></path>
<path d="M731.8 271l3.5 0l0 -0.6l-3.5 0Z" fill="rgb(227,73,2)" fill-opacity="0.3"></path>
<path d="M736.8 271l3.5 0l0 -0.6l-3.5 0Z" fill="rgb(227,73,2)" fill-opacity="0.3"></path>
<path d="M741.8 271l3.5 0l0 -0.6l-3.5 0Z" fill="rgb(227,73,2)" fill-opacity="0.3"></path>
<path d="M746.8 271l3.5 0l0 -0.6l-3.5 0Z" fill="rgb(227,73,2)" fill-opacity="0.3"></path>
<path d="M751.9 271l3.5 0l0 -0.6l-3.5 0Z" fill="rgb(227,73,2)" fill-opacity="0.3"></path>
<path d="M756.9 271l3.5 0l0 -0.6l-3.5 0Z" fill="rgb(227,73,2)" fill-opacity="0.3"></path>
<path d="M761.9 271l3.5 0l0 -0.6l-3.5 0Z" fill="rgb(227,73,2)" fill-opacity="0.3"></path>
<path d="M766.9 271l3.5 0l0 -0.6l-3.5 0Z" fill="rgb(227,73,2)" fill-opacity="0.3"></path>
<path d="M771.9 271l3.5 0l0 -0.6l-3.5 0Z" fill="rgb(227,73,2)" fill-opacity="0.3"></path>
<path d="M777 271l3.5 0l0 -0.6l-3.5 0Z" fill="rgb(227,73,2)" fill-opacity="0.3"></path>
<path d="M782 271l3.5 0l0 -0.6l-3.5 0Z" fill="rgb(227,73,2)" fill-opacity="0.3"></path>
<path d="M787 271l3.5 0l0 -0.6l-3.5 0Z" fill="rgb(227,73,2)" fill-opacity="0.3"></path>
<path d="M792 271l3.5 0l0 -0.6l-3.5 0Z" fill="rgb(227,73,2)" fill-opacity="0.3"></path>
<path d="M797 271l3.5 0l0 -0.6l-3.5 0Z" fill="rgb(227,73,2)" fill-opacity="0.3"></path>
<path d="M802.1 271l3.5 0l0 -0.6l-3.5 0Z" fill="rgb(227,73,2)" fill-opacity="0.3"></path>
<path d="M807.1 271l3.5 0l0 -0.6l-3.5 0Z" fill="rgb(227,73,2)" fill-opacity="0.3"></path>
<path d="M812.1 271l3.5 0l0 -0.6l-3.5 0Z" fill="rgb(227,73,2)" fill-opacity="0.3"></path>
<path d="M817.1 271l3.5 0l0 -0.6l-3.5 0Z" fill="rgb(227,73,2)" fill-opacity="0.3"></path>
<path d="M822.2 271l3.5 0l0 -0.6l-3.5 0Z" fill="rgb(227,73,2)" fill-opacity="0.3"></path>
<path d="M827.2 271l3.5 0l0 -0.6l-3.5 0Z" fill="rgb(227,73,2)" fill-opacity="0.3"></path>
<path d="M832.2 271l3.5 0l0 -0.6l-3.5 0Z" fill="rgb(227,73,2)" fill-opacity="0.3"></path>
<path d="M837.2 271l3.5 0l0 -0.6l-3.5 0Z" fill="rgb(227,73,2)" fill-opacity="0.3"></path>
<path d="M842.2 271l3.5 0l0 -0.6l-3.5 0Z" fill="rgb(227,73,2)" fill-opacity="0.3"></path>
<path d="M847.3 271l3.5 0l0 -0.6l-3.5 0Z" fill="rgb(227,73,2)" fill-opacity="0.3"></path>
<path d="M852.3 271l3.5 0l0 -0.6l-3.5 0Z" fill="rgb(227,73,2)" fill-opacity="0.3"></path>
<path d="M857.3 271l3.5 0l0 -0.6l-3.5 0Z" fill="rgb(227,73,2)" fill-opacity="0.3"></path>
<path d="M862.3 271l3.5 0l0 -0.6l-3.5 0Z" fill="rgb(227,73,2)" fill-opacity="0.3"></path>
<path d="M867.3 271l3.5 0l0 -0.6l-3.5 0Z" fill="rgb(227,73,2)" fill-opacity="0.3"></path>
<path d="M872.4 271l3.5 0l0 -0.6l-3.5 0Z" fill="rgb(227,73,2)" fill-opacity="0.3"></path>
<path d="M877.4 271l3.5 0l0 -0.6l-3.5 0Z" fill="rgb(227,73,2)" fill-opacity="0.3"></path>
<path d="M882.4 271l3.5 0l0 -0.6l-3.5 0Z" fill="rgb(227,73,2)" fill-opacity="0.3"></path>
<path d="M887.4 271l3.5 0l0 -0.6l-3.5 0Z" fill="rgb(227,73,2)" fill-opacity="0.3"></path>
<path d="M892.4 271l3.5 0l0 -0.6l-3.5 0Z" fill="rgb(227,73,2)" fill-opacity="0.3"></path>
<path d="M897.5 271l3.5 0l0 -0.6l-3.5 0Z" fill="rgb(227,73,2)" fill-opacity="0.3"></path>
<path d="M902.5 271l3.5 0l0 -0.6l-3.5 0Z" fill="rgb(227,73,2)" fill-opacity="0.3"></path>
<path d="M907.5 271l3.5 0l0 -0.6l-3.5 0Z" fill="rgb(227,73,2)" fill-opacity="0.3"></path>
<path d="M912.5 271l3.5 0l0 -0.6l-3.5 0Z" fill="rgb(227,73,2)" fill-opacity="0.3"></path>
<path d="M917.6 271l3.5 0l0 -0.6l-3.5 0Z" fill="rgb(227,73,2)" fill-opacity="0.3"></path>
<path d="M922.6 271l3.5 0l0 -0.6l-3.5 0Z" fill="rgb(227,73,2)" fill-opacity="0.3"></path>
<path d="M927.6 271l3.5 0l0 0l-3.5 0Z" fill="rgb(227,73,2)" fill-opacity="0.3"></path>
<path d="M-5 -5l226.9 0l0 24l-226.9 0Z" transform="translate(391.54 5)" fill="rgb(0,0,0)" fill-opacity="0" stroke="#ccc" stroke-width="0"></path>
<path d="M3.5 0L21.5 0A3.5 3.5 0 0 1 25 3.5L25 10.5A3.5 3.5 0 0 1 21.5 14L3.5 14A3.5 3.5 0 0 1 0 10.5L0 3.5A3.5 3.5 0 0 1 3.5 0" transform="translate(391.54 5)" fill="rgb(227,73,2)" fill-opacity="0.3"></path>
<text dominant-baseline="central" text-anchor="start" style="font-size:12px;font-family:sans-serif;" xml:space="preserve" x="30" y="7" transform="translate(391.54 5)" fill="#333">Times completed</text>
<path d="M0 7L25 7" transform="translate(524.1 5)" fill="#000" stroke="#E34902" stroke-width="2" stroke-linecap="butt" stroke-miterlimit="10"></path>
<path d="M18.1 7A5.6 5.6 0 1 1 18.1 6.4A5.6 5.6 0 0 1 18.1 7" transform="translate(524.1 5)" fill="#fff" stroke="#E34902" stroke-width="2" stroke-linecap="butt" stroke-miterlimit="10"></path>
<text dominant-baseline="central" text-anchor="start" style="font-size:12px;font-family:sans-serif;" x="30" y="7" transform="translate(524.1 5)" fill="#333">Eddington</text>
<path d="M-0.54 -0.89A0.6 0.6 0 1 1 0.54 -0.89C0.39 -0.56 0 -0.42 0 0C0 -0.42 -0.39 -0.56 -0.54 -0.89Z" transform="matrix(25,0,0,25,326.7915,232.0056)" fill="rgb(227,73,2)" fill-opacity="0.8"></path>
<text dominant-baseline="central" text-anchor="middle" style="font-size:12px;font-family:sans-serif;" transform="translate(326.7915 205.8627)" fill="#eee" stroke="rgb(227,73,2)" stroke-width="2" paint-order="stroke" stroke-opacity="0.8" stroke-miterlimit="2">54</text>
<g clip-path="url(#zr0-c0)">
<path d="M60.7 270.4L65.7 269.8L70.7 269.2L75.7 268.7L80.8 268.1L85.8 267.5L90.8 266.9L95.8 266.3L100.8 265.7L105.9 265.1L110.9 264.6L115.9 264L120.9 263.4L125.9 262.8L131 262.2L136 261.6L141 261L146 260.5L151.1 259.9L156.1 259.3L161.1 258.7L166.1 258.1L171.1 257.5L176.2 256.9L181.2 256.3L186.2 255.8L191.2 255.2L196.2 254.6L201.3 254L206.3 253.4L211.3 252.8L216.3 252.2L221.3 251.7L226.4 251.1L231.4 250.5L236.4 249.9L241.4 249.3L246.5 248.7L251.5 248.1L256.5 247.6L261.5 247L266.5 246.4L271.6 245.8L276.6 245.2L281.6 244.6L286.6 244L291.6 243.5L296.7 242.9L301.7 242.3L306.7 241.7L311.7 241.1L316.7 240.5L321.8 239.9L326.8 239.4L331.8 238.8L336.8 238.2L341.9 237.6L346.9 237L351.9 236.4L356.9 235.8L361.9 235.2L367 234.7L372 234.1L377 233.5L382 232.9L387 232.3L392.1 231.7L397.1 231.1L402.1 230.6L407.1 230L412.2 229.4L417.2 228.8L422.2 228.2L427.2 227.6L432.2 227L437.3 226.5L442.3 225.9L447.3 225.3L452.3 224.7L457.3 224.1L462.4 223.5L467.4 222.9L472.4 222.4L477.4 221.8L482.4 221.2L487.5 220.6L492.5 220L497.5 219.4L502.5 218.8L507.6 218.3L512.6 217.7L517.6 217.1L522.6 216.5L527.6 215.9L532.7 215.3L537.7 214.7L542.7 214.1L547.7 213.6L552.7 213L557.8 212.4L562.8 211.8L567.8 211.2L572.8 210.6L577.8 210L582.9 209.5L587.9 208.9L592.9 208.3L597.9 207.7L603 207.1L608 206.5L613 205.9L618 205.4L623 204.8L628.1 204.2L633.1 203.6L638.1 203L643.1 202.4L648.1 201.8L653.2 201.3L658.2 200.7L663.2 200.1L668.2 199.5L673.3 198.9L678.3 198.3L683.3 197.7L688.3 197.1L693.3 196.6L698.4 196L703.4 195.4L708.4 194.8L713.4 194.2L718.4 193.6L723.5 193L728.5 192.5L733.5 191.9L738.5 191.3L743.5 190.7L748.6 190.1L753.6 189.5L758.6 188.9L763.6 188.4L768.7 187.8L773.7 187.2L778.7 186.6L783.7 186L788.7 185.4L793.8 184.8L798.8 184.3L803.8 183.7L808.8 183.1L813.8 182.5L818.9 181.9L823.9 181.3L828.9 180.7L833.9 180.2L838.9 179.6L844 179L849 178.4L854 177.8L859 177.2L864.1 176.6L869.1 176.1L874.1 175.5L879.1 174.9L884.1 174.3L889.2 173.7L894.2 173.1L899.2 172.5L904.2 171.9L909.2 171.4L914.3 170.8L919.3 170.2L924.3 169.6L929.3 169" fill="none" stroke="#E34902" stroke-width="2" stroke-linejoin="bevel"></path>
</g>
<defs >
<clipPath id="zr0-c0">
<path d="M57 59l876 0l0 213l-876 0Z" fill="#000"></path>
</clipPath>
</defs>
</svg>