<svg width="1000" height="400" xmlns="http://www.w3.org/2000/svg" xmlns:xlink="http://www.w3.org/1999/xlink" version="1.1" baseProfile="full" viewBox="0 0 1000 400">
<rect width="1000" height="400" x="0" y="0" id="0" fill="#ffffff"></rect>
<path d="M85 368.5L960 368.5" fill="none" stroke="#E0E6F1"></path>
<path d="M85 316.5L960 316.5" fill="none" stroke="#E0E6F1"></path>
<path d="M85 265.5L960 265.5" fill="none" stroke="#E0E6F1"></path>
<path d="M85 214.5L960 214.5" fill="none" stroke="#E0E6F1"></path>
<path d="M85 162.5L960 162.5" fill="none" stroke="#E0E6F1"></path>
<path d="M85 111.5L960 111.5" fill="none" stroke="#E0E6F1"></path>
<path d="M85 60.5L960 60.5" fill="none" stroke="#E0E6F1"></path>
<text dominant-baseline="central" text-anchor="middle" style="font-size:12px;font-family:sans-serif;" xml:space="preserve" y="-6" transform="matrix(0,-1,1,0,34.96,214)" fill="#6E7079">Distance in km</text>
<path d="M85 368.5L960 368.5" fill="none" stroke="#6E7079" stroke-linecap="round"></path>
<text dominant-baseline="central" text-anchor="end" style="font-size:12px;font-family:sans-serif;" transform="translate(76.96 368)" fill="#6E7079">0</text>
<text dominant-baseline="central" text-anchor="end" style="font-size:12px;font-family:sans-serif;" transform="translate(76.96 316.6667)" fill="#6E7079">2,000</text>
<text dominant-baseline="central" text-anchor="end" style="font-size:12px;font-family:sans-serif;" transform="translate(76.96 265.3333)" fill="#6E7079">4,000</text>
<text dominant-baseline="central" text-anchor="end" style="font-size:12px;font-family:sans-serif;" transform="translate(76.96 214)" fill="#6E7079">6,000</text>
<text dominant-baseline="central" text-anchor="end" style="font-size:12px;font-family:sans-serif;" transform="translate(76.96 162.6667)" fill="#6E7079">8,000</text>
<text dominant-baseline="central" text-anchor="end" style="font-size:12px;font-family:sans-serif;" transform="translate(76.96 111.3333)" fill="#6E7079">10,000</text>
<text dominant-baseline="central" text-anchor="end" style="font-size:12px;font-family:sans-serif;" transform="translate(76.96 60)" fill="#6E7079">12,000</text>
<text dominant-baseline="central" text-anchor="middle" style="font-size:12px;font-family:sans-serif;" y="6" transform="translate(86.1361 376)" fill="#6E7079">Jan</text>
<text dominant-baseline="central" text-anchor="middle" style="font-size:12px;font-family:sans-serif;" y="6" transform="translate(161.4084 376)" fill="#6E7079">Feb</text>
<text dominant-baseline="central" text-anchor="middle" style="font-size:12px;font-family:sans-serif;" y="6" transform="translate(236.6806 376)" fill="#6E7079">Mar</text>
<text dominant-baseline="central" text-anchor="middle" style="font-size:12px;font-family:sans-serif;" y="6" transform="translate(311.9529 376)" fill="#6E7079">Apr</text>
<text dominant-baseline="central" text-anchor="middle" style="font-size:12px;font-family:sans-serif;" y="6" transform="translate(387.2252 376)" fill="#6E7079">May</text>
<text dominant-baseline="central" text-anchor="middle" style="font-size:12px;font-family:sans-serif;" y="6" transform="translate(462.4974 376)" fill="#6E7079">Jun</text>
<text dominant-baseline="central" text-anchor="middle" style="font-size:12px;font-family:sans-serif;" y="6" transform="translate(537.7697 376)" fill="#6E7079">Jul</text>
<text dominant-baseline="central" text-anchor="middle" style="font-size:12px;font-family:sans-serif;" y="6" transform="translate(613.0419 376)" fill="#6E7079">Aug</text>
<text dominant-baseline="central" text-anchor="middle" style="font-size:12px;font-family:sans-serif;" y="6" transform="translate(688.3142 376)" fill="#6E7079">Sep</text>
<text dominant-baseline="central" text-anchor="middle" style="font-size:12px;font-family:sans-serif;" y="6" transform="translate(763.5865 376)" fill="#6E7079">Oct</text>
<text dominant-baseline="central" text-anchor="middle" style="font-size:12px;font-family:sans-serif;" y="6" transform="translate(838.8587 376)" fill="#6E7079">Nov</text>
<text dominant-baseline="central" text-anchor="middle" style="font-size:12px;font-family:sans-serif;" y="6" transform="translate(914.131 376)" fill="#6E7079">Dec</text>
<g clip-path="url(#zr4-c0)">
<path d="M86.1 367.8C86.1 367.8 87.3 367.8 88.5 367.7C89.7 367.6 89.7 367.6 90.8 367.4C92 367.2 92 367.3 93.2 366.9C94.4 366.6 94.4 366.5 95.5 366C96.7 365.5 96.7 365.4 97.9 364.8C99.1 364.3 99 364.2 100.2 363.8C101.4 363.5 101.5 363.8 102.6 363.5C103.9 363 103.7 362.7 105 362C106.1 361.4 106.1 361.1 107.3 360.9C108.4 360.8 108.5 360.8 109.7 360.8C110.8 360.8 110.9 360.8 112 360.8C113.3 360.8 113.2 360.2 114.4 359.5C115.5 358.9 115.5 358.7 116.7 358.2C117.8 357.8 118 358.2 119.1 357.8C120.3 357.2 120.2 356.9 121.4 356.2C122.6 355.5 122.5 355 123.8 354.9C124.9 354.7 124.9 354.7 126.1 354.7C127.3 354.7 127.4 354.7 128.5 354.7C129.8 354.7 129.6 353.8 130.8 352.9C132 352.2 132 352.2 133.2 351.6C134.3 351 134.3 350.9 135.5 350.5C136.7 350.3 136.8 350.5 137.9 350.3C139.1 350 139.1 349.7 140.2 349.2C141.4 348.6 141.4 348.5 142.6 348.1C143.7 347.6 143.9 347.9 144.9 347.4C146.2 346.7 146 345.6 147.3 345.6C148.3 345.6 148.6 345.6 149.6 345.6C150.9 345.6 150.9 345 152 344.2C153.2 343.4 153 342.6 154.4 342.5C155.4 342.4 155.5 342.4 156.7 342.4C157.9 342.3 158 342.4 159.1 342.2C160.3 342.1 160.2 341.6 161.4 341C162.6 340.3 162.6 340.3 163.8 339.6C164.9 339.1 164.9 338.6 166.1 338.6C167.2 338.6 167.4 338.6 168.5 338.6C169.7 338.6 169.5 337.1 170.8 337.1C171.9 337.1 172.1 337.1 173.2 337.1C174.4 337.1 174.3 335.8 175.5 335.8C176.6 335.8 176.8 335.8 177.9 335.8C179.1 335.8 179.1 335.3 180.2 334.7C181.4 334.1 181.3 333.6 182.6 333.4C183.7 333.1 183.8 333.4 184.9 333.1C186.1 332.8 186.1 332.2 187.3 332.2C188.4 332.2 188.5 332.2 189.6 332.2C190.9 332.2 190.8 331.4 192 330.9C193.1 330.3 193.2 330.5 194.3 330C195.6 329.3 195.4 328.8 196.7 328.4C197.8 328.1 197.9 328.1 199 328.1C200.2 328.1 200.3 328.1 201.4 328.1C202.7 328.1 202.5 327.3 203.7 326.8C204.9 326.2 204.9 326 206.1 326C207.2 326 207.3 326 208.5 326C209.7 326 209.7 325.6 210.8 325C212.1 324.3 211.9 324.1 213.2 323.4C214.3 322.7 214.3 322.4 215.5 322.1C216.6 321.9 216.7 322.1 217.9 321.9C219.1 321.6 219 321.2 220.2 321.1C221.4 321 221.5 321.1 222.6 321C223.8 320.8 223.7 320.1 224.9 319.6C226 319.1 226.2 319.4 227.3 318.9C228.5 318.3 228.4 318 229.6 317.4C230.7 316.9 230.9 317.2 232 316.7C233.2 316.2 233.1 316 234.3 315.3C235.5 314.6 235.4 313.9 236.7 313.9C237.8 313.9 237.9 313.9 239 313.9C240.3 313.9 240.2 313.3 241.4 312.6C242.6 312 242.5 311.5 243.7 311.4C244.8 311.3 245 311.4 246.1 311.3C247.3 311.1 247.4 310.8 248.4 310C249.7 309.1 249.5 308.8 250.8 307.9C251.9 307.2 251.9 307.1 253.1 306.8C254.3 306.5 254.4 306.7 255.5 306.5C256.7 306.1 256.6 305.7 257.9 305.5C259 305.3 259.1 305.5 260.2 305.3C261.4 305.1 261.4 304.8 262.6 304.2C263.8 303.5 263.7 303.3 264.9 302.6C266 302 266.3 302.3 267.3 301.5C268.6 300.3 268.2 299.8 269.6 298.6C270.6 297.8 270.7 297.4 272 297.4C273.1 297.4 273.2 297.4 274.3 297.4C275.6 297.4 275.4 296.4 276.7 296.2C277.8 296 277.9 296.2 279 296C280.2 295.8 280.2 295.6 281.4 295C282.6 294.4 282.5 294.2 283.7 293.6C284.9 292.9 284.8 292.4 286.1 292.4C287.2 292.4 287.3 292.4 288.4 292.4C289.7 292.4 289.5 291.2 290.8 291.2C291.9 291.2 292 291.2 293.1 291.2C294.3 291.2 294.4 291.2 295.5 291.2C296.7 291.1 296.7 290.7 297.8 290.2C299 289.7 299 289.6 300.2 289.1C301.4 288.6 301.3 288.2 302.5 288.2C303.7 288.2 303.7 288.2 304.9 288.2C306.1 288.2 306.2 288.2 307.2 288.2C308.5 288.2 308.4 287.5 309.6 286.8C310.8 286.1 310.8 286.2 312 285.4C313.2 284.6 313 283.5 314.3 283.5C315.3 283.5 315.6 283.5 316.7 283.5C317.9 283.5 317.8 282.9 319 282.2C320.2 281.6 320.1 281.1 321.4 281C322.5 280.9 322.6 281 323.7 280.9C325 280.7 324.8 279.8 326.1 279.7C327.2 279.6 327.3 279.7 328.4 279.6C329.6 279.4 329.5 278.6 330.8 278.6C331.9 278.6 332 278.6 333.1 278.6C334.3 278.6 334.3 278.3 335.5 277.8C336.7 277.2 336.6 276.5 337.8 276.5C338.9 276.5 339 276.5 340.2 276.5C341.4 276.5 341.4 276 342.5 275.5C343.7 275.1 343.8 275.2 344.9 274.7C346.1 274 346 273.1 347.2 273.1C348.3 273.1 348.5 273.1 349.6 273.1C350.8 273.1 350.7 271.9 351.9 271.9C353 271.9 353.2 271.9 354.3 271.9C355.5 271.9 355.4 270.7 356.6 270.6C357.7 270.5 357.8 270.6 359 270.5C360.2 270.3 360.2 270.2 361.4 269.8C362.5 269.4 362.5 269.3 363.7 268.8C364.9 268.4 364.9 268.6 366.1 268.1C367.3 267.6 367.2 267 368.4 267C369.5 267 369.6 267 370.8 267C371.9 267 371.9 267 373.1 267C374.3 267 374.3 267 375.5 267C376.6 267 376.8 267 377.8 267C379.1 267 378.9 265.2 380.2 265.2C381.2 265.2 381.4 265.2 382.5 265.2C383.8 265.2 383.7 264.6 384.9 263.9C386.1 263.3 386 262.6 387.2 262.6C388.3 262.6 388.5 262.6 389.6 262.6C390.8 262.6 390.8 262 391.9 261.2C393.2 260.4 393 259.8 394.3 259.4C395.3 259.1 395.5 259.4 396.6 259.1C397.9 258.7 397.9 258.6 399 258C400.2 257.3 400.1 257.1 401.3 256.5C402.5 255.9 402.5 255.9 403.7 255.6C404.8 255.3 404.9 255.6 406 255.3C407.3 255 407.2 254.8 408.4 254.2C409.6 253.7 409.5 253 410.7 253C411.8 253 412 253 413.1 253C414.4 253 414.3 252.3 415.5 251.6C416.6 250.9 416.6 250.9 417.8 250.2C419 249.4 418.9 248.8 420.2 248.6C421.2 248.5 421.4 248.6 422.5 248.5C423.7 248.3 423.7 248 424.9 247.4C426.1 246.8 426 246.6 427.2 246C428.3 245.4 428.3 245.1 429.6 245.1C430.7 245.1 430.9 245.1 431.9 245.1C433.3 245.1 432.9 243 434.3 243C435.3 243 435.5 243 436.6 243C437.9 243 437.8 242.3 439 241.6C440.1 241 440.1 240.4 441.3 240.4C442.4 240.4 442.5 240.4 443.7 240.4C444.9 240.4 444.9 240.2 446 239.7C447.3 239.2 447.1 238.3 448.4 238.3C449.5 238.3 449.6 238.3 450.7 238.3C452 238.3 451.9 237.5 453.1 237.3C454.2 237 454.3 237.2 455.4 237C456.6 236.8 456.7 236.8 457.8 236.3C459 235.8 458.9 235.1 460.1 234.9C461.2 234.8 461.3 234.9 462.5 234.8C463.7 234.7 463.7 234.8 464.8 234.6C466 234.4 466.1 234.5 467.2 234.1C468.4 233.7 468.3 233.1 469.6 233.1C470.7 233.1 470.8 233.1 471.9 233.1C473.1 233.1 473.1 232.6 474.3 232.1C475.4 231.6 475.4 231.1 476.6 231.1C477.7 231.1 477.8 231.1 479 231.1C480.2 231.1 480.1 230.6 481.3 230.3C482.5 230.1 482.5 230.3 483.7 230C484.9 229.6 484.8 229.4 486 228.9C487.2 228.3 487.1 227.8 488.4 227.8C489.5 227.8 489.5 227.8 490.7 227.8C491.9 227.8 491.9 227.8 493.1 227.8C494.3 227.8 494.3 227.5 495.4 227C496.6 226.5 496.6 226.4 497.8 225.9C499 225.3 498.9 225.3 500.1 224.8C501.3 224.4 501.3 224.4 502.5 224.1C503.6 223.8 503.7 224.1 504.8 223.7C506.1 223.2 506 222.9 507.2 222.3C508.3 221.8 508.3 221.5 509.5 221.5C510.7 221.5 510.8 221.5 511.9 221.5C513.1 221.5 513.1 221.1 514.2 220.6C515.5 220 515.4 219.9 516.6 219.3C517.7 218.8 517.8 218.9 519 218.4C520.1 217.9 520.1 217.9 521.3 217.4C522.5 216.9 522.5 217 523.7 216.4C524.9 215.8 524.7 214.9 526 214.9C527.1 214.9 527.2 214.9 528.4 214.9C529.6 214.9 529.5 214.3 530.7 213.8C531.9 213.3 531.9 213 533.1 213C534.2 213 534.3 213 535.4 213C536.7 213 536.5 212 537.8 211.7C538.9 211.4 538.9 211.5 540.1 211.4C541.3 211.3 541.4 211.4 542.5 211.3C543.7 211.1 543.6 210.6 544.8 210.1C546 209.5 546 209.4 547.2 209C548.3 208.6 548.4 208.9 549.5 208.4C550.8 207.8 550.7 207.7 551.9 206.9C553.1 206.2 553 205.5 554.2 205.5C555.3 205.5 555.5 205.5 556.6 205.5C557.8 205.5 557.7 204.8 558.9 204.4C560.1 204 560.2 204.3 561.3 203.8C562.6 203.2 562.4 202.9 563.6 202.2C564.8 201.5 564.8 201.7 566 201C567.2 200.4 567.1 199.7 568.3 199.7C569.4 199.7 569.5 199.7 570.7 199.7C571.9 199.7 572 199.7 573.1 199.7C574.3 199.7 574.2 199 575.4 198.4C576.6 197.8 576.5 197.2 577.8 197.2C578.9 197.2 578.9 197.2 580.1 197.2C581.3 197.2 581.3 197.2 582.5 197.2C583.6 197.2 583.7 197.2 584.8 197.1C586.1 196.9 586 196.3 587.2 195.7C588.3 195.1 588.3 195.2 589.5 194.6C590.7 194.1 590.7 193.7 591.9 193.7C593 193.7 593.2 193.7 594.2 193.7C595.5 193.7 595.4 192.8 596.6 192C597.7 191.3 597.7 190.8 598.9 190.8C600 190.8 600.1 190.8 601.3 190.8C602.5 190.8 602.4 189.8 603.6 189.8C604.8 189.8 604.9 189.8 606 189.8C607.2 189.8 607.2 189.4 608.3 188.9C609.5 188.3 609.5 187.7 610.7 187.7C611.8 187.7 611.9 187.7 613 187.7C614.3 187.7 614.3 187.5 615.4 186.8C616.7 186.1 616.4 185 617.7 185C618.8 185 619 185 620.1 185C621.4 185 621.2 184.2 622.5 183.5C623.6 182.8 623.6 182.9 624.8 182.3C626 181.6 626 181.7 627.2 181C628.4 180.3 628.2 179.4 629.5 179.4C630.6 179.4 630.8 179.4 631.9 179.4C633.1 179.4 633 178 634.2 178C635.3 178 635.5 178 636.6 178C637.8 178 637.7 177.4 638.9 176.7C640.1 175.9 640.1 175.9 641.3 175.2C642.4 174.6 642.4 174.1 643.6 174.1C644.7 174.1 644.8 174.1 646 174.1C647.1 174.1 647.2 174.1 648.3 174.1C649.5 174.1 649.6 173.7 650.7 173.2C651.9 172.6 651.8 171.8 653 171.8C654.1 171.8 654.2 171.8 655.4 171.8C656.6 171.8 656.7 171.5 657.7 170.8C659 170.1 658.8 169 660.1 169C661.1 169 661.3 169 662.4 169C663.6 169 663.6 168.2 664.8 168.2C665.9 168.2 666 168.2 667.1 168.2C668.4 168.2 668.4 167.9 669.5 167.4C670.7 166.9 670.7 166.7 671.8 166.2C673 165.6 673 165.7 674.2 165.2C675.4 164.6 675.3 164 676.6 164C677.7 164 677.8 164 678.9 164C680.1 164 680 163.3 681.3 162.9C682.4 162.5 682.6 162.9 683.6 162.4C685 161.6 684.6 159.8 686 159.8C686.9 159.8 687.2 159.8 688.3 159.8C689.5 159.8 689.7 159.7 690.7 159C692 158.2 691.7 157.7 693 156.8C694.1 156 694.2 156.1 695.4 155.6C696.5 155.1 696.6 155.4 697.7 154.8C699 154.3 698.8 153.5 700.1 153.5C701.2 153.5 701.4 153.5 702.4 153.5C703.7 153.5 703.5 151.8 704.8 151.8C705.8 151.8 706.1 151.8 707.1 151.8C708.5 151.8 708.4 150.9 709.5 149.9C710.7 148.8 710.7 148.8 711.8 147.6C713 146.5 712.8 145.3 714.2 145.3C715.2 145.3 715.5 145.3 716.5 145.3C717.8 145.3 717.7 144.5 718.9 143.8C720 143.1 720 142.7 721.2 142.6C722.4 142.4 722.5 142.6 723.6 142.4C724.8 142.2 724.8 141.8 726 141.1C727.2 140.4 727 139.6 728.3 139.6C729.4 139.6 729.5 139.6 730.7 139.6C731.9 139.6 731.8 139 733 138.4C734.2 137.7 734.1 137.6 735.4 137C736.5 136.4 736.5 136.2 737.7 136.1C738.8 135.9 738.9 136 740.1 135.9C741.2 135.9 741.4 135.9 742.4 135.8C743.8 135.6 743.4 134.4 744.8 133.4C745.8 132.6 746 132.9 747.1 132.3C748.3 131.7 748.2 131.4 749.5 131.1C750.6 130.7 750.8 131.1 751.8 130.7C753.2 130.3 752.8 128.6 754.2 128.6C755.2 128.6 755.6 128.6 756.5 128.6C757.9 128.6 757.5 126.2 758.9 126.2C759.9 126.2 760.2 126.2 761.2 126.2C762.5 126.2 762.4 125.5 763.6 124.7C764.7 124 764.7 123.3 765.9 123.3C767 123.3 767.4 123.3 768.3 123.3C769.7 123.3 769.2 120.7 770.6 120.5C771.6 120.4 771.9 120.5 773 120.4C774.2 120.3 774.2 119.8 775.3 119.3C776.5 118.8 776.5 118.4 777.7 118.4C778.8 118.4 779 118.4 780.1 118.4C781.3 118.4 781.2 117.6 782.4 117C783.5 116.4 783.6 116.5 784.8 116C785.9 115.5 785.9 115 787.1 115C788.2 115 788.3 115 789.5 115C790.7 115 790.8 114.6 791.8 113.8C793.1 112.9 792.8 111.5 794.2 111.5C795.1 111.5 795.4 111.5 796.5 111.5C797.8 111.5 797.7 111 798.9 110.4C800 109.9 800.2 110.1 801.2 109.3C802.6 108.3 802.2 106.8 803.6 106.8C804.5 106.8 804.8 106.8 805.9 106.8C807.1 106.8 807.1 106.4 808.3 106.1C809.4 105.8 809.5 106 810.6 105.6C811.9 105.1 811.8 104.8 813 104.2C814.1 103.7 814.2 103.7 815.3 103.2C816.5 102.7 816.6 102.8 817.7 102.1C818.9 101.4 818.9 101.3 820 100.4C821.3 99.3 821 98.1 822.4 98.1C823.4 98.1 823.6 98.1 824.7 98.1C825.9 98.1 825.9 97.5 827.1 97.3C828.2 97.2 828.3 97.3 829.4 97.2C830.7 97.1 830.6 96.7 831.8 96.2C833 95.6 833.1 95.7 834.2 94.9C835.5 93.8 835.1 92.2 836.5 92.2C837.4 92.2 837.8 92.2 838.9 92.2C840.1 92.2 840 91 841.2 91C842.3 91 842.4 91 843.6 91C844.8 91 844.9 90.8 845.9 90.1C847.3 89.1 846.9 87.7 848.3 87.7C849.2 87.7 849.5 87.7 850.6 87.7C851.9 87.7 851.7 86.9 853 86.4C854.1 85.9 854.2 86.1 855.3 85.6C856.5 85.1 856.4 84.3 857.7 84.3C858.8 84.3 858.9 84.3 860 84.3C861.3 84.3 861.1 83.1 862.4 83.1C863.5 83.1 863.7 83.1 864.7 83.1C866 83.1 865.8 81.6 867.1 81.6C868.2 81.6 868.4 81.6 869.4 81.6C870.7 81.6 870.6 80.9 871.8 80.2C873 79.5 872.9 78.8 874.1 78.8C875.2 78.8 875.4 78.8 876.5 78.8C877.8 78.8 877.6 78 878.8 77.3C880 76.7 880 76.2 881.2 76.2C882.3 76.2 882.4 76.2 883.6 76.2C884.8 76.2 884.7 75.8 885.9 75.4C887.1 75 887 74.5 888.3 74.5C889.4 74.5 889.5 74.5 890.6 74.5C891.9 74.5 891.8 73.7 893 72.9C894.1 72.1 894.1 72.1 895.3 71.4C896.4 70.7 896.4 70.2 897.7 70.2C898.8 70.2 898.9 70.2 900 70.2C901.3 70.2 902.4 68.8 902.4 68.8" fill="none" stroke="#5470c6" stroke-width="2" stroke-linejoin="bevel"></path>
</g>
<g clip-path="url(#zr4-c1)">
<path d="M86.1 368C86.1 368 87.3 368 88.5 368C89.7 368 89.7 368 90.8 368C92 368 92 368 93.2 368C94.4 368 94.4 368 95.5 368C96.7 368 96.7 368 97.9 368C99.1 368 99.1 368 100.2 368C101.4 368 101.4 368 102.6 368C103.8 368 103.8 368 105 368C106.1 368 106.1 368 107.3 368C108.5 368 108.5 368 109.7 368C110.8 368 110.8 368 112 368C113.2 368 113.2 368 114.4 368C115.5 368 115.5 368 116.7 368C117.9 368 117.9 368 119.1 368C120.2 368 120.2 368 121.4 368C122.6 368 122.6 368 123.8 368C124.9 368 124.9 368 126.1 368C127.3 368 127.3 368 128.5 368C129.7 368 129.7 368 130.8 368C132 368 132 368 133.2 368C134.4 368 134.4 368 135.5 368C136.7 368 136.7 368 137.9 368C139.1 368 139.1 368 140.2 368C141.4 368 141.4 368 142.6 368C143.8 368 143.8 368 144.9 368C146.1 368 146.1 368 147.3 368C148.5 368 148.5 368 149.6 368C150.8 368 150.8 368 152 368C153.2 368 153.2 368 154.4 368C155.5 368 155.5 368 156.7 368C157.9 368 157.9 368 159.1 368C160.2 368 160.2 368 161.4 368C162.6 368 162.6 368 163.8 368C164.9 368 164.9 368 166.1 368C167.3 368 167.3 368 168.5 368C169.6 368 169.6 368 170.8 368C172 368 172 368 173.2 368C174.3 368 174.3 368 175.5 368C176.7 368 176.7 368 177.9 368C179.1 368 179.1 368 180.2 368C181.4 368 181.4 368 182.6 368C183.8 368 183.8 368 184.9 368C186.1 368 186.1 368 187.3 368C188.5 368 188.5 368 189.6 368C190.8 368 190.8 368 192 368C193.2 368 193.2 368 194.3 368C195.5 368 195.5 368 196.7 368C197.9 368 197.9 368 199 368C200.2 368 200.2 368 201.4 368C202.6 368 202.6 368 203.7 368C204.9 368 204.9 368 206.1 368C207.3 368 207.3 368 208.5 368C209.6 368 209.6 368 210.8 368C212 368 212 368 213.2 368C214.3 368 214.3 368 215.5 368C216.7 368 216.7 368 217.9 368C219 368 219 368 220.2 368C221.4 368 221.4 368 222.6 368C223.7 368 223.7 368 224.9 368C226.1 368 226.1 368 227.3 368C228.4 368 228.4 368 229.6 368C230.8 368 230.8 368 232 368C233.2 368 233.2 368 234.3 368C235.5 368 235.5 368 236.7 368C237.9 368 237.9 368 239 368C240.2 368 240.2 368 241.4 368C242.6 368 242.6 368 243.7 368C244.9 368 244.9 368 246.1 368C247.3 368 247.3 368 248.4 368C249.6 368 249.6 368 250.8 368C252 368 252 368 253.1 368C254.3 368 254.3 368 255.5 368C256.7 368 256.7 368 257.9 368C259 368 259 368 260.2 368C261.4 368 261.4 368 262.6 368C263.7 368 263.7 368 264.9 368C266.1 368 266.1 368 267.3 368C268.4 368 268.4 368 269.6 368C270.8 368 270.8 368 272 368C273.1 368 273.1 368 274.3 368C275.5 368 275.5 368 276.7 368C277.8 368 277.8 368 279 368C280.2 368 280.2 368 281.4 368C282.5 368 282.5 368 283.7 368C284.9 368 284.9 368 286.1 368C287.3 368 287.3 368 288.4 368C289.6 368 289.6 368 290.8 368C292 368 292 367.7 293.1 367.7C294.3 367.7 294.3 367.7 295.5 367.7C296.7 367.7 296.7 367.7 297.8 367.7C299 367.7 299 367.7 300.2 367.7C301.4 367.7 301.4 367.7 302.5 367.7C303.7 367.7 303.7 367.7 304.9 367.7C306.1 367.7 306.1 367.7 307.2 367.7C308.4 367.7 308.4 367.7 309.6 367.7C310.8 367.7 310.8 367.7 312 367.4C313.2 367.2 313.2 367.1 314.3 366.6C315.5 366 315.4 365.8 316.7 365.3C317.8 364.8 317.8 364.7 319 364.7C320.2 364.7 320.2 364.7 321.4 364.7C322.6 364.7 322.5 363.7 323.7 363.7C324.8 363.7 324.9 363.7 326.1 363.7C327.3 363.7 327.2 363.4 328.4 363.1C329.6 362.8 329.6 362.9 330.8 362.6C332 362.2 332 362.3 333.1 361.8C334.3 361.3 334.2 360.7 335.5 360.7C336.6 360.7 336.7 360.7 337.8 360.7C339 360.7 339 360.2 340.2 360.2C341.3 360.2 341.4 360.2 342.5 360.2C343.7 360.2 343.7 359.9 344.9 359.5C346.1 359.1 346 358.6 347.2 358.6C348.4 358.6 348.4 358.6 349.6 358.6C350.8 358.6 350.7 358 351.9 358C353.1 358 353.1 358 354.3 358C355.5 358 355.5 357.4 356.6 357.4C357.8 357.4 357.9 357.4 359 357.4C360.2 357.4 360.2 356.9 361.4 356.4C362.5 356 362.5 355.9 363.7 355.6C364.8 355.3 364.9 355.2 366.1 355.2C367.2 355.2 367.3 355.2 368.4 355.2C369.6 355.2 369.6 354.8 370.8 354.5C371.9 354.2 372 354.3 373.1 354C374.3 353.6 374.3 353.5 375.5 353.1C376.6 352.7 376.6 352.3 377.8 352.3C379 352.3 379.1 352.3 380.2 352.3C381.4 352.3 381.3 351.2 382.5 351.2C383.6 351.2 383.7 351.2 384.9 351.2C386.1 351.2 386.1 350.8 387.2 350.3C388.4 349.8 388.3 349.2 389.6 349.2C390.7 349.2 390.8 349.2 391.9 349.2C393.1 349.2 393.1 348.8 394.3 348.3C395.5 347.8 395.4 347.3 396.6 347.3C397.8 347.3 397.9 347.3 399 347.3C400.2 347.3 400.1 346.6 401.3 346.1C402.5 345.6 402.5 345.8 403.7 345.3C404.9 344.9 404.8 344.7 406 344.4C407.2 344.1 407.3 344.3 408.4 344C409.6 343.6 409.5 343 410.7 343C411.9 343 412 343 413.1 343C414.3 343 414.2 342 415.5 342C416.6 342 416.6 342 417.8 342C419 342 419 342 420.2 342C421.4 342 421.3 341.5 422.5 341.1C423.7 340.7 423.7 340.6 424.9 340.2C426 339.8 426 339.5 427.2 339.5C428.4 339.5 428.4 339.5 429.6 339.5C430.8 339.5 430.8 339.3 431.9 338.9C433.1 338.6 433.1 338.2 434.3 338.2C435.4 338.2 435.4 338.2 436.6 338.2C437.8 338.2 437.9 338.2 439 338C440.2 337.7 440.1 337.1 441.3 336.6C442.4 336 442.5 335.8 443.7 335.8C444.8 335.8 444.9 335.8 446 335.8C447.3 335.8 447.2 335.1 448.4 334.6C449.5 334.2 449.5 334 450.7 334C451.9 334 452 334 453.1 334C454.3 334 454.2 332.7 455.4 332.7C456.5 332.7 456.7 332.7 457.8 332.7C459 332.7 458.9 332 460.1 331.5C461.3 331 461.4 331.3 462.5 330.8C463.7 330.2 463.6 330 464.8 329.4C466 328.9 466 328.9 467.2 328.7C468.4 328.4 468.4 328.6 469.6 328.4C470.7 328.2 470.8 328.2 471.9 327.8C473.2 327.2 473 326.6 474.3 326.3C475.3 326 475.5 326.3 476.6 326C477.9 325.7 477.7 325.2 479 324.7C480.1 324.2 480.1 324.2 481.3 323.9C482.5 323.5 482.5 323.2 483.7 323.2C484.8 323.2 484.9 323.2 486 323.2C487.3 323.2 487.2 322.6 488.4 322C489.5 321.4 489.5 320.9 490.7 320.9C491.8 320.9 491.9 320.9 493.1 320.9C494.3 320.9 494.3 320.6 495.4 320.1C496.7 319.6 496.5 319.3 497.8 318.8C498.9 318.4 498.9 318.3 500.1 318.3C501.3 318.3 501.3 318.3 502.5 318.3C503.7 318.3 503.7 318.3 504.8 318.3C506.1 318.3 506 317.7 507.2 317.2C508.4 316.6 508.5 316.9 509.5 316.2C510.9 315.2 510.5 313.9 511.9 313.9C512.9 313.9 513.1 313.9 514.2 313.9C515.4 313.9 515.4 313.5 516.6 313.3C517.8 313.1 517.8 313.3 519 313.1C520.2 312.8 520.1 312.6 521.3 312.1C522.5 311.6 522.5 311.5 523.7 311.1C524.8 310.7 524.8 310.5 526 310.5C527.2 310.5 527.2 310.5 528.4 310.5C529.6 310.5 529.5 309.8 530.7 309.4C531.9 308.9 531.9 308.7 533.1 308.7C534.2 308.7 534.3 308.7 535.4 308.7C536.7 308.7 536.5 307.9 537.8 307.5C538.9 307 539 307.2 540.1 306.9C541.3 306.5 541.3 306.5 542.5 306.1C543.7 305.7 543.7 305.8 544.8 305.3C546 304.8 546 304.8 547.2 304.1C548.4 303.4 548.3 302.5 549.5 302.5C550.6 302.5 550.8 302.5 551.9 302.5C553.1 302.5 553 301.1 554.2 301.1C555.3 301.1 555.4 301.1 556.6 301.1C557.8 301.1 557.8 301.1 558.9 301.1C560.1 301.1 560.1 300.8 561.3 300.5C562.5 300.2 562.6 300.4 563.6 299.8C565 299 564.6 297.7 566 297.7C567 297.7 567.4 297.7 568.3 297.7C569.8 297.7 569.3 296.1 570.7 295.1C571.7 294.4 571.8 294.5 573.1 294.2C574.2 294 574.3 294.2 575.4 293.9C576.7 293.6 576.5 292.9 577.8 292.3C578.8 291.8 579.1 292.3 580.1 291.7C581.4 291 581.2 290.4 582.5 289.6C583.5 289 583.6 288.8 584.8 288.8C586 288.8 586.1 288.8 587.2 288.8C588.5 288.8 588.2 287.1 589.5 287.1C590.6 287.1 590.8 287.1 591.9 287.1C593.1 287.1 593 286.5 594.2 286C595.4 285.6 595.4 285.6 596.6 285.3C597.8 284.9 597.7 284.6 598.9 284.6C600.1 284.6 600.1 284.6 601.3 284.6C602.5 284.6 602.5 284.3 603.6 283.8C604.9 283.3 604.7 282.5 606 282.5C607.1 282.5 607.2 282.5 608.3 282.5C609.5 282.5 609.6 282.5 610.7 282.5C611.9 282.5 611.9 282.1 613 281.6C614.3 281.1 614.1 280.6 615.4 280.3C616.5 280.1 616.7 280.3 617.7 280.1C619 279.9 618.8 279 620.1 278.8C621.2 278.6 621.4 278.8 622.5 278.6C623.7 278.4 623.5 277.2 624.8 277.2C625.9 277.2 626 277.2 627.2 277.2C628.4 277.2 628.4 276.9 629.5 276.4C630.7 275.9 630.7 275.8 631.9 275.2C633 274.6 633 273.9 634.2 273.9C635.3 273.9 635.4 273.9 636.6 273.9C637.8 273.9 637.8 273.7 638.9 273.3C640.1 273 640.1 272.9 641.3 272.5C642.4 272.1 642.5 272.2 643.6 271.8C644.8 271.5 644.8 271.5 646 271.1C647.2 270.7 647.1 270.3 648.3 270.3C649.5 270.3 649.6 270.3 650.7 270.3C652 270.3 651.8 269.4 653 268.6C654.1 268 654.1 267.5 655.4 267.5C656.5 267.5 656.7 267.5 657.7 267.5C659 267.5 658.8 266.6 660.1 265.9C661.2 265.4 661.3 265.6 662.4 265.2C663.6 264.7 663.6 264.6 664.8 264.2C666 263.7 666 263.8 667.1 263.3C668.3 262.8 668.3 262.6 669.5 262.2C670.6 261.8 670.8 262.1 671.8 261.7C673.1 261.1 673 260.8 674.2 260.1C675.3 259.6 675.4 259.8 676.6 259.3C677.8 258.8 677.7 258.6 678.9 258.1C680 257.6 680.1 257.8 681.3 257.3C682.5 256.8 682.4 256.1 683.6 256.1C684.7 256.1 684.8 256.1 686 256.1C687.1 256.1 687.3 256.1 688.3 256.1C689.7 256.1 689.4 254.8 690.7 254C691.7 253.3 691.8 253.5 693 253.1C694.2 252.7 694.4 253.1 695.4 252.4C696.8 251.4 696.3 249.8 697.7 249.8C698.7 249.8 698.9 249.8 700.1 249.8C701.3 249.8 701.2 249.3 702.4 249C703.6 248.7 703.7 249 704.8 248.7C706.1 248.3 705.9 247.7 707.1 247C708.2 246.3 708.3 246.3 709.5 245.9C710.6 245.4 710.6 245.1 711.8 245.1C713 245.1 713.1 245.1 714.2 245.1C715.4 245.1 715.4 244.7 716.5 244.1C717.7 243.6 717.7 243.5 718.9 242.9C720.1 242.3 720.1 242.3 721.2 241.8C722.4 241.2 722.4 241.2 723.6 240.7C724.7 240.2 724.8 240.4 726 239.9C727.2 239.4 727.1 239 728.3 238.7C729.4 238.4 729.5 238.7 730.7 238.4C731.9 238.1 731.8 237.2 733 237.2C734.1 237.2 734.2 237.2 735.4 237.2C736.5 237.2 736.6 237.2 737.7 237.2C738.9 237.2 738.9 236.9 740.1 236.6C741.2 236.2 741.2 235.9 742.4 235.9C743.6 235.9 743.7 235.9 744.8 235.9C746 235.9 745.9 235.1 747.1 234.6C748.2 234.1 748.3 234.3 749.5 233.9C750.7 233.6 750.7 233.6 751.8 233.1C753 232.6 753 232.6 754.2 232C755.3 231.5 755.3 231.1 756.5 231.1C757.7 231.1 757.7 231.1 758.9 231.1C760.1 231.1 760.1 230.8 761.2 230.3C762.5 229.8 762.4 229.6 763.6 229C764.7 228.4 764.7 228 765.9 228C767.1 228 767.2 228 768.3 228C769.6 228 769.4 227 770.6 226.4C771.7 225.8 771.8 225.9 773 225.5C774.2 225.1 774.1 224.7 775.3 224.7C776.5 224.7 776.6 224.7 777.7 224.7C778.9 224.7 778.9 224.2 780.1 223.8C781.2 223.4 781.2 223.4 782.4 223.1C783.6 222.7 783.6 222.7 784.8 222.2C785.9 221.8 785.9 221.8 787.1 221.3C788.3 220.8 788.2 220.7 789.5 220.3C790.6 220 790.7 220.3 791.8 220C793 219.7 793.1 219.8 794.2 219.2C795.4 218.7 795.3 217.9 796.5 217.8C797.6 217.7 797.8 217.8 798.9 217.7C800.1 217.6 800.1 217.1 801.2 216.5C802.4 215.8 802.4 215.8 803.6 215.2C804.8 214.5 804.7 213.8 805.9 213.8C807 213.8 807.2 213.8 808.3 213.8C809.5 213.8 809.4 212.9 810.6 212.8C811.8 212.7 811.9 212.8 813 212.7C814.2 212.6 814.1 212.1 815.3 211.6C816.5 211.1 816.6 211.3 817.7 210.8C818.9 210.3 818.8 209.8 820 209.5C821.1 209.2 821.2 209.5 822.4 209.2C823.6 208.9 823.6 208.8 824.7 208.4C825.9 208 825.9 207.9 827.1 207.6C828.2 207.3 828.3 207.6 829.4 207.2C830.7 206.9 830.6 206.7 831.8 206.1C833 205.5 832.9 204.9 834.2 204.9C835.3 204.9 835.4 204.9 836.5 204.9C837.8 204.9 837.6 203.6 838.9 203.6C840 203.6 840 203.6 841.2 203.6C842.4 203.6 842.5 203.6 843.6 203.6C844.8 203.6 844.7 202.9 845.9 202.4C847 201.9 847.1 201.6 848.3 201.6C849.4 201.6 849.4 201.6 850.6 201.6C851.8 201.6 851.8 201.4 853 201.2C854.2 201.1 854.2 201.1 855.3 200.8C856.5 200.5 856.5 200 857.7 200C858.8 200 858.9 200 860 200C861.2 200 861.2 200 862.4 200C863.6 200 863.6 199.5 864.7 199C865.9 198.5 865.9 198.6 867.1 198C868.3 197.5 868.2 197.3 869.4 196.9C870.6 196.6 870.7 196.9 871.8 196.6C873 196.2 873 195.9 874.1 195.3C875.3 194.7 875.3 194.1 876.5 194.1C877.6 194.1 877.8 194.1 878.8 194.1C880.1 194.1 880 193.4 881.2 192.8C882.4 192.1 882.4 192.1 883.6 191.5C884.7 190.8 884.7 190.8 885.9 190.2C887.1 189.5 887.1 189.6 888.3 188.9C889.5 188.1 889.3 187.1 890.6 187.1C891.6 187.1 891.8 187.1 893 187.1C894.1 187.1 894.2 187.1 895.3 187.1C896.6 187.1 896.4 186.3 897.7 185.7C898.8 185.1 898.9 185.2 900 184.7C901.2 184.2 901.3 184.3 902.4 183.7C903.6 182.9 903.4 182.3 904.7 181.9C905.8 181.5 906 181.9 907.1 181.5C908.3 181.2 908.3 180.9 909.4 180.2C910.6 179.5 910.5 179 911.8 178.7C912.9 178.5 913.1 178.7 914.1 178.5C915.4 178.2 915.3 177.6 916.5 176.8C917.6 176.1 917.7 176.2 918.8 175.5C920.1 174.7 919.9 173.6 921.2 173.6C922.2 173.6 922.4 173.6 923.5 173.6C924.7 173.6 924.8 173.6 925.9 173.6C927.1 173.6 927.1 173 928.2 172.3C929.4 171.6 929.3 171.3 930.6 170.9C931.7 170.5 932.2 170.9 932.9 170.5C934.5 169.8 933.7 167.7 935.3 166.1C936.1 165.3 936.4 165.3 937.7 165.3C938.8 165.3 939 165.3 940 165.3C941.3 165.3 941.1 164.4 942.4 163.5C943.5 162.7 943.7 163 944.7 162.1C946 161 945.8 160.7 947.1 159.4C948.1 158.4 948.1 158.1 949.4 157.7C950.5 157.3 950.7 157.7 951.8 157.3C953.1 156.9 952.9 156.3 954.1 155.3C955.3 154.3 955.2 154.2 956.5 153.4C957.6 152.7 958.8 152.2 958.8 152.2" fill="none" stroke="#91cc75" stroke-width="2" stroke-linejoin="bevel"></path>
</g>
<path d="M-5 -5l135.8 0l0 23.2l-135.8 0Z" transform="translate(437.12 5)" fill="rgb(0,0,0)" fill-opacity="0" stroke="#ccc" stroke-width="0"></path>
<path d="M0 7L25 7" transform="translate(438.12 4.6)" fill="#000" stroke="#5470c6" stroke-width="2" stroke-linecap="butt" stroke-miterlimit="10"></path>
<path d="M18.1 7A5.6 5.6 0 1 1 18.1 6.4A5.6 5.6 0 0 1 18.1 7" transform="translate(438.12 4.6)" fill="#fff" stroke="#5470c6" stroke-width="2" stroke-linecap="butt" stroke-miterlimit="10"></path>
<text dominant-baseline="central" text-anchor="start" style="font-size:12px;font-family:sans-serif;" x="30" y="7" transform="translate(438.12 4.6)" fill="#333">2024</text>
<path d="M0 7L25 7" transform="translate(506 4.6)" fill="#000" stroke="#91cc75" stroke-width="2" stroke-linecap="butt" stroke-miterlimit="10"></path>
<path d="M18.1 7A5.6 5.6 0 1 1 18.1 6.4A5.6 5.6 0 0 1 18.1 7" transform="translate(506 4.6)" fill="#fff" stroke="#91cc75" stroke-width="2" stroke-linecap="butt" stroke-miterlimit="10"></path>
<text dominant-baseline="central" text-anchor="start" style="font-size:12px;font-family:sans-serif;" x="30" y="7" transform="translate(506 4.6)" fill="#333">2023</text>
<defs >
<clipPath id="zr4-c0">
<path d="M83 59l877 0l0 310l-877 0Z" fill="#000"></path>
</clipPath>
<clipPath id="zr4-c1">
<path d="M83 59l877 0l0 310l-877 0Z" fill="#000"></path>
</clipPath>
</defs>
</svg>