<svg width="1000" height="300" xmlns="http://www.w3.org/2000/svg" xmlns:xlink="http://www.w3.org/1999/xlink" version="1.1" baseProfile="full" viewBox="0 0 1000 300">
<rect width="1000" height="300" x="0" y="0" id="0" fill="#ffffff"></rect>
<polyline points="541 45.2 546.5 31.3 849 31.3" fill="none" stroke="#5470c6"></polyline>
<polyline points="606.6 113.9 620.8 109.1 832.2 109.1" fill="none" stroke="#91cc75"></polyline>
<polyline points="578.9 230.2 589.5 240.9 818.8 240.9" fill="none" stroke="#fac858"></polyline>
<polyline points="479.1 260.5 476.3 275.3 151 275.3" fill="none" stroke="#ee6666"></polyline>
<polyline points="407.6 214.1 395.2 222.7 167.8 222.7" fill="none" stroke="#73c0de"></polyline>
<polyline points="390.5 124 376 120.5 167.8 120.5" fill="none" stroke="#3ba272"></polyline>
<polyline points="449.4 49.5 442.6 36.1 161 36.1" fill="none" stroke="#fc8452"></polyline>
<path d="M500 37.5A112.5 112.5 0 0 1 576.4 67.4L500 150Z" fill="#5470c6"></path>
<path d="M576.4 67.4A112.5 112.5 0 0 1 610.9 169.2L500 150Z" fill="#91cc75"></path>
<path d="M610.9 169.2A112.5 112.5 0 0 1 517.4 261.1L500 150Z" fill="#fac858"></path>
<path d="M517.4 261.1A112.5 112.5 0 0 1 443.2 247.1L500 150Z" fill="#ee6666"></path>
<path d="M443.2 247.1A112.5 112.5 0 0 1 389.1 169.2L500 150Z" fill="#73c0de"></path>
<path d="M389.1 169.2A112.5 112.5 0 0 1 409.6 83L500 150Z" fill="#3ba272"></path>
<path d="M409.6 83A112.5 112.5 0 0 1 500 37.5L500 150Z" fill="#fc8452"></path>
<path d="M-136 -15l136 0l0 30l-136 0Z" transform="translate(990 31.2791)" fill="none"></path>
<text dominant-baseline="central" text-anchor="end" style="font-size:12px;font-family:sans-serif;font-weight:bold;" y="-7.5" transform="translate(990 31.2791)" fill="#333" stroke="rgb(255,255,255)" stroke-width="2" paint-order="stroke" stroke-miterlimit="2">Tuesday</text>
<text dominant-baseline="central" text-anchor="end" style="font-size:12px;font-family:sans-serif;" xml:space="preserve" y="7.5" transform="translate(990 31.2791)" fill="#333" stroke="rgb(255,255,255)" stroke-width="2" paint-order="stroke" stroke-miterlimit="2">23 rides, 687 km, 1d 43m</text>
<path d="M-152.8 -15l152.8 0l0 30l-152.8 0Z" transform="translate(990 109.0947)" fill="none"></path>
<text dominant-baseline="central" text-anchor="end" style="font-size:12px;font-family:sans-serif;font-weight:bold;" y="-7.5" transform="translate(990 109.0947)" fill="#333" stroke="rgb(255,255,255)" stroke-width="2" paint-order="stroke" stroke-miterlimit="2">Wednesday</text>
<text dominant-baseline="central" text-anchor="end" style="font-size:12px;font-family:sans-serif;" xml:space="preserve" y="7.5" transform="translate(990 109.0947)" fill="#333" stroke="rgb(255,255,255)" stroke-width="2" paint-order="stroke" stroke-miterlimit="2">26 rides, 886 km, 1d 7h 39m</text>
<path d="M-166.2 -15l166.2 0l0 30l-166.2 0Z" transform="translate(990 240.8545)" fill="none"></path>
<text dominant-baseline="central" text-anchor="end" style="font-size:12px;font-family:sans-serif;font-weight:bold;" y="-7.5" transform="translate(990 240.8545)" fill="#333" stroke="rgb(255,255,255)" stroke-width="2" paint-order="stroke" stroke-miterlimit="2">Thursday</text>
<text dominant-baseline="central" text-anchor="end" style="font-size:12px;font-family:sans-serif;" xml:space="preserve" y="7.5" transform="translate(990 240.8545)" fill="#333" stroke="rgb(255,255,255)" stroke-width="2" paint-order="stroke" stroke-miterlimit="2">36 rides, 1068 km, 1d 16h 11m</text>
<path d="M0 -15l136 0l0 30l-136 0Z" transform="translate(10 275.286)" fill="none"></path>
<text dominant-baseline="central" text-anchor="start" style="font-size:12px;font-family:sans-serif;font-weight:bold;" y="-7.5" transform="translate(10 275.286)" fill="#333" stroke="rgb(255,255,255)" stroke-width="2" paint-order="stroke" stroke-miterlimit="2">Friday</text>
<text dominant-baseline="central" text-anchor="start" style="font-size:12px;font-family:sans-serif;" xml:space="preserve" y="7.5" transform="translate(10 275.286)" fill="#333" stroke="rgb(255,255,255)" stroke-width="2" paint-order="stroke" stroke-miterlimit="2">22 rides, 554 km, 22h 4m</text>
<path d="M0 -15l152.8 0l0 30l-152.8 0Z" transform="translate(10 222.6791)" fill="none"></path>
<text dominant-baseline="central" text-anchor="start" style="font-size:12px;font-family:sans-serif;font-weight:bold;" y="-7.5" transform="translate(10 222.6791)" fill="#333" stroke="rgb(255,255,255)" stroke-width="2" paint-order="stroke" stroke-miterlimit="2">Saturday</text>
<text dominant-baseline="central" text-anchor="start" style="font-size:12px;font-family:sans-serif;" xml:space="preserve" y="7.5" transform="translate(10 222.6791)" fill="#333" stroke="rgb(255,255,255)" stroke-width="2" paint-order="stroke" stroke-miterlimit="2">26 rides, 749 km, 1d 3h 40m</text>
<path d="M0 -15l152.8 0l0 30l-152.8 0Z" transform="translate(10 120.525)" fill="none"></path>
<text dominant-baseline="central" text-anchor="start" style="font-size:12px;font-family:sans-serif;font-weight:bold;" y="-7.5" transform="translate(10 120.525)" fill="#333" stroke="rgb(255,255,255)" stroke-width="2" paint-order="stroke" stroke-miterlimit="2">Sunday</text>
<text dominant-baseline="central" text-anchor="start" style="font-size:12px;font-family:sans-serif;" xml:space="preserve" y="7.5" transform="translate(10 120.525)" fill="#333" stroke="rgb(255,255,255)" stroke-width="2" paint-order="stroke" stroke-miterlimit="2">29 rides, 704 km, 1d 2h 59m</text>
<path d="M0 -15l146 0l0 30l-146 0Z" transform="translate(10 36.1278)" fill="none"></path>
<text dominant-baseline="central" text-anchor="start" style="font-size:12px;font-family:sans-serif;font-weight:bold;" y="-7.5" transform="translate(10 36.1278)" fill="#333" stroke="rgb(255,255,255)" stroke-width="2" paint-order="stroke" stroke-miterlimit="2">Monday</text>
<text dominant-baseline="central" text-anchor="start" style="font-size:12px;font-family:sans-serif;" xml:space="preserve" y="7.5" transform="translate(10 36.1278)" fill="#333" stroke="rgb(255,255,255)" stroke-width="2" paint-order="stroke" stroke-miterlimit="2">25 rides, 810 km, 1d 6h 2m</text>
</svg>