<svg width="1000" height="300" xmlns="http://www.w3.org/2000/svg" xmlns:xlink="http://www.w3.org/1999/xlink" version="1.1" baseProfile="full" viewBox="0 0 1000 300">
<rect width="1000" height="300" x="0" y="0" id="0" fill="#ffffff"></rect>
<path d="M58.2 271.5L931.8 271.5" fill="none" stroke="#E0E6F1"></path>
<path d="M58.2 200.5L931.8 200.5" fill="none" stroke="#E0E6F1"></path>
<path d="M58.2 130.5L931.8 130.5" fill="none" stroke="#E0E6F1"></path>
<path d="M58.2 60.5L931.8 60.5" fill="none" stroke="#E0E6F1"></path>
<path d="M58.2 271.5L931.8 271.5" fill="none" stroke="#6E7079" stroke-linecap="round"></path>
<path d="M62.5 271L62.5 276" fill="none" stroke="#6E7079"></path>
<path d="M114.5 271L114.5 276" fill="none" stroke="#6E7079"></path>
<path d="M165.5 271L165.5 276" fill="none" stroke="#6E7079"></path>
<path d="M216.5 271L216.5 276" fill="none" stroke="#6E7079"></path>
<path d="M268.5 271L268.5 276" fill="none" stroke="#6E7079"></path>
<path d="M319.5 271L319.5 276" fill="none" stroke="#6E7079"></path>
<path d="M371.5 271L371.5 276" fill="none" stroke="#6E7079"></path>
<path d="M422.5 271L422.5 276" fill="none" stroke="#6E7079"></path>
<path d="M473.5 271L473.5 276" fill="none" stroke="#6E7079"></path>
<path d="M525.5 271L525.5 276" fill="none" stroke="#6E7079"></path>
<path d="M576.5 271L576.5 276" fill="none" stroke="#6E7079"></path>
<path d="M628.5 271L628.5 276" fill="none" stroke="#6E7079"></path>
<path d="M679.5 271L679.5 276" fill="none" stroke="#6E7079"></path>
<path d="M730.5 271L730.5 276" fill="none" stroke="#6E7079"></path>
<path d="M782.5 271L782.5 276" fill="none" stroke="#6E7079"></path>
<path d="M833.5 271L833.5 276" fill="none" stroke="#6E7079"></path>
<path d="M884.5 271L884.5 276" fill="none" stroke="#6E7079"></path>
<text dominant-baseline="central" text-anchor="end" style="font-size:12px;font-family:sans-serif;" transform="translate(50.16 271)" fill="#6E7079">0</text>
<text dominant-baseline="central" text-anchor="end" style="font-size:12px;font-family:sans-serif;" transform="translate(50.16 200.6667)" fill="#6E7079">60</text>
<text dominant-baseline="central" text-anchor="end" style="font-size:12px;font-family:sans-serif;" transform="translate(50.16 130.3333)" fill="#6E7079">120</text>
<text dominant-baseline="central" text-anchor="end" style="font-size:12px;font-family:sans-serif;" transform="translate(50.16 60)" fill="#6E7079">180</text>
<text dominant-baseline="central" text-anchor="start" style="font-size:12px;font-family:sans-serif;" transform="translate(939.84 271)" fill="#6E7079">0</text>
<text dominant-baseline="central" text-anchor="start" style="font-size:12px;font-family:sans-serif;" transform="translate(939.84 200.6667)" fill="#6E7079">60</text>
<text dominant-baseline="central" text-anchor="start" style="font-size:12px;font-family:sans-serif;" transform="translate(939.84 130.3333)" fill="#6E7079">120</text>
<text dominant-baseline="central" text-anchor="start" style="font-size:12px;font-family:sans-serif;" transform="translate(939.84 60)" fill="#6E7079">180</text>
<text dominant-baseline="central" text-anchor="middle" style="font-size:12px;font-family:sans-serif;" y="6" transform="translate(62.4427 279)" fill="#6E7079">1km</text>
<text dominant-baseline="central" text-anchor="middle" style="font-size:12px;font-family:sans-serif;" y="6" transform="translate(113.8357 279)" fill="#6E7079">7km</text>
<text dominant-baseline="central" text-anchor="middle" style="font-size:12px;font-family:sans-serif;" y="6" transform="translate(165.2286 279)" fill="#6E7079">13km</text>
<text dominant-baseline="central" text-anchor="middle" style="font-size:12px;font-family:sans-serif;" y="6" transform="translate(216.6216 279)" fill="#6E7079">19km</text>
<text dominant-baseline="central" text-anchor="middle" style="font-size:12px;font-family:sans-serif;" y="6" transform="translate(268.0145 279)" fill="#6E7079">25km</text>
<text dominant-baseline="central" text-anchor="middle" style="font-size:12px;font-family:sans-serif;" y="6" transform="translate(319.4075 279)" fill="#6E7079">31km</text>
<text dominant-baseline="central" text-anchor="middle" style="font-size:12px;font-family:sans-serif;" y="6" transform="translate(370.8004 279)" fill="#6E7079">37km</text>
<text dominant-baseline="central" text-anchor="middle" style="font-size:12px;font-family:sans-serif;" y="6" transform="translate(422.1933 279)" fill="#6E7079">43km</text>
<text dominant-baseline="central" text-anchor="middle" style="font-size:12px;font-family:sans-serif;" y="6" transform="translate(473.5863 279)" fill="#6E7079">49km</text>
<text dominant-baseline="central" text-anchor="middle" style="font-size:12px;font-family:sans-serif;" y="6" transform="translate(524.9792 279)" fill="#6E7079">55km</text>
<text dominant-baseline="central" text-anchor="middle" style="font-size:12px;font-family:sans-serif;" y="6" transform="translate(576.3722 279)" fill="#6E7079">61km</text>
<text dominant-baseline="central" text-anchor="middle" style="font-size:12px;font-family:sans-serif;" y="6" transform="translate(627.7651 279)" fill="#6E7079">67km</text>
<text dominant-baseline="central" text-anchor="middle" style="font-size:12px;font-family:sans-serif;" y="6" transform="translate(679.158 279)" fill="#6E7079">73km</text>
<text dominant-baseline="central" text-anchor="middle" style="font-size:12px;font-family:sans-serif;" y="6" transform="translate(730.551 279)" fill="#6E7079">79km</text>
<text dominant-baseline="central" text-anchor="middle" style="font-size:12px;font-family:sans-serif;" y="6" transform="translate(781.9439 279)" fill="#6E7079">85km</text>
<text dominant-baseline="central" text-anchor="middle" style="font-size:12px;font-family:sans-serif;" y="6" transform="translate(833.3369 279)" fill="#6E7079">91km</text>
<text dominant-baseline="central" text-anchor="middle" style="font-size:12px;font-family:sans-serif;" y="6" transform="translate(884.7298 279)" fill="#6E7079">97km</text>
<path d="M59.5 271l5.9 0l0 -202.8l-5.9 0Z" fill="rgb(227,73,2)" fill-opacity="0.3"></path>
<path d="M68.1 271l5.9 0l0 -202.8l-5.9 0Z" fill="rgb(227,73,2)" fill-opacity="0.3"></path>
<path d="M76.6 271l5.9 0l0 -202.8l-5.9 0Z" fill="rgb(227,73,2)" fill-opacity="0.3"></path>
<path d="M85.2 271l5.9 0l0 -202.8l-5.9 0Z" fill="rgb(227,73,2)" fill-opacity="0.3"></path>
<path d="M93.7 271l5.9 0l0 -201.6l-5.9 0Z" fill="rgb(227,73,2)" fill-opacity="0.3"></path>
<path d="M102.3 271l5.9 0l0 -200.4l-5.9 0Z" fill="rgb(227,73,2)" fill-opacity="0.3"></path>
<path d="M110.9 271l5.9 0l0 -200.4l-5.9 0Z" fill="rgb(227,73,2)" fill-opacity="0.3"></path>
<path d="M119.4 271l5.9 0l0 -200.4l-5.9 0Z" fill="rgb(227,73,2)" fill-opacity="0.3"></path>
<path d="M128 271l5.9 0l0 -198.1l-5.9 0Z" fill="rgb(227,73,2)" fill-opacity="0.3"></path>
<path d="M136.6 271l5.9 0l0 -195.8l-5.9 0Z" fill="rgb(227,73,2)" fill-opacity="0.3"></path>
<path d="M145.1 271l5.9 0l0 -192.2l-5.9 0Z" fill="rgb(227,73,2)" fill-opacity="0.3"></path>
<path d="M153.7 271l5.9 0l0 -191.1l-5.9 0Z" fill="rgb(227,73,2)" fill-opacity="0.3"></path>
<path d="M162.3 271l5.9 0l0 -185.2l-5.9 0Z" fill="rgb(227,73,2)" fill-opacity="0.3"></path>
<path d="M170.8 271l5.9 0l0 -182.9l-5.9 0Z" fill="rgb(227,73,2)" fill-opacity="0.3"></path>
<path d="M179.4 271l5.9 0l0 -182.9l-5.9 0Z" fill="rgb(227,73,2)" fill-opacity="0.3"></path>
<path d="M188 271l5.9 0l0 -182.9l-5.9 0Z" fill="rgb(227,73,2)" fill-opacity="0.3"></path>
<path d="M196.5 271l5.9 0l0 -182.9l-5.9 0Z" fill="rgb(227,73,2)" fill-opacity="0.3"></path>
<path d="M205.1 271l5.9 0l0 -180.5l-5.9 0Z" fill="rgb(227,73,2)" fill-opacity="0.3"></path>
<path d="M213.7 271l5.9 0l0 -179.3l-5.9 0Z" fill="rgb(227,73,2)" fill-opacity="0.3"></path>
<path d="M222.2 271l5.9 0l0 -179.3l-5.9 0Z" fill="rgb(227,73,2)" fill-opacity="0.3"></path>
<path d="M230.8 271l5.9 0l0 -178.2l-5.9 0Z" fill="rgb(227,73,2)" fill-opacity="0.3"></path>
<path d="M239.4 271l5.9 0l0 -177l-5.9 0Z" fill="rgb(227,73,2)" fill-opacity="0.3"></path>
<path d="M247.9 271l5.9 0l0 -170l-5.9 0Z" fill="rgb(227,73,2)" fill-opacity="0.3"></path>
<path d="M256.5 271l5.9 0l0 -165.3l-5.9 0Z" fill="rgb(227,73,2)" fill-opacity="0.3"></path>
<path d="M265.1 271l5.9 0l0 -164.1l-5.9 0Z" fill="rgb(227,73,2)" fill-opacity="0.3"></path>
<path d="M273.6 271l5.9 0l0 -158.2l-5.9 0Z" fill="rgb(227,73,2)" fill-opacity="0.3"></path>
<path d="M282.2 271l5.9 0l0 -153.6l-5.9 0Z" fill="rgb(227,73,2)" fill-opacity="0.3"></path>
<path d="M290.8 271l5.9 0l0 -150l-5.9 0Z" fill="rgb(227,73,2)" fill-opacity="0.3"></path>
<path d="M299.3 271l5.9 0l0 -143l-5.9 0Z" fill="rgb(227,73,2)" fill-opacity="0.3"></path>
<path d="M307.9 271l5.9 0l0 -134.8l-5.9 0Z" fill="rgb(227,73,2)" fill-opacity="0.3"></path>
<path d="M316.5 271l5.9 0l0 -124.3l-5.9 0Z" fill="rgb(227,73,2)" fill-opacity="0.3"></path>
<path d="M325 271l5.9 0l0 -118.4l-5.9 0Z" fill="rgb(227,73,2)" fill-opacity="0.3"></path>
<path d="M333.6 271l5.9 0l0 -109l-5.9 0Z" fill="rgb(227,73,2)" fill-opacity="0.3"></path>
<path d="M342.1 271l5.9 0l0 -103.2l-5.9 0Z" fill="rgb(227,73,2)" fill-opacity="0.3"></path>
<path d="M350.7 271l5.9 0l0 -98.5l-5.9 0Z" fill="rgb(227,73,2)" fill-opacity="0.3"></path>
<path d="M359.3 271l5.9 0l0 -91.4l-5.9 0Z" fill="rgb(227,73,2)" fill-opacity="0.3"></path>
<path d="M367.8 271l5.9 0l0 -89.1l-5.9 0Z" fill="rgb(227,73,2)" fill-opacity="0.3"></path>
<path d="M376.4 271l5.9 0l0 -84.4l-5.9 0Z" fill="rgb(227,73,2)" fill-opacity="0.3"></path>
<path d="M385 271l5.9 0l0 -80.9l-5.9 0Z" fill="rgb(227,73,2)" fill-opacity="0.3"></path>
<path d="M393.5 271l5.9 0l0 -78.5l-5.9 0Z" fill="rgb(227,73,2)" fill-opacity="0.3"></path>
<path d="M402.1 271l5.9 0l0 -75l-5.9 0Z" fill="rgb(227,73,2)" fill-opacity="0.3"></path>
<path d="M410.7 271l5.9 0l0 -72.7l-5.9 0Z" fill="rgb(227,73,2)" fill-opacity="0.3"></path>
<path d="M419.2 271l5.9 0l0 -71.5l-5.9 0Z" fill="rgb(227,73,2)" fill-opacity="0.3"></path>
<path d="M427.8 271l5.9 0l0 -62.1l-5.9 0Z" fill="rgb(227,73,2)" fill-opacity="0.3"></path>
<path d="M436.4 271l5.9 0l0 -61l-5.9 0Z" fill="rgb(227,73,2)" fill-opacity="0.3"></path>
<path d="M444.9 271l5.9 0l0 -56.3l-5.9 0Z" fill="rgb(227,73,2)" fill-opacity="0.8"></path>
<path d="M453.5 271l5.9 0l0 -51.6l-5.9 0Z" fill="rgb(227,73,2)" fill-opacity="0.3"></path>
<path d="M462.1 271l5.9 0l0 -45.7l-5.9 0Z" fill="rgb(227,73,2)" fill-opacity="0.3"></path>
<path d="M470.6 271l5.9 0l0 -42.2l-5.9 0Z" fill="rgb(227,73,2)" fill-opacity="0.3"></path>
<path d="M479.2 271l5.9 0l0 -38.7l-5.9 0Z" fill="rgb(227,73,2)" fill-opacity="0.3"></path>
<path d="M487.8 271l5.9 0l0 -36.3l-5.9 0Z" fill="rgb(227,73,2)" fill-opacity="0.3"></path>
<path d="M496.3 271l5.9 0l0 -35.2l-5.9 0Z" fill="rgb(227,73,2)" fill-opacity="0.3"></path>
<path d="M504.9 271l5.9 0l0 -25.8l-5.9 0Z" fill="rgb(227,73,2)" fill-opacity="0.3"></path>
<path d="M513.5 271l5.9 0l0 -23.4l-5.9 0Z" fill="rgb(227,73,2)" fill-opacity="0.3"></path>
<path d="M522 271l5.9 0l0 -21.1l-5.9 0Z" fill="rgb(227,73,2)" fill-opacity="0.3"></path>
<path d="M530.6 271l5.9 0l0 -19.9l-5.9 0Z" fill="rgb(227,73,2)" fill-opacity="0.3"></path>
<path d="M539.2 271l5.9 0l0 -16.4l-5.9 0Z" fill="rgb(227,73,2)" fill-opacity="0.3"></path>
<path d="M547.7 271l5.9 0l0 -16.4l-5.9 0Z" fill="rgb(227,73,2)" fill-opacity="0.3"></path>
<path d="M556.3 271l5.9 0l0 -16.4l-5.9 0Z" fill="rgb(227,73,2)" fill-opacity="0.3"></path>
<path d="M564.9 271l5.9 0l0 -16.4l-5.9 0Z" fill="rgb(227,73,2)" fill-opacity="0.3"></path>
<path d="M573.4 271l5.9 0l0 -14.1l-5.9 0Z" fill="rgb(227,73,2)" fill-opacity="0.3"></path>
<path d="M582 271l5.9 0l0 -12.9l-5.9 0Z" fill="rgb(227,73,2)" fill-opacity="0.3"></path>
<path d="M590.5 271l5.9 0l0 -10.6l-5.9 0Z" fill="rgb(227,73,2)" fill-opacity="0.3"></path>
<path d="M599.1 271l5.9 0l0 -10.6l-5.9 0Z" fill="rgb(227,73,2)" fill-opacity="0.3"></path>
<path d="M607.7 271l5.9 0l0 -9.4l-5.9 0Z" fill="rgb(227,73,2)" fill-opacity="0.3"></path>
<path d="M616.2 271l5.9 0l0 -8.2l-5.9 0Z" fill="rgb(227,73,2)" fill-opacity="0.3"></path>
<path d="M624.8 271l5.9 0l0 -8.2l-5.9 0Z" fill="rgb(227,73,2)" fill-opacity="0.3"></path>
<path d="M633.4 271l5.9 0l0 -7l-5.9 0Z" fill="rgb(227,73,2)" fill-opacity="0.3"></path>
<path d="M641.9 271l5.9 0l0 -7l-5.9 0Z" fill="rgb(227,73,2)" fill-opacity="0.3"></path>
<path d="M650.5 271l5.9 0l0 -7l-5.9 0Z" fill="rgb(227,73,2)" fill-opacity="0.3"></path>
<path d="M659.1 271l5.9 0l0 -7l-5.9 0Z" fill="rgb(227,73,2)" fill-opacity="0.3"></path>
<path d="M667.6 271l5.9 0l0 -7l-5.9 0Z" fill="rgb(227,73,2)" fill-opacity="0.3"></path>
<path d="M676.2 271l5.9 0l0 -7l-5.9 0Z" fill="rgb(227,73,2)" fill-opacity="0.3"></path>
<path d="M684.8 271l5.9 0l0 -7l-5.9 0Z" fill="rgb(227,73,2)" fill-opacity="0.3"></path>
<path d="M693.3 271l5.9 0l0 -7l-5.9 0Z" fill="rgb(227,73,2)" fill-opacity="0.3"></path>
<path d="M701.9 271l5.9 0l0 -7l-5.9 0Z" fill="rgb(227,73,2)" fill-opacity="0.3"></path>
<path d="M710.5 271l5.9 0l0 -7l-5.9 0Z" fill="rgb(227,73,2)" fill-opacity="0.3"></path>
<path d="M719 271l5.9 0l0 -7l-5.9 0Z" fill="rgb(227,73,2)" fill-opacity="0.3"></path>
<path d="M727.6 271l5.9 0l0 -7l-5.9 0Z" fill="rgb(227,73,2)" fill-opacity="0.3"></path>
<path d="M736.2 271l5.9 0l0 -7l-5.9 0Z" fill="rgb(227,73,2)" fill-opacity="0.3"></path>
<path d="M744.7 271l5.9 0l0 -7l-5.9 0Z" fill="rgb(227,73,2)" fill-opacity="0.3"></path>
<path d="M753.3 271l5.9 0l0 -5.9l-5.9 0Z" fill="rgb(227,73,2)" fill-opacity="0.3"></path>
<path d="M761.9 271l5.9 0l0 -3.5l-5.9 0Z" fill="rgb(227,73,2)" fill-opacity="0.3"></path>
<path d="M770.4 271l5.9 0l0 -3.5l-5.9 0Z" fill="rgb(227,73,2)" fill-opacity="0.3"></path>
<path d="M779 271l5.9 0l0 -3.5l-5.9 0Z" fill="rgb(227,73,2)" fill-opacity="0.3"></path>
<path d="M787.6 271l5.9 0l0 -3.5l-5.9 0Z" fill="rgb(227,73,2)" fill-opacity="0.3"></path>
<path d="M796.1 271l5.9 0l0 -3.5l-5.9 0Z" fill="rgb(227,73,2)" fill-opacity="0.3"></path>
<path d="M804.7 271l5.9 0l0 -3.5l-5.9 0Z" fill="rgb(227,73,2)" fill-opacity="0.3"></path>
<path d="M813.3 271l5.9 0l0 -2.3l-5.9 0Z" fill="rgb(227,73,2)" fill-opacity="0.3"></path>
<path d="M821.8 271l5.9 0l0 -2.3l-5.9 0Z" fill="rgb(227,73,2)" fill-opacity="0.3"></path>
<path d="M830.4 271l5.9 0l0 -2.3l-5.9 0Z" fill="rgb(227,73,2)" fill-opacity="0.3"></path>
<path d="M838.9 271l5.9 0l0 -2.3l-5.9 0Z" fill="rgb(227,73,2)" fill-opacity="0.3"></path>
<path d="M847.5 271l5.9 0l0 -2.3l-5.9 0Z" fill="rgb(227,73,2)" fill-opacity="0.3"></path>
<path d="M856.1 271l5.9 0l0 -2.3l-5.9 0Z" fill="rgb(227,73,2)" fill-opacity="0.3"></path>
<path d="M864.6 271l5.9 0l0 -2.3l-5.9 0Z" fill="rgb(227,73,2)" fill-opacity="0.3"></path>
<path d="M873.2 271l5.9 0l0 -2.3l-5.9 0Z" fill="rgb(227,73,2)" fill-opacity="0.3"></path>
<path d="M881.8 271l5.9 0l0 -2.3l-5.9 0Z" fill="rgb(227,73,2)" fill-opacity="0.3"></path>
<path d="M890.3 271l5.9 0l0 -2.3l-5.9 0Z" fill="rgb(227,73,2)" fill-opacity="0.3"></path>
<path d="M898.9 271l5.9 0l0 -2.3l-5.9 0Z" fill="rgb(227,73,2)" fill-opacity="0.3"></path>
<path d="M907.5 271l5.9 0l0 -2.3l-5.9 0Z" fill="rgb(227,73,2)" fill-opacity="0.3"></path>
<path d="M916 271l5.9 0l0 -2.3l-5.9 0Z" fill="rgb(227,73,2)" fill-opacity="0.3"></path>
<path d="M924.6 271l5.9 0l0 -1.2l-5.9 0Z" fill="rgb(227,73,2)" fill-opacity="0.3"></path>
<path d="M-5 -5l226.9 0l0 24l-226.9 0Z" transform="translate(391.54 5)" fill="rgb(0,0,0)" fill-opacity="0" stroke="#ccc" stroke-width="0"></path>
<path d="M3.5 0L21.5 0A3.5 3.5 0 0 1 25 3.5L25 10.5A3.5 3.5 0 0 1 21.5 14L3.5 14A3.5 3.5 0 0 1 0 10.5L0 3.5A3.5 3.5 0 0 1 3.5 0" transform="translate(391.54 5)" fill="rgb(227,73,2)" fill-opacity="0.3"></path>
<text dominant-baseline="central" text-anchor="start" style="font-size:12px;font-family:sans-serif;" xml:space="preserve" x="30" y="7" transform="translate(391.54 5)" fill="#333">Times completed</text>
<path d="M0 7L25 7" transform="translate(524.1 5)" fill="#000" stroke="#E34902" stroke-width="2" stroke-linecap="butt" stroke-miterlimit="10"></path>
<path d="M18.1 7A5.6 5.6 0 1 1 18.1 6.4A5.6 5.6 0 0 1 18.1 7" transform="translate(524.1 5)" fill="#fff" stroke="#E34902" stroke-width="2" stroke-linecap="butt" stroke-miterlimit="10"></path>
<text dominant-baseline="central" text-anchor="start" style="font-size:12px;font-family:sans-serif;" x="30" y="7" transform="translate(524.1 5)" fill="#333">Eddington</text>
<path d="M-0.54 -0.89A0.6 0.6 0 1 1 0.54 -0.89C0.39 -0.56 0 -0.42 0 0C0 -0.42 -0.39 -0.56 -0.54 -0.89Z" transform="matrix(25,0,0,25,447.8898,210.9056)" fill="rgb(227,73,2)" fill-opacity="0.8"></path>
<text dominant-baseline="central" text-anchor="middle" style="font-size:12px;font-family:sans-serif;" transform="translate(447.8898 184.7627)" fill="#eee" stroke="rgb(227,73,2)" stroke-width="2" paint-order="stroke" stroke-opacity="0.8" stroke-miterlimit="2">46</text>
<g clip-path="url(#zr0-c0)">
<path d="M62.4 269.8L71 268.7L79.6 267.5L88.1 266.3L96.7 265.1L105.3 264L113.8 262.8L122.4 261.6L131 260.5L139.5 259.3L148.1 258.1L156.7 256.9L165.2 255.8L173.8 254.6L182.4 253.4L190.9 252.2L199.5 251.1L208.1 249.9L216.6 248.7L225.2 247.6L233.8 246.4L242.3 245.2L250.9 244L259.4 242.9L268 241.7L276.6 240.5L285.1 239.4L293.7 238.2L302.3 237L310.8 235.8L319.4 234.7L328 233.5L336.5 232.3L345.1 231.1L353.7 230L362.2 228.8L370.8 227.6L379.4 226.5L387.9 225.3L396.5 224.1L405.1 222.9L413.6 221.8L422.2 220.6L430.8 219.4L439.3 218.3L447.9 217.1L456.5 215.9L465 214.7L473.6 213.6L482.2 212.4L490.7 211.2L499.3 210L507.8 208.9L516.4 207.7L525 206.5L533.5 205.4L542.1 204.2L550.7 203L559.2 201.8L567.8 200.7L576.4 199.5L584.9 198.3L593.5 197.1L602.1 196L610.6 194.8L619.2 193.6L627.8 192.5L636.3 191.3L644.9 190.1L653.5 188.9L662 187.8L670.6 186.6L679.2 185.4L687.7 184.3L696.3 183.1L704.9 181.9L713.4 180.7L722 179.6L730.6 178.4L739.1 177.2L747.7 176.1L756.2 174.9L764.8 173.7L773.4 172.5L781.9 171.4L790.5 170.2L799.1 169L807.6 167.8L816.2 166.7L824.8 165.5L833.3 164.3L841.9 163.2L850.5 162L859 160.8L867.6 159.6L876.2 158.5L884.7 157.3L893.3 156.1L901.9 154.9L910.4 153.8L919 152.6L927.6 151.4" fill="none" stroke="#E34902" stroke-width="2" stroke-linejoin="bevel"></path>
</g>
<defs >
<clipPath id="zr0-c0">
<path d="M57 59l876 0l0 213l-876 0Z" fill="#000"></path>
</clipPath>
</defs>
</svg>