<svg width="1000" height="300" xmlns="http://www.w3.org/2000/svg" xmlns:xlink="http://www.w3.org/1999/xlink" version="1.1" baseProfile="full" viewBox="0 0 1000 300">
<rect width="1000" height="300" x="0" y="0" id="0" fill="#ffffff"></rect>
<path d="M58.2 271.5L931.8 271.5" fill="none" stroke="#E0E6F1"></path>
<path d="M58.2 229.5L931.8 229.5" fill="none" stroke="#E0E6F1"></path>
<path d="M58.2 186.5L931.8 186.5" fill="none" stroke="#E0E6F1"></path>
<path d="M58.2 144.5L931.8 144.5" fill="none" stroke="#E0E6F1"></path>
<path d="M58.2 102.5L931.8 102.5" fill="none" stroke="#E0E6F1"></path>
<path d="M58.2 60.5L931.8 60.5" fill="none" stroke="#E0E6F1"></path>
<path d="M58.2 271.5L931.8 271.5" fill="none" stroke="#6E7079" stroke-linecap="round"></path>
<path d="M62.5 271L62.5 276" fill="none" stroke="#6E7079"></path>
<path d="M114.5 271L114.5 276" fill="none" stroke="#6E7079"></path>
<path d="M165.5 271L165.5 276" fill="none" stroke="#6E7079"></path>
<path d="M216.5 271L216.5 276" fill="none" stroke="#6E7079"></path>
<path d="M268.5 271L268.5 276" fill="none" stroke="#6E7079"></path>
<path d="M319.5 271L319.5 276" fill="none" stroke="#6E7079"></path>
<path d="M371.5 271L371.5 276" fill="none" stroke="#6E7079"></path>
<path d="M422.5 271L422.5 276" fill="none" stroke="#6E7079"></path>
<path d="M473.5 271L473.5 276" fill="none" stroke="#6E7079"></path>
<path d="M525.5 271L525.5 276" fill="none" stroke="#6E7079"></path>
<path d="M576.5 271L576.5 276" fill="none" stroke="#6E7079"></path>
<path d="M628.5 271L628.5 276" fill="none" stroke="#6E7079"></path>
<path d="M679.5 271L679.5 276" fill="none" stroke="#6E7079"></path>
<path d="M730.5 271L730.5 276" fill="none" stroke="#6E7079"></path>
<path d="M782.5 271L782.5 276" fill="none" stroke="#6E7079"></path>
<path d="M833.5 271L833.5 276" fill="none" stroke="#6E7079"></path>
<path d="M884.5 271L884.5 276" fill="none" stroke="#6E7079"></path>
<text dominant-baseline="central" text-anchor="end" style="font-size:12px;font-family:sans-serif;" transform="translate(50.16 271)" fill="#6E7079">0</text>
<text dominant-baseline="central" text-anchor="end" style="font-size:12px;font-family:sans-serif;" transform="translate(50.16 228.8)" fill="#6E7079">30</text>
<text dominant-baseline="central" text-anchor="end" style="font-size:12px;font-family:sans-serif;" transform="translate(50.16 186.6)" fill="#6E7079">60</text>
<text dominant-baseline="central" text-anchor="end" style="font-size:12px;font-family:sans-serif;" transform="translate(50.16 144.4)" fill="#6E7079">90</text>
<text dominant-baseline="central" text-anchor="end" style="font-size:12px;font-family:sans-serif;" transform="translate(50.16 102.2)" fill="#6E7079">120</text>
<text dominant-baseline="central" text-anchor="end" style="font-size:12px;font-family:sans-serif;" transform="translate(50.16 60)" fill="#6E7079">150</text>
<text dominant-baseline="central" text-anchor="start" style="font-size:12px;font-family:sans-serif;" transform="translate(939.84 271)" fill="#6E7079">0</text>
<text dominant-baseline="central" text-anchor="start" style="font-size:12px;font-family:sans-serif;" transform="translate(939.84 228.8)" fill="#6E7079">30</text>
<text dominant-baseline="central" text-anchor="start" style="font-size:12px;font-family:sans-serif;" transform="translate(939.84 186.6)" fill="#6E7079">60</text>
<text dominant-baseline="central" text-anchor="start" style="font-size:12px;font-family:sans-serif;" transform="translate(939.84 144.4)" fill="#6E7079">90</text>
<text dominant-baseline="central" text-anchor="start" style="font-size:12px;font-family:sans-serif;" transform="translate(939.84 102.2)" fill="#6E7079">120</text>
<text dominant-baseline="central" text-anchor="start" style="font-size:12px;font-family:sans-serif;" transform="translate(939.84 60)" fill="#6E7079">150</text>
<text dominant-baseline="central" text-anchor="middle" style="font-size:12px;font-family:sans-serif;" y="6" transform="translate(62.4427 279)" fill="#6E7079">1km</text>
<text dominant-baseline="central" text-anchor="middle" style="font-size:12px;font-family:sans-serif;" y="6" transform="translate(113.8357 279)" fill="#6E7079">7km</text>
<text dominant-baseline="central" text-anchor="middle" style="font-size:12px;font-family:sans-serif;" y="6" transform="translate(165.2286 279)" fill="#6E7079">13km</text>
<text dominant-baseline="central" text-anchor="middle" style="font-size:12px;font-family:sans-serif;" y="6" transform="translate(216.6216 279)" fill="#6E7079">19km</text>
<text dominant-baseline="central" text-anchor="middle" style="font-size:12px;font-family:sans-serif;" y="6" transform="translate(268.0145 279)" fill="#6E7079">25km</text>
<text dominant-baseline="central" text-anchor="middle" style="font-size:12px;font-family:sans-serif;" y="6" transform="translate(319.4075 279)" fill="#6E7079">31km</text>
<text dominant-baseline="central" text-anchor="middle" style="font-size:12px;font-family:sans-serif;" y="6" transform="translate(370.8004 279)" fill="#6E7079">37km</text>
<text dominant-baseline="central" text-anchor="middle" style="font-size:12px;font-family:sans-serif;" y="6" transform="translate(422.1933 279)" fill="#6E7079">43km</text>
<text dominant-baseline="central" text-anchor="middle" style="font-size:12px;font-family:sans-serif;" y="6" transform="translate(473.5863 279)" fill="#6E7079">49km</text>
<text dominant-baseline="central" text-anchor="middle" style="font-size:12px;font-family:sans-serif;" y="6" transform="translate(524.9792 279)" fill="#6E7079">55km</text>
<text dominant-baseline="central" text-anchor="middle" style="font-size:12px;font-family:sans-serif;" y="6" transform="translate(576.3722 279)" fill="#6E7079">61km</text>
<text dominant-baseline="central" text-anchor="middle" style="font-size:12px;font-family:sans-serif;" y="6" transform="translate(627.7651 279)" fill="#6E7079">67km</text>
<text dominant-baseline="central" text-anchor="middle" style="font-size:12px;font-family:sans-serif;" y="6" transform="translate(679.158 279)" fill="#6E7079">73km</text>
<text dominant-baseline="central" text-anchor="middle" style="font-size:12px;font-family:sans-serif;" y="6" transform="translate(730.551 279)" fill="#6E7079">79km</text>
<text dominant-baseline="central" text-anchor="middle" style="font-size:12px;font-family:sans-serif;" y="6" transform="translate(781.9439 279)" fill="#6E7079">85km</text>
<text dominant-baseline="central" text-anchor="middle" style="font-size:12px;font-family:sans-serif;" y="6" transform="translate(833.3369 279)" fill="#6E7079">91km</text>
<text dominant-baseline="central" text-anchor="middle" style="font-size:12px;font-family:sans-serif;" y="6" transform="translate(884.7298 279)" fill="#6E7079">97km</text>
<path d="M59.5 271l5.9 0l0 -211l-5.9 0Z" fill="rgb(227,73,2)" fill-opacity="0.3"></path>
<path d="M68.1 271l5.9 0l0 -211l-5.9 0Z" fill="rgb(227,73,2)" fill-opacity="0.3"></path>
<path d="M76.6 271l5.9 0l0 -211l-5.9 0Z" fill="rgb(227,73,2)" fill-opacity="0.3"></path>
<path d="M85.2 271l5.9 0l0 -211l-5.9 0Z" fill="rgb(227,73,2)" fill-opacity="0.3"></path>
<path d="M93.7 271l5.9 0l0 -211l-5.9 0Z" fill="rgb(227,73,2)" fill-opacity="0.3"></path>
<path d="M102.3 271l5.9 0l0 -211l-5.9 0Z" fill="rgb(227,73,2)" fill-opacity="0.3"></path>
<path d="M110.9 271l5.9 0l0 -211l-5.9 0Z" fill="rgb(227,73,2)" fill-opacity="0.3"></path>
<path d="M119.4 271l5.9 0l0 -211l-5.9 0Z" fill="rgb(227,73,2)" fill-opacity="0.3"></path>
<path d="M128 271l5.9 0l0 -208.2l-5.9 0Z" fill="rgb(227,73,2)" fill-opacity="0.3"></path>
<path d="M136.6 271l5.9 0l0 -205.4l-5.9 0Z" fill="rgb(227,73,2)" fill-opacity="0.3"></path>
<path d="M145.1 271l5.9 0l0 -201.2l-5.9 0Z" fill="rgb(227,73,2)" fill-opacity="0.3"></path>
<path d="M153.7 271l5.9 0l0 -201.2l-5.9 0Z" fill="rgb(227,73,2)" fill-opacity="0.3"></path>
<path d="M162.3 271l5.9 0l0 -195.5l-5.9 0Z" fill="rgb(227,73,2)" fill-opacity="0.3"></path>
<path d="M170.8 271l5.9 0l0 -194.1l-5.9 0Z" fill="rgb(227,73,2)" fill-opacity="0.3"></path>
<path d="M179.4 271l5.9 0l0 -194.1l-5.9 0Z" fill="rgb(227,73,2)" fill-opacity="0.3"></path>
<path d="M188 271l5.9 0l0 -194.1l-5.9 0Z" fill="rgb(227,73,2)" fill-opacity="0.3"></path>
<path d="M196.5 271l5.9 0l0 -194.1l-5.9 0Z" fill="rgb(227,73,2)" fill-opacity="0.3"></path>
<path d="M205.1 271l5.9 0l0 -191.3l-5.9 0Z" fill="rgb(227,73,2)" fill-opacity="0.3"></path>
<path d="M213.7 271l5.9 0l0 -189.9l-5.9 0Z" fill="rgb(227,73,2)" fill-opacity="0.3"></path>
<path d="M222.2 271l5.9 0l0 -189.9l-5.9 0Z" fill="rgb(227,73,2)" fill-opacity="0.3"></path>
<path d="M230.8 271l5.9 0l0 -188.5l-5.9 0Z" fill="rgb(227,73,2)" fill-opacity="0.3"></path>
<path d="M239.4 271l5.9 0l0 -187.1l-5.9 0Z" fill="rgb(227,73,2)" fill-opacity="0.3"></path>
<path d="M247.9 271l5.9 0l0 -178.6l-5.9 0Z" fill="rgb(227,73,2)" fill-opacity="0.3"></path>
<path d="M256.5 271l5.9 0l0 -173l-5.9 0Z" fill="rgb(227,73,2)" fill-opacity="0.3"></path>
<path d="M265.1 271l5.9 0l0 -171.6l-5.9 0Z" fill="rgb(227,73,2)" fill-opacity="0.3"></path>
<path d="M273.6 271l5.9 0l0 -164.6l-5.9 0Z" fill="rgb(227,73,2)" fill-opacity="0.3"></path>
<path d="M282.2 271l5.9 0l0 -159l-5.9 0Z" fill="rgb(227,73,2)" fill-opacity="0.3"></path>
<path d="M290.8 271l5.9 0l0 -154.7l-5.9 0Z" fill="rgb(227,73,2)" fill-opacity="0.3"></path>
<path d="M299.3 271l5.9 0l0 -146.3l-5.9 0Z" fill="rgb(227,73,2)" fill-opacity="0.3"></path>
<path d="M307.9 271l5.9 0l0 -136.4l-5.9 0Z" fill="rgb(227,73,2)" fill-opacity="0.3"></path>
<path d="M316.5 271l5.9 0l0 -126.6l-5.9 0Z" fill="rgb(227,73,2)" fill-opacity="0.3"></path>
<path d="M325 271l5.9 0l0 -121l-5.9 0Z" fill="rgb(227,73,2)" fill-opacity="0.3"></path>
<path d="M333.6 271l5.9 0l0 -111.1l-5.9 0Z" fill="rgb(227,73,2)" fill-opacity="0.3"></path>
<path d="M342.1 271l5.9 0l0 -105.5l-5.9 0Z" fill="rgb(227,73,2)" fill-opacity="0.3"></path>
<path d="M350.7 271l5.9 0l0 -99.9l-5.9 0Z" fill="rgb(227,73,2)" fill-opacity="0.3"></path>
<path d="M359.3 271l5.9 0l0 -91.4l-5.9 0Z" fill="rgb(227,73,2)" fill-opacity="0.3"></path>
<path d="M367.8 271l5.9 0l0 -88.6l-5.9 0Z" fill="rgb(227,73,2)" fill-opacity="0.3"></path>
<path d="M376.4 271l5.9 0l0 -85.8l-5.9 0Z" fill="rgb(227,73,2)" fill-opacity="0.3"></path>
<path d="M385 271l5.9 0l0 -81.6l-5.9 0Z" fill="rgb(227,73,2)" fill-opacity="0.3"></path>
<path d="M393.5 271l5.9 0l0 -80.2l-5.9 0Z" fill="rgb(227,73,2)" fill-opacity="0.3"></path>
<path d="M402.1 271l5.9 0l0 -76l-5.9 0Z" fill="rgb(227,73,2)" fill-opacity="0.3"></path>
<path d="M410.7 271l5.9 0l0 -73.1l-5.9 0Z" fill="rgb(227,73,2)" fill-opacity="0.3"></path>
<path d="M419.2 271l5.9 0l0 -71.7l-5.9 0Z" fill="rgb(227,73,2)" fill-opacity="0.3"></path>
<path d="M427.8 271l5.9 0l0 -61.9l-5.9 0Z" fill="rgb(227,73,2)" fill-opacity="0.8"></path>
<path d="M436.4 271l5.9 0l0 -60.5l-5.9 0Z" fill="rgb(227,73,2)" fill-opacity="0.3"></path>
<path d="M444.9 271l5.9 0l0 -54.9l-5.9 0Z" fill="rgb(227,73,2)" fill-opacity="0.3"></path>
<path d="M453.5 271l5.9 0l0 -52l-5.9 0Z" fill="rgb(227,73,2)" fill-opacity="0.3"></path>
<path d="M462.1 271l5.9 0l0 -45l-5.9 0Z" fill="rgb(227,73,2)" fill-opacity="0.3"></path>
<path d="M470.6 271l5.9 0l0 -43.6l-5.9 0Z" fill="rgb(227,73,2)" fill-opacity="0.3"></path>
<path d="M479.2 271l5.9 0l0 -40.8l-5.9 0Z" fill="rgb(227,73,2)" fill-opacity="0.3"></path>
<path d="M487.8 271l5.9 0l0 -38l-5.9 0Z" fill="rgb(227,73,2)" fill-opacity="0.3"></path>
<path d="M496.3 271l5.9 0l0 -36.6l-5.9 0Z" fill="rgb(227,73,2)" fill-opacity="0.3"></path>
<path d="M504.9 271l5.9 0l0 -29.5l-5.9 0Z" fill="rgb(227,73,2)" fill-opacity="0.3"></path>
<path d="M513.5 271l5.9 0l0 -26.7l-5.9 0Z" fill="rgb(227,73,2)" fill-opacity="0.3"></path>
<path d="M522 271l5.9 0l0 -23.9l-5.9 0Z" fill="rgb(227,73,2)" fill-opacity="0.3"></path>
<path d="M530.6 271l5.9 0l0 -23.9l-5.9 0Z" fill="rgb(227,73,2)" fill-opacity="0.3"></path>
<path d="M539.2 271l5.9 0l0 -19.7l-5.9 0Z" fill="rgb(227,73,2)" fill-opacity="0.3"></path>
<path d="M547.7 271l5.9 0l0 -19.7l-5.9 0Z" fill="rgb(227,73,2)" fill-opacity="0.3"></path>
<path d="M556.3 271l5.9 0l0 -19.7l-5.9 0Z" fill="rgb(227,73,2)" fill-opacity="0.3"></path>
<path d="M564.9 271l5.9 0l0 -19.7l-5.9 0Z" fill="rgb(227,73,2)" fill-opacity="0.3"></path>
<path d="M573.4 271l5.9 0l0 -16.9l-5.9 0Z" fill="rgb(227,73,2)" fill-opacity="0.3"></path>
<path d="M582 271l5.9 0l0 -15.5l-5.9 0Z" fill="rgb(227,73,2)" fill-opacity="0.3"></path>
<path d="M590.5 271l5.9 0l0 -12.7l-5.9 0Z" fill="rgb(227,73,2)" fill-opacity="0.3"></path>
<path d="M599.1 271l5.9 0l0 -12.7l-5.9 0Z" fill="rgb(227,73,2)" fill-opacity="0.3"></path>
<path d="M607.7 271l5.9 0l0 -11.3l-5.9 0Z" fill="rgb(227,73,2)" fill-opacity="0.3"></path>
<path d="M616.2 271l5.9 0l0 -9.8l-5.9 0Z" fill="rgb(227,73,2)" fill-opacity="0.3"></path>
<path d="M624.8 271l5.9 0l0 -9.8l-5.9 0Z" fill="rgb(227,73,2)" fill-opacity="0.3"></path>
<path d="M633.4 271l5.9 0l0 -8.4l-5.9 0Z" fill="rgb(227,73,2)" fill-opacity="0.3"></path>
<path d="M641.9 271l5.9 0l0 -8.4l-5.9 0Z" fill="rgb(227,73,2)" fill-opacity="0.3"></path>
<path d="M650.5 271l5.9 0l0 -8.4l-5.9 0Z" fill="rgb(227,73,2)" fill-opacity="0.3"></path>
<path d="M659.1 271l5.9 0l0 -8.4l-5.9 0Z" fill="rgb(227,73,2)" fill-opacity="0.3"></path>
<path d="M667.6 271l5.9 0l0 -8.4l-5.9 0Z" fill="rgb(227,73,2)" fill-opacity="0.3"></path>
<path d="M676.2 271l5.9 0l0 -8.4l-5.9 0Z" fill="rgb(227,73,2)" fill-opacity="0.3"></path>
<path d="M684.8 271l5.9 0l0 -8.4l-5.9 0Z" fill="rgb(227,73,2)" fill-opacity="0.3"></path>
<path d="M693.3 271l5.9 0l0 -8.4l-5.9 0Z" fill="rgb(227,73,2)" fill-opacity="0.3"></path>
<path d="M701.9 271l5.9 0l0 -8.4l-5.9 0Z" fill="rgb(227,73,2)" fill-opacity="0.3"></path>
<path d="M710.5 271l5.9 0l0 -8.4l-5.9 0Z" fill="rgb(227,73,2)" fill-opacity="0.3"></path>
<path d="M719 271l5.9 0l0 -8.4l-5.9 0Z" fill="rgb(227,73,2)" fill-opacity="0.3"></path>
<path d="M727.6 271l5.9 0l0 -8.4l-5.9 0Z" fill="rgb(227,73,2)" fill-opacity="0.3"></path>
<path d="M736.2 271l5.9 0l0 -8.4l-5.9 0Z" fill="rgb(227,73,2)" fill-opacity="0.3"></path>
<path d="M744.7 271l5.9 0l0 -8.4l-5.9 0Z" fill="rgb(227,73,2)" fill-opacity="0.3"></path>
<path d="M753.3 271l5.9 0l0 -7l-5.9 0Z" fill="rgb(227,73,2)" fill-opacity="0.3"></path>
<path d="M761.9 271l5.9 0l0 -4.2l-5.9 0Z" fill="rgb(227,73,2)" fill-opacity="0.3"></path>
<path d="M770.4 271l5.9 0l0 -4.2l-5.9 0Z" fill="rgb(227,73,2)" fill-opacity="0.3"></path>
<path d="M779 271l5.9 0l0 -4.2l-5.9 0Z" fill="rgb(227,73,2)" fill-opacity="0.3"></path>
<path d="M787.6 271l5.9 0l0 -4.2l-5.9 0Z" fill="rgb(227,73,2)" fill-opacity="0.3"></path>
<path d="M796.1 271l5.9 0l0 -4.2l-5.9 0Z" fill="rgb(227,73,2)" fill-opacity="0.3"></path>
<path d="M804.7 271l5.9 0l0 -4.2l-5.9 0Z" fill="rgb(227,73,2)" fill-opacity="0.3"></path>
<path d="M813.3 271l5.9 0l0 -2.8l-5.9 0Z" fill="rgb(227,73,2)" fill-opacity="0.3"></path>
<path d="M821.8 271l5.9 0l0 -2.8l-5.9 0Z" fill="rgb(227,73,2)" fill-opacity="0.3"></path>
<path d="M830.4 271l5.9 0l0 -2.8l-5.9 0Z" fill="rgb(227,73,2)" fill-opacity="0.3"></path>
<path d="M838.9 271l5.9 0l0 -2.8l-5.9 0Z" fill="rgb(227,73,2)" fill-opacity="0.3"></path>
<path d="M847.5 271l5.9 0l0 -2.8l-5.9 0Z" fill="rgb(227,73,2)" fill-opacity="0.3"></path>
<path d="M856.1 271l5.9 0l0 -2.8l-5.9 0Z" fill="rgb(227,73,2)" fill-opacity="0.3"></path>
<path d="M864.6 271l5.9 0l0 -2.8l-5.9 0Z" fill="rgb(227,73,2)" fill-opacity="0.3"></path>
<path d="M873.2 271l5.9 0l0 -2.8l-5.9 0Z" fill="rgb(227,73,2)" fill-opacity="0.3"></path>
<path d="M881.8 271l5.9 0l0 -2.8l-5.9 0Z" fill="rgb(227,73,2)" fill-opacity="0.3"></path>
<path d="M890.3 271l5.9 0l0 -2.8l-5.9 0Z" fill="rgb(227,73,2)" fill-opacity="0.3"></path>
<path d="M898.9 271l5.9 0l0 -2.8l-5.9 0Z" fill="rgb(227,73,2)" fill-opacity="0.3"></path>
<path d="M907.5 271l5.9 0l0 -2.8l-5.9 0Z" fill="rgb(227,73,2)" fill-opacity="0.3"></path>
<path d="M916 271l5.9 0l0 -2.8l-5.9 0Z" fill="rgb(227,73,2)" fill-opacity="0.3"></path>
<path d="M924.6 271l5.9 0l0 -1.4l-5.9 0Z" fill="rgb(227,73,2)" fill-opacity="0.3"></path>
<path d="M-5 -5l226.9 0l0 24l-226.9 0Z" transform="translate(391.54 5)" fill="rgb(0,0,0)" fill-opacity="0" stroke="#ccc" stroke-width="0"></path>
<path d="M3.5 0L21.5 0A3.5 3.5 0 0 1 25 3.5L25 10.5A3.5 3.5 0 0 1 21.5 14L3.5 14A3.5 3.5 0 0 1 0 10.5L0 3.5A3.5 3.5 0 0 1 3.5 0" transform="translate(391.54 5)" fill="rgb(227,73,2)" fill-opacity="0.3"></path>
<text dominant-baseline="central" text-anchor="start" style="font-size:12px;font-family:sans-serif;" xml:space="preserve" x="30" y="7" transform="translate(391.54 5)" fill="#333">Times completed</text>
<path d="M0 7L25 7" transform="translate(524.1 5)" fill="#000" stroke="#E34902" stroke-width="2" stroke-linecap="butt" stroke-miterlimit="10"></path>
<path d="M18.1 7A5.6 5.6 0 1 1 18.1 6.4A5.6 5.6 0 0 1 18.1 7" transform="translate(524.1 5)" fill="#fff" stroke="#E34902" stroke-width="2" stroke-linecap="butt" stroke-miterlimit="10"></path>
<text dominant-baseline="central" text-anchor="start" style="font-size:12px;font-family:sans-serif;" x="30" y="7" transform="translate(524.1 5)" fill="#333">Eddington</text>
<path d="M-0.54 -0.89A0.6 0.6 0 1 1 0.54 -0.89C0.39 -0.56 0 -0.42 0 0C0 -0.42 -0.39 -0.56 -0.54 -0.89Z" transform="matrix(25,0,0,25,430.7588,205.5133)" fill="rgb(227,73,2)" fill-opacity="0.8"></path>
<text dominant-baseline="central" text-anchor="middle" style="font-size:12px;font-family:sans-serif;" transform="translate(430.7588 179.3705)" fill="#eee" stroke="rgb(227,73,2)" stroke-width="2" paint-order="stroke" stroke-opacity="0.8" stroke-miterlimit="2">44</text>
<g clip-path="url(#zr0-c0)">
<path d="M62.4 269.6L71 268.2L79.6 266.8L88.1 265.4L96.7 264L105.3 262.6L113.8 261.2L122.4 259.7L131 258.3L139.5 256.9L148.1 255.5L156.7 254.1L165.2 252.7L173.8 251.3L182.4 249.9L190.9 248.5L199.5 247.1L208.1 245.7L216.6 244.3L225.2 242.9L233.8 241.5L242.3 240.1L250.9 238.6L259.4 237.2L268 235.8L276.6 234.4L285.1 233L293.7 231.6L302.3 230.2L310.8 228.8L319.4 227.4L328 226L336.5 224.6L345.1 223.2L353.7 221.8L362.2 220.4L370.8 219L379.4 217.5L387.9 216.1L396.5 214.7L405.1 213.3L413.6 211.9L422.2 210.5L430.8 209.1L439.3 207.7L447.9 206.3L456.5 204.9L465 203.5L473.6 202.1L482.2 200.7L490.7 199.3L499.3 197.9L507.8 196.4L516.4 195L525 193.6L533.5 192.2L542.1 190.8L550.7 189.4L559.2 188L567.8 186.6L576.4 185.2L584.9 183.8L593.5 182.4L602.1 181L610.6 179.6L619.2 178.2L627.8 176.8L636.3 175.3L644.9 173.9L653.5 172.5L662 171.1L670.6 169.7L679.2 168.3L687.7 166.9L696.3 165.5L704.9 164.1L713.4 162.7L722 161.3L730.6 159.9L739.1 158.5L747.7 157.1L756.2 155.7L764.8 154.2L773.4 152.8L781.9 151.4L790.5 150L799.1 148.6L807.6 147.2L816.2 145.8L824.8 144.4L833.3 143L841.9 141.6L850.5 140.2L859 138.8L867.6 137.4L876.2 136L884.7 134.6L893.3 133.1L901.9 131.7L910.4 130.3L919 128.9L927.6 127.5" fill="none" stroke="#E34902" stroke-width="2" stroke-linejoin="bevel"></path>
</g>
<defs >
<clipPath id="zr0-c0">
<path d="M57 59l876 0l0 213l-876 0Z" fill="#000"></path>
</clipPath>
</defs>
</svg>