<svg width="1000" height="300" xmlns="http://www.w3.org/2000/svg" xmlns:xlink="http://www.w3.org/1999/xlink" version="1.1" baseProfile="full" viewBox="0 0 1000 300">
<rect width="1000" height="300" x="0" y="0" id="0" fill="#ffffff"></rect>
<path d="M58.2 271.5L931.8 271.5" fill="none" stroke="#E0E6F1"></path>
<path d="M58.2 229.5L931.8 229.5" fill="none" stroke="#E0E6F1"></path>
<path d="M58.2 186.5L931.8 186.5" fill="none" stroke="#E0E6F1"></path>
<path d="M58.2 144.5L931.8 144.5" fill="none" stroke="#E0E6F1"></path>
<path d="M58.2 102.5L931.8 102.5" fill="none" stroke="#E0E6F1"></path>
<path d="M58.2 60.5L931.8 60.5" fill="none" stroke="#E0E6F1"></path>
<path d="M58.2 271.5L931.8 271.5" fill="none" stroke="#6E7079" stroke-linecap="round"></path>
<path d="M60.5 271L60.5 276" fill="none" stroke="#6E7079"></path>
<path d="M111.5 271L111.5 276" fill="none" stroke="#6E7079"></path>
<path d="M161.5 271L161.5 276" fill="none" stroke="#6E7079"></path>
<path d="M211.5 271L211.5 276" fill="none" stroke="#6E7079"></path>
<path d="M261.5 271L261.5 276" fill="none" stroke="#6E7079"></path>
<path d="M311.5 271L311.5 276" fill="none" stroke="#6E7079"></path>
<path d="M362.5 271L362.5 276" fill="none" stroke="#6E7079"></path>
<path d="M412.5 271L412.5 276" fill="none" stroke="#6E7079"></path>
<path d="M462.5 271L462.5 276" fill="none" stroke="#6E7079"></path>
<path d="M512.5 271L512.5 276" fill="none" stroke="#6E7079"></path>
<path d="M563.5 271L563.5 276" fill="none" stroke="#6E7079"></path>
<path d="M613.5 271L613.5 276" fill="none" stroke="#6E7079"></path>
<path d="M663.5 271L663.5 276" fill="none" stroke="#6E7079"></path>
<path d="M713.5 271L713.5 276" fill="none" stroke="#6E7079"></path>
<path d="M763.5 271L763.5 276" fill="none" stroke="#6E7079"></path>
<path d="M814.5 271L814.5 276" fill="none" stroke="#6E7079"></path>
<path d="M864.5 271L864.5 276" fill="none" stroke="#6E7079"></path>
<path d="M914.5 271L914.5 276" fill="none" stroke="#6E7079"></path>
<text dominant-baseline="central" text-anchor="end" style="font-size:12px;font-family:sans-serif;" transform="translate(50.16 271)" fill="#6E7079">0</text>
<text dominant-baseline="central" text-anchor="end" style="font-size:12px;font-family:sans-serif;" transform="translate(50.16 228.8)" fill="#6E7079">60</text>
<text dominant-baseline="central" text-anchor="end" style="font-size:12px;font-family:sans-serif;" transform="translate(50.16 186.6)" fill="#6E7079">120</text>
<text dominant-baseline="central" text-anchor="end" style="font-size:12px;font-family:sans-serif;" transform="translate(50.16 144.4)" fill="#6E7079">180</text>
<text dominant-baseline="central" text-anchor="end" style="font-size:12px;font-family:sans-serif;" transform="translate(50.16 102.2)" fill="#6E7079">240</text>
<text dominant-baseline="central" text-anchor="end" style="font-size:12px;font-family:sans-serif;" transform="translate(50.16 60)" fill="#6E7079">300</text>
<text dominant-baseline="central" text-anchor="start" style="font-size:12px;font-family:sans-serif;" transform="translate(939.84 271)" fill="#6E7079">0</text>
<text dominant-baseline="central" text-anchor="start" style="font-size:12px;font-family:sans-serif;" transform="translate(939.84 228.8)" fill="#6E7079">60</text>
<text dominant-baseline="central" text-anchor="start" style="font-size:12px;font-family:sans-serif;" transform="translate(939.84 186.6)" fill="#6E7079">120</text>
<text dominant-baseline="central" text-anchor="start" style="font-size:12px;font-family:sans-serif;" transform="translate(939.84 144.4)" fill="#6E7079">180</text>
<text dominant-baseline="central" text-anchor="start" style="font-size:12px;font-family:sans-serif;" transform="translate(939.84 102.2)" fill="#6E7079">240</text>
<text dominant-baseline="central" text-anchor="start" style="font-size:12px;font-family:sans-serif;" transform="translate(939.84 60)" fill="#6E7079">300</text>
<text dominant-baseline="central" text-anchor="middle" style="font-size:12px;font-family:sans-serif;" y="6" transform="translate(60.6706 279)" fill="#6E7079">1km</text>
<text dominant-baseline="central" text-anchor="middle" style="font-size:12px;font-family:sans-serif;" y="6" transform="translate(110.8821 279)" fill="#6E7079">11km</text>
<text dominant-baseline="central" text-anchor="middle" style="font-size:12px;font-family:sans-serif;" y="6" transform="translate(161.0936 279)" fill="#6E7079">21km</text>
<text dominant-baseline="central" text-anchor="middle" style="font-size:12px;font-family:sans-serif;" y="6" transform="translate(211.3051 279)" fill="#6E7079">31km</text>
<text dominant-baseline="central" text-anchor="middle" style="font-size:12px;font-family:sans-serif;" y="6" transform="translate(261.5166 279)" fill="#6E7079">41km</text>
<text dominant-baseline="central" text-anchor="middle" style="font-size:12px;font-family:sans-serif;" y="6" transform="translate(311.728 279)" fill="#6E7079">51km</text>
<text dominant-baseline="central" text-anchor="middle" style="font-size:12px;font-family:sans-serif;" y="6" transform="translate(361.9395 279)" fill="#6E7079">61km</text>
<text dominant-baseline="central" text-anchor="middle" style="font-size:12px;font-family:sans-serif;" y="6" transform="translate(412.151 279)" fill="#6E7079">71km</text>
<text dominant-baseline="central" text-anchor="middle" style="font-size:12px;font-family:sans-serif;" y="6" transform="translate(462.3625 279)" fill="#6E7079">81km</text>
<text dominant-baseline="central" text-anchor="middle" style="font-size:12px;font-family:sans-serif;" y="6" transform="translate(512.574 279)" fill="#6E7079">91km</text>
<text dominant-baseline="central" text-anchor="middle" style="font-size:12px;font-family:sans-serif;" y="6" transform="translate(562.7855 279)" fill="#6E7079">101km</text>
<text dominant-baseline="central" text-anchor="middle" style="font-size:12px;font-family:sans-serif;" y="6" transform="translate(612.997 279)" fill="#6E7079">111km</text>
<text dominant-baseline="central" text-anchor="middle" style="font-size:12px;font-family:sans-serif;" y="6" transform="translate(663.2085 279)" fill="#6E7079">121km</text>
<text dominant-baseline="central" text-anchor="middle" style="font-size:12px;font-family:sans-serif;" y="6" transform="translate(713.42 279)" fill="#6E7079">131km</text>
<text dominant-baseline="central" text-anchor="middle" style="font-size:12px;font-family:sans-serif;" y="6" transform="translate(763.6315 279)" fill="#6E7079">141km</text>
<text dominant-baseline="central" text-anchor="middle" style="font-size:12px;font-family:sans-serif;" y="6" transform="translate(813.843 279)" fill="#6E7079">151km</text>
<text dominant-baseline="central" text-anchor="middle" style="font-size:12px;font-family:sans-serif;" y="6" transform="translate(864.0545 279)" fill="#6E7079">161km</text>
<text dominant-baseline="central" text-anchor="middle" style="font-size:12px;font-family:sans-serif;" y="6" transform="translate(914.266 279)" fill="#6E7079">171km</text>
<path d="M58.9 271l3.5 0l0 -210.3l-3.5 0Z" fill="rgb(227,73,2)" fill-opacity="0.3"></path>
<path d="M64 271l3.5 0l0 -210.3l-3.5 0Z" fill="rgb(227,73,2)" fill-opacity="0.3"></path>
<path d="M69 271l3.5 0l0 -209.6l-3.5 0Z" fill="rgb(227,73,2)" fill-opacity="0.3"></path>
<path d="M74 271l3.5 0l0 -209.6l-3.5 0Z" fill="rgb(227,73,2)" fill-opacity="0.3"></path>
<path d="M79 271l3.5 0l0 -208.2l-3.5 0Z" fill="rgb(227,73,2)" fill-opacity="0.3"></path>
<path d="M84 271l3.5 0l0 -201.9l-3.5 0Z" fill="rgb(227,73,2)" fill-opacity="0.3"></path>
<path d="M89.1 271l3.5 0l0 -201.2l-3.5 0Z" fill="rgb(227,73,2)" fill-opacity="0.3"></path>
<path d="M94.1 271l3.5 0l0 -198.3l-3.5 0Z" fill="rgb(227,73,2)" fill-opacity="0.3"></path>
<path d="M99.1 271l3.5 0l0 -196.9l-3.5 0Z" fill="rgb(227,73,2)" fill-opacity="0.3"></path>
<path d="M104.1 271l3.5 0l0 -195.5l-3.5 0Z" fill="rgb(227,73,2)" fill-opacity="0.3"></path>
<path d="M109.1 271l3.5 0l0 -192l-3.5 0Z" fill="rgb(227,73,2)" fill-opacity="0.3"></path>
<path d="M114.2 271l3.5 0l0 -188.5l-3.5 0Z" fill="rgb(227,73,2)" fill-opacity="0.3"></path>
<path d="M119.2 271l3.5 0l0 -182.2l-3.5 0Z" fill="rgb(227,73,2)" fill-opacity="0.3"></path>
<path d="M124.2 271l3.5 0l0 -180.8l-3.5 0Z" fill="rgb(227,73,2)" fill-opacity="0.3"></path>
<path d="M129.2 271l3.5 0l0 -180.8l-3.5 0Z" fill="rgb(227,73,2)" fill-opacity="0.3"></path>
<path d="M134.3 271l3.5 0l0 -180.1l-3.5 0Z" fill="rgb(227,73,2)" fill-opacity="0.3"></path>
<path d="M139.3 271l3.5 0l0 -179.3l-3.5 0Z" fill="rgb(227,73,2)" fill-opacity="0.3"></path>
<path d="M144.3 271l3.5 0l0 -176.5l-3.5 0Z" fill="rgb(227,73,2)" fill-opacity="0.3"></path>
<path d="M149.3 271l3.5 0l0 -175.8l-3.5 0Z" fill="rgb(227,73,2)" fill-opacity="0.3"></path>
<path d="M154.3 271l3.5 0l0 -175.1l-3.5 0Z" fill="rgb(227,73,2)" fill-opacity="0.3"></path>
<path d="M159.4 271l3.5 0l0 -174.4l-3.5 0Z" fill="rgb(227,73,2)" fill-opacity="0.3"></path>
<path d="M164.4 271l3.5 0l0 -173l-3.5 0Z" fill="rgb(227,73,2)" fill-opacity="0.3"></path>
<path d="M169.4 271l3.5 0l0 -168.8l-3.5 0Z" fill="rgb(227,73,2)" fill-opacity="0.3"></path>
<path d="M174.4 271l3.5 0l0 -167.4l-3.5 0Z" fill="rgb(227,73,2)" fill-opacity="0.3"></path>
<path d="M179.4 271l3.5 0l0 -166.7l-3.5 0Z" fill="rgb(227,73,2)" fill-opacity="0.3"></path>
<path d="M184.5 271l3.5 0l0 -162.5l-3.5 0Z" fill="rgb(227,73,2)" fill-opacity="0.3"></path>
<path d="M189.5 271l3.5 0l0 -159.7l-3.5 0Z" fill="rgb(227,73,2)" fill-opacity="0.3"></path>
<path d="M194.5 271l3.5 0l0 -156.8l-3.5 0Z" fill="rgb(227,73,2)" fill-opacity="0.3"></path>
<path d="M199.5 271l3.5 0l0 -149.8l-3.5 0Z" fill="rgb(227,73,2)" fill-opacity="0.3"></path>
<path d="M204.6 271l3.5 0l0 -146.3l-3.5 0Z" fill="rgb(227,73,2)" fill-opacity="0.3"></path>
<path d="M209.6 271l3.5 0l0 -137.9l-3.5 0Z" fill="rgb(227,73,2)" fill-opacity="0.3"></path>
<path d="M214.6 271l3.5 0l0 -131.5l-3.5 0Z" fill="rgb(227,73,2)" fill-opacity="0.3"></path>
<path d="M219.6 271l3.5 0l0 -128l-3.5 0Z" fill="rgb(227,73,2)" fill-opacity="0.3"></path>
<path d="M224.6 271l3.5 0l0 -124.5l-3.5 0Z" fill="rgb(227,73,2)" fill-opacity="0.3"></path>
<path d="M229.7 271l3.5 0l0 -121l-3.5 0Z" fill="rgb(227,73,2)" fill-opacity="0.3"></path>
<path d="M234.7 271l3.5 0l0 -116l-3.5 0Z" fill="rgb(227,73,2)" fill-opacity="0.3"></path>
<path d="M239.7 271l3.5 0l0 -111.1l-3.5 0Z" fill="rgb(227,73,2)" fill-opacity="0.3"></path>
<path d="M244.7 271l3.5 0l0 -106.9l-3.5 0Z" fill="rgb(227,73,2)" fill-opacity="0.3"></path>
<path d="M249.7 271l3.5 0l0 -103.4l-3.5 0Z" fill="rgb(227,73,2)" fill-opacity="0.3"></path>
<path d="M254.8 271l3.5 0l0 -100.6l-3.5 0Z" fill="rgb(227,73,2)" fill-opacity="0.3"></path>
<path d="M259.8 271l3.5 0l0 -97.8l-3.5 0Z" fill="rgb(227,73,2)" fill-opacity="0.3"></path>
<path d="M264.8 271l3.5 0l0 -94.9l-3.5 0Z" fill="rgb(227,73,2)" fill-opacity="0.3"></path>
<path d="M269.8 271l3.5 0l0 -90l-3.5 0Z" fill="rgb(227,73,2)" fill-opacity="0.3"></path>
<path d="M274.8 271l3.5 0l0 -84.4l-3.5 0Z" fill="rgb(227,73,2)" fill-opacity="0.3"></path>
<path d="M279.9 271l3.5 0l0 -79.5l-3.5 0Z" fill="rgb(227,73,2)" fill-opacity="0.3"></path>
<path d="M284.9 271l3.5 0l0 -76.7l-3.5 0Z" fill="rgb(227,73,2)" fill-opacity="0.3"></path>
<path d="M289.9 271l3.5 0l0 -71.7l-3.5 0Z" fill="rgb(227,73,2)" fill-opacity="0.3"></path>
<path d="M294.9 271l3.5 0l0 -66.1l-3.5 0Z" fill="rgb(227,73,2)" fill-opacity="0.3"></path>
<path d="M300 271l3.5 0l0 -63.3l-3.5 0Z" fill="rgb(227,73,2)" fill-opacity="0.3"></path>
<path d="M305 271l3.5 0l0 -57l-3.5 0Z" fill="rgb(227,73,2)" fill-opacity="0.3"></path>
<path d="M310 271l3.5 0l0 -52l-3.5 0Z" fill="rgb(227,73,2)" fill-opacity="0.3"></path>
<path d="M315 271l3.5 0l0 -47.1l-3.5 0Z" fill="rgb(227,73,2)" fill-opacity="0.3"></path>
<path d="M320 271l3.5 0l0 -38l-3.5 0Z" fill="rgb(227,73,2)" fill-opacity="0.8"></path>
<path d="M325.1 271l3.5 0l0 -35.2l-3.5 0Z" fill="rgb(227,73,2)" fill-opacity="0.3"></path>
<path d="M330.1 271l3.5 0l0 -30.9l-3.5 0Z" fill="rgb(227,73,2)" fill-opacity="0.3"></path>
<path d="M335.1 271l3.5 0l0 -27.4l-3.5 0Z" fill="rgb(227,73,2)" fill-opacity="0.3"></path>
<path d="M340.1 271l3.5 0l0 -25.3l-3.5 0Z" fill="rgb(227,73,2)" fill-opacity="0.3"></path>
<path d="M345.1 271l3.5 0l0 -24.6l-3.5 0Z" fill="rgb(227,73,2)" fill-opacity="0.3"></path>
<path d="M350.2 271l3.5 0l0 -24.6l-3.5 0Z" fill="rgb(227,73,2)" fill-opacity="0.3"></path>
<path d="M355.2 271l3.5 0l0 -22.5l-3.5 0Z" fill="rgb(227,73,2)" fill-opacity="0.3"></path>
<path d="M360.2 271l3.5 0l0 -20.4l-3.5 0Z" fill="rgb(227,73,2)" fill-opacity="0.3"></path>
<path d="M365.2 271l3.5 0l0 -20.4l-3.5 0Z" fill="rgb(227,73,2)" fill-opacity="0.3"></path>
<path d="M370.2 271l3.5 0l0 -17.6l-3.5 0Z" fill="rgb(227,73,2)" fill-opacity="0.3"></path>
<path d="M375.3 271l3.5 0l0 -16.9l-3.5 0Z" fill="rgb(227,73,2)" fill-opacity="0.3"></path>
<path d="M380.3 271l3.5 0l0 -16.2l-3.5 0Z" fill="rgb(227,73,2)" fill-opacity="0.3"></path>
<path d="M385.3 271l3.5 0l0 -16.2l-3.5 0Z" fill="rgb(227,73,2)" fill-opacity="0.3"></path>
<path d="M390.3 271l3.5 0l0 -14.8l-3.5 0Z" fill="rgb(227,73,2)" fill-opacity="0.3"></path>
<path d="M395.4 271l3.5 0l0 -13.4l-3.5 0Z" fill="rgb(227,73,2)" fill-opacity="0.3"></path>
<path d="M400.4 271l3.5 0l0 -13.4l-3.5 0Z" fill="rgb(227,73,2)" fill-opacity="0.3"></path>
<path d="M405.4 271l3.5 0l0 -12l-3.5 0Z" fill="rgb(227,73,2)" fill-opacity="0.3"></path>
<path d="M410.4 271l3.5 0l0 -9.8l-3.5 0Z" fill="rgb(227,73,2)" fill-opacity="0.3"></path>
<path d="M415.4 271l3.5 0l0 -9.8l-3.5 0Z" fill="rgb(227,73,2)" fill-opacity="0.3"></path>
<path d="M420.5 271l3.5 0l0 -9.8l-3.5 0Z" fill="rgb(227,73,2)" fill-opacity="0.3"></path>
<path d="M425.5 271l3.5 0l0 -7.7l-3.5 0Z" fill="rgb(227,73,2)" fill-opacity="0.3"></path>
<path d="M430.5 271l3.5 0l0 -7.7l-3.5 0Z" fill="rgb(227,73,2)" fill-opacity="0.3"></path>
<path d="M435.5 271l3.5 0l0 -7.7l-3.5 0Z" fill="rgb(227,73,2)" fill-opacity="0.3"></path>
<path d="M440.5 271l3.5 0l0 -7.7l-3.5 0Z" fill="rgb(227,73,2)" fill-opacity="0.3"></path>
<path d="M445.6 271l3.5 0l0 -7.7l-3.5 0Z" fill="rgb(227,73,2)" fill-opacity="0.3"></path>
<path d="M450.6 271l3.5 0l0 -7.7l-3.5 0Z" fill="rgb(227,73,2)" fill-opacity="0.3"></path>
<path d="M455.6 271l3.5 0l0 -7l-3.5 0Z" fill="rgb(227,73,2)" fill-opacity="0.3"></path>
<path d="M460.6 271l3.5 0l0 -6.3l-3.5 0Z" fill="rgb(227,73,2)" fill-opacity="0.3"></path>
<path d="M465.7 271l3.5 0l0 -5.6l-3.5 0Z" fill="rgb(227,73,2)" fill-opacity="0.3"></path>
<path d="M470.7 271l3.5 0l0 -4.2l-3.5 0Z" fill="rgb(227,73,2)" fill-opacity="0.3"></path>
<path d="M475.7 271l3.5 0l0 -4.2l-3.5 0Z" fill="rgb(227,73,2)" fill-opacity="0.3"></path>
<path d="M480.7 271l3.5 0l0 -4.2l-3.5 0Z" fill="rgb(227,73,2)" fill-opacity="0.3"></path>
<path d="M485.7 271l3.5 0l0 -4.2l-3.5 0Z" fill="rgb(227,73,2)" fill-opacity="0.3"></path>
<path d="M490.8 271l3.5 0l0 -4.2l-3.5 0Z" fill="rgb(227,73,2)" fill-opacity="0.3"></path>
<path d="M495.8 271l3.5 0l0 -4.2l-3.5 0Z" fill="rgb(227,73,2)" fill-opacity="0.3"></path>
<path d="M500.8 271l3.5 0l0 -3.5l-3.5 0Z" fill="rgb(227,73,2)" fill-opacity="0.3"></path>
<path d="M505.8 271l3.5 0l0 -3.5l-3.5 0Z" fill="rgb(227,73,2)" fill-opacity="0.3"></path>
<path d="M510.8 271l3.5 0l0 -3.5l-3.5 0Z" fill="rgb(227,73,2)" fill-opacity="0.3"></path>
<path d="M515.9 271l3.5 0l0 -3.5l-3.5 0Z" fill="rgb(227,73,2)" fill-opacity="0.3"></path>
<path d="M520.9 271l3.5 0l0 -3.5l-3.5 0Z" fill="rgb(227,73,2)" fill-opacity="0.3"></path>
<path d="M525.9 271l3.5 0l0 -3.5l-3.5 0Z" fill="rgb(227,73,2)" fill-opacity="0.3"></path>
<path d="M530.9 271l3.5 0l0 -3.5l-3.5 0Z" fill="rgb(227,73,2)" fill-opacity="0.3"></path>
<path d="M535.9 271l3.5 0l0 -3.5l-3.5 0Z" fill="rgb(227,73,2)" fill-opacity="0.3"></path>
<path d="M541 271l3.5 0l0 -3.5l-3.5 0Z" fill="rgb(227,73,2)" fill-opacity="0.3"></path>
<path d="M546 271l3.5 0l0 -3.5l-3.5 0Z" fill="rgb(227,73,2)" fill-opacity="0.3"></path>
<path d="M551 271l3.5 0l0 -3.5l-3.5 0Z" fill="rgb(227,73,2)" fill-opacity="0.3"></path>
<path d="M556 271l3.5 0l0 -3.5l-3.5 0Z" fill="rgb(227,73,2)" fill-opacity="0.3"></path>
<path d="M561.1 271l3.5 0l0 -3.5l-3.5 0Z" fill="rgb(227,73,2)" fill-opacity="0.3"></path>
<path d="M566.1 271l3.5 0l0 -2.1l-3.5 0Z" fill="rgb(227,73,2)" fill-opacity="0.3"></path>
<path d="M571.1 271l3.5 0l0 -2.1l-3.5 0Z" fill="rgb(227,73,2)" fill-opacity="0.3"></path>
<path d="M576.1 271l3.5 0l0 -2.1l-3.5 0Z" fill="rgb(227,73,2)" fill-opacity="0.3"></path>
<path d="M581.1 271l3.5 0l0 -2.1l-3.5 0Z" fill="rgb(227,73,2)" fill-opacity="0.3"></path>
<path d="M586.2 271l3.5 0l0 -1.4l-3.5 0Z" fill="rgb(227,73,2)" fill-opacity="0.3"></path>
<path d="M591.2 271l3.5 0l0 -1.4l-3.5 0Z" fill="rgb(227,73,2)" fill-opacity="0.3"></path>
<path d="M596.2 271l3.5 0l0 -1.4l-3.5 0Z" fill="rgb(227,73,2)" fill-opacity="0.3"></path>
<path d="M601.2 271l3.5 0l0 -1.4l-3.5 0Z" fill="rgb(227,73,2)" fill-opacity="0.3"></path>
<path d="M606.2 271l3.5 0l0 -1.4l-3.5 0Z" fill="rgb(227,73,2)" fill-opacity="0.3"></path>
<path d="M611.3 271l3.5 0l0 -1.4l-3.5 0Z" fill="rgb(227,73,2)" fill-opacity="0.3"></path>
<path d="M616.3 271l3.5 0l0 -0.7l-3.5 0Z" fill="rgb(227,73,2)" fill-opacity="0.3"></path>
<path d="M621.3 271l3.5 0l0 -0.7l-3.5 0Z" fill="rgb(227,73,2)" fill-opacity="0.3"></path>
<path d="M626.3 271l3.5 0l0 -0.7l-3.5 0Z" fill="rgb(227,73,2)" fill-opacity="0.3"></path>
<path d="M631.3 271l3.5 0l0 -0.7l-3.5 0Z" fill="rgb(227,73,2)" fill-opacity="0.3"></path>
<path d="M636.4 271l3.5 0l0 -0.7l-3.5 0Z" fill="rgb(227,73,2)" fill-opacity="0.3"></path>
<path d="M641.4 271l3.5 0l0 -0.7l-3.5 0Z" fill="rgb(227,73,2)" fill-opacity="0.3"></path>
<path d="M646.4 271l3.5 0l0 -0.7l-3.5 0Z" fill="rgb(227,73,2)" fill-opacity="0.3"></path>
<path d="M651.4 271l3.5 0l0 -0.7l-3.5 0Z" fill="rgb(227,73,2)" fill-opacity="0.3"></path>
<path d="M656.5 271l3.5 0l0 -0.7l-3.5 0Z" fill="rgb(227,73,2)" fill-opacity="0.3"></path>
<path d="M661.5 271l3.5 0l0 -0.7l-3.5 0Z" fill="rgb(227,73,2)" fill-opacity="0.3"></path>
<path d="M666.5 271l3.5 0l0 -0.7l-3.5 0Z" fill="rgb(227,73,2)" fill-opacity="0.3"></path>
<path d="M671.5 271l3.5 0l0 -0.7l-3.5 0Z" fill="rgb(227,73,2)" fill-opacity="0.3"></path>
<path d="M676.5 271l3.5 0l0 -0.7l-3.5 0Z" fill="rgb(227,73,2)" fill-opacity="0.3"></path>
<path d="M681.6 271l3.5 0l0 -0.7l-3.5 0Z" fill="rgb(227,73,2)" fill-opacity="0.3"></path>
<path d="M686.6 271l3.5 0l0 -0.7l-3.5 0Z" fill="rgb(227,73,2)" fill-opacity="0.3"></path>
<path d="M691.6 271l3.5 0l0 -0.7l-3.5 0Z" fill="rgb(227,73,2)" fill-opacity="0.3"></path>
<path d="M696.6 271l3.5 0l0 -0.7l-3.5 0Z" fill="rgb(227,73,2)" fill-opacity="0.3"></path>
<path d="M701.6 271l3.5 0l0 -0.7l-3.5 0Z" fill="rgb(227,73,2)" fill-opacity="0.3"></path>
<path d="M706.7 271l3.5 0l0 -0.7l-3.5 0Z" fill="rgb(227,73,2)" fill-opacity="0.3"></path>
<path d="M711.7 271l3.5 0l0 -0.7l-3.5 0Z" fill="rgb(227,73,2)" fill-opacity="0.3"></path>
<path d="M716.7 271l3.5 0l0 -0.7l-3.5 0Z" fill="rgb(227,73,2)" fill-opacity="0.3"></path>
<path d="M721.7 271l3.5 0l0 -0.7l-3.5 0Z" fill="rgb(227,73,2)" fill-opacity="0.3"></path>
<path d="M726.8 271l3.5 0l0 -0.7l-3.5 0Z" fill="rgb(227,73,2)" fill-opacity="0.3"></path>
<path d="M731.8 271l3.5 0l0 -0.7l-3.5 0Z" fill="rgb(227,73,2)" fill-opacity="0.3"></path>
<path d="M736.8 271l3.5 0l0 -0.7l-3.5 0Z" fill="rgb(227,73,2)" fill-opacity="0.3"></path>
<path d="M741.8 271l3.5 0l0 -0.7l-3.5 0Z" fill="rgb(227,73,2)" fill-opacity="0.3"></path>
<path d="M746.8 271l3.5 0l0 -0.7l-3.5 0Z" fill="rgb(227,73,2)" fill-opacity="0.3"></path>
<path d="M751.9 271l3.5 0l0 -0.7l-3.5 0Z" fill="rgb(227,73,2)" fill-opacity="0.3"></path>
<path d="M756.9 271l3.5 0l0 -0.7l-3.5 0Z" fill="rgb(227,73,2)" fill-opacity="0.3"></path>
<path d="M761.9 271l3.5 0l0 -0.7l-3.5 0Z" fill="rgb(227,73,2)" fill-opacity="0.3"></path>
<path d="M766.9 271l3.5 0l0 -0.7l-3.5 0Z" fill="rgb(227,73,2)" fill-opacity="0.3"></path>
<path d="M771.9 271l3.5 0l0 -0.7l-3.5 0Z" fill="rgb(227,73,2)" fill-opacity="0.3"></path>
<path d="M777 271l3.5 0l0 -0.7l-3.5 0Z" fill="rgb(227,73,2)" fill-opacity="0.3"></path>
<path d="M782 271l3.5 0l0 -0.7l-3.5 0Z" fill="rgb(227,73,2)" fill-opacity="0.3"></path>
<path d="M787 271l3.5 0l0 -0.7l-3.5 0Z" fill="rgb(227,73,2)" fill-opacity="0.3"></path>
<path d="M792 271l3.5 0l0 -0.7l-3.5 0Z" fill="rgb(227,73,2)" fill-opacity="0.3"></path>
<path d="M797 271l3.5 0l0 -0.7l-3.5 0Z" fill="rgb(227,73,2)" fill-opacity="0.3"></path>
<path d="M802.1 271l3.5 0l0 -0.7l-3.5 0Z" fill="rgb(227,73,2)" fill-opacity="0.3"></path>
<path d="M807.1 271l3.5 0l0 -0.7l-3.5 0Z" fill="rgb(227,73,2)" fill-opacity="0.3"></path>
<path d="M812.1 271l3.5 0l0 -0.7l-3.5 0Z" fill="rgb(227,73,2)" fill-opacity="0.3"></path>
<path d="M817.1 271l3.5 0l0 -0.7l-3.5 0Z" fill="rgb(227,73,2)" fill-opacity="0.3"></path>
<path d="M822.2 271l3.5 0l0 -0.7l-3.5 0Z" fill="rgb(227,73,2)" fill-opacity="0.3"></path>
<path d="M827.2 271l3.5 0l0 -0.7l-3.5 0Z" fill="rgb(227,73,2)" fill-opacity="0.3"></path>
<path d="M832.2 271l3.5 0l0 -0.7l-3.5 0Z" fill="rgb(227,73,2)" fill-opacity="0.3"></path>
<path d="M837.2 271l3.5 0l0 -0.7l-3.5 0Z" fill="rgb(227,73,2)" fill-opacity="0.3"></path>
<path d="M842.2 271l3.5 0l0 -0.7l-3.5 0Z" fill="rgb(227,73,2)" fill-opacity="0.3"></path>
<path d="M847.3 271l3.5 0l0 -0.7l-3.5 0Z" fill="rgb(227,73,2)" fill-opacity="0.3"></path>
<path d="M852.3 271l3.5 0l0 -0.7l-3.5 0Z" fill="rgb(227,73,2)" fill-opacity="0.3"></path>
<path d="M857.3 271l3.5 0l0 -0.7l-3.5 0Z" fill="rgb(227,73,2)" fill-opacity="0.3"></path>
<path d="M862.3 271l3.5 0l0 -0.7l-3.5 0Z" fill="rgb(227,73,2)" fill-opacity="0.3"></path>
<path d="M867.3 271l3.5 0l0 -0.7l-3.5 0Z" fill="rgb(227,73,2)" fill-opacity="0.3"></path>
<path d="M872.4 271l3.5 0l0 -0.7l-3.5 0Z" fill="rgb(227,73,2)" fill-opacity="0.3"></path>
<path d="M877.4 271l3.5 0l0 -0.7l-3.5 0Z" fill="rgb(227,73,2)" fill-opacity="0.3"></path>
<path d="M882.4 271l3.5 0l0 -0.7l-3.5 0Z" fill="rgb(227,73,2)" fill-opacity="0.3"></path>
<path d="M887.4 271l3.5 0l0 -0.7l-3.5 0Z" fill="rgb(227,73,2)" fill-opacity="0.3"></path>
<path d="M892.4 271l3.5 0l0 -0.7l-3.5 0Z" fill="rgb(227,73,2)" fill-opacity="0.3"></path>
<path d="M897.5 271l3.5 0l0 -0.7l-3.5 0Z" fill="rgb(227,73,2)" fill-opacity="0.3"></path>
<path d="M902.5 271l3.5 0l0 -0.7l-3.5 0Z" fill="rgb(227,73,2)" fill-opacity="0.3"></path>
<path d="M907.5 271l3.5 0l0 -0.7l-3.5 0Z" fill="rgb(227,73,2)" fill-opacity="0.3"></path>
<path d="M912.5 271l3.5 0l0 -0.7l-3.5 0Z" fill="rgb(227,73,2)" fill-opacity="0.3"></path>
<path d="M917.6 271l3.5 0l0 -0.7l-3.5 0Z" fill="rgb(227,73,2)" fill-opacity="0.3"></path>
<path d="M922.6 271l3.5 0l0 -0.7l-3.5 0Z" fill="rgb(227,73,2)" fill-opacity="0.3"></path>
<path d="M927.6 271l3.5 0l0 0l-3.5 0Z" fill="rgb(227,73,2)" fill-opacity="0.3"></path>
<path d="M-5 -5l226.9 0l0 24l-226.9 0Z" transform="translate(391.54 5)" fill="rgb(0,0,0)" fill-opacity="0" stroke="#ccc" stroke-width="0"></path>
<path d="M3.5 0L21.5 0A3.5 3.5 0 0 1 25 3.5L25 10.5A3.5 3.5 0 0 1 21.5 14L3.5 14A3.5 3.5 0 0 1 0 10.5L0 3.5A3.5 3.5 0 0 1 3.5 0" transform="translate(391.54 5)" fill="rgb(227,73,2)" fill-opacity="0.3"></path>
<text dominant-baseline="central" text-anchor="start" style="font-size:12px;font-family:sans-serif;" xml:space="preserve" x="30" y="7" transform="translate(391.54 5)" fill="#333">Times completed</text>
<path d="M0 7L25 7" transform="translate(524.1 5)" fill="#000" stroke="#E34902" stroke-width="2" stroke-linecap="butt" stroke-miterlimit="10"></path>
<path d="M18.1 7A5.6 5.6 0 1 1 18.1 6.4A5.6 5.6 0 0 1 18.1 7" transform="translate(524.1 5)" fill="#fff" stroke="#E34902" stroke-width="2" stroke-linecap="butt" stroke-miterlimit="10"></path>
<text dominant-baseline="central" text-anchor="start" style="font-size:12px;font-family:sans-serif;" x="30" y="7" transform="translate(524.1 5)" fill="#333">Eddington</text>
<path d="M-0.54 -0.89A0.6 0.6 0 1 1 0.54 -0.89C0.39 -0.56 0 -0.42 0 0C0 -0.42 -0.39 -0.56 -0.54 -0.89Z" transform="matrix(25,0,0,25,321.7703,228.7233)" fill="rgb(227,73,2)" fill-opacity="0.8"></path>
<text dominant-baseline="central" text-anchor="middle" style="font-size:12px;font-family:sans-serif;" transform="translate(321.7703 202.5805)" fill="#eee" stroke="rgb(227,73,2)" stroke-width="2" paint-order="stroke" stroke-opacity="0.8" stroke-miterlimit="2">53</text>
<g clip-path="url(#zr0-c0)">
<path d="M60.7 270.3L65.7 269.6L70.7 268.9L75.7 268.2L80.8 267.5L85.8 266.8L90.8 266.1L95.8 265.4L100.8 264.7L105.9 264L110.9 263.3L115.9 262.6L120.9 261.9L125.9 261.2L131 260.5L136 259.7L141 259L146 258.3L151.1 257.6L156.1 256.9L161.1 256.2L166.1 255.5L171.1 254.8L176.2 254.1L181.2 253.4L186.2 252.7L191.2 252L196.2 251.3L201.3 250.6L206.3 249.9L211.3 249.2L216.3 248.5L221.3 247.8L226.4 247.1L231.4 246.4L236.4 245.7L241.4 245L246.5 244.3L251.5 243.6L256.5 242.9L261.5 242.2L266.5 241.5L271.6 240.8L276.6 240.1L281.6 239.4L286.6 238.6L291.6 237.9L296.7 237.2L301.7 236.5L306.7 235.8L311.7 235.1L316.7 234.4L321.8 233.7L326.8 233L331.8 232.3L336.8 231.6L341.9 230.9L346.9 230.2L351.9 229.5L356.9 228.8L361.9 228.1L367 227.4L372 226.7L377 226L382 225.3L387 224.6L392.1 223.9L397.1 223.2L402.1 222.5L407.1 221.8L412.2 221.1L417.2 220.4L422.2 219.7L427.2 219L432.2 218.3L437.3 217.5L442.3 216.8L447.3 216.1L452.3 215.4L457.3 214.7L462.4 214L467.4 213.3L472.4 212.6L477.4 211.9L482.4 211.2L487.5 210.5L492.5 209.8L497.5 209.1L502.5 208.4L507.6 207.7L512.6 207L517.6 206.3L522.6 205.6L527.6 204.9L532.7 204.2L537.7 203.5L542.7 202.8L547.7 202.1L552.7 201.4L557.8 200.7L562.8 200L567.8 199.3L572.8 198.6L577.8 197.9L582.9 197.1L587.9 196.4L592.9 195.7L597.9 195L603 194.3L608 193.6L613 192.9L618 192.2L623 191.5L628.1 190.8L633.1 190.1L638.1 189.4L643.1 188.7L648.1 188L653.2 187.3L658.2 186.6L663.2 185.9L668.2 185.2L673.3 184.5L678.3 183.8L683.3 183.1L688.3 182.4L693.3 181.7L698.4 181L703.4 180.3L708.4 179.6L713.4 178.9L718.4 178.2L723.5 177.5L728.5 176.8L733.5 176.1L738.5 175.3L743.5 174.6L748.6 173.9L753.6 173.2L758.6 172.5L763.6 171.8L768.7 171.1L773.7 170.4L778.7 169.7L783.7 169L788.7 168.3L793.8 167.6L798.8 166.9L803.8 166.2L808.8 165.5L813.8 164.8L818.9 164.1L823.9 163.4L828.9 162.7L833.9 162L838.9 161.3L844 160.6L849 159.9L854 159.2L859 158.5L864.1 157.8L869.1 157.1L874.1 156.4L879.1 155.7L884.1 154.9L889.2 154.2L894.2 153.5L899.2 152.8L904.2 152.1L909.2 151.4L914.3 150.7L919.3 150L924.3 149.3L929.3 148.6" fill="none" stroke="#E34902" stroke-width="2" stroke-linejoin="bevel"></path>
</g>
<defs >
<clipPath id="zr0-c0">
<path d="M57 59l876 0l0 213l-876 0Z" fill="#000"></path>
</clipPath>
</defs>
</svg>