<svg width="1000" height="400" xmlns="http://www.w3.org/2000/svg" xmlns:xlink="http://www.w3.org/1999/xlink" version="1.1" baseProfile="full" viewBox="0 0 1000 400">
<rect width="1000" height="400" x="0" y="0" id="0" fill="#ffffff"></rect>
<path d="M85 368.5L960 368.5" fill="none" stroke="#E0E6F1"></path>
<path d="M85 306.5L960 306.5" fill="none" stroke="#E0E6F1"></path>
<path d="M85 245.5L960 245.5" fill="none" stroke="#E0E6F1"></path>
<path d="M85 183.5L960 183.5" fill="none" stroke="#E0E6F1"></path>
<path d="M85 121.5L960 121.5" fill="none" stroke="#E0E6F1"></path>
<path d="M85 60.5L960 60.5" fill="none" stroke="#E0E6F1"></path>
<text dominant-baseline="central" text-anchor="middle" style="font-size:12px;font-family:sans-serif;" xml:space="preserve" y="-6" transform="matrix(0,-1,1,0,34.96,214)" fill="#6E7079">Distance in km</text>
<path d="M85 368.5L960 368.5" fill="none" stroke="#6E7079" stroke-linecap="round"></path>
<text dominant-baseline="central" text-anchor="end" style="font-size:12px;font-family:sans-serif;" transform="translate(76.96 368)" fill="#6E7079">0</text>
<text dominant-baseline="central" text-anchor="end" style="font-size:12px;font-family:sans-serif;" transform="translate(76.96 306.4)" fill="#6E7079">2,000</text>
<text dominant-baseline="central" text-anchor="end" style="font-size:12px;font-family:sans-serif;" transform="translate(76.96 244.8)" fill="#6E7079">4,000</text>
<text dominant-baseline="central" text-anchor="end" style="font-size:12px;font-family:sans-serif;" transform="translate(76.96 183.2)" fill="#6E7079">6,000</text>
<text dominant-baseline="central" text-anchor="end" style="font-size:12px;font-family:sans-serif;" transform="translate(76.96 121.6)" fill="#6E7079">8,000</text>
<text dominant-baseline="central" text-anchor="end" style="font-size:12px;font-family:sans-serif;" transform="translate(76.96 60)" fill="#6E7079">10,000</text>
<text dominant-baseline="central" text-anchor="middle" style="font-size:12px;font-family:sans-serif;" y="6" transform="translate(86.1361 376)" fill="#6E7079">Jan</text>
<text dominant-baseline="central" text-anchor="middle" style="font-size:12px;font-family:sans-serif;" y="6" transform="translate(161.4084 376)" fill="#6E7079">Feb</text>
<text dominant-baseline="central" text-anchor="middle" style="font-size:12px;font-family:sans-serif;" y="6" transform="translate(236.6806 376)" fill="#6E7079">Mar</text>
<text dominant-baseline="central" text-anchor="middle" style="font-size:12px;font-family:sans-serif;" y="6" transform="translate(311.9529 376)" fill="#6E7079">Apr</text>
<text dominant-baseline="central" text-anchor="middle" style="font-size:12px;font-family:sans-serif;" y="6" transform="translate(387.2252 376)" fill="#6E7079">May</text>
<text dominant-baseline="central" text-anchor="middle" style="font-size:12px;font-family:sans-serif;" y="6" transform="translate(462.4974 376)" fill="#6E7079">Jun</text>
<text dominant-baseline="central" text-anchor="middle" style="font-size:12px;font-family:sans-serif;" y="6" transform="translate(537.7697 376)" fill="#6E7079">Jul</text>
<text dominant-baseline="central" text-anchor="middle" style="font-size:12px;font-family:sans-serif;" y="6" transform="translate(613.0419 376)" fill="#6E7079">Aug</text>
<text dominant-baseline="central" text-anchor="middle" style="font-size:12px;font-family:sans-serif;" y="6" transform="translate(688.3142 376)" fill="#6E7079">Sep</text>
<text dominant-baseline="central" text-anchor="middle" style="font-size:12px;font-family:sans-serif;" y="6" transform="translate(763.5865 376)" fill="#6E7079">Oct</text>
<text dominant-baseline="central" text-anchor="middle" style="font-size:12px;font-family:sans-serif;" y="6" transform="translate(838.8587 376)" fill="#6E7079">Nov</text>
<text dominant-baseline="central" text-anchor="middle" style="font-size:12px;font-family:sans-serif;" y="6" transform="translate(914.131 376)" fill="#6E7079">Dec</text>
<g clip-path="url(#zr4-c0)">
<path d="M86.1 367.8C86.1 367.8 87.3 367.8 88.5 367.6C89.7 367.5 89.7 367.5 90.8 367.3C92 367.1 92.1 367.1 93.2 366.7C94.4 366.3 94.4 366.2 95.5 365.6C96.8 365 96.7 364.9 97.9 364.2C99 363.5 99 363.4 100.2 363C101.4 362.6 101.5 363 102.6 362.5C103.9 362 103.7 361.6 105 360.8C106.1 360.1 106.1 359.7 107.3 359.5C108.4 359.3 108.5 359.3 109.7 359.3C110.8 359.3 110.9 359.3 112 359.3C113.3 359.3 113.2 358.6 114.4 357.8C115.5 357.1 115.5 356.9 116.7 356.3C117.8 355.8 118 356.3 119.1 355.7C120.4 355 120.2 354.7 121.4 353.8C122.6 353 122.5 352.4 123.8 352.2C124.8 352.1 124.9 352.1 126.1 352.1C127.3 352.1 127.5 352.1 128.5 352.1C129.8 352.1 129.6 350.9 130.8 349.9C131.9 349 132 349 133.2 348.3C134.3 347.6 134.3 347.4 135.5 347.1C136.6 346.7 136.8 347.1 137.9 346.7C139.1 346.3 139.1 346 140.2 345.4C141.4 344.7 141.4 344.7 142.6 344.1C143.7 343.6 143.9 343.9 144.9 343.2C146.3 342.4 145.9 341.1 147.3 341.1C148.3 341.1 148.6 341.1 149.6 341.1C150.9 341.1 150.9 340.4 152 339.5C153.2 338.5 153 337.6 154.4 337.4C155.4 337.2 155.5 337.3 156.7 337.2C157.9 337.2 158 337.2 159.1 337.1C160.3 336.9 160.2 336.4 161.4 335.6C162.6 334.8 162.5 334.7 163.8 334C164.9 333.3 164.9 332.7 166.1 332.7C167.2 332.7 167.4 332.7 168.5 332.7C169.8 332.7 169.5 330.9 170.8 330.9C171.9 330.9 172.1 330.9 173.2 330.9C174.5 330.9 174.2 329.3 175.5 329.3C176.6 329.3 176.8 329.3 177.9 329.3C179.1 329.3 179.1 328.7 180.2 328C181.4 327.3 181.3 326.8 182.6 326.4C183.6 326.1 183.8 326.4 184.9 326.1C186.2 325.8 186 325 187.3 325C188.4 325 188.6 325 189.6 325C190.9 325 190.8 324.1 192 323.4C193.1 322.8 193.2 323 194.3 322.4C195.6 321.6 195.4 321 196.7 320.5C197.7 320.1 197.9 320.1 199 320.1C200.2 320.1 200.3 320.1 201.4 320.1C202.7 320.1 202.5 319.2 203.7 318.5C204.9 317.9 204.9 317.5 206.1 317.5C207.2 317.5 207.3 317.5 208.5 317.5C209.7 317.5 209.7 317.1 210.8 316.4C212.1 315.6 211.9 315.4 213.2 314.5C214.3 313.6 214.2 313.3 215.5 313C216.6 312.7 216.7 313 217.9 312.7C219.1 312.3 219 311.9 220.2 311.7C221.4 311.6 221.5 311.7 222.6 311.6C223.9 311.4 223.7 310.6 224.9 309.9C226 309.3 226.2 309.6 227.3 309C228.5 308.4 228.4 308 229.6 307.3C230.7 306.7 230.9 307.1 232 306.5C233.2 305.8 233.1 305.6 234.3 304.7C235.5 303.9 235.4 303.1 236.7 303.1C237.7 303.1 238 303.1 239 303.1C240.3 303.1 240.2 302.3 241.4 301.6C242.6 300.8 242.5 300.3 243.7 300.1C244.8 299.9 245 300.1 246.1 299.9C247.4 299.7 247.4 299.3 248.4 298.4C249.7 297.3 249.5 297 250.8 295.9C251.8 295 251.9 294.9 253.1 294.5C254.2 294.1 254.4 294.5 255.5 294.1C256.7 293.8 256.6 293.3 257.9 293C259 292.8 259.1 293 260.2 292.8C261.5 292.5 261.4 292.2 262.6 291.4C263.8 290.5 263.7 290.4 264.9 289.5C266 288.8 266.3 289.1 267.3 288.2C268.7 286.7 268.2 286.2 269.6 284.7C270.5 283.8 270.7 283.3 272 283.3C273 283.3 273.2 283.3 274.3 283.3C275.6 283.3 275.4 282.1 276.7 281.9C277.8 281.6 277.9 281.9 279 281.6C280.3 281.3 280.3 281.1 281.4 280.4C282.6 279.6 282.5 279.5 283.7 278.7C284.9 277.9 284.8 277.3 286.1 277.3C287.2 277.3 287.3 277.3 288.4 277.3C289.7 277.3 289.5 275.9 290.8 275.9C291.9 275.9 292 275.9 293.1 275.9C294.3 275.9 294.4 275.9 295.5 275.8C296.7 275.7 296.7 275.2 297.8 274.6C299 274 299 274 300.2 273.4C301.4 272.8 301.3 272.2 302.5 272.2C303.7 272.2 303.7 272.2 304.9 272.2C306.1 272.2 306.2 272.2 307.2 272.2C308.5 272.2 308.4 271.4 309.6 270.6C310.8 269.8 310.8 269.8 312 268.9C313.2 267.9 312.9 266.6 314.3 266.6C315.3 266.6 315.6 266.6 316.7 266.6C317.9 266.6 317.8 265.9 319 265.1C320.2 264.3 320.1 263.8 321.4 263.6C322.4 263.4 322.6 263.6 323.7 263.4C325 263.3 324.8 262.2 326.1 262C327.2 261.9 327.3 262 328.4 261.9C329.7 261.7 329.5 260.7 330.8 260.7C331.9 260.7 332 260.7 333.1 260.7C334.3 260.7 334.4 260.3 335.5 259.7C336.7 259.1 336.5 258.2 337.8 258.2C338.9 258.2 339.1 258.2 340.2 258.2C341.4 258.2 341.4 257.6 342.5 257.1C343.7 256.5 343.8 256.7 344.9 256C346.1 255.2 345.9 254.2 347.2 254.2C348.3 254.2 348.5 254.2 349.6 254.2C350.9 254.2 350.7 252.7 351.9 252.7C353 252.7 353.2 252.7 354.3 252.7C355.6 252.7 355.4 251.3 356.6 251.1C357.7 251 357.9 251.1 359 251C360.2 250.8 360.2 250.6 361.4 250.1C362.6 249.6 362.5 249.5 363.7 249C364.9 248.5 364.9 248.7 366.1 248.1C367.3 247.6 367.2 246.8 368.4 246.8C369.5 246.8 369.6 246.8 370.8 246.8C371.9 246.8 371.9 246.8 373.1 246.8C374.3 246.8 374.3 246.8 375.5 246.8C376.6 246.8 376.8 246.8 377.8 246.8C379.2 246.8 378.8 244.6 380.2 244.6C381.2 244.6 381.4 244.6 382.5 244.6C383.8 244.6 383.7 243.9 384.9 243.1C386.1 242.3 385.9 241.5 387.2 241.5C388.3 241.5 388.5 241.5 389.6 241.5C390.9 241.5 390.8 240.8 391.9 239.9C393.2 238.9 392.9 238.2 394.3 237.7C395.3 237.3 395.5 237.7 396.6 237.3C397.9 236.9 397.9 236.8 399 236C400.2 235.2 400.1 235 401.3 234.2C402.4 233.5 402.5 233.5 403.7 233.1C404.8 232.8 404.9 233.1 406 232.8C407.3 232.4 407.2 232.2 408.4 231.5C409.6 230.8 409.5 230 410.7 230C411.8 230 412 230 413.1 230C414.4 230 414.3 229.2 415.5 228.4C416.6 227.5 416.6 227.5 417.8 226.6C419 225.7 418.8 224.9 420.2 224.7C421.2 224.6 421.4 224.7 422.5 224.6C423.8 224.4 423.7 224 424.9 223.3C426.1 222.6 426 222.4 427.2 221.6C428.3 220.9 428.3 220.5 429.6 220.5C430.7 220.5 431 220.5 431.9 220.5C433.3 220.5 432.9 218 434.3 218C435.2 218 435.6 218 436.6 218C437.9 218 437.8 217.2 439 216.4C440.1 215.6 440 214.8 441.3 214.8C442.4 214.8 442.5 214.8 443.7 214.8C444.9 214.8 444.9 214.6 446 214C447.3 213.4 447.1 212.4 448.4 212.4C449.4 212.4 449.6 212.4 450.7 212.4C452 212.4 451.8 211.5 453.1 211.1C454.2 210.8 454.3 211.1 455.4 210.8C456.6 210.5 456.7 210.6 457.8 210C459.1 209.3 458.9 208.6 460.1 208.3C461.2 208.1 461.3 208.2 462.5 208.1C463.7 208 463.7 208.1 464.8 207.9C466 207.7 466.1 207.8 467.2 207.3C468.4 206.8 468.3 206.1 469.6 206.1C470.7 206.1 470.8 206.1 471.9 206.1C473.1 206.1 473.1 205.5 474.3 204.9C475.4 204.3 475.4 203.7 476.6 203.7C477.7 203.7 477.8 203.7 479 203.7C480.2 203.7 480.1 203.2 481.3 202.8C482.5 202.5 482.6 202.8 483.7 202.4C484.9 201.9 484.8 201.7 486 201C487.2 200.4 487.1 199.7 488.4 199.7C489.5 199.7 489.5 199.7 490.7 199.7C491.9 199.7 491.9 199.7 493.1 199.7C494.3 199.7 494.3 199.4 495.4 198.8C496.6 198.2 496.6 198.1 497.8 197.5C499 196.8 498.9 196.7 500.1 196.2C501.3 195.7 501.3 195.7 502.5 195.3C503.6 195 503.8 195.3 504.8 194.8C506.1 194.3 505.9 193.9 507.2 193.2C508.3 192.6 508.3 192.2 509.5 192.2C510.7 192.2 510.8 192.2 511.9 192.2C513.1 192.2 513.1 191.7 514.2 191.1C515.5 190.4 515.4 190.3 516.6 189.6C517.7 189 517.8 189 519 188.5C520.1 187.9 520.1 187.9 521.3 187.3C522.5 186.7 522.5 186.8 523.7 186.1C524.9 185.3 524.7 184.3 526 184.3C527.1 184.3 527.3 184.3 528.4 184.3C529.6 184.3 529.5 183.6 530.7 183C531.9 182.4 531.8 182 533.1 182C534.2 182 534.4 182 535.4 182C536.7 182 536.5 180.8 537.8 180.4C538.8 180.1 538.9 180.2 540.1 180.1C541.3 180 541.4 180.1 542.5 179.9C543.7 179.7 543.6 179.2 544.8 178.5C546 177.8 545.9 177.7 547.2 177.2C548.3 176.7 548.5 177 549.5 176.5C550.8 175.8 550.7 175.6 551.9 174.7C553.1 173.9 552.9 173 554.2 173C555.3 173 555.5 173 556.6 173C557.8 173 557.7 172.2 558.9 171.7C560.1 171.2 560.2 171.6 561.3 171C562.6 170.3 562.4 169.9 563.6 169C564.8 168.2 564.8 168.4 566 167.6C567.2 166.9 567.1 166 568.3 166C569.4 166 569.5 166 570.7 166C571.9 166 572 166 573.1 166C574.3 166 574.2 165.2 575.4 164.4C576.6 163.7 576.5 163.1 577.8 163.1C578.9 163.1 578.9 163.1 580.1 163.1C581.3 163.1 581.3 163.1 582.5 163.1C583.6 163.1 583.7 163.1 584.8 162.9C586.1 162.6 586 162 587.2 161.3C588.3 160.6 588.3 160.6 589.5 160C590.7 159.4 590.6 158.8 591.9 158.8C593 158.8 593.2 158.8 594.2 158.8C595.6 158.8 595.3 157.8 596.6 156.8C597.7 156 598.9 155.3 598.9 155.3" fill="none" stroke="#5470c6" stroke-width="2" stroke-linejoin="bevel"></path>
</g>
<g clip-path="url(#zr4-c1)">
<path d="M86.1 368C86.1 368 87.3 368 88.5 368C89.7 368 89.7 368 90.8 368C92 368 92 368 93.2 368C94.4 368 94.4 368 95.5 368C96.7 368 96.7 368 97.9 368C99.1 368 99.1 368 100.2 368C101.4 368 101.4 368 102.6 368C103.8 368 103.8 368 105 368C106.1 368 106.1 368 107.3 368C108.5 368 108.5 368 109.7 368C110.8 368 110.8 368 112 368C113.2 368 113.2 368 114.4 368C115.5 368 115.5 368 116.7 368C117.9 368 117.9 368 119.1 368C120.2 368 120.2 368 121.4 368C122.6 368 122.6 368 123.8 368C124.9 368 124.9 368 126.1 368C127.3 368 127.3 368 128.5 368C129.7 368 129.7 368 130.8 368C132 368 132 368 133.2 368C134.4 368 134.4 368 135.5 368C136.7 368 136.7 368 137.9 368C139.1 368 139.1 368 140.2 368C141.4 368 141.4 368 142.6 368C143.8 368 143.8 368 144.9 368C146.1 368 146.1 368 147.3 368C148.5 368 148.5 368 149.6 368C150.8 368 150.8 368 152 368C153.2 368 153.2 368 154.4 368C155.5 368 155.5 368 156.7 368C157.9 368 157.9 368 159.1 368C160.2 368 160.2 368 161.4 368C162.6 368 162.6 368 163.8 368C164.9 368 164.9 368 166.1 368C167.3 368 167.3 368 168.5 368C169.6 368 169.6 368 170.8 368C172 368 172 368 173.2 368C174.3 368 174.3 368 175.5 368C176.7 368 176.7 368 177.9 368C179.1 368 179.1 368 180.2 368C181.4 368 181.4 368 182.6 368C183.8 368 183.8 368 184.9 368C186.1 368 186.1 368 187.3 368C188.5 368 188.5 368 189.6 368C190.8 368 190.8 368 192 368C193.2 368 193.2 368 194.3 368C195.5 368 195.5 368 196.7 368C197.9 368 197.9 368 199 368C200.2 368 200.2 368 201.4 368C202.6 368 202.6 368 203.7 368C204.9 368 204.9 368 206.1 368C207.3 368 207.3 368 208.5 368C209.6 368 209.6 368 210.8 368C212 368 212 368 213.2 368C214.3 368 214.3 368 215.5 368C216.7 368 216.7 368 217.9 368C219 368 219 368 220.2 368C221.4 368 221.4 368 222.6 368C223.7 368 223.7 368 224.9 368C226.1 368 226.1 368 227.3 368C228.4 368 228.4 368 229.6 368C230.8 368 230.8 368 232 368C233.2 368 233.2 368 234.3 368C235.5 368 235.5 368 236.7 368C237.9 368 237.9 368 239 368C240.2 368 240.2 368 241.4 368C242.6 368 242.6 368 243.7 368C244.9 368 244.9 368 246.1 368C247.3 368 247.3 368 248.4 368C249.6 368 249.6 368 250.8 368C252 368 252 368 253.1 368C254.3 368 254.3 368 255.5 368C256.7 368 256.7 368 257.9 368C259 368 259 368 260.2 368C261.4 368 261.4 368 262.6 368C263.7 368 263.7 368 264.9 368C266.1 368 266.1 368 267.3 368C268.4 368 268.4 368 269.6 368C270.8 368 270.8 368 272 368C273.1 368 273.1 368 274.3 368C275.5 368 275.5 368 276.7 368C277.8 368 277.8 368 279 368C280.2 368 280.2 368 281.4 368C282.5 368 282.5 368 283.7 368C284.9 368 284.9 368 286.1 368C287.3 368 287.3 368 288.4 368C289.6 368 289.6 368 290.8 368C292 368 292 367.6 293.1 367.6C294.3 367.6 294.3 367.6 295.5 367.6C296.7 367.6 296.7 367.6 297.8 367.6C299 367.6 299 367.6 300.2 367.6C301.4 367.6 301.4 367.6 302.5 367.6C303.7 367.6 303.7 367.6 304.9 367.6C306.1 367.6 306.1 367.6 307.2 367.6C308.4 367.6 308.4 367.6 309.6 367.6C310.8 367.6 310.8 367.6 312 367.3C313.2 367 313.2 366.9 314.3 366.3C315.5 365.6 315.4 365.4 316.7 364.8C317.8 364.2 317.8 364 319 364C320.2 364 320.2 364 321.4 364C322.6 364 322.5 362.9 323.7 362.9C324.8 362.9 324.9 362.9 326.1 362.9C327.3 362.9 327.2 362.5 328.4 362.1C329.6 361.8 329.6 361.9 330.8 361.5C332 361.1 332 361.1 333.1 360.5C334.3 360 334.2 359.2 335.5 359.2C336.6 359.2 336.7 359.2 337.8 359.2C339 359.2 339 358.7 340.2 358.7C341.3 358.7 341.4 358.7 342.5 358.7C343.8 358.7 343.7 358.3 344.9 357.8C346.1 357.3 346 356.7 347.2 356.7C348.4 356.7 348.4 356.7 349.6 356.7C350.8 356.7 350.7 356 351.9 356C353.1 356 353.1 356 354.3 356C355.5 356 355.4 355.3 356.6 355.3C357.8 355.3 357.9 355.3 359 355.3C360.2 355.3 360.2 354.7 361.4 354.1C362.5 353.6 362.5 353.4 363.7 353.1C364.8 352.7 364.9 352.7 366.1 352.7C367.2 352.7 367.3 352.7 368.4 352.7C369.6 352.7 369.6 352.2 370.8 351.8C371.9 351.4 372 351.5 373.1 351.2C374.3 350.7 374.3 350.7 375.5 350.2C376.6 349.7 376.6 349.2 377.8 349.2C378.9 349.2 379.1 349.2 380.2 349.2C381.4 349.2 381.3 347.9 382.5 347.9C383.6 347.9 383.8 347.9 384.9 347.9C386.1 347.9 386.1 347.4 387.2 346.8C388.4 346.2 388.3 345.5 389.6 345.5C390.7 345.5 390.8 345.5 391.9 345.5C393.2 345.5 393.1 344.9 394.3 344.4C395.5 343.8 395.4 343.1 396.6 343.1C397.7 343.1 397.9 343.1 399 343.1C400.3 343.1 400.1 342.3 401.3 341.7C402.5 341.1 402.5 341.3 403.7 340.8C404.9 340.3 404.8 340.1 406 339.7C407.2 339.3 407.3 339.5 408.4 339.1C409.6 338.7 409.5 338 410.7 338C411.9 338 412 338 413.1 338C414.3 338 414.2 336.8 415.5 336.8C416.6 336.8 416.6 336.8 417.8 336.8C419 336.8 419 336.8 420.2 336.8C421.4 336.8 421.3 336.2 422.5 335.7C423.7 335.2 423.7 335.2 424.9 334.7C426 334.2 426 333.8 427.2 333.8C428.4 333.8 428.4 333.8 429.6 333.8C430.8 333.8 430.8 333.5 431.9 333.1C433.1 332.7 433.1 332.3 434.3 332.3C435.4 332.3 435.5 332.3 436.6 332.3C437.8 332.3 437.9 332.3 439 332C440.3 331.6 440.1 331 441.3 330.3C442.4 329.7 442.5 329.4 443.7 329.4C444.8 329.4 444.9 329.4 446 329.4C447.3 329.4 447.1 328.5 448.4 327.9C449.5 327.4 449.5 327.2 450.7 327.2C451.9 327.2 452 327.2 453.1 327.2C454.4 327.2 454.1 325.6 455.4 325.6C456.5 325.6 456.7 325.6 457.8 325.6C459.1 325.6 458.9 324.8 460.1 324.2C461.3 323.6 461.4 323.9 462.5 323.3C463.8 322.7 463.6 322.4 464.8 321.7C465.9 321.1 466 321.1 467.2 320.8C468.3 320.5 468.4 320.8 469.6 320.5C470.8 320.2 470.8 320.3 471.9 319.7C473.2 319 473 318.4 474.3 318C475.3 317.6 475.5 318 476.6 317.6C477.9 317.2 477.7 316.7 479 316C480.1 315.4 480.1 315.5 481.3 315C482.5 314.6 482.5 314.2 483.7 314.2C484.8 314.2 484.9 314.2 486 314.2C487.3 314.2 487.2 313.5 488.4 312.8C489.5 312.1 489.5 311.5 490.7 311.5C491.8 311.5 491.9 311.5 493.1 311.5C494.3 311.5 494.3 311.1 495.4 310.6C496.7 309.9 496.5 309.6 497.8 309C498.9 308.5 498.9 308.3 500.1 308.3C501.3 308.3 501.3 308.3 502.5 308.3C503.7 308.3 503.7 308.3 504.8 308.3C506.1 308.3 506 307.6 507.2 307C508.4 306.4 508.5 306.6 509.5 305.8C510.9 304.7 510.5 303.1 511.9 303.1C512.8 303.1 513.1 303.1 514.2 303.1C515.4 303.1 515.4 302.6 516.6 302.4C517.8 302.1 517.8 302.4 519 302.1C520.2 301.8 520.1 301.5 521.3 300.9C522.5 300.3 522.4 300.2 523.7 299.7C524.8 299.3 524.8 299 526 299C527.2 299 527.3 299 528.4 299C529.6 299 529.5 298.2 530.7 297.7C531.8 297.1 531.9 296.8 533.1 296.8C534.2 296.8 534.3 296.8 535.4 296.8C536.7 296.8 536.5 295.9 537.8 295.3C538.9 294.8 539 295 540.1 294.6C541.3 294.2 541.3 294.2 542.5 293.7C543.7 293.2 543.7 293.3 544.8 292.8C546.1 292.1 546 292.1 547.2 291.3C548.4 290.5 548.2 289.5 549.5 289.5C550.6 289.5 550.8 289.5 551.9 289.5C553.2 289.5 552.9 287.8 554.2 287.8C555.3 287.8 555.4 287.8 556.6 287.8C557.8 287.8 557.8 287.8 558.9 287.8C560.1 287.8 560.1 287.4 561.3 287C562.5 286.6 562.7 286.9 563.6 286.2C565 285.2 564.6 283.6 566 283.6C567 283.6 567.5 283.6 568.3 283.6C569.8 283.6 569.3 281.8 570.7 280.5C571.6 279.7 571.8 279.8 573.1 279.5C574.2 279.1 574.4 279.5 575.4 279.1C576.7 278.6 576.4 277.9 577.8 277.1C578.8 276.6 579.1 277.1 580.1 276.5C581.5 275.5 581.1 275 582.5 273.9C583.5 273.2 583.6 272.9 584.8 272.9C585.9 272.9 586.1 272.9 587.2 272.9C588.5 272.9 588.2 271 589.5 271C590.5 271 590.8 271 591.9 271C593.1 271 593 270.2 594.2 269.6C595.4 269.1 595.4 269.2 596.6 268.7C597.7 268.3 597.7 267.9 598.9 267.9C600.1 267.9 600.1 267.9 601.3 267.9C602.5 267.9 602.5 267.6 603.6 267C604.9 266.3 604.7 265.4 606 265.4C607 265.4 607.2 265.4 608.3 265.4C609.5 265.4 609.6 265.4 610.7 265.4C611.9 265.4 611.9 264.9 613 264.3C614.3 263.7 614.1 263.1 615.4 262.8C616.5 262.6 616.7 262.8 617.7 262.6C619 262.3 618.8 261.3 620.1 261C621.2 260.7 621.4 261 622.5 260.7C623.7 260.4 623.5 259 624.8 259C625.9 259 626 259 627.2 259C628.4 259 628.4 258.6 629.5 258.1C630.7 257.5 630.7 257.4 631.9 256.7C633.1 255.9 632.9 255.1 634.2 255.1C635.3 255.1 635.4 255.1 636.6 255.1C637.8 255.1 637.8 254.8 638.9 254.4C640.1 254 640.1 253.8 641.3 253.4C642.4 252.9 642.5 253 643.6 252.6C644.8 252.2 644.8 252.2 646 251.7C647.2 251.3 647.1 250.8 648.3 250.8C649.5 250.8 649.7 250.8 650.7 250.8C652 250.8 651.8 249.7 653 248.8C654.1 248 654.1 247.4 655.4 247.4C656.5 247.4 656.7 247.4 657.7 247.4C659.1 247.4 658.8 246.3 660.1 245.5C661.2 244.9 661.3 245.1 662.4 244.6C663.6 244.1 663.6 244 664.8 243.4C665.9 242.8 666 242.9 667.1 242.4C668.4 241.7 668.2 241.5 669.5 241C670.6 240.5 670.8 241 671.8 240.4C673.1 239.8 672.9 239.3 674.2 238.6C675.3 237.9 675.4 238.2 676.6 237.6C677.8 236.9 677.7 236.7 678.9 236.1C680 235.5 680.1 235.8 681.3 235.2C682.5 234.6 682.3 233.7 683.6 233.7C684.7 233.7 684.8 233.7 686 233.7C687.1 233.7 687.4 233.7 688.3 233.7C689.7 233.7 689.3 232.2 690.7 231.2C691.7 230.4 691.8 230.6 693 230.1C694.2 229.6 694.5 230 695.4 229.3C696.8 228.1 696.3 226.2 697.7 226.2C698.6 226.2 698.9 226.2 700.1 226.2C701.3 226.2 701.2 225.5 702.4 225.2C703.6 224.9 703.8 225.2 704.8 224.8C706.1 224.3 705.9 223.7 707.1 222.7C708.2 222 708.3 222 709.5 221.4C710.6 220.9 710.6 220.5 711.8 220.5C713 220.5 713.1 220.5 714.2 220.5C715.4 220.5 715.4 220 716.5 219.4C717.8 218.7 717.7 218.6 718.9 217.9C720 217.2 720.1 217.2 721.2 216.5C722.4 215.9 722.4 215.8 723.6 215.2C724.7 214.6 724.8 214.8 726 214.2C727.2 213.6 727 213.2 728.3 212.8C729.4 212.5 729.6 212.8 730.7 212.5C731.9 212.1 731.7 211.1 733 211.1C734.1 211.1 734.2 211.1 735.4 211.1C736.5 211.1 736.6 211.1 737.7 211.1C738.9 211.1 738.9 210.7 740.1 210.3C741.2 209.9 741.2 209.5 742.4 209.5C743.6 209.5 743.7 209.5 744.8 209.5C746.1 209.5 745.9 208.5 747.1 207.9C748.2 207.3 748.3 207.5 749.5 207.1C750.7 206.7 750.7 206.7 751.8 206.1C753 205.6 753 205.5 754.2 204.9C755.3 204.3 755.3 203.7 756.5 203.7C757.6 203.7 757.7 203.7 758.9 203.7C760.1 203.7 760.1 203.4 761.2 202.8C762.5 202.2 762.4 202 763.6 201.2C764.7 200.5 764.7 200 765.9 200C767 200 767.3 200 768.3 200C769.6 200 769.4 198.9 770.6 198C771.7 197.4 771.8 197.5 773 197C774.2 196.5 774.1 196 775.3 196C776.5 196 776.6 196 777.7 196C778.9 196 778.9 195.5 780.1 195C781.2 194.5 781.2 194.5 782.4 194.1C783.6 193.6 783.6 193.6 784.8 193.1C785.9 192.5 785.9 192.5 787.1 191.9C788.3 191.4 788.2 191.2 789.5 190.8C790.6 190.4 790.7 190.7 791.8 190.4C793 190.1 793.1 190.1 794.2 189.5C795.4 188.8 795.2 187.9 796.5 187.8C797.6 187.7 797.8 187.8 798.9 187.7C800.1 187.5 800.1 186.9 801.2 186.2C802.4 185.4 802.4 185.4 803.6 184.6C804.8 183.8 804.6 183 805.9 183C807 183 807.2 183 808.3 183C809.5 183 809.4 181.9 810.6 181.8C811.7 181.7 811.9 181.8 813 181.7C814.2 181.5 814.1 180.9 815.3 180.3C816.5 179.8 816.6 180 817.7 179.4C818.9 178.7 818.8 178.2 820 177.8C821.1 177.4 821.3 177.8 822.4 177.4C823.6 177.1 823.6 177 824.7 176.5C825.9 176 825.9 175.8 827.1 175.5C828.2 175.1 828.4 175.5 829.4 175.1C830.7 174.7 830.6 174.4 831.8 173.7C833 173 832.9 172.3 834.2 172.3C835.2 172.3 835.4 172.3 836.5 172.3C837.8 172.3 837.6 170.8 838.9 170.8C839.9 170.8 840 170.8 841.2 170.8C842.4 170.8 842.5 170.8 843.6 170.8C844.8 170.8 844.7 169.9 845.9 169.2C847 168.7 847 168.3 848.3 168.3C849.4 168.3 849.5 168.3 850.6 168.3C851.8 168.3 851.8 168.1 853 167.9C854.2 167.7 854.2 167.7 855.3 167.4C856.5 167 856.5 166.4 857.7 166.4C858.8 166.4 858.9 166.4 860 166.4C861.2 166.4 861.3 166.4 862.4 166.4C863.6 166.4 863.6 165.8 864.7 165.2C865.9 164.7 865.9 164.7 867.1 164C868.3 163.4 868.2 163.1 869.4 162.7C870.5 162.3 870.7 162.7 871.8 162.3C873.1 161.8 873 161.5 874.1 160.7C875.3 160 875.2 159.3 876.5 159.3C877.6 159.3 877.8 159.3 878.8 159.3C880.1 159.3 880 158.5 881.2 157.7C882.4 156.9 882.4 156.9 883.6 156.2C884.7 155.4 884.7 155.4 885.9 154.6C887.1 153.8 887.2 153.9 888.3 153C889.5 152.1 889.3 150.9 890.6 150.9C891.6 150.9 891.8 150.9 893 150.9C894.1 150.9 894.3 150.9 895.3 150.9C896.6 150.9 896.4 150 897.7 149.2C898.8 148.6 898.9 148.7 900 148.1C901.2 147.5 901.3 147.6 902.4 146.8C903.6 145.9 903.4 145.2 904.7 144.6C905.7 144.2 906 144.6 907.1 144.2C908.4 143.8 908.3 143.5 909.4 142.6C910.6 141.8 910.5 141.2 911.8 140.9C912.8 140.6 913.1 140.9 914.1 140.6C915.5 140.3 915.2 139.5 916.5 138.5C917.6 137.7 917.7 137.9 918.8 137C920.1 136 919.8 134.7 921.2 134.7C922.2 134.7 922.4 134.7 923.5 134.7C924.7 134.7 924.8 134.7 925.9 134.7C927.2 134.7 927.1 134 928.2 133.1C929.4 132.3 929.3 131.9 930.6 131.5C931.7 131.1 932.3 131.5 932.9 131.1C934.6 130.1 933.7 127.9 935.3 125.7C936 124.8 936.4 124.8 937.7 124.8C938.8 124.8 939 124.8 940 124.8C941.4 124.8 941.1 123.6 942.4 122.6C943.5 121.7 943.7 122 944.7 121C946.1 119.5 945.7 119.2 947.1 117.7C948.1 116.5 948.1 116.2 949.4 115.6C950.4 115.2 950.8 115.6 951.8 115.2C953.1 114.6 952.9 114 954.1 112.8C955.3 111.6 955.2 111.5 956.5 110.5C957.6 109.7 958.8 109.1 958.8 109.1" fill="none" stroke="#91cc75" stroke-width="2" stroke-linejoin="bevel"></path>
</g>
<path d="M-5 -5l135.8 0l0 23.2l-135.8 0Z" transform="translate(437.12 5)" fill="rgb(0,0,0)" fill-opacity="0" stroke="#ccc" stroke-width="0"></path>
<path d="M0 7L25 7" transform="translate(438.12 4.6)" fill="#000" stroke="#5470c6" stroke-width="2" stroke-linecap="butt" stroke-miterlimit="10"></path>
<path d="M18.1 7A5.6 5.6 0 1 1 18.1 6.4A5.6 5.6 0 0 1 18.1 7" transform="translate(438.12 4.6)" fill="#fff" stroke="#5470c6" stroke-width="2" stroke-linecap="butt" stroke-miterlimit="10"></path>
<text dominant-baseline="central" text-anchor="start" style="font-size:12px;font-family:sans-serif;" x="30" y="7" transform="translate(438.12 4.6)" fill="#333">2024</text>
<path d="M0 7L25 7" transform="translate(506 4.6)" fill="#000" stroke="#91cc75" stroke-width="2" stroke-linecap="butt" stroke-miterlimit="10"></path>
<path d="M18.1 7A5.6 5.6 0 1 1 18.1 6.4A5.6 5.6 0 0 1 18.1 7" transform="translate(506 4.6)" fill="#fff" stroke="#91cc75" stroke-width="2" stroke-linecap="butt" stroke-miterlimit="10"></path>
<text dominant-baseline="central" text-anchor="start" style="font-size:12px;font-family:sans-serif;" x="30" y="7" transform="translate(506 4.6)" fill="#333">2023</text>
<defs >
<clipPath id="zr4-c0">
<path d="M83 59l877 0l0 310l-877 0Z" fill="#000"></path>
</clipPath>
<clipPath id="zr4-c1">
<path d="M83 59l877 0l0 310l-877 0Z" fill="#000"></path>
</clipPath>
</defs>
</svg>