<svg width="1000" height="300" xmlns="http://www.w3.org/2000/svg" xmlns:xlink="http://www.w3.org/1999/xlink" version="1.1" baseProfile="full" viewBox="0 0 1000 300">
<rect width="1000" height="300" x="0" y="0" id="0" fill="#ffffff"></rect>
<polyline points="536.8 43.7 541.7 29.5 556.7 29.5" fill="none" stroke="#5470c6"></polyline>
<polyline points="601.7 102 615.3 95.6 630.3 95.6" fill="none" stroke="#91cc75"></polyline>
<polyline points="597.8 205.6 610.8 213.1 625.8 213.1" fill="none" stroke="#fac858"></polyline>
<polyline points="517.6 261.1 519.9 275.9 534.9 275.9" fill="none" stroke="#ee6666"></polyline>
<polyline points="426.4 235.1 416.6 246.4 401.6 246.4" fill="none" stroke="#73c0de"></polyline>
<polyline points="388.1 138.2 373.2 136.6 358.2 136.6" fill="none" stroke="#3ba272"></polyline>
<polyline points="447.4 50.5 440.4 37.3 425.4 37.3" fill="none" stroke="#fc8452"></polyline>
<path d="M500 37.5A112.5 112.5 0 0 1 569.6 61.6L500 150Z" fill="#5470c6" stroke="#fff" stroke-width="2" stroke-linejoin="round"></path>
<path d="M569.6 61.6A112.5 112.5 0 0 1 612.5 152.5L500 150Z" fill="#91cc75" stroke="#fff" stroke-width="2" stroke-linejoin="round"></path>
<path d="M612.5 152.5A112.5 112.5 0 0 1 559.6 245.4L500 150Z" fill="#fac858" stroke="#fff" stroke-width="2" stroke-linejoin="round"></path>
<path d="M559.6 245.4A112.5 112.5 0 0 1 472.8 259.2L500 150Z" fill="#ee6666" stroke="#fff" stroke-width="2" stroke-linejoin="round"></path>
<path d="M472.8 259.2A112.5 112.5 0 0 1 395.9 192.5L500 150Z" fill="#73c0de" stroke="#fff" stroke-width="2" stroke-linejoin="round"></path>
<path d="M395.9 192.5A112.5 112.5 0 0 1 407.1 86.6L500 150Z" fill="#3ba272" stroke="#fff" stroke-width="2" stroke-linejoin="round"></path>
<path d="M407.1 86.6A112.5 112.5 0 0 1 500 37.5L500 150Z" fill="#fc8452" stroke="#fff" stroke-width="2" stroke-linejoin="round"></path>
<path d="M0 -15l42.8 0l0 30l-42.8 0Z" transform="translate(561.7201 29.5189)" fill="none"></path>
<text dominant-baseline="central" text-anchor="start" style="font-size:12px;font-family:sans-serif;font-weight:bold;" y="-7.5" transform="translate(561.7201 29.5189)" fill="#333" stroke="rgb(255,255,255)" stroke-width="2" paint-order="stroke" stroke-miterlimit="2">Monday</text>
<text dominant-baseline="central" text-anchor="start" style="font-size:12px;font-family:sans-serif;" y="7.5" transform="translate(561.7201 29.5189)" fill="#333" stroke="rgb(255,255,255)" stroke-width="2" paint-order="stroke" stroke-miterlimit="2">10.61%</text>
<path d="M0 -15l46.2 0l0 30l-46.2 0Z" transform="translate(635.3033 95.5812)" fill="none"></path>
<text dominant-baseline="central" text-anchor="start" style="font-size:12px;font-family:sans-serif;font-weight:bold;" y="-7.5" transform="translate(635.3033 95.5812)" fill="#333" stroke="rgb(255,255,255)" stroke-width="2" paint-order="stroke" stroke-miterlimit="2">Tuesday</text>
<text dominant-baseline="central" text-anchor="start" style="font-size:12px;font-family:sans-serif;" y="7.5" transform="translate(635.3033 95.5812)" fill="#333" stroke="rgb(255,255,255)" stroke-width="2" paint-order="stroke" stroke-miterlimit="2">14.74%</text>
<path d="M0 -15l63.6 0l0 30l-63.6 0Z" transform="translate(630.8166 213.0549)" fill="none"></path>
<text dominant-baseline="central" text-anchor="start" style="font-size:12px;font-family:sans-serif;font-weight:bold;" y="-7.5" transform="translate(630.8166 213.0549)" fill="#333" stroke="rgb(255,255,255)" stroke-width="2" paint-order="stroke" stroke-miterlimit="2">Wednesday</text>
<text dominant-baseline="central" text-anchor="start" style="font-size:12px;font-family:sans-serif;" y="7.5" transform="translate(630.8166 213.0549)" fill="#333" stroke="rgb(255,255,255)" stroke-width="2" paint-order="stroke" stroke-miterlimit="2">15.77%</text>
<path d="M0 -15l50.2 0l0 30l-50.2 0Z" transform="translate(539.9474 275.93)" fill="none"></path>
<text dominant-baseline="central" text-anchor="start" style="font-size:12px;font-family:sans-serif;font-weight:bold;" y="-7.5" transform="translate(539.9474 275.93)" fill="#333" stroke="rgb(255,255,255)" stroke-width="2" paint-order="stroke" stroke-miterlimit="2">Thursday</text>
<text dominant-baseline="central" text-anchor="start" style="font-size:12px;font-family:sans-serif;" y="7.5" transform="translate(539.9474 275.93)" fill="#333" stroke="rgb(255,255,255)" stroke-width="2" paint-order="stroke" stroke-miterlimit="2">12.77%</text>
<path d="M-40.9 -15l40.9 0l0 30l-40.9 0Z" transform="translate(396.5507 246.3974)" fill="none"></path>
<text dominant-baseline="central" text-anchor="end" style="font-size:12px;font-family:sans-serif;font-weight:bold;" y="-7.5" transform="translate(396.5507 246.3974)" fill="#333" stroke="rgb(255,255,255)" stroke-width="2" paint-order="stroke" stroke-miterlimit="2">Friday</text>
<text dominant-baseline="central" text-anchor="end" style="font-size:12px;font-family:sans-serif;" y="7.5" transform="translate(396.5507 246.3974)" fill="#333" stroke="rgb(255,255,255)" stroke-width="2" paint-order="stroke" stroke-miterlimit="2">14.94%</text>
<path d="M-48.2 -15l48.2 0l0 30l-48.2 0Z" transform="translate(353.2077 136.585)" fill="none"></path>
<text dominant-baseline="central" text-anchor="end" style="font-size:12px;font-family:sans-serif;font-weight:bold;" y="-7.5" transform="translate(353.2077 136.585)" fill="#333" stroke="rgb(255,255,255)" stroke-width="2" paint-order="stroke" stroke-miterlimit="2">Saturday</text>
<text dominant-baseline="central" text-anchor="end" style="font-size:12px;font-family:sans-serif;" y="7.5" transform="translate(353.2077 136.585)" fill="#333" stroke="rgb(255,255,255)" stroke-width="2" paint-order="stroke" stroke-miterlimit="2">15.7%</text>
<path d="M-40.9 -15l40.9 0l0 30l-40.9 0Z" transform="translate(420.4397 37.2666)" fill="none"></path>
<text dominant-baseline="central" text-anchor="end" style="font-size:12px;font-family:sans-serif;font-weight:bold;" y="-7.5" transform="translate(420.4397 37.2666)" fill="#333" stroke="rgb(255,255,255)" stroke-width="2" paint-order="stroke" stroke-miterlimit="2">Sunday</text>
<text dominant-baseline="central" text-anchor="end" style="font-size:12px;font-family:sans-serif;" y="7.5" transform="translate(420.4397 37.2666)" fill="#333" stroke="rgb(255,255,255)" stroke-width="2" paint-order="stroke" stroke-miterlimit="2">15.47%</text>
</svg>